<svg xmlns="http://www.w3.org/2000/svg" width="933.333" height="933.333" version="1" viewBox="0 0 700 700">
<style>
  path {
    fill: #000;
  }

  @media (prefers-color-scheme: dark) {
    path {
      fill: #FFFFFF;
    } 
  }
</style>
<path d="M335.8.5c-.2.2-12 .6-26.3.9-39.8.9-59.5 2-74.5 4.1-1.9.2-5.5.7-8 1-47.2 6.1-94.5 26-130.7 55.1-7.5 5.9-30.3 29.1-36.6 37-27.5 34.9-46 79.5-53.1 127.9-1.3 9.1-1.8 13.9-3.1 29-1.3 15.4-2.9 71.2-2.8 96 .1 30 1.7 81.1 2.8 93.5.3 2.5.7 7.9 1.1 12 1.7 21.4 11.2 64 17.4 77.5.5 1.1 2.1 4.9 3.5 8.5 26.7 65.5 82.2 116.5 151.5 138.9 29.1 9.4 53.9 13.4 95.5 15.6 37.2 1.8 77.6 2.3 118.5 1.2 58.1-1.6 70.7-2.7 104-9.2 32-6.2 73.5-24.5 99.7-44 58.1-43.4 92.8-108.3 100.8-189 1.9-19 3.9-74.8 3.9-107-.1-31.6-2.3-93.2-3.8-104.6-.3-1.9-.8-6.1-1.1-9.4-.9-9.1-4.3-27.8-7.1-39C671.8 133.6 636.7 82.7 585 48c-8.9-6-19.1-11.8-27.5-15.7-2.7-1.3-5.7-2.8-6.6-3.2-9.9-5.5-44.8-16.8-60.4-19.6-12.7-2.2-20.9-3.5-26-4-3.3-.4-7.2-.9-8.6-1.1-2.5-.4-9.2-.8-28.9-1.9-17.6-.9-90.6-2.5-91.2-2zm-13.4 40.2c-1.2 21.6-2.2 57-2.9 103.8-.4 22-.8 40.1-.8 40.1-.1.1-13.5.5-29.7.9s-32 .8-35 1c-3 .1-13 .6-22.2.9-9.2.4-17.7.9-19 1.1-1.3.2-7.9.6-14.8 1-13.3.7-16.1.9-27.9 2-4.2.3-10.1.8-13.1 1.1-3 .2-7.1.6-9 .9-1.9.2-6.4.7-10 1-3.6.4-8.1.8-10 1.1-1.9.2-6 .7-9 1-3 .3-5.7.7-6 .9-.3.2-3.5.6-7 1-35.8 3.6-44.2 13-46.6 51.8-2 32.9-1 46.2 3.8 53.1 6.2 8.6 11.5 10.1 34.7 9.1 88.6-3.4 121.7-4 252.6-4 117.8 0 167.1.7 225 3.1 10.5.4 26 .8 34.6.8l15.6.1 4.8-3c5.5-3.4 8.9-8.9 10.5-17 1.6-8.5.2-46.7-2.4-61.3-3.5-19.9-13.4-28.6-36.1-31.6-2.2-.3-7.4-1.1-11.5-1.7-4.1-.6-9.1-1.2-11-1.4-1.9-.2-5.3-.6-7.5-.9-2.2-.3-6.9-.8-10.5-1.1-3.6-.3-8.1-.8-10-1-8.5-1.1-43.6-3.8-64.5-5-24.8-1.5-45.3-2.3-68.6-3-7.2-.2-13.2-.5-13.4-.7-.2-.2-.7-8.5-1-18.3-1.3-43.1-2.3-69.4-3-78-.3-3.3-.7-10.5-1-16-.6-10.8-1-17.1-2-28.1l-.6-7.1 10.3 1.4c13.1 1.6 16.1 2.1 22.3 3.3 2.8.5 6.4 1.2 8 1.5 1.7.2 9.5 2.2 17.5 4.4 43.9 12.1 82.7 32.3 112.9 59 7.9 7 21 20.2 25.7 26.1 1.6 1.9 3.5 4.2 4.3 5 .8.8 4.1 5 7.2 9.3 20.3 27.3 36.3 62.3 45.8 100.2 1.7 6.6 3.3 13.3 3.6 15 2 10.8 4.6 26.7 5.1 31 .3 2.7.7 6.4.9 8.2 2.5 18.2 2.5 70.2.1 91.8-.2 1.6-.6 5.9-1 9.5-4.1 37.7-16 79.1-31.5 109.8-7 14-10.4 20.2-11.1 20.2-.3 0-1.9-4.4-3.7-9.9-13-41.1-45.3-74.1-92.3-94.4-9.6-4.1-27.1-10.3-34.5-12.2-1.6-.5-3.4-1-4-1.1-6.6-2.1-33.4-7.8-41.5-8.8-2.5-.3-5.4-.8-6.5-1-6.5-1.3-26.6-3.4-41.5-4.3-23.2-1.6-89.9-.8-102.2 1.2-1.3.2-5.3.6-9 1-3.7.3-7.7.8-9 1-1.3.2-4.5.6-7.3 1-2.7.3-7.2 1-10 1.5-2.7.5-6.3 1.1-8 1.4-12 1.8-41 9.1-54 13.6-32.5 11.4-53.6 23.9-72.5 42.9-17.9 18-30.4 38.5-37.5 61.4l-2.8 8.9-3.9-6.9c-11.9-20.3-22.5-46.4-29.3-71.8-1.5-5.5-2.9-10.9-3.1-12-.2-1.1-.6-3.1-.9-4.5-.7-3.3-1.3-6.2-2.9-14.5-.3-1.9-1.5-9.6-2.1-14-.2-1.1-.6-4.5-.9-7.5-.4-3-.8-7.1-1.1-9-2.5-19.2-2.5-80.6 0-95.1.2-1.3.7-4.7 1-7.4.5-4.8.9-7.7 2-14 .3-1.7.8-4.6 1.1-6.5 1-6.5 5.4-25.4 7.5-32.5 1.1-3.9 2.7-9 3.4-11.5 1.9-6.5 7.1-20.5 10-26.7 1.3-2.9 2.2-5.3 2-5.3-.6 0 11.4-22.9 16.2-30.8 17.9-29.5 43.7-56.8 72.3-76.4 31.2-21.4 67.5-36.5 108.4-45.2 17.5-3.7 24-4.7 39.1-6.2 3.9-.3 7.1-.7 7.2-.8.1 0 3.5-.2 7.5-.4l7.4-.3-.2 4.8zM375 518.4c13.5.4 26.1.8 28 1.1 1.9.2 6.7.6 10.5 1 34.6 3.1 64 9.7 86.4 19.3 32.1 13.9 51.1 35.3 53.4 60.2l.5 4.6-9.6 6.4c-5.3 3.6-10 6.7-10.6 6.9-.6.2-2.2 1.2-3.6 2.1-4.4 3.1-28.4 14.8-38.6 18.8-19 7.5-45.2 15-62.3 17.8-1.8.3-4.2.7-5.1.9-1 .2-4 .6-6.7 1-2.6.4-5.9.9-7.3 1.1-1.4.2-5 .7-8 1-3 .3-6.6.7-7.9.9-14.6 2.4-74.2 2.4-89.5 0-1.1-.2-5.1-.6-8.8-1-7.5-.7-6.7-.6-23.3-3.5-21.9-3.8-38.7-8.5-66.5-18.5-9.5-3.4-37-17.9-48-25.3l-11.5-7.7.2-5.8c.3-7.3 4.3-19.3 8.8-26.2 7.4-11.6 22.1-23.5 38.6-31.3 11.9-5.5 36.2-13.2 49.4-15.6 1.7-.3 4.1-.8 5.5-1.1 5.2-1.2 27.8-4.4 35.5-5 4.4-.4 9.4-.9 11-1.1 1.7-.1 10.4-.6 19.5-.9 9.1-.4 16.6-.8 16.7-.9.2-.2 14.7.1 43.3.8z"/></svg>
