<svg version="1" xmlns="http://www.w3.org/2000/svg" width="933.333" height="933.333" viewBox="0 0 700.000000 700.000000"><path d="M327.8.5c-.2.1-4.2.5-8.9.9s-9.5.8-10.5 1c-1 .2-4.5.7-7.8 1.1-9.3 1.1-21.5 3.5-34.1 6.6-4.4 1.1-9 2.2-10.2 2.5-1.3.2-7.8 2.3-14.5 4.5-35.6 11.9-65.6 27-94.5 47.7C105.2 95 71.8 131.8 46 176.5c-4.7 8.3-17 32.7-17 34 0 .3-.9 2.4-2 4.8-5.7 12.3-15.7 43.5-18.6 58.2-.2 1.1-1 5.4-1.9 9.5-2.9 14.7-3.6 20-5.2 37-1.5 16.5-.8 59.2 1.2 71.1.2 1.3.6 4.6.9 7.4.9 7.8 2.2 15.2 5.1 28.5 6.9 32.4 25.5 78.4 41.8 103.8 2.6 4 4.7 7.6 4.7 8.1s.3 1.1.8 1.3c.4.2 3.3 4.1 6.4 8.8 16.9 25.3 43.3 53.5 70.8 75.5 9.2 7.4 37 26.5 38.6 26.5.4 0 1.5.6 2.3 1.4 3.1 2.7 31.2 16.5 45.1 22.1 26.8 10.8 54.9 18.3 82.6 22.1 2.2.3 5.3.7 6.9.9 17.8 2.6 69.5 2.6 83.3 0 1.6-.3 10.4-1.5 14.7-2 20-2.6 55.9-13.1 80.7-23.6 21-8.9 35.8-17 55.2-29.8 16.8-11.3 16-10.7 24.6-17.6 17.3-13.8 33.6-29.3 45.2-42.9 3.4-3.9 6.4-7.3 6.8-7.6 1.7-1.3 18.1-23.6 24.5-33.5 21.9-33.6 40.6-77.9 48.1-114 1.6-7.9 5.4-30.1 5.9-35 .4-3.3.9-7.1 1.1-8.5.9-4.7 1.1-52.5.4-60.5-1.6-16.7-2.2-22-2.5-22.5-.2-.3-.6-3-1-6-.9-7.5-6.9-33.7-9.8-43.5-20.4-67-58.4-124.6-111.7-169.4C532.3 46 477 19 424.2 7.9c-5.3-1.1-10.6-2.2-11.7-2.5-1.1-.2-3.8-.6-6-.9-2.2-.3-5.1-.7-6.5-1-1.3-.2-5.2-.7-8.6-1.1-3.3-.3-7.4-.8-9-1-3.2-.5-54-1.4-54.6-.9z"/></svg>