<svg width="480" height="480" viewBox="0 0 360 360" xmlns="http://www.w3.org/2000/svg"><defs><style>*{stroke-linejoin:round;stroke-linecap:butt}</style></defs><g stroke="#43A6C6" stroke-linecap="square"><path d="M207.58 317.59v-92.31"/><path d="M207.58 225.28l-38.314-39.13M207.58 225.28l36.564-40.478" stroke-width=".92"/><path d="M169.26 186.15l-45.264 3.099M169.26 186.15l-8.033-40.414M244.14 184.8l10.327-24.783M244.14 184.8l27.6-8.842" stroke-width=".846"/><path d="M124 189.25l-23.998 11.953M124 189.25l-25.931-7.995M161.23 145.74l-29.498-25.421M161.23 145.74l19.745-32.238M254.47 160.02l-2.269-17.418M254.47 160.02l12.202-13.63M271.74 175.96l10.717-12.56M271.74 175.96l16.078 6.342" stroke-width=".779"/><path d="M100 201.2l-5.975 11.967M100 201.2l-14.184-2.791M98.067 181.25l-13.757 8.06M98.067 181.25l-8.922-12.438M131.73 120.32l-26.815-9.984M131.73 120.32l-10.335-24.508M180.97 113.5l-10.82-24.415M180.97 113.5l27.923-7.337M252.2 142.6l-12.165-8.53M252.2 142.6l9.527-10.935M266.67 146.39l.853-12.406M266.67 146.39l12.118-5.86M282.46 163.4l3.476-8.805M282.46 163.4l8.572-5.223M287.82 182.3l13.503-2.713M287.82 182.3l8.026 10.19" stroke-width=".716"/><path d="M94.025 213.17l1.038 8.317M94.025 213.17l-8.928 2.2M85.816 198.41l-11.894 1.488M85.816 198.41l-5.013-9.869M84.31 189.32l-2.17 10.947M84.31 189.32l-12.086 2.04M89.145 168.82l-9.16-.697M89.145 168.82l2.282-8.055M104.92 110.33l-21.895 10.602M104.92 110.33l-6.435-21.698M121.4 95.807l-8.2-8.582M121.4 95.807l-.317-11.34M170.16 89.083l-17.86-5.107M170.16 89.083l7.131-15.668M208.9 106.16l13.305-9.836M208.9 106.16l17.154.91M240.03 134.07l-8.899-1.818M240.03 134.07l-1.461-8.146M261.72 131.66l-1.54-6.346M261.72 131.66l7.168-.403M267.52 133.98l-3.331-3.157M267.52 133.98l3.76-2.734M278.79 140.53l3.732-4.342M278.79 140.53l5.994-.919M285.93 154.6l-1.755-2.78M285.93 154.6l3.029-1.655M291.03 158.18l1.713-8.556M291.03 158.18l9.181 2.573M301.32 179.59l5.86-5.58M301.32 179.59l7.846 2.977M295.84 192.49l10.933 5.046M295.84 192.49l.404 11.096" stroke-width=".659"/><path d="M95.063 221.49l2.057 2.175M95.063 221.49l-2.13 2.117M85.097 215.37l-2.096 4.245M85.097 215.37l-4.514-2.222M73.922 199.9l-3.278 3.797M73.922 199.9l-5.162-1.182M80.803 188.54l-6.247-1.678M80.803 188.54l1.093-5.81M82.14 200.26l3.717 4.207M82.14 200.26l-3.197 4.544M72.224 191.36l-7.447 7.4M72.224 191.36l-10.586-2.905M79.985 168.12l-5.642 2.883M79.985 168.12l-5.068-3.653M91.427 160.76l-.451-3.386M91.427 160.76l2.983-2.088M83.02 120.93l-6.647 12.772M83.02 120.93l-15.603.254M98.48 88.633l-7.369-9.872M98.48 88.633l7.76-9.623M113.2 87.225l-6.321.02M113.2 87.225l.198-5.715M121.08 84.467l-7.038-4.484M121.08 84.467l4.239-6.778M152.29 83.976l-8.364 2.734M152.29 83.976l-6.018-5.924M177.29 73.415l-1.963-14.343M177.29 73.415l15.207-4.434M222.2 96.324l4.562-9.168M222.2 96.324L233 93.95M226.05 107.07l12.804-7.908M226.05 107.07l12.79 7.927M231.13 132.25l-3.605 2.757M231.13 132.25l-3.667-2.69M238.57 125.92l-4.945-5.036M238.57 125.92l1.178-6.65M260.18 125.32l-2.245-2.948M260.18 125.32l.897-3.487M268.89 131.26l4.07-2.622M268.89 131.26l4.092 2.593M264.19 130.83l-2.48-.02M264.19 130.83l-.335-2.224M271.28 131.25l.233-3.325M271.28 131.25l3.677-.182M282.52 136.19l.975-3.894M282.52 136.19l4.016-1.657M284.78 139.61l3.096-1.643M284.78 139.61l3.026 1.746M284.18 151.81l-1.28-.975M284.18 151.81l.437-1.462M288.962 152.94l.509-.953M288.962 152.94l1.138.243M292.74 149.62l-1.965-2.05M292.74 149.62l2.364-1.67M300.21 160.75l7.222-4.101M300.21 160.75l3.717 6.942M307.18 174.01l1.02-6.15M307.18 174.01l6.527-1.956M309.17 182.57l7.338.414M309.17 182.57l4.678 5.13M306.78 197.54l9.026-.688M306.78 197.54l5.403 6.576M296.25 203.59l2.23 5.258M296.25 203.59l-3.976 4.334" stroke-width=".606"/><path d="M97.12 223.661l1.753.226M97.12 223.66l-.051 1.601M92.933 223.6l.135 1.114M92.933 223.6l-1.179.346M83.001 219.61l-.31 2.885M83.001 219.61l-2.422 1.897M80.583 213.15l-2.58.342M80.583 213.15l-1.263-2.063M70.644 203.7l.21 2.828M70.644 203.7l-2.753 1.355M68.76 198.72l-3.718 1.476M68.76 198.72l-1.542-3.397M74.556 186.86l-3.757 1.829M74.556 186.86l-1.932-3.442M81.896 182.73l-3.225-3.566M81.896 182.73l3.071-3.675M85.857 204.47l3.758.445M85.857 204.47l.205 3.423M78.943 204.81l.711 1.659M78.943 204.81l-1.937.312M64.777 198.76l-1.84 5.695M64.777 198.76l-6.554.25M61.638 188.45l-4.813.168M61.638 188.45l-2.394-3.78M74.343 171l-1.288 4.013M74.343 171l-4.41-1.246M74.917 164.47l-4.694.284M74.917 164.47l-2.305-3.71M90.976 157.37l-.755-1.057M90.976 157.374l.975-.896M94.41 158.67l.536-2.19M94.41 158.672l2.462.264M76.373 133.7l1.106 8.59M76.373 133.7l-8.576 3.823M67.417 121.19l-5.91 6.951M67.417 121.19l-7.749-5.27M91.111 78.761l-7.653-2.256M91.111 78.761l-.705-7.253M106.24 79.01l2.523-7.634M106.24 79.01l8.183-2.946M106.88 87.244l-4.638 3.203M106.88 87.244l-5.548-1.635M113.39 81.51l-1.183-2.766M113.39 81.51l2.663-1.73M114.04 79.983l-4.678 1.438M114.04 79.983l-1.908-4.124M125.32 77.69l-1.084-3.326M125.32 77.69l3.59-1.214M143.93 86.71l-5.127 4.478M143.93 86.71l-7.113-.396M146.28 78.052l-7.303-1.961M146.28 78.052l.022-6.89M175.32 59.072l-8.777-7.163M175.32 59.072l2.777-10.394M192.49 68.981l5.593-4.704M192.49 68.981l7.509 1.263M226.76 87.156l.072-4.119M226.76 87.156l3.232-2.902M233 93.95l2.235-2.427M233 93.95l2.977 1.651M238.86 99.162l5.232-10.939M238.855 99.162l13.135.938M238.84 115l10.441-3.253M238.84 115l1.545 9.891M227.53 135.01l.038 1.79M227.53 135.01l-1.867.595M227.47 129.56l-3.187-.714M227.47 129.56l-.224-2.963M233.63 120.89l-2.897.1M233.63 120.89l-.515-2.58M239.75 119.27l-2.673-4.384M239.75 119.27l4.548-2.855M257.94 122.37l-2.582-1.121M257.94 122.37l-.803-2.487M261.08 121.83l-1.679-2.488M261.08 121.83l2.92-1.234M272.96 128.64l.724-1.515M272.96 128.64l1.782-.357M272.98 133.86l3.206-.972M272.98 133.86l.543 3.018M261.71 130.8l-1.283 1.51M261.71 130.8l-1.282-1.511M263.86 128.6l-.876-.506M263.86 128.6l.398-.87M271.52 127.92l-1.233-2.159M271.52 127.92l2.08-1.538M274.96 131.07l1.206-.744M274.96 131.068l1.172.786M283.49 132.29l-.607-1.496M283.49 132.29l1.593-.678M286.54 134.53l2.551-2.488M286.535 134.53l3.639.828M287.88 137.97l.593-2.35M287.88 137.97l2.646-.286M287.81 141.36l2.922-.087M287.81 141.36l.913 2.512M282.9 150.84l-1.196.047M282.9 150.84l-.054-1.082M284.62 150.35l-.797-.925M284.62 150.35l.758-.951M289.47 151.987l.067-.503M289.47 151.987l.409-.348M290.1 153.183l.37-.186M290.1 153.183l.347.22M290.78 147.57l-2.719-.03M290.78 147.57l.029-2.459M295.11 147.95l.605-.92M295.11 147.95l1.143.275M307.43 156.65l.856-2.39M307.43 156.65l2.758.293M303.93 167.69l3.936 3.116M303.93 167.69l-1.738 4.463M308.2 167.86l-2.027-5.115M308.2 167.86l5.139-2.815M313.71 172.05l2.094-2.715M313.71 172.05l3.41 1.202M316.5 182.98l5.556-1.693M316.5 182.98l5.43 2M313.84 187.7l3.333 1.442M313.84 187.7l.158 3.339M315.8 196.85l3.936-3.577M315.8 196.85l4.473 3.018M312.18 204.114l4.963.813M312.18 204.11l.67 4.522M298.48 208.85l2.51.677M298.48 208.85l-1.392 2.006M292.27 207.92l.394 3.365M292.27 207.92l-3.734-.194" stroke-width=".558"/><path d="M98.873 223.89l1.363-.545M98.873 223.887l1.17.836M97.069 225.262l.343.49M97.069 225.262l-.505.359M93.068 224.717l.888.629M93.068 224.717l-.246.995M91.754 223.949l-.303.686M91.754 223.95l-.726-.338M82.691 222.5l.422 1.059M82.691 222.5l-.793.867M80.579 221.51l-.962 1.61M80.579 221.51l-2.02.074M78.003 213.49l-1.597 1.372M78.003 213.49l-1.763-1.195M79.32 211.08l-.83-.228M79.32 211.084l.203-.763M70.854 206.52l.971 1.039M70.854 206.52l-.862 1.114M67.891 205.05l-.776 1.184M67.891 205.05l-1.433-.462M65.042 200.19l-2.237 2.507M65.042 200.19l-3.546-.297M67.218 195.32l-1.307-.42M67.218 195.32l.028-1.254M70.799 188.69l-1.685 2.425M70.799 188.69l-3.142-.354M72.624 183.42l-2.702-.906M72.624 183.42l-.022-2.606M78.671 179.16l-2.058-.974M78.671 179.16l.325-2.08M84.967 179.06l.258-1.64M84.967 179.06l1.784-.373M89.615 204.92l1.418-.467M89.615 204.92l.926 1.078M86.062 207.89l.814 1.269M86.062 207.89l-.723 1.314M79.654 206.465l.965.804M79.654 206.46l-.226 1.169M77.006 205.12l-.714 1.282M77.006 205.12l-1.344-.764M62.936 204.45l2.52 3.222M62.936 204.45l-4.083 1.388M58.223 199.01l-1.687 1.283M58.223 199.01l-1.394-1.544M56.825 188.62l-3.82 1.756M56.825 188.62l-3.355-2.41M59.244 184.67l-1.275-.854M59.244 184.67l.048-1.434M73.055 175.02l2.345 2.891M73.055 175.02l-2.26 2.946M69.933 169.76l-3.476.052M69.933 169.76l-1.496-2.838M70.223 164.75l-2.27 1.35M70.223 164.75l-2.464-1.034M72.612 160.76l-1.88-.641M72.612 160.76l.264-1.801M90.221 156.32l-.67-.378M90.221 156.317l.097-.71M91.951 156.478l.326-.672M91.951 156.478l.739-.304M94.946 156.48l-.718-1.727M94.946 156.48l1.088-1.56M96.872 158.936l.87-.63M96.872 158.936l.686.793M77.479 142.3l3.752 4.816M77.479 142.3l-3.27 5.095M67.797 137.53l-1.37 6.673M67.797 137.53l-7.094-2.213M61.507 128.14l-.885 5.44M61.507 128.14l-5.356 2.6M59.668 115.92l-4.164-.587M59.668 115.92l-1.087-3.683M83.458 76.505l-5.257.812M83.458 76.505l-3.67-3.501M90.406 71.508l-2.79-4.333M90.406 71.508l4.04-3.433M108.76 71.376l-1.18-2.604M108.76 71.376l2.838-1.155M114.42 76.064l3.792-4.895M114.42 76.064l5.612 3.154M102.24 90.447l.098 4.16M102.24 90.447l-4.598.09M101.33 85.609l-3.109 1.425M101.33 85.609l-1.5-2.847M112.21 78.744l-1.04-.598M112.21 78.744l-.018-1.115M116.06 79.78l1.228-1.692M116.06 79.78l2.179-.461M109.36 81.421l-1.368 1.59M109.36 81.421l-1.864-1.105M112.13 75.86l-3.183-1.443M112.13 75.86l.513-3.188M124.23 74.364l-1.589-1.855M124.23 74.364l.824-2.225M128.91 76.476l2.238-1.706M128.907 76.476l2.72.977M138.8 91.188l-.452 4.404M138.8 91.188l-4.89.022M136.82 86.314l-5.055 2.54M136.82 86.314l-3.674-4.04M138.97 76.09l-3.082.519M138.97 76.09l-2.35-1.875M146.3 71.161l-1.38-2.598M146.3 71.161l2.498-1.79M166.55 51.91l-5.314-1.308M166.55 51.91l-1.059-4.889M178.1 48.678l-3.461-8.08M178.1 48.678l8.362-4.227M198.09 64.277l.022-3.768M198.09 64.277l3.786-1.571M200 70.244l2.054-1.33M200 70.244l1.556 1.801M226.84 83.037l-1.474-1.778M226.84 83.037l1.4-1.827M230 84.254l1.732-3.197M230 84.254l3.915.367M235.24 91.523l-.628-2.542M235.24 91.523l2.716-.866M235.98 95.601l2.084-.397M235.98 95.601l1.265 1.55M244.09 88.223l-3.344-9.71M244.09 88.223l9.921-4.785M251.99 100.1l8.228-4.832M251.99 100.1l5.846 7.126M249.28 111.74l2.796-5.897M249.28 111.74l7.02.923M240.38 124.89l1.748 2.864M240.38 124.89l-2.363 2.477M227.57 136.8l.958 1.07M227.57 136.8l-.487 1.305M225.66 135.6l-.895.913M225.66 135.6l-1.334-.183M224.28 128.85l-1.873.351M224.28 128.85l-.945-1.505M227.24 126.6l-1.215-1.691M227.24 126.6l1.398-1.572M230.73 120.99l-1.43.568M230.73 120.99l-1.035-1.057M233.11 118.31l-1.408-1.688M233.11 118.31l1.443-1.664M237.08 114.89l-4.55-.68M237.08 114.89l.805-4.108M244.3 116.42l2.633-3.926M244.3 116.42l4.876-1.278M255.36 121.25l-1.51.313M255.36 121.25l-.615-1.287M257.14 119.88l-1.24-.423M257.14 119.88l.08-1.197M259.4 119.34l-2.347-1.107M259.4 119.34l.412-2.365M264 120.6l.617-1.374M264 120.6l1.55.483M273.69 127.12l-.355-.748M273.69 127.12l.696-.516M274.74 128.28l.604-1.007M274.74 128.28l1.254.16M276.19 132.88l1.508-1.7M276.19 132.88l2.41-.003M273.53 136.87l2.603 1.24M273.53 136.87l-.515 2.62M260.43 132.32l.056 1.145M260.43 132.32l-1.143.496M260.43 129.29l-1.674-.079M260.43 129.29l-.533-1.438M262.98 128.1l-.588.049M262.98 128.1l-.13-.52M264.25 127.73l-.183-.348M264.25 127.73l.323-.252M270.28 125.77l-1.627-1.023M270.28 125.77l.857-1.616M273.6 126.39l.549-1.35M273.6 126.39l1.516-.434M276.17 130.32l.422-.645M276.17 130.32l.829.007M276.132 131.854l.59.127M276.132 131.854l.167.528M282.89 130.8l-.995-.401M282.89 130.8l.228-.964M285.09 131.62l.509-.586M285.09 131.62l.818-.081M289.09 132.04l.248-2.175M289.09 132.04l2.358-.483M290.17 135.36l1.215-.332M290.174 135.358l.817.879M288.47 135.62l-1.372-1.582M288.47 135.62l1.5-1.482M290.52 137.68l.759-1.186M290.52 137.68l1.048.99M290.73 141.27l1.352-1.132M290.73 141.27l1.217 1.25M288.72 143.87l1.264.834M288.72 143.87l-.84 1.195M281.7 150.89l-.643.739M281.7 150.89l-.778-.625M282.84 149.76l-.452-.546M282.84 149.76l.313-.62M283.82 149.43l-.551-.131M283.82 149.43l.07-.512M285.37 149.4l-.077-.594M285.373 149.4l.54-.348M289.54 151.48l-.132-.4M289.54 151.48l.373-.248M289.879 151.64l.013-.216M289.879 151.64l.226-.07M290.47 153l.023-.135M290.47 153l.15-.02M290.45 153.4l.2-.007M290.45 153.4l.116.148M288.06 147.54l-1.672.798M288.06 147.54l-1.78-.578M290.81 145.11l-.812-1.425M290.81 145.11l.673-1.483M295.71 147.03l-.39-.876M295.71 147.032l.95-.394M296.25 148.23l.495-.27M296.249 148.226l.343.422M308.29 154.26l-.494-2.084M308.29 154.26l1.678-1.496M310.19 156.942l.971-.303M310.19 156.942l.576.77M307.86 170.81l3.731 1.291M307.86 170.81l1.65 3.29M302.19 172.16l2.354 3.298M302.19 172.16l-3.608 2.182M306.17 162.74l-1.41-1.187M306.17 162.74l1.014-1.482M313.34 165.04l2.163-4.237M313.34 165.04l4.982 1.215M315.8 169.34l-.485-1.309M315.8 169.34l1.254-.788M317.12 173.26l1.55-.368M317.12 173.26l1.19.971M322.06 181.29l2.194-3.451M322.06 181.287l4.379.397M321.935 184.98l2.555.025M321.94 184.98l.792 2.197M317.18 189.14l1.61-.284M317.18 189.14l.565 1.392M314 191.04l.877 1.472M314 191.04l-1.324 1.166M319.74 193.27l1.477-2.981M319.74 193.27l3.427-1.03M320.28 199.87l4.255.041M320.28 199.87l1.011 3.74M317.14 204.93l1.754-.5M317.14 204.93l1.278 1.197M312.85 208.636l1.916.987M312.85 208.64l-1.562 1.406M300.99 209.52l.963-.476M300.988 209.523l.734.74M297.09 210.85l.632 1.618M297.09 210.85l-1.724.716M292.67 211.29l1.13 1.7M292.67 211.29l-1.043 1.745M288.54 207.73l-1.886.848M288.54 207.73l-1.84-.927" stroke-width=".513"/><path d="M100.24 223.34l.335-.918M100.24 223.34l1.068-.039M100.04 224.72l1.352-.054M100.04 224.72l.035 1.224M97.412 225.753l.395.26M97.412 225.753l.096.432M96.564 225.62l-.108.412M96.564 225.62l-.453.106M93.956 225.346l.502.06M93.956 225.346l.203.42M92.822 225.712l.32.647M92.822 225.712l-.712.295M91.45 224.635l-.03.438M91.45 224.635l-.451.16M91.028 223.61l-.395-.002M91.028 223.61l-.242-.283M83.113 223.558l.456.155M83.113 223.558l-.145.42M81.898 223.366l.156.614M81.898 223.366l-.693.069M79.617 223.12l.221.607M79.617 223.12l-.695.114M78.558 221.58l-1.343.955M78.558 221.58l-1.589-.569M76.406 214.86l-.553 1.2M76.406 214.86l-1.401.288M76.24 212.3l-1.688-.423M76.24 212.3l-.149-1.58M78.49 210.856l-.6.086M78.49 210.86l-.43-.389M79.523 210.32l-.37-.395M79.523 210.321l.349-.411M71.825 207.562l.906.3M71.825 207.562l-.063.87M69.992 207.637l.145.848M69.992 207.637l-.938.126M67.115 206.23l-.23 1.101M67.115 206.23l-1.233.11M66.458 204.588l-.713.102M66.458 204.59l-.459-.505M62.805 202.7l-.277 1.054M62.805 202.7l-1.197.065M61.496 199.9l-1.662 1.203M61.496 199.9l-1.806-1.02M65.911 194.9l-.89.367M65.911 194.9l-.526-.746M67.246 194.06l-.394-.572M67.246 194.065l.258-.633M69.114 191.12l.007 1.085M69.114 191.12l-1.023.568M67.657 188.34l-2.24 1.45M67.657 188.34l-2.053-1.661M69.922 182.51l-1.82 1.062M69.922 182.51l-1.236-1.61M72.602 180.81l-1.906-1.637M72.602 180.81l2.088-1.444M76.613 178.19l-2.056-.296M76.613 178.19l-1.115-1.59M78.996 177.08l-.443-.932M78.996 177.083l.747-.757M85.225 177.42l-.28-.62M85.225 177.415l.341-.595M86.751 178.682l.585-.465M86.751 178.682l.768.117M91.033 204.45l.74-1.048M91.033 204.448l1.342.268M90.541 205.993l1.026.137M90.541 205.993l.3.897M86.876 209.162l.971.715M86.876 209.16l-.41 1.07M85.34 209.207l.056.526M85.34 209.207l-.48.302M80.619 207.269l1.021.186M80.619 207.269l.506.824M79.428 207.634l.191.634M79.428 207.634l-.347.578M76.292 206.4l.42 1.087M76.292 206.4l-.94.776M75.662 204.35l-1.374.232M75.662 204.35l-.566-1.156M65.455 207.672l1.494.702M65.455 207.67l.436 1.47M58.853 205.84l-.54 1.458M58.853 205.84l-1.527-.675M56.536 200.29l-.392 1.056M56.536 200.29l-1.154.39M56.829 197.46l-1.906-.305M56.829 197.46l.016-1.751M53.006 190.37l-.464 1.192M53.006 190.37l-1.326-.397M53.47 186.21l-1.706.017M53.47 186.21l-.412-1.497M57.969 183.82l-1.047.223M57.969 183.82l-.263-.944M59.292 183.24l-.442-.687M59.292 183.236l.596-.584M75.4 177.91l2.55 1.354M75.4 177.91l-.257 2.664M70.794 177.96l.93 2.443M70.794 177.96l-2.652.958M66.457 169.81l-1.695.82M66.457 169.81l-1.196-1.362M68.437 166.92l-3.063-.65M68.437 166.92l.705-2.774M67.953 166.1l-1.021 1.887M67.953 166.1l-2.316.165M67.759 163.72l-1.4.21M67.759 163.72l-.74-1.095M70.733 160.115l-.665.307M70.733 160.12l-.504-.498M72.876 158.96l-.438-.935M72.876 158.955l.943-.551M89.55 155.94l-.662-.075M89.55 155.94l-.233-.566M90.318 155.61l-.181-.426M90.318 155.607l.363-.318M92.277 155.81l-.204-.653M92.277 155.806l.704-.233M92.69 156.174l.147-.357M92.69 156.174l.402.113M94.228 154.76l-1.377-.973M94.228 154.76l.11-1.577M96.034 154.92l-.098-.685M96.034 154.922l.723-.22M97.742 158.306l.218-.53M97.742 158.306l.59-.188M97.558 159.73l.573.292M97.558 159.73l.009.594M81.231 147.11l5.705 1.223M81.231 147.11l-.604 5.275M74.208 147.39l.087 3.595M74.208 147.39l-2.997 2.362M66.427 144.2l2.278 4.985M66.427 144.2l-3.774 4.176M60.703 135.32l-3.449 1.47M60.703 135.32l-2.974-2.158M60.622 133.58l2.075 4.464M60.622 133.58l-2.83 4.11M56.15 130.74l-1.139 4.138M56.15 130.74l-4.652.69M55.504 115.33l-3.23.978M55.504 115.33l-1.874-2.573M58.58 112.24l-3.29-1.694M58.58 112.24l1.26-3.23M78.2 77.317l-3.357 2.47M78.2 77.317l-4.138-1.144M79.788 73.004l-3.906-.949M79.788 73.004l.34-3.645M87.616 67.175l-2.182-.998M87.616 67.175l.274-2.198M94.446 68.075l2.356-4.114M94.446 68.075l4.82-1.565M107.58 68.772l-1.868-1.677M107.58 68.772l.214-2.372M111.6 70.22l1.802-1.81M111.6 70.22l2.638.492M118.22 71.17l.345-5.027M118.22 71.17l5.105-2.01M120.04 79.218l4.639-.061M120.04 79.218l1.024 4.093M102.34 94.607l3.315 2.145M102.34 94.607l-2.85 2.635M97.64 90.538l-2.804 2.773M97.64 90.538l-3.867-1.375M98.218 87.034l-1.566 1.53M98.218 87.034l-2.073-.91M99.827 82.762l-2.618-.876M99.827 82.762l.305-2.51M111.17 78.146l-.696.125M111.17 78.146l-.231-.608M112.19 77.629l-.38-.444M112.192 77.629l.453-.383M117.28 78.088l-.164-1.062M117.28 78.088l1.182-.08M118.24 79.319l1.16-1.332M118.236 79.319l1.769.559M107.99 83.012l-.347 1.236M107.99 83.012l-1.366.315M107.5 80.316l-1.476.01M107.5 80.316l-.614-1.215M108.95 74.417l-2.49.94M108.95 74.417l-1.841-1.783M112.64 72.672l-1.686-2.236M112.64 72.672l2.542-1.428M122.64 72.51l-1.112.021M122.64 72.51l-.224-.986M125.06 72.139l-.425-1.692M125.06 72.139l1.401-1.186M131.14 74.77l.207-2.21M131.14 74.77l2.324-.71M131.63 77.453l1.407-.701M131.63 77.453l1.03 1.117M138.35 95.592l.894 3.354M138.35 95.592l-1.596 3.133M133.91 91.21l-1.364.707M133.91 91.21l-1.475-.493M131.76 88.854l-1.04 2.634M131.76 88.854l-3.07-.333M133.14 82.274l-2.224-.278M133.14 82.274l.275-2.016M135.891 76.609l-.76.607M135.89 76.609l-.74-.628M136.62 74.215l-1.329.145M136.62 74.215l-.544-1.107M144.92 68.563l-1.554-.674M144.92 68.563l-.146-1.554M148.8 69.37l1.048-1.556M148.8 69.37l2.004-.18M161.23 50.602l-2.16.328M161.23 50.602l-.93-1.794M165.49 47.021l-2.29-1.425M165.49 47.021l.779-2.413M174.64 40.599l-5.74-5.23M174.64 40.599l-.326-7.363M186.46 44.45l.85-3.145M186.462 44.45l3.533.518M198.11 60.509l-1.232-2.858M198.11 60.509l1.514-2.745M201.87 62.706l.793-2.5M201.87 62.706l2.613 1.084M202.06 68.913l.654-1.304M202.06 68.913l1.527-.376M201.558 72.045l1.402.543M201.56 72.045l.39 1.334M225.36 81.259l-2.189-.553M225.36 81.259l-.12-2.053M228.24 81.21l.302-1.234M228.24 81.21l1.253-.56M231.73 81.057l-.495-1.464M231.73 81.057l1.588-.528M233.91 84.621l2.459-.557M233.91 84.621l1.291 1.974M234.61 88.98l-1.796-.913M234.61 88.98l1.121-1.563M237.954 90.657l.91-.854M237.954 90.657l1.284.243M238.06 95.204l1.19-.651M238.064 95.204l1.38.156M237.245 97.151l.887.068M237.245 97.151l-.21.784M240.74 78.512l-8.399-3.836M240.74 78.512l.129-8.51M254.01 83.438l3.116-7.628M254.01 83.438l8.888-1.222M260.22 95.268l2.176-5.173M260.218 95.268l6.116.149M257.84 107.23l3.607.952M257.84 107.23l-1.12 3.244M252.08 105.85l-1.116-3.696M252.08 105.85l3.26-2.444M256.3 112.67l3.393-1.453M256.3 112.67l3.325 1.576M242.13 127.75l2.512.617M242.13 127.75l-.923 2.201M238.02 127.36l-.035 2.121M238.02 127.36l-2.117.914M228.526 137.87l.671.152M228.526 137.87l-.08.621M227.08 138.1l.358.478M227.08 138.1l-.466.395M224.77 136.52l-.177.387M224.77 136.52l-.463.017M224.33 135.421l-.8.685M224.33 135.42l-.787-.696M222.407 129.2l-.413.51M222.41 129.2l-.527-.418M223.34 127.34l-.639-.28M223.34 127.34l.114-.634M226.03 124.91l-1.422-.684M226.03 124.91l.176-1.449M228.64 125.03l.002-1.366M228.64 125.03l1.341-.628M229.3 121.555l-.427.792M229.3 121.56l-.97-.077M229.7 119.93l-1.264-.137M229.7 119.93l.137-1.144M231.7 116.62l-1.124-.287M231.7 116.62l.02-1.057M234.56 116.64l.037-1.181M234.56 116.64l1.185-.496M232.53 114.21l-2.901.51M232.53 114.21l-1.989-1.978M237.88 110.78l-.447-1.637M237.88 110.78l1.549-.938M246.93 112.49l-.912-2.364M246.93 112.49l2.71-.512M249.17 115.14l1.355-1.89M249.17 115.14l2.099 1.212M253.85 121.56l-1.086.787M253.85 121.56l-1.113-.755M254.74 119.96l-1.071-.704M254.74 119.96l.218-1.181M255.9 119.46l-.447.06M255.9 119.46l-.18-.375M257.22 118.69l-.338-.553M257.22 118.69l.488-.452M257.06 118.24l-1.344.542M257.06 118.24l-.835-1.097M259.82 116.98l-1.5-1.555M259.82 116.98l1.702-1.375M264.62 119.22l-.263-1.11M264.62 119.22l1.127-.5M265.55 121.08l.699-.349M265.552 121.081l.478.58M273.33 126.38l-.25-.142M273.33 126.38l-.026-.266M274.38 126.61l-.004-.402M274.383 126.609l.438.068M275.35 127.28l-.2-.79M275.35 127.276l.7-.504M276 128.443l.813-.406M276 128.443l.519.697M277.7 131.18l.483-1.361M277.7 131.18l1.525-.376M278.6 132.88l.93-.925M278.6 132.88l1.017.846M276.13 138.11l1.637-.159M276.13 138.11l.644 1.37M273.01 139.49l1.798 1.74M273.01 139.49l-1.634 1.868M260.483 133.46l.593.785M260.483 133.46l-.455.857M259.28 132.81l-.138.584M259.28 132.81l-.59-.268M258.75 129.22l-.536.205M258.75 129.22l-.531-.216M259.9 127.86l-.879-.504M259.9 127.86l.118-.935M262.39 128.14l-.235.207M262.39 128.14l-.276-.16M262.85 127.58l-.135-.18M262.85 127.576l.033-.215M264.07 127.38l-.313-.104M264.07 127.38l-.018-.3M264.58 127.48l-.012-.145M264.58 127.48l.16-.014M268.66 124.74l-.622.137M268.66 124.74l-.208-.548M271.14 124.15l-.694-1.275M271.14 124.15l1.148-.971M274.14 125.04l-.398-.974M274.14 125.04l.718-.81M275.11 125.95l.559-.76M275.11 125.95l1.003.099M276.59 129.68l-.061-.544M276.59 129.68l.562-.202M277 130.33l.598-.405M277 130.33l.454.538M276.72 131.98l.232-.04M276.722 131.981l.156.161M276.3 132.38l.33.207M276.3 132.38l-.232.298M281.89 130.4l-.529.202M281.89 130.4l-.207-.485M283.12 129.83l-.172-.557M283.12 129.83l.564-.272M285.6 131.03l.123-.357M285.6 131.03l.355-.191M285.9 131.54l.218-.219M285.9 131.54l.235.204M289.33 129.87l-1.234-1.175M289.33 129.87l.96-1.368M291.44 131.56l1.43-.825M291.444 131.56l1.594.52M291.39 135.03l.387-.312M291.389 135.026l.517.028M290.991 136.237l.605.265M290.99 136.24l-.145.593M287.1 134.04l-.804-.302M287.1 134.04l.207-.765M289.97 134.14l.304-1.083M289.97 134.14l1.235.006M291.28 136.5l-.461-1.102M291.28 136.5l1.28-.22M291.57 138.672l.657.13M291.57 138.672l-.068.605M292.08 140.138l.008-.547M292.08 140.138l.6.061M291.945 142.52l.827-.058M291.945 142.52l-.115.743M289.98 144.7l.737.046M289.98 144.7l.015.668M287.88 145.065l-.262.954M287.88 145.065l-.941.49M281.058 151.626l.11.386M281.06 151.63l-.415.132M280.92 150.26l-.321-.027M280.92 150.26l-.021-.291M282.39 149.21l-.497-.25M282.39 149.21l.054-.513M283.16 149.14l-.056-.482M283.16 149.14l.408-.315M283.27 149.3l-.348.07M283.27 149.3l-.292-.185M283.89 148.92l-.326-.374M283.89 148.92l.355-.352M285.3 148.81l-.117-.16M285.3 148.81l.09-.174M285.91 149.05l.185-.31M285.912 149.052l.382.074M289.4 151.08l-.3-.23M289.4 151.08l.206-.304M289.91 151.236l.018-.189M289.91 151.236l.206-.035M289.89 151.42l-.126-.134M289.89 151.42l.087-.157M290.1 151.57l.068-.133M290.105 151.57l.153.046M290.49 152.86l-.029-.05M290.49 152.86l.03-.05M290.62 152.976l.047-.044M290.62 152.976l.067.012M290.65 153.4l.058-.03M290.65 153.4l.06.029M290.563 153.551l.152.026M290.56 153.55l-.016.14M286.39 148.34l-.771.883M286.39 148.34l-1.234.142M286.28 146.96l-1.619.198M286.28 146.96l-.535-1.396M289.99 143.69l-.938-.413M289.99 143.69l.07-.941M291.48 143.63l-.374-.896M291.48 143.63l1.02-.258M295.32 146.16l-.61-.425M295.32 146.156l.396-.597M296.66 146.638l.16-.388M296.66 146.638l.447.084M296.74 147.96l.153-.222M296.74 147.96h.29M296.592 148.648l.476.137M296.59 148.65l-.056.45M307.79 152.18l-.619-.63M307.79 152.18l.588-.652M309.97 152.76l-.209-1.947M309.97 152.76l1.966-.818M311.16 156.64l.231-.301M311.161 156.639l.397.075M310.766 157.712l.399.26M310.77 157.71l-.144.426M311.59 172.1l1.722-.511M311.59 172.1l.672 1.521M309.51 174.1l2.323.807M309.51 174.1l.044 2.25M304.54 175.45l2.02.21M304.54 175.45l-.2 1.831M298.58 174.34l-.123 2.759M298.58 174.34l-3.031.322M304.76 161.56l-.728-.088M304.76 161.56l-.124-.655M307.19 161.26l.12-1.403M307.19 161.26l1.391-.63M315.5 160.81l-.097-1.838M315.5 160.81l1.76-.922M318.32 166.26l3.13-1.873M318.32 166.26l2.392 2.615M315.32 168.03l-.745-.385M315.315 168.03l.384-.694M317.05 168.55l.22-1.11M317.054 168.55l1.247.027M318.67 172.89l.294-.451M318.667 172.887l.469.308M318.307 174.226l.507.18M318.307 174.226l.124.48M324.25 177.84l-.346-3.547M324.25 177.84l3.848-.751M326.44 181.68l3.646-1.191M326.44 181.68l2.795 2.43M324.49 185l.924-.332M324.49 185l.865.444M322.73 187.18l.997 1.054M322.73 187.18l-.216 1.373M318.79 188.86l.813-.595M318.788 188.856l.923.444M317.74 190.53l1.09.74M317.74 190.53l-.202 1.218M314.88 192.508l.739.286M314.88 192.508l.01.727M312.68 192.2l-.054 1.116M312.68 192.2l-1.173.35M321.22 190.29l-.11-2.795M321.22 190.29l2.171-1.99M323.17 192.24l.498-1.215M323.17 192.24l1.185.727M324.53 199.91l2.536-.785M324.53 199.91l1.796 1.8M321.29 203.61l1.916 2.03M321.29 203.61l-1.862 2.07M318.9 204.43l.387-.499M318.9 204.43l.616.246M318.421 206.124l.613.018M318.42 206.12l-.063.552M314.77 209.62l.834-.085M314.766 209.623l.454.639M311.29 210.04l-.703 1.523M311.29 210.04l-1.807-.228M301.95 209.05l.28-.32M301.95 209.05l.449-.036M301.722 210.262l.544.203M301.722 210.262l.11.523M297.718 212.47l1.196.43M297.72 212.47l-.417 1.1M295.36 211.57l-.888 1.137M295.36 211.57l-1.537-.07M293.8 212.99l1.675.567M293.8 212.99l-.457 1.564M291.62 213.03l.3 1.196M291.62 213.03l-1.153.645M286.65 208.58l-.479.726M286.65 208.58l-.84-.37M286.7 206.8l-1.771-.077M286.7 206.8l-.232-1.59" stroke-width=".472"/><path d="M100.57 222.42l-.015-.783M100.57 222.42l.814-.266M101.3 223.3l.345-.174M101.3 223.3l.31.22M101.39 224.67l.454-.19M101.394 224.669l.478.134M100.077 225.947l.536.978M100.08 225.95l-.73.87M97.807 226.013l.439.09M97.807 226.013l.247.34M97.508 226.185l.315.192M97.508 226.185l-.185.3M96.456 226.032l.078.324M96.456 226.032l-.202.277M96.111 225.726l-.11.147M96.111 225.73l-.195-.012M94.458 225.406l.42-.177M94.458 225.406l.335.29M94.159 225.766l.383.188M94.159 225.766l-.106.382M93.143 226.359l.342.236M93.143 226.359l-.084.381M92.11 226.007l-.28.507M92.11 226.01l-.608-.137M91.42 225.073l.18.285M91.42 225.073l-.162.293M90.999 224.8l-.174.358M90.999 224.8l-.405-.136M90.633 223.61l-.271.093M90.633 223.61l-.25-.135M90.786 223.33l-.22-.09M90.786 223.328l.057-.212M83.57 223.713l.392-.019M83.57 223.713l.294.235M82.968 223.978l.17.217M82.968 223.978l-.244.147M82.054 223.98l.339.4M82.054 223.98l-.268.443M81.205 223.435l-.186.284M81.205 223.44l-.32-.16M79.838 223.727l.435.16M79.838 223.727l-.186.39M78.922 223.234l-.397.358M78.922 223.23l-.457-.295M77.215 222.54l-.46.631M77.215 222.54l-.798.225M76.97 221.02l-1.496.364M76.97 221.02l-1.057-1.023M75.853 216.062l.028.733M75.853 216.062l-.746.285M75.005 215.15l-.379.31M75.005 215.15l-.476-.168M74.552 211.87l-1.02.234M74.552 211.87l-.797-.622M76.091 210.72l-.654-.714M76.091 210.716l.297-.888M77.89 210.942l-.162.16M77.89 210.94l-.176-.147M78.06 210.47l-.309-.083M78.06 210.47l-.006-.292M79.152 209.926l-.53.033M79.152 209.926l.113-.47M79.872 209.91l-.039-.364M79.872 209.91l.378-.126M72.731 207.862l.355-.076M72.731 207.862l.268.223M71.762 208.432l.458.382M71.762 208.432l-.327.48M70.137 208.485l.526.395M70.137 208.485l-.234.58M69.054 207.763l-.266.159M69.054 207.76l-.235-.195M66.885 207.335l.186.58M66.885 207.335l-.362.507M65.882 206.344l-.576.312M65.882 206.34l-.64-.184M65.745 204.69l-.252.335M65.745 204.69l-.361-.24M66 204.08l-.563-.112M66 204.083l.11-.511M62.528 203.754l.212.327M62.528 203.754l-.226.319M61.608 202.765l-.652.784M61.608 202.76l-1.035-.295M59.834 201.1l-.735 1.461M59.834 201.1l-1.667.551M59.69 198.88l-1.704.502M59.69 198.88l-.156-1.616M65.021 195.266l-.305.554M65.021 195.27l-.618-.263M65.385 194.15l-.41-.062M65.385 194.15l-.08-.37M66.852 193.49l-.238-.083M66.852 193.493l.082-.22M67.504 193.43l-.069-.241M67.504 193.432l.178-.19M69.12 192.202l.613.758M69.12 192.2l-.678.71M68.091 191.685l-.658.8M68.091 191.68l-1.097.097M65.417 189.788l-.373.886M65.417 189.79l-1.014.242M65.604 186.68l-1.532.275M65.604 186.68l-.742-1.243M68.101 183.58l-.653 1.397M68.101 183.58l-1.669.14M68.686 180.9l-1.925-.311M68.686 180.9l.248-1.754M70.696 179.18l-1.56-.074M70.696 179.18l-.253-1.395M74.69 179.37l-.012-1.203M74.69 179.37l1.33.037M74.557 177.894l-.9.23M74.557 177.89l-.447-.744M75.498 176.6l-.79-.553M75.498 176.6l.163-.89M78.553 176.15l-.51-.424M78.553 176.15l.18-.605M79.743 176.326l.256-.77M79.743 176.326l.828-.293M84.945 176.8l-.64-.183M84.945 176.8l.145-.592M85.566 176.82l-.022-.41M85.566 176.82l.439-.102M87.336 178.217l.033-.358M87.336 178.217l.394.047M87.519 178.8l.36-.144M87.519 178.799l.254.271M91.773 203.4l.077-.757M91.773 203.4l.735-.368M92.375 204.72l1.062-.1M92.375 204.716l.483.86M91.567 206.13l.8-.345M91.567 206.13l.605.586M90.841 206.89l.284.363M90.841 206.89l-.079.439M87.847 209.877l.795.184M87.847 209.877l.217.716M86.466 210.233l.384.793M86.466 210.233l-.673.615M85.396 209.733l.186.266M85.396 209.733l-.08.306M84.86 209.509l-.094.263M84.86 209.51l-.293-.08M81.64 207.455l.459-.159M81.64 207.455l.305.348M81.125 208.093l.32.217M81.125 208.093l-.031.36M79.62 208.268l.299.255M79.62 208.268l-.17.34M79.081 208.212l.019.563M79.081 208.212l-.598.155M76.713 207.487l.425.119M76.713 207.487l-.064.398M75.352 207.176l-.023.425M75.352 207.18l-.47-.005M74.288 204.586l-.334.453M74.288 204.59l-.572-.171M75.096 203.2l-.343-.254M75.096 203.2l.14-.38M66.949 208.37l1.062-.1M66.949 208.374l.717.716M65.891 209.142l.64.501M65.891 209.142l-.077.762M58.313 207.296l.163.775M58.313 207.3l-.553.611M57.326 205.16l-1.461.185M57.326 205.16l-.265-1.314M56.144 201.346l.074.596M56.144 201.346l-.606.242M55.382 200.68l-.449.471M55.382 200.68l-.688-.001M54.923 197.157l-.706.233M54.923 197.16l-.426-.56M56.845 195.71l-.763-.644M56.845 195.71l.34-.893M52.542 191.566l.25.518M52.542 191.566l-.586.198M51.68 189.977l-.784.44M51.68 189.98l-.54-.677M51.764 186.225l-.71.613M51.764 186.22l-.753-.57M53.058 184.71l-.826-1.148M53.058 184.71l.958-1.06M56.922 184.039l-.361.638M56.922 184.04l-.682-.365M57.706 182.87l-.67-.44M57.706 182.872l.073-.746M58.85 182.55l-.708-.313M58.85 182.55l-.08-.71M59.888 182.652l.048-.59M59.888 182.652l.646-.091M77.95 179.26l1.92.006M77.95 179.26l.62 1.644M75.143 180.57l1.277 1.676M75.143 180.57l-1.282 1.672M71.723 180.4l1.008.762M71.723 180.4l-.396 1.133M68.142 178.918l-.3.854M68.142 178.92l-.99-.038M64.762 170.628l-.263.647M64.762 170.63l-.754-.099M65.261 168.45l-.673-.358M65.261 168.446l.027-.707M65.374 166.27l-1.766.155M65.374 166.27l-.764-1.448M69.142 164.14l-.253-1.487M69.142 164.14l1.056-1.163M66.932 167.99l.662 1.693M66.932 167.99l-1.794.77M65.637 166.26l-1.695.792M65.637 166.26l-1.595-.947M66.36 163.925l-.358.39M66.36 163.92l-.447-.305M67.02 162.62l-1.062-.182M67.02 162.62l.242-.952M70.068 160.422l-.137.613M70.068 160.42l-.686-.074M70.229 159.62l-.335-.114M70.229 159.617l.032-.322M72.438 158.02l-.878-.301M72.438 158.02l.234-.822M73.82 158.4l.11-.407M73.82 158.4l.447-.105M88.888 155.865l-.256.144M88.888 155.86l-.268-.125M89.317 155.37l-.38-.224M89.317 155.374l.233-.352M90.137 155.18l-.226-.083M90.137 155.18l.047-.216M90.681 155.29l.05-.256M90.681 155.29l.286.017M92.073 155.15l-.239-.233M92.073 155.153l.154-.285M92.981 155.573l.165-.235M92.981 155.573l.308.013M92.837 155.82v-.15M92.837 155.817l.138-.084M93.092 156.287l.302-.13M93.092 156.287l.142.273M92.85 153.78l-.618-.033M92.85 153.78l-.089-.554M94.338 153.18l-1.177-.995M94.338 153.18l.746-1.292M95.936 154.24l-.357-.318M95.936 154.237l.343-.331M96.757 154.7l.157-.36M96.757 154.701l.427.01M97.96 157.78l-.13-.369M97.96 157.776l.356-.214M98.333 158.118l.29-.368M98.333 158.118l.499.012M98.131 160.022l.426-.057M98.131 160.022l.095.379M97.567 160.324l.286.202M97.567 160.324l-.29.198M86.936 148.34l1.814-.333M86.936 148.34l.724 1.54M80.627 152.39l1.179 1.73M80.627 152.39l-1.15 1.746M74.295 150.986l.999.853M74.295 150.99l-.519 1.15M71.21 149.75l-.657 1.484M71.21 149.75l-1.734-.309M68.705 149.19l4.525 1.866M68.705 149.19l-1.293 4.343M62.653 148.38l-.068 3.077M62.653 148.38l-3.23.968M57.254 136.78l-1.878 1.952M57.254 136.78l-2.861.005M57.73 133.16l-1.966-.066M57.73 133.16l-.931-1.567M62.697 138.042l3.143.915M62.697 138.04l-1.582 2.621M57.793 137.69l-.277 4.11M57.793 137.69l-3.833 2.22M55.011 134.88l.621 3.275M55.011 134.88l-2.206 2.656M51.498 131.43l-1.539 1.441M51.498 131.43l-2.095-.654M52.274 116.31l-1.02 1.183M52.274 116.31l-1.65-.143M53.63 112.76l-1.248-.536M53.63 112.76l.426-1.19M55.29 110.54l-2.859.267M55.29 110.54l-.351-2.58M59.84 109.01l-.664-.969M59.84 109.01l1.099-.56M74.843 79.787l-.127 3.239M74.843 79.787l-3.45.877M74.062 76.173l-3.437 1.367M74.062 76.173l-2.826-2.237M75.882 72.055l-1.944.29M75.882 72.055l-1.076-1.493M80.128 69.359l-.885-1.344M80.128 69.359l1.146-1.171M85.434 66.177l-.999.21M85.434 66.177l-.458-.83M87.89 64.977l-.413-.934M87.89 64.977l.534-.883M96.802 63.961l-.313-3.792M96.802 63.961l3.429-2.201M99.267 66.51l3.134-2.931M99.267 66.51l4.051 1.788M105.72 67.095l-2.182-.67M105.72 67.095l.115-2.082M107.8 66.4l-.594-1.585M107.8 66.4l1.173-1.293M113.4 68.41l-.206-1.162M113.4 68.41l1.302-.035M114.24 70.712l1.58-1.18M114.24 70.712l.977 1.629M118.56 66.143l-1.18-2.89M118.56 66.143l1.378-2.818M123.32 69.16l1.504-2.274M123.32 69.16l2.897.389M124.67 79.157l1.266-.932M124.674 79.157l1.49.603M121.06 83.311l2.601 2.067M121.06 83.311l-1.85 2.648M105.65 96.752l1.684-.044M105.65 96.752l.893 1.291M99.485 97.242l-1.152 2.644M99.485 97.242l-3.141-.07M94.836 93.311l-.463 3.07M94.836 93.311l-3.404.337M93.773 89.163l-2.02.555M93.773 89.163l-.943-1.709M96.652 88.563l-.382 1.343M96.652 88.563l-1.522-.162M96.145 86.124l-1.997-.177M96.145 86.124l-.548-1.746M97.21 81.886l-1.912.235M97.21 81.886l-.666-1.638M100.13 80.252l-.575-1.848M100.13 80.252l1.183-1.594M110.474 78.271l-.531.33M110.47 78.271l-.495-.374M110.94 77.538l-.41-.358M110.939 77.538l.273-.452M111.81 77.185l-.531-.185M111.81 77.185l-.068-.511M112.645 77.246l.072-.482M112.645 77.246l.532.077M117.12 77.026l-.56-.376M117.12 77.026l.152-.617M118.467 78.007l.782-.483M118.467 78.007l.793.469M119.4 77.987l-.031-.762M119.4 77.987l.842-.024M120 79.878l1.167-.513M120 79.878l.453 1.1M107.647 84.248l.49.971M107.647 84.248l-.734.835M106.63 83.327l-1.006.59M106.63 83.327l-1.15-.308M106.022 80.326l-.593.294M106.02 80.326l-.535-.375M106.88 79.101l-.797-.4M106.884 79.101l.332-.768M106.46 75.357l-.25.722M106.46 75.357l-.83-.1M107.11 72.634l-1.93-.114M107.11 72.634l-.299-1.729M110.96 70.436l-1.763-.409M110.96 70.436l.461-1.591M115.19 71.244l.275-1.123M115.187 71.244l1.217.33M121.532 72.531l-.245.298M121.53 72.531l-.342-.205M122.42 71.524l-.375-.238M122.42 71.524l.25-.347M124.63 70.447l-.715-.781M124.632 70.447l.697-.794M126.458 70.953l.3-.51M126.458 70.953l.635-.058M131.35 72.56l-1.24-1.728M131.35 72.56l1.66-1.412M133.47 74.06l.627-1.456M133.47 74.06l1.555.683M133.034 76.752l.709-.708M133.034 76.752l.96.398M132.656 78.57l.721.246M132.656 78.57l.033.696M139.24 98.946l1.02 1.499M139.24 98.946l-1.021 1.498M136.76 98.725l.384 1.852M136.76 98.725l-1.953.656M132.55 91.917l-.678 1.048M132.55 91.917l-1.327-.185M132.44 90.717l-1.155.067M132.44 90.717l-.788-.767M130.72 91.488l.938 2.256M130.72 91.488l-2.32 1.186M128.69 88.521l-2.407.62M128.69 88.521l-2.268-.956M130.919 81.996l-.545.466M130.92 81.996l-.475-.525M133.42 80.258l-.588-.806M133.418 80.258l.897-.525M135.13 77.216l-.008.593M135.13 77.216l-.651.072M135.15 75.981l-.884-.249M135.15 75.981l-.116-.83M135.293 74.36l-.441.447M135.29 74.36l-.532-.358M136.08 73.108l-1.047-.351M136.078 73.108l.413-.938M143.364 67.889l-.573.196M143.36 67.889l-.354-.453M144.77 67.01l-.682-.88M144.772 67.01l.689-.876M149.844 67.814l.13-.567M149.844 67.814l.54-.31M150.8 69.19l.773-.933M150.8 69.19l1.196.434M159.072 50.93l-.52.67M159.07 50.93l-.84-.304M160.3 48.808l-1.688-.338M160.3 48.808l.746-1.41M163.2 45.596l-2.048-.17M163.2 45.596l-.283-1.842M166.27 44.608l-.838-1.223M166.27 44.608l1.46-.571M168.9 35.37l-6.355.883M168.9 35.37l-1.414-5.673M174.31 33.236l-1.685-3.18M174.31 33.236l1.603-3.214M187.31 41.305l-1.268-2.374M187.31 41.305l1.834-2.05M190 44.968l1.338-.202M190 44.968l1.038.79M196.88 57.651l-1.44-1.43M196.88 57.651l.047-1.933M199.62 57.764l-.507-1.63M199.62 57.764l1.477-1.04M202.66 60.206l-.348-1.417M202.66 60.206l1.442-.635M204.48 63.79l1.874-.867M204.48 63.79l.785 1.768M202.71 67.61l-.602-1.094M202.71 67.61l1.258-.444M203.583 68.537l.698-.552M203.583 68.537l.909.167M202.96 72.588l1.345-.153M202.96 72.588l.712 1.044M201.948 73.379l.783.474M201.948 73.379l-.589.665M223.17 80.706l-1.67.987M223.17 80.706l-.707-1.687M225.24 79.206l-.563-.414M225.241 79.206l.267-.61M228.54 79.976l-.112-.392M228.538 79.976l.38-.214M229.489 80.65l.456-.724M229.489 80.65l.919-.056M231.23 79.593l-.841-.562M231.233 79.593l.05-.945M233.316 80.529l.343-.376M233.316 80.529l.507.162M236.37 84.064l.737-.957M236.37 84.064l1.24.324M235.2 86.595l1.971.824M235.2 86.595l.1 1.961M232.81 88.067l-1.142.335M232.81 88.067l-.636-.921M235.73 87.417l-.55-1.303M235.73 87.417l1.526-.208M238.864 89.803l.214-.44M238.864 89.803l.486-.193M239.238 90.9l.827-.542M239.238 90.9l.788.588M239.253 94.553l.224-.374M239.253 94.553l.455.104M239.444 95.36l.902-.505M239.444 95.36l.893.519M238.132 97.219l.373-.381M238.132 97.219l.456.297M237.036 97.935l.333.544M237.036 97.935l-.512.415M232.34 74.676l-3.883-.075M232.34 74.676l-2.536-2.661M240.87 70.002l-1.673-2.415M240.87 70.002l1.158-2.65M257.12 75.81l-2.1-4.732M257.12 75.81l5.098-2.177M262.9 82.216l3.808-2.81M262.9 82.216l4.32 2.118M262.39 90.095l.253-4.68M262.39 90.095l3.382-3.549M266.33 95.417l2.769-2.212M266.33 95.417l2.84 2.136M261.44 108.18l1.175-.373M261.44 108.18l.5 1.031M256.72 110.47l.528 1.853M256.72 110.47l-1.28 1.523M250.96 102.15l-2.452-2.007M250.96 102.15l1.942-2.422M255.34 103.4l.26-3.358M255.34 103.4l3.646.674M259.69 111.21l.94-2.964M259.69 111.21l3.377.426M259.62 114.24l1.507.087M259.62 114.24l.543 1.274M244.64 128.37l2.375-.211M244.64 128.37l1.43 1.728M241.21 129.953l.094.95M241.21 129.953l-.952.41M237.987 129.486l.705.542M237.99 129.49l-.63.613M235.9 128.28l-.506 1.59M235.9 128.28l-1.83-.014M229.2 138.02l.571-.06M229.2 138.02l.41.365M228.447 138.491l.28.298M228.45 138.49l-.264.31M227.439 138.582l.3.125M227.439 138.582l.061.294M226.62 138.5l-.017.322M226.62 138.5l-.355-.037M224.59 136.9l.01.2M224.59 136.9l-.197.092M224.3 136.53l-.194.067M224.3 136.53l-.166-.112M223.53 136.106l-.243.466M223.53 136.11l-.568-.028M223.54 134.72l-.376.044M223.54 134.72l-.124-.324M221.994 129.71l-.111.485M221.994 129.71l-.51.179M221.88 128.78l-.241-.071M221.88 128.78l-.042-.226M222.7 127.06l-.553.205M222.7 127.06l-.127-.528M223.45 126.71l-.162-.194M223.45 126.71l.221-.136M224.61 124.22l-.595-.043M224.61 124.22l-.253-.489M226.2 123.46l-.625-.885M226.2 123.46l.817-.747M228.64 123.66l-.308-.785M228.64 123.66l.531-.68M229.982 124.4l.245-.587M229.982 124.4l.678.133M228.873 122.347l.154.57M228.87 122.35l-.52.352M228.33 121.478l-.337.085M228.33 121.48l-.183-.27M228.43 119.79l-.413.196M228.43 119.79l-.384-.24M229.83 118.79l-.247-.34M229.83 118.79l.38-.217M230.58 116.333l-.452.12M230.58 116.33l-.279-.344M231.72 115.56l-.852-.605M231.72 115.56l.768-.691M234.59 115.46l-.198-.437M234.59 115.46l.388-.317M235.74 116.148l.466-.907M235.74 116.148l1.07.25M229.63 114.72l-1.45.74M229.63 114.72l-1.322-.914M230.54 112.23l-2.216-.352M230.54 112.23l-.553-1.973M237.44 109.14l-.434-.405M237.44 109.14l.197-.535M239.43 109.843l.362-.94M239.43 109.843l1.07.233M246.02 110.13l-1.32-.427M246.02 110.13l.558-1.163M249.64 111.98l.822-.795M249.64 111.98l1.176.232M250.53 113.25l-.053-1.314M250.53 113.25l1.445-.145M251.27 116.35l2.166.365M251.27 116.35l.426 1.955M252.762 122.35l-.218.77M252.76 122.35l-.867-.132M252.74 120.81l-.618-.138M252.74 120.81l-.26-.526M253.67 119.26l-.617.062M253.67 119.26l-.275-.504M254.96 118.78l-.56-.638M254.961 118.78l.77-.424M255.45 119.52l-.297.201M255.45 119.52l-.342-.13M255.72 119.08l-.298-.234M255.72 119.08l.025-.356M256.88 118.13l-.191-.138M256.88 118.13l.085-.207M257.7 118.23l-.082-.54M257.7 118.23l.603.015M255.71 118.78l-.406.36M255.71 118.78l-.539-.163M256.22 117.14l-.489-.089M256.22 117.14l.136-.435M258.32 115.42l-1.054.083M258.32 115.42l-.185-.942M261.52 115.6l.026-1.504M261.52 115.6l1.532-.587M264.36 118.12l-.492-.493M264.36 118.12l.176-.645M265.75 118.72l.453-.449M265.746 118.725l.624.223M266.25 120.732l.227-.251M266.25 120.732l.358.03M266.03 121.66l.44.13M266.03 121.66l-.067.415M273.08 126.24l-.12-.02M273.08 126.24l-.046-.101M273.31 126.11l-.084-.133M273.306 126.11l.065-.142M274.38 126.21l-.147-.154M274.38 126.21l.178-.123M274.82 126.68l.184-.061M274.821 126.677l.166.094M275.15 126.49l-.233-.266M275.15 126.487l.147-.313M276.05 126.772l.161-.453M276.05 126.772l.526.007M276.81 128.04l.332-.688M276.813 128.037l.829.043M276.519 129.14l.43.092M276.519 129.14l-.067.395M278.18 129.82l-.17-.461M278.18 129.82l.437-.283M279.22 130.81l.6-.426M279.223 130.807l.688.296M279.53 131.96l.04-1.146M279.53 131.96l1.236-.256M279.62 133.73l.694-.089M279.617 133.726l.212.604M277.77 137.96l.37-.515M277.767 137.955l.605.279M276.774 139.484l.654.571M276.77 139.48l-.035.822M274.811 141.234l.777.255M274.811 141.234l.133.738M271.38 141.36l-.172 1.118M271.38 141.36l-1.249-.003M261.076 134.245l.396.155M261.076 134.245l.07.385M260.028 134.317l.101.466M260.03 134.32l-.395.313M259.15 133.4l.038.198M259.15 133.4l-.142.156M258.69 132.54l-.269.036M258.69 132.54l-.135-.214M258.218 129.42l-.237.316M258.22 129.42l-.38-.163M258.22 129l-.306.136M258.22 129l-.187-.258M259.02 127.35l-.594-.05M259.02 127.35l-.061-.537M260.01 126.92l-.422-.769M260.013 126.92l.486-.737M262.16 128.35l-.018.102M262.16 128.35l-.114-.006M262.12 127.98l-.103-.022M262.12 127.98l-.05-.084M262.72 127.4l-.1-.028M262.72 127.4l.013-.095M262.88 127.36l-.072-.147M262.883 127.36l.157-.076M263.76 127.28l-.126.02M263.76 127.28l-.062-.1M264.05 127.08l-.126-.198M264.05 127.08l.09-.213M264.56 127.34l-.084-.085M264.56 127.34l.058-.102M264.74 127.47l.13-.058M264.736 127.467l.137.041M268.034 124.88l-.264.475M268.03 124.88l-.504-.273M268.45 124.2l-.254-.274M268.45 124.2l.127-.339M270.45 122.88l-1.287-.558M270.45 122.88l.437-1.229M272.29 123.18l-.104-.988M272.29 123.18l1.087.13M273.75 124.06l-.553-.526M273.75 124.06l.241-.692M274.86 124.23l-.077-.612M274.86 124.23l.581-.322M275.67 125.192l.133-.657M275.67 125.192l.739-.03M276.12 126.05l.361-.112M276.115 126.052l.231.274M276.53 129.14l-.212-.246M276.53 129.14l.234-.228M277.15 129.477l.406-.352M277.15 129.477l.49.247M277.59 129.92l.249-.414M277.593 129.925l.517.063M277.449 130.868l.593.23M277.45 130.87l-.045.582M276.954 131.94l.144-.098M276.954 131.94l.164.066M276.878 132.142l.11.049M276.88 132.14l-.012.111M276.63 132.589l.316.061M276.63 132.589l.035.29M276.067 132.68l.03.22M276.067 132.68l-.213.11M281.363 130.6l-.21.279M281.36 130.6l-.328-.163M281.68 129.91l-.187-.134M281.68 129.91l.004-.216M282.94 129.28l-.421-.258M282.94 129.28l.198-.424M283.68 129.562l.089-.192M283.68 129.562l.227.028M285.72 130.67l-.09-.3M285.72 130.673l.253-.208M285.95 130.84l.072-.102M285.951 130.839l.13.031M286.12 131.32l.055-.237M286.12 131.32l.26-.06M286.14 131.739l.174.053M286.14 131.739l.033.163M288.1 128.69l-1.423-.448M288.1 128.69l-.631-1.237M290.3 128.5l-.125-.578M290.3 128.5l.607-.211M292.87 130.74l.46-1.193M292.87 130.74l1.396-.027M293.04 132.08h.921M293.038 132.08l.526.684M291.78 134.71l.094-.244M291.78 134.71l.284-.024M291.91 135.05l.307-.292M291.906 135.054l.387.201M291.6 136.5l.262.025M291.6 136.5l.077.229M290.846 136.83l.148.533M290.846 136.83l-.518.287M286.29 133.73l-.612.19M286.29 133.73l-.332-.502M287.3 133.27l-.33-.484M287.3 133.27l.436-.409M290.27 133.05l-.3-.403M290.27 133.05l.42-.303M291.2 134.14l.869-.374M291.2 134.14l.83.44M290.82 135.39l-.503-.542M290.82 135.39l.212-.682M292.56 136.276l.463-.452M292.56 136.276l.638.214M292.23 138.8l.55-.104M292.23 138.8l.468.283M291.5 139.28l.166.371M291.5 139.28l-.191.362M292.09 139.59l-.116-.176M292.09 139.59l.166-.138M292.68 140.2l.421-.18M292.68 140.2l.395.22M292.77 142.46l.581-.393M292.772 142.462l.481.492M291.83 143.263l.103.5M291.83 143.263l-.25.456M290.72 144.75l.552-.185M290.72 144.75l.454.338M290 145.37l.123.298M290 145.37l-.21.256M287.618 146.019l.298.704M287.62 146.02l-.721.378M286.94 145.56l-.203.3M286.94 145.56l-.388.035M281.167 152.012l.128.071M281.17 152.01l-.048.129M280.64 151.76l-.28.253M280.64 151.76l-.342-.182M280.6 150.24l-.171.104M280.6 150.24l-.119-.152M280.9 149.97l-.106-.18M280.9 149.97l.119-.172M281.89 148.96l-.251.046M281.89 148.96l-.032-.23M282.44 148.7l-.235-.328M282.445 148.7l.252-.318M283.1 148.66l-.383-.278M283.1 148.656l.305-.348M283.56 148.82l.073-.314M283.56 148.82l.339-.095M282.92 149.36l-.09.067M282.92 149.36l-.099-.055M282.98 149.11l-.12-.007M282.98 149.11l-.016-.108M283.56 148.54l-.471-.101M283.56 148.54l-.083-.431M284.24 148.56l.01-.192M284.24 148.56l.187-.092M285.18 148.64l-.173-.074M285.18 148.64l-.004-.172M285.39 148.63l-.02-.117M285.39 148.63l.126-.03M286.1 148.74l-.025-.113M286.1 148.74l.108-.062M286.29 149.13l.214-.044M286.294 149.126l.173.123M289.1 150.85l-.174-.004M289.1 150.85l-.059-.149M289.61 150.78l-.032-.173M289.611 150.78l.169-.087M289.93 151.05l-.042-.156M289.93 151.05l.103-.131M290.12 151.2l.128-.096M290.12 151.2l.141.08M289.77 151.29l-.11-.054M289.766 151.29l.007-.113M289.98 151.27l-.008-.11M289.98 151.267l.092-.07M290.17 151.44l-.016-.068M290.17 151.44l.066-.035M290.26 151.62l.082-.016M290.258 151.616l.063.05M290.46 152.81l-.042-.023M290.46 152.81l.017-.042M290.52 152.81l.003-.018M290.52 152.81l.02-.006M290.67 152.93l.006-.047M290.67 152.93l.052.002M290.69 152.99l.022-.004M290.687 152.988l.018.012M290.7 153.36l.019-.021M290.7 153.36l.028.01M290.71 153.42l.028-.009M290.706 153.425l.013.024M290.72 153.58l.045-.015M290.715 153.577l.036.029M290.547 153.69l.025.054M290.547 153.69l-.046.04M285.62 149.22l-.279.766M285.62 149.22l-.796.364M285.152 148.48l-.86.452M285.15 148.48l-.932-.314M284.66 147.16l-.471.668M284.66 147.16l-.818-.285M285.74 145.57l-.847-.831M285.74 145.57l.256-1.106M289.06 143.27l-.675.315M289.06 143.27l-.459-.547M290.06 142.74l-.182-.304M290.06 142.74l.306-.207M291.11 142.73l-.479-.438M291.11 142.73l.2-.589M292.5 143.37l.335-.238M292.5 143.37l.364.2M294.71 145.73l-.425-.083M294.71 145.73l-.046-.392M295.72 145.56l-.044-.226M295.72 145.56l.218-.117M296.82 146.25l-.083-.365M296.82 146.25l.339-.211M297.11 146.72l.267-.091M297.107 146.722l.173.206M296.9 147.73l-.01-.082M296.9 147.73l.085-.03M297.03 147.96l.094-.042M297.034 147.955l.085.056M297.07 148.78l.256-.108M297.068 148.785l.193.187M296.54 149.1l.11.303M296.54 149.1l-.171.279M307.18 151.55l-.381-.151M307.18 151.55l.04-.375M308.38 151.52l.117-.61M308.38 151.52l.664-.146M309.76 150.82l-.782-1.46M309.76 150.82l.957-1.373M311.93 151.95l.566-1.012M311.93 151.95l1.239.18M311.39 156.34l.077-.323M311.39 156.34l.337-.129M311.56 156.71l.214-.13M311.558 156.714l.21.135M311.16 157.97l.291-.042M311.165 157.972l.148.231M310.622 158.138l.228.313M310.62 158.14l-.32.238M313.32 171.59l.625-1.166M313.32 171.59l1.183.73M312.27 173.62l1.543.41M312.27 173.62l-.654 1.329M311.84 174.91l2.034-.685M311.84 174.91l1.228 1.62M309.56 176.35l1.23 1.636M309.56 176.35l-.783 1.848M306.56 175.66l1.646-.747M306.56 175.66l1.25 1.224M304.343 177.284l.232.703M304.34 177.28l-.497.58M298.46 177.1l.834 1.066M298.46 177.1l-.687 1.148M295.55 174.659l-.919.957M295.55 174.66l-1.256-.564M304.034 161.47l-.267.067M304.03 161.47l-.155-.209M304.64 160.9l-.533-.378M304.64 160.9l.313-.545M307.31 159.86l-.685-.744M307.31 159.86l.902-.521M308.58 160.63l.62-.971M308.58 160.63l1.203.27M315.4 158.97l-1.07-1.121M315.4 158.97l1.269-.937M317.26 159.88l.597-.922M317.26 159.88l1.182.018M321.45 164.39l.427-1.008M321.45 164.386l1.19.077M320.71 168.87l1.5.542M320.71 168.87l-.295 1.436M314.57 167.645l-.674.196M314.57 167.64l-.273-.592M315.7 167.34l-.112-.66M315.7 167.336l.674-.268M317.28 167.44l-.51-.637M317.275 167.44l.695-.472M318.3 168.58l.686-.669M318.3 168.58l.777.582M318.96 172.436l.016-.306M318.96 172.436l.336-.04M319.14 173.2l.36-.01M319.14 173.2l.207.266M318.81 174.41l.39-.119M318.814 174.406l.126.354M318.43 174.707l.189.088M318.43 174.707l-.034.189M323.91 174.29l-2.144-2.372M323.91 174.29l1.341-2.813M328.1 177.08l2.305-1.978M328.1 177.08l2.553 1.709M330.08 180.49l.685-1.983M330.08 180.49l1.986 1.042M329.23 184.12l3.283-.21M329.23 184.12l.418 2.953M325.41 184.67l.224-.38M325.414 184.673l.454.127M325.36 185.45l.667-.26M325.355 185.449l.135.645M323.724 188.231l.78.21M323.724 188.231l.265.697M322.51 188.55l.23.571M322.51 188.55l-.305.542M319.6 188.26l.328-.695M319.6 188.26l.834.035M319.711 189.3l.764.063M319.711 189.3l.444.566M318.83 191.27l1.087.131M318.833 191.271l.583.84M317.541 191.75l.582.63M317.541 191.75l-.477.698M315.62 192.79l.502-.183M315.619 192.794l.25.434M314.89 193.235l.235.17M314.89 193.235l-.214.192M312.626 193.318l.732.534M312.63 193.32l-.753.51M311.51 192.55l-.195.51M311.51 192.55l-.597-.022M321.11 187.5l-.654-1.067M321.11 187.5l.4-1.165M323.39 188.3l.436-1.775M323.39 188.3l2.01.052M323.66 191.03v-.534M323.66 191.03l.567-.15M324.352 192.97l1.017.245M324.352 192.97l.063.95M327.07 199.12l.88-1.607M327.07 199.12l1.98.082M326.327 201.71l1.61.453M326.33 201.71l.581 1.431M323.2 205.64l2.572.25M323.2 205.64l.758 2.238M319.42 205.68l-.431 2.346M319.42 205.68l-2.609.29M319.28 203.93l-.17-.47M319.28 203.93l.462-.265M319.51 204.67l.33-.132M319.513 204.673l.193.277M319.03 206.14l.319-.312M319.034 206.142l.34.294M318.358 206.676l.238.229M318.36 206.68l-.296.166M315.6 209.538l.523-.246M315.6 209.538l.542.209M315.22 210.262l.581.191M315.22 210.262l-.17.537M310.58 211.56l-.051.974M310.58 211.56l-.861.586M309.48 209.81l-.933.664M309.48 209.81l-.679-.881M302.23 208.73l-.062-.206M302.23 208.727l.21-.098M302.4 209.011l.282-.134M302.4 209.011l.21.216M302.27 210.46l.317-.104M302.266 210.465l.18.259M301.832 210.785l.31.21M301.83 210.78l-.104.338M298.91 212.9l1.127-.127M298.914 212.9l.519.914M297.3 213.57l.09.442M297.3 213.57l-.409.254M294.47 212.7l-.202.81M294.47 212.7l-.866.273M293.82 211.5l-1.052.801M293.82 211.5l-.792-1.018M295.47 213.55l1.33-.45M295.47 213.55l.767 1.082M293.34 214.55l.466 1.081M293.34 214.55l-.92.807M291.922 214.228l.655.727M291.92 214.23l-.633.743M290.47 213.677l-.338.827M290.47 213.68l-.936-.249M286.17 209.3l.312.687M286.17 209.3l-.775.245M285.81 208.2l-.337.144M285.81 208.2l-.193-.289M284.93 206.72l-.863.688M284.93 206.72l-.98-.547M286.47 205.21l-.623-.665M286.466 205.21l.445-.774" stroke-width=".434"/><path d="M100.56 221.64l-.226-.279M100.56 221.64l.197-.296M101.38 222.16l.368-.292M101.385 222.158l.489.028M101.649 223.13l.128-.28M101.649 223.13l.33-.049M101.62 223.52l.144-.005M101.615 223.523l.036.126M101.848 224.48l.094-.346M101.848 224.48l.393-.013M101.87 224.8l.212-.123M101.87 224.8l.183.156M100.613 226.925l.364.247M100.61 226.92l-.096.402M99.348 226.816l.042.653M99.348 226.816l-.665.256M98.246 226.1l.26-.187M98.246 226.104l.254.194M98.054 226.353l.222.052M98.054 226.353l.024.206M97.823 226.377l.227-.055M97.823 226.377l.073.203M97.323 226.486l.008.166M97.323 226.486l-.147.1M96.534 226.356l.083.097M96.534 226.356l-.07.106M96.254 226.31l-.04.201M96.254 226.31l-.204.09M96.001 225.873l.026.085M96.001 225.873l-.09.034M95.916 225.714l-.085.068M95.916 225.71l-.065-.085M94.877 225.229l.135-.178M94.877 225.229l.238.014M94.793 225.7l.214-.025M94.793 225.695l.02.194M94.542 225.954l.288-.044M94.542 225.954l.185.204M94.053 226.148l.02.183M94.053 226.148l-.15.123M93.485 226.6l.314-.05M93.485 226.595l.121.266M93.059 226.74l.057.25M93.059 226.74l-.245.128M91.83 226.514l.071.215M91.83 226.514l-.22.105M91.502 225.87l-.367.186M91.502 225.87l-.175-.345M91.6 225.358l.312.115M91.6 225.358l.033.304M91.258 225.366l-.018.177M91.258 225.366l-.15.114M90.825 225.153l.157.282M90.825 225.153l-.28.19M90.594 224.659l-.209.09M90.594 224.66l-.094-.19M90.362 223.7l-.085.231M90.362 223.7l-.237-.117M90.383 223.475l-.143.049M90.383 223.48l-.034-.135M90.566 223.237l-.172.066M90.566 223.24l-.063-.159M90.843 223.12l-.044-.134M90.843 223.116l.12-.089M83.962 223.694l.314-.163M83.962 223.694l.287.2M83.864 223.948l.29.106M83.864 223.948l.112.264M83.137 224.195l.213.027M83.137 224.2l-.006.194M82.724 224.125l-.014.16M82.724 224.125l-.172.039M82.393 224.38l.361.086M82.393 224.38l-.077.332M81.786 224.423l.201.385M81.786 224.423l-.458.1M81.019 223.719l.097.208M81.019 223.719l-.191.146M80.885 223.28l-.123-.012M80.885 223.28l-.029-.11M80.273 223.886l.4-.01M80.273 223.886l.293.247M79.652 224.116l.074.21M79.652 224.116l-.197.13M78.525 223.592l-.055.236M78.525 223.592l-.256.066M78.465 222.94l-.317-.043M78.465 222.94l-.071-.284M76.755 223.171l.21.57M76.755 223.171l-.581.29M76.417 222.765l-.24.431M76.417 222.76l-.463-.239M75.474 221.38l-1.046.88M75.474 221.38l-1.235-.648M75.913 219.993l-.963.05M75.913 219.99l-.035-.872M75.881 216.795l.226.45M75.881 216.8l-.396.34M75.107 216.347l-.432.407M75.107 216.35l-.584-.198M74.626 215.46l-.193.365M74.626 215.46l-.43.11M74.529 214.982l-.279.13M74.529 214.98l-.126-.26M73.531 212.106l-.392.266M73.531 212.11l-.487-.042M73.755 211.25l-.66.013M73.755 211.25l-.325-.52M75.437 210l-.737-.164M75.437 210l-.097-.681M76.388 209.83l-.152-.346M76.388 209.828l.387-.128M77.728 211.1l-.079.171M77.728 211.1l-.178.091M77.714 210.8l-.077.008M77.714 210.8l-.028-.065M77.751 210.38l-.268.007M77.751 210.38l-.1-.225M78.054 210.18l-.132-.1M78.054 210.175l.09-.132M78.621 209.96l-.169.138M78.621 209.96l-.179-.129M79.265 209.46l-.175-.257M79.265 209.456l.254-.197M79.833 209.55l-.076-.135M79.833 209.546l.062-.14M80.25 209.784l.065-.172M80.25 209.784l.176.088M73.086 207.786l.174-.1M73.086 207.786l.158.12M73 208.085l.176.013M73 208.085l.014.16M72.22 208.814l.53.079M72.22 208.814l.033.484M71.435 208.912l-.03.442M71.435 208.912l-.444.185M70.663 208.88l.628-.014M70.663 208.88l-.025.569M69.903 209.066l.03.257M69.903 209.066l-.269.09M68.788 207.922l-.024.128M68.788 207.92l-.144.005M68.819 207.568l-.174.014M68.819 207.57l-.055-.15M67.07 207.915l.51.245M67.07 207.915l-.032.52M66.523 207.842l.06.226M66.523 207.842l-.254.043M65.306 206.656l-.168.54M65.306 206.656l-.62.028M65.243 206.16l-.543.25M65.243 206.16l-.305-.477M65.493 205.025l.007.34M65.493 205.025l-.346.134M65.384 204.45l-.295-.08M65.384 204.45l-.15-.243M65.437 203.971l-.483.14M65.437 203.97l-.368-.316M66.11 203.57l-.179-.379M66.11 203.572l.367-.245M62.74 204.08l.279.119M62.74 204.08l.062.273M62.302 204.073l.067.328M62.302 204.073l-.291.204M60.956 203.55l.073.688M60.956 203.55l-.761.074M60.573 202.47l-.926.332M60.573 202.47l-.577-.734M59.099 202.56l.112.697M59.099 202.56l-.743.21M58.167 201.65l-.54.743M58.167 201.65l-.874-.409M57.986 199.378l-.982.698M57.986 199.38l-1.235-.168M59.534 197.26l-.744-.674M59.534 197.26l.309-.91M64.716 195.82l.144.374M64.716 195.82l-.339.25M64.403 195l-.33.047M64.403 195l-.241-.209M64.974 194.091l-.135.07M64.974 194.09l-.095-.111M65.305 193.78l-.189-.143M65.305 193.783l.168-.163M66.614 193.41l-.182.062M66.614 193.41l-.14-.122M66.934 193.27l-.004-.146M66.934 193.274l.14-.07M67.435 193.19l-.21-.128M67.435 193.19l.116-.203M67.682 193.24l-.001-.205M67.682 193.242l.216-.063M69.733 192.96l.798.03M69.733 192.96l-.073.72M68.442 192.912l-.05.831M68.442 192.912l-.794.42M67.433 192.484l-.138.582M67.433 192.484l-.645.12M66.994 191.782l-.495.65M66.994 191.78l-.83-.24M65.044 190.674l.124.395M65.044 190.674l-.337.277M64.403 190.03l-.191.32M64.403 190.03l-.402-.026M64.072 186.95l-.682 1.034M64.072 186.95l-1.272-.352M64.862 185.43l-.87-.505M64.862 185.43l-.113-.93M67.448 184.97l.499 1.233M67.448 184.973l-.958.986M66.432 183.717l-.882.49M66.432 183.72l-.766-.63M66.761 180.593l-.902.512M66.761 180.59l-.713-.716M68.934 179.15l-.469-.504M68.934 179.15l.39-.555M69.135 179.1l-.627.27M69.135 179.1l-.518-.417M70.443 177.78l-.528-.516M70.443 177.782l.422-.59M74.678 178.17l-.611-.624M74.678 178.167l.525-.685M76.02 179.407l.855-.323M76.02 179.407l.525.692M73.657 178.123l-.18.257M73.657 178.12l-.335-.026M74.11 177.15l-.678-.423M74.11 177.15l.342-.678M74.709 176.05l-.576-.148M74.709 176.05l-.158-.522M75.661 175.71l-.333-.557M75.661 175.71l.376-.534M78.043 175.73l-.392-.093M78.043 175.726l.043-.364M78.732 175.54l-.142-.469M78.732 175.545l.316-.393M79.999 175.56l-.265-.63M79.999 175.555l.598-.401M80.571 176.033l.233-.176M80.571 176.033l.297.053M84.306 176.612l-.43.06M84.306 176.61l-.288-.296M85.09 176.2l-.176-.423M85.09 176.2l.372-.302M85.544 176.41l-.134-.118M85.544 176.41l.097-.145M86.005 176.718l.146-.25M86.005 176.718l.31.03M87.369 177.86l-.16-.237M87.369 177.86l.237-.175M87.73 178.264l.13-.07M87.73 178.264l.08.115M87.878 178.655l.12-.204M87.878 178.655l.25.047M87.773 179.07l.133-.005M87.773 179.07l-.031.118M91.85 202.64l-.274-.26M91.85 202.643l.284-.252M92.508 203.032l.073-.51M92.508 203.032l.556.111M93.437 204.616l.452-.518M93.437 204.616l.588.389M92.858 205.577l.574.167M92.858 205.577l.014.546M92.368 205.785l.072-.243M92.368 205.785l.276.028M92.172 206.716l.706.142M92.172 206.716l.217.625M91.125 207.253l.267.071M91.125 207.253l-.016.252M90.762 207.329l.197.187M90.762 207.329l-.175.204M88.642 210.061l.553-.185M88.642 210.061l.245.485M88.064 210.593l.39.149M88.064 210.593l-.224.324M86.85 211.026l.656.417M86.85 211.026l-.051.724M85.793 210.848l-.257.529M85.793 210.848l-.611.168M85.582 210l.3.065M85.582 210l-.082.27M85.316 210.04l.065.093M85.316 210.04l-.102.061M84.766 209.772l.067.199M84.766 209.772l-.158.151M84.567 209.43l-.283.022M84.567 209.43l-.156-.215M82.099 207.3l.15-.36M82.099 207.296l.37.19M81.945 207.803l.38.052M81.945 207.8l-.08.34M81.445 208.31l.263.05M81.445 208.31l.107.224M81.094 208.453l.076.21M81.094 208.453l-.15.175M79.919 208.523l.256.052M79.919 208.523l.066.23M79.45 208.61l-.005.195M79.45 208.607l-.178.108M79.1 208.775l.132.127M79.1 208.775l-.093.153M78.483 208.367l-.247.343M78.483 208.37l-.418-.16M77.138 207.606l.282-.15M77.138 207.606l.13.271M76.65 207.885l.25.234M76.65 207.885l-.232.25M75.33 207.601l.159.303M75.33 207.6l-.144.31M74.882 207.171l-.145.166M74.882 207.17l-.22-.07M73.954 205.039l-.027.178M73.954 205.039l-.162.104M73.716 204.415l-.186.076M73.716 204.42l-.07-.174M74.753 202.94l-.254-.051M74.753 202.94l-.072-.226M75.236 202.82l-.038-.16M75.236 202.818l.168-.06M68.011 208.275l.567-.686M68.011 208.275l.761.51M67.666 209.09l.48.135M67.666 209.09l-.03.455M66.53 209.643l.73-.019M66.53 209.643l.17.641M65.814 209.904l.176.596M65.814 209.9l-.53.389M58.476 208.071l.453.329M58.476 208.071l-.367.408M57.76 207.907l-.143.542M57.76 207.907l-.614.042M55.865 205.348l-.355.473M55.865 205.35l-.618-.121M57.061 203.85l-.766-.795M57.061 203.85l.439-.977M56.218 201.942l.324.23M56.218 201.942l-.3.254M55.538 201.588l-.275.258M55.538 201.59l-.395-.032M54.933 201.151l-.014.358M54.933 201.151l-.393.037M54.694 200.679l-.402.405M54.694 200.68l-.522-.272M54.217 197.39l-.154.377M54.217 197.39l-.445.004M54.497 196.6l-.443-.246M54.497 196.6l-.082-.464M56.082 195.07l-.37-.119M56.082 195.07l-.15-.328M57.184 194.82l-.152-.393M57.184 194.817l.287-.326M52.793 192.084l.414.199M52.793 192.084l-.14.405M51.956 191.764l-.128.247M51.956 191.76l-.29-.072M50.896 190.418l-.33.366M50.896 190.42l-.52-.037M51.14 189.3l-.37-.18M51.14 189.3l-.095-.37M51.053 186.838l-.17.743M51.053 186.838l-.807.205M51.011 185.655l-.482.047M51.011 185.66l-.037-.437M52.232 183.56l-.813-.57M52.232 183.563l.329-.882M54.016 183.65l-.168-.712M54.016 183.65l.72-.327M56.56 184.677l.123.228M56.56 184.677l-.274.053M56.24 183.674l-.344.07M56.24 183.67l-.214-.254M57.037 182.432l-.574.014M57.037 182.43l-.056-.517M57.78 182.13l-.116-.277M57.78 182.126l.248-.193M58.142 182.24l-.434-.022M58.142 182.24l-.15-.369M58.77 181.84l-.159-.263M58.77 181.84l.234-.213M59.936 182.06l-.158-.408M59.936 182.062l.235-.376M60.534 182.56l.434-.232M60.534 182.56l.494.093M79.87 179.266l.822-.244M79.87 179.266l.746.397M78.57 180.904l.92.992M78.57 180.9l-.704 1.126M76.42 182.246l.981.178M76.42 182.246l-.233.88M73.86 182.242l-.267.856M73.86 182.242l-.925.3M72.73 181.16l1.173-.162M72.73 181.165l.52.965M71.327 181.536l.346.684M71.327 181.536l-.573.546M67.842 179.772l.162.422M67.842 179.772l-.4.261M67.152 178.88l-.694.332M67.152 178.88l-.64-.41M64.5 171.275l.296.508M64.5 171.275l-.518.334M64.008 170.529l-.51.275M64.008 170.53l-.514-.27M64.588 168.09l-.702-.059M64.588 168.09l-.443-.496M65.288 167.74l-.23-.496M65.288 167.74l.366-.424M63.608 166.42l-.876 1.186M63.608 166.42l-1.238-.882M64.61 164.82l-1.334-.694M64.61 164.82l-.186-1.383M68.889 162.66l-.549-.814M68.889 162.657l.456-.86M70.198 162.98l.37-.922M70.198 162.98l1.018-.34M67.594 169.68l1.042.721M67.594 169.68l-.16 1.178M65.138 168.76l-1.098.958M65.138 168.76l-1.455-.412M63.942 167.057l-.878.856M63.942 167.06l-1.268-.218M64.042 165.318l-.946.288M64.042 165.32l-.288-.865M66.002 164.31l-.001.187M66.002 164.31h-.207M65.913 163.62l-.241-.031M65.913 163.62l-.09-.204M65.958 162.438l-.387.169M65.958 162.44l-.316-.263M67.262 161.67l-.158-.379M67.262 161.668l.285-.312M69.931 161.035l.09.398M69.931 161.035l-.335.27M69.382 160.348l-.536.304M69.382 160.35l-.408-.437M69.894 159.5l-.26-.006M69.894 159.5l-.071-.226M70.261 159.3l-.203-.172M70.261 159.3l.2-.175M71.56 157.719l-.76.1M71.56 157.72l-.269-.65M72.672 157.2l-.207-.735M72.672 157.2l.528-.589M73.93 158l-.105-.18M73.93 158l.208-.08M74.267 158.3l.075-.144M74.267 158.3l.138.097M88.632 156.01l-.166.18M88.632 156.01l-.26.01M88.62 155.74l-.254.025M88.62 155.74l-.062-.224M88.937 155.15l-.371-.032M88.937 155.15l-.21-.28M89.55 155.02l-.058-.224M89.55 155.022l.204-.137M89.911 155.1l-.132.065M89.911 155.1l-.09-.109M90.184 154.96l-.062-.1M90.184 154.964l.07-.096M90.731 155.03l-.095-.113M90.731 155.034l.118-.095M90.967 155.307l.146-.101M90.967 155.307l.13.118M91.834 154.92l-.298-.078M91.834 154.92l-.027-.28M92.227 154.87l-.043-.155M92.227 154.868l.169-.047M93.146 155.338l.008-.174M93.146 155.338l.184-.053M93.29 155.586l.13-.111M93.29 155.586l.143.097M92.838 155.67l-.027-.053M92.838 155.667l.043-.044M92.975 155.733l.049-.127M92.975 155.733l.147.014M93.394 156.157l.09-.179M93.394 156.157l.218.005M93.234 156.56l.183.116M93.234 156.56l-.03.2M92.232 153.75l-.205.138M92.232 153.75l-.152-.187M92.761 153.23l-.274-.427M92.761 153.228l.356-.374M93.16 152.18l-.734-.26M93.16 152.18l-.174-.696M95.084 151.89l-.077-1.01M95.084 151.89l1.107-.156M95.579 153.919l-.305.034M95.579 153.92l-.06-.273M96.28 153.91l-.028-.233M96.28 153.906l.245-.072M96.914 154.34l-.037-.289M96.914 154.342l.265-.164M97.184 154.71l.263-.208M97.184 154.71l.281.19M97.83 157.41l-.295-.155M97.83 157.407l.126-.286M98.316 157.562l.15-.257M98.316 157.562l.32-.031M98.622 157.75l.023-.3M98.622 157.75l.319-.085M98.832 158.13l.266-.228M98.832 158.13l.222.265M98.557 159.965l.234-.258M98.557 159.965l.308.183M98.226 160.401l.228.163M98.226 160.4l-.18.207M97.853 160.526l.195.064M97.853 160.526l.095.167M97.278 160.522l-.088.263M97.278 160.52l-.303-.006M88.75 148l.589-.577M88.75 148l.858.119M87.66 149.875l.747.353M87.66 149.875l-.043.76M81.806 154.117l.994.672M81.806 154.12l-.009 1.122M79.477 154.13l-.063 1.684M79.477 154.13l-1.717.653M75.294 151.84l.88-.043M75.294 151.84l-.087.792M73.776 152.137l.149.662M73.776 152.137l-.694.25M70.553 151.237l.363.56M70.553 151.237l-.636.3M69.476 149.444l-.634.413M69.476 149.44l-.569-.484M73.23 151.05l3.992-1.98M73.23 151.05l2.073 3.666M67.412 153.53l.194 1.526M67.412 153.53l-1.56.608M62.585 151.45l.798 1.156M62.585 151.45l-1.18.848M59.423 149.34l-1.213 1.113M59.423 149.34l-1.651-.46M55.376 138.74l-.456 1.195M55.376 138.74l-1.393.108M54.393 136.79l-1.686 1.233M54.393 136.79l-2.005-.748M55.764 133.091l-.743.729M55.764 133.09l-.817-.66M56.799 131.59l-.883-.718M56.799 131.59l.493-.977M65.84 138.96l1.682-.484M65.84 138.96l.735 1.452M61.115 140.66l.25 1.849M61.115 140.66l-1.807.891M57.516 141.8l2.038 1.775M57.516 141.8l-1.786 1.986M53.96 139.91l-.873 3.108M53.96 139.91l-3.537.229M55.632 138.15l1.588 2.683M55.632 138.15l-.986 2.91M52.805 137.53l.705 2.102M52.805 137.53l-2.118 1.073M49.96 132.871l.09.818M49.96 132.871l-.908.041M49.403 130.78l-1.267.42M49.403 130.78l-.43-1.157M51.255 117.49l-.404 1.187M51.255 117.49l-1.372.054M50.624 116.166l-.864.722M50.624 116.17l-.825-.759M52.382 112.22l-1.22-.107M52.382 112.22l-.356-1.061M54.056 111.57l-.288-.393M54.056 111.569l.432-.263M52.431 110.81l-2.004 1.273M52.431 110.81l-1.774-1.526M54.939 107.96l-1.691-1.372M54.939 107.96l1.579-1.477M59.176 108.04l-.368-.24M59.176 108.04l-.032-.41M60.939 108.446l.319-.973M60.939 108.446l1.118.089M74.716 83.026l.587 1.118M74.716 83.026l-1.132.694M71.394 80.664l-1.69 1.119M71.394 80.664l-1.907-.784M70.625 77.54l-.753 1.804M70.625 77.54l-2.126-.132M71.236 73.936l-3.066-.279M71.236 73.936l-.74-2.706M73.938 72.346l-1.064.77M73.938 72.346l-1.347-.186M74.806 70.562l-.981-.456M74.806 70.562l-.192-.983M79.243 68.015l-1.24-.398M79.243 68.015l.486-1.107M81.274 68.188l.138-1.01M81.274 68.188l1.124.031M84.435 66.387l-.338.38M84.435 66.387l-.434-.288M84.976 65.347l-.667-.468M84.976 65.347l.381-.682M87.477 64.043l-.458-.45M87.477 64.043l.155-.596M88.424 64.094l.025-.751M88.424 64.094l.638-.482M96.489 60.169l-1.159-2.445M96.489 60.169l1.634-2.211M100.23 61.76l.882-1.28M100.23 61.76l1.595.44M102.4 63.579l.598-1.603M102.4 63.579l1.846-.27M103.318 68.298l3.954.453M103.32 68.298l2.55 2.771M103.53 66.425l-1.19.166M103.53 66.425l-.396-1.028M105.83 65.013l-1.363-1.248M105.83 65.013l1.446-1.168M107.2 64.815l-1.218-1M107.2 64.815l.561-1.399M108.97 65.107l.18-.724M108.97 65.107l.819-.035M113.2 67.248l-.636-.462M113.2 67.248l.17-.721M114.7 68.375l.49-.476M114.704 68.375l.529.441M115.818 69.532l.381-.905M115.818 69.532l1.066.081M115.215 72.34l1.03.64M115.22 72.34l.024 1.131M117.38 63.252l-1.563-1.326M117.38 63.252l.626-1.853M119.94 63.325l-.828-1.967M119.94 63.325l1.843-1.284M124.82 66.886l-.232-2.44M124.82 66.886l2.347-1.219M126.22 69.549l1.45-.899M126.22 69.549l1.252 1.116M125.94 78.225l.735-1.108M125.94 78.225l1.36-.396M126.164 79.76l.614-.1M126.164 79.76l.394.437M123.661 85.378l2.99.22M123.66 85.378l-.112 2.712M119.21 85.96l.672 2.485M119.21 85.96l-2.805.332M107.334 96.708l.931-.866M107.334 96.708l.823.951M106.543 98.043l.903.68M106.54 98.043l-.4 1M98.333 99.886l-.01 1.114M98.333 99.886l-1.152.393M96.344 97.172l-1.648 1M96.344 97.172l-1.586-1.08M94.373 96.38l1.234 1.194M94.373 96.38l-1.087 1.306M91.432 93.648l-2.035.955M91.432 93.648l-2.025-.973M91.752 89.718l-1.37 1.01M91.752 89.718l-1.738-.292M92.83 87.454l-.626-.334M92.83 87.454l.021-.657M96.27 89.906l.306 1.08M96.27 89.906l-.83.825M95.13 88.4l-.918.231M95.13 88.4l-.737-.546M94.148 85.947l-.635.355M94.148 85.947l-.61-.389M95.597 84.378l-1.174-.877M95.597 84.378l.256-1.358M95.298 82.12l-1.094.676M95.298 82.12l-.992-.793M96.544 80.248L94.9 79.73M96.544 80.248l.011-1.575M99.557 78.404l-1.036-1.135M99.557 78.404l.424-1.421M101.315 78.658l.116-.708M101.315 78.658l.628-.435M109.943 78.602l-.162.268M109.94 78.602l-.325-.084M109.98 77.897l-.395.017M109.98 77.897l-.188-.314M110.53 77.18l-.43-.075M110.53 77.18l-.056-.392M111.21 77.086l-.072-.147M111.212 77.086l.17-.048M111.282 77l-.374.144M111.28 77l-.2-.32M111.74 76.674l-.141-.148M111.745 76.674l.119-.163M112.72 76.764l-.06-.148M112.717 76.764l.078-.14M113.177 77.323l.218-.136M113.177 77.323l.125.212M116.56 76.65l-.398-.051M116.56 76.65l-.21-.31M117.27 76.409l-.056-.443M117.272 76.409l.425-.225M119.25 77.524l.264-.529M119.25 77.524l.64-.017M119.26 78.476l.397-.026M119.26 78.476l.089.35M119.36 77.225l-.2-.325M119.364 77.225l.282-.271M120.237 77.963l.435-.196M120.237 77.963l.353.303M121.172 79.365l.382-.425M121.172 79.365l.6-.068M120.458 80.978l.291.31M120.458 80.978l-.146.385M108.136 85.22l.65.238M108.136 85.22l-.022.633M106.913 85.083l-.13.572M106.913 85.083l-.63.128M105.622 83.918l-.17.452M105.622 83.918l-.528.015M105.478 83.02l-.407.15M105.48 83.02l-.211-.349M105.429 80.62l-.092.493M105.43 80.62l-.551-.026M105.49 79.95l-.335-.08M105.49 79.95l-.184-.266M106.087 78.701l-.38.043M106.09 78.701l-.195-.297M107.22 78.333l-.23-.327M107.216 78.333l.342-.234M106.21 76.079l.118.596M106.21 76.079l-.52.379M105.63 75.258l-.344.083M105.63 75.258l-.274-.207M105.177 72.52l-.661.424M105.18 72.52l-.703-.366M106.81 70.905l-1.191-.654M106.81 70.905l.603-1.135M109.2 70.027l-.732.119M109.2 70.027l-.317-.609M111.42 68.845l-.768-1.03M111.42 68.845l1.088-.758M115.46 70.121l-.322-.43M115.462 70.121l.334-.423M116.4 71.574l1.081-.283M116.404 71.574l.724.78M121.287 72.83l-.035.143M121.287 72.83l-.138.078M121.19 72.326l-.133.007M121.19 72.326l-.046-.113M122.04 71.286l-.2-.017M122.04 71.286l-.105-.155M122.67 71.177l-.06-.234M122.67 71.177l.255-.066M123.92 69.666l-.51-.193M123.92 69.666l-.147-.483M125.33 69.653l-.092-.368M125.33 69.653l.388-.136M126.76 70.443l-.076-.186M126.757 70.443l.215-.04M127.093 70.895l.293-.36M127.093 70.895l.482.096M130.11 70.832l-1.531-.64M130.11 70.832l.037-1.525M133.011 71.148l.375-.847M133.011 71.148l.929-.358M134.1 72.604l-.297-.68M134.1 72.604l.54-.544M135.02 74.743l1.121-.39M135.025 74.743l.675.898M133.74 76.044l-.076-.809M133.743 76.044l.882-.149M133.994 77.15l.898.08M133.994 77.15l.313.765M133.377 78.816l.522-.185M133.377 78.816l.408.348M132.689 79.266l.256.583M132.689 79.266l-.377.526M140.265 100.445l.815.323M140.26 100.44l-.3.757M138.22 100.44l-.261 1.556M138.22 100.44l-1.555.706M137.14 100.58l1.14 1.39M137.14 100.58l-1.228 1.328M134.8 99.38l-.4.899M134.8 99.38l-1.038-.235M131.872 92.965l-.062.778M131.872 92.965l-.68.48M131.223 91.732l-.453.268M131.22 91.732l-.478-.23M131.283 90.784l-.318.157M131.28 90.784l-.288-.199M131.65 89.95l-.391-.126M131.65 89.95l-.14-.354M131.66 93.744l.763.562M131.66 93.744l-.123.883M128.4 92.674l-.4.878M128.4 92.674l-1.034.162M126.28 89.142l-1.092 1.352M126.28 89.142l-1.768-.497M126.42 87.565l-1.968.278M126.42 87.565l-.61-1.716M130.374 82.462l-.076.218M130.374 82.462l-.242.067M130.44 81.471l-.645-.033M130.444 81.471l.129-.573M132.83 79.452l-.435-.173M132.83 79.452l-.003-.43M134.315 79.733l.026-.31M134.315 79.733l.339-.053M135.122 77.809l.133.17M135.122 77.809l-.134.17M134.479 77.288l-.204.164M134.48 77.288l-.25-.097M134.266 75.732l-.75.106M134.27 75.732l-.587-.436M135.03 75.15l-.695-.386M135.034 75.15l.176-.72M134.852 74.807l-.077.181M134.852 74.807l-.191.088M134.76 74.002l-.454-.01M134.76 74.002l-.258-.338M135.031 72.757l-.4.042M135.03 72.757l-.305-.24M136.49 72.17l-.265-.51M136.491 72.17l.483-.356M142.79 68.085l-.216.288M142.79 68.085l-.38-.055M143.01 67.436l-.192-.103M143.01 67.436l.05-.198M144.09 66.13l-.877-.4M144.09 66.13l.294-.848M145.46 66.134l-.305-.93M145.461 66.134l.99-.372M149.98 67.247l-.087-.319M149.975 67.247l.208-.269M150.385 67.503l.017-.189M150.385 67.503l.209.01M151.57 68.257l-.162-.493M151.573 68.257l.521-.206M152 69.624l1.064-.005M152 69.624l.53.835M158.551 51.6l.003.369M158.551 51.6l-.403.053M158.231 50.626l-.72.188M158.23 50.626l-.252-.64M158.614 48.47l-.96.32M158.61 48.47l-.861-.5M161.05 47.398l-.129-1.415M161.05 47.398l1.44-.561M161.149 45.427l-.559.298M161.15 45.427l-.442-.43M162.91 43.754l-1.12-.801M162.91 43.754l.451-1.225M165.43 43.385l-.61-.158M165.428 43.385l.176-.552M167.725 44.037l.502-.495M167.725 44.037l.741.042M162.54 36.253l-4.836 2.349M162.54 36.253l-5.21-1.564M167.49 29.697l-3.737-2.801M167.49 29.697l1.044-4.288M172.63 30.057l-1.179-.986M172.63 30.057l.202-1.441M175.92 30.022l.18-2.674M175.92 30.022l2.554-1.355M186.04 38.931l-2.092-1.389M186.04 38.931l-.123-2.345M189.14 39.256l-.056-2.295M189.14 39.256l2.537-.01M191.333 44.766l.621-.717M191.333 44.766l.936.338M191.03 45.758l1.168-.115M191.033 45.758l.489.967M195.44 56.222l-1.033-.086M195.44 56.222l-.104-.934M196.92 55.718l-.699-1.219M196.92 55.718l1.102-.944M199.12 56.133l-.943-.444M199.115 56.133l.206-.944M201.1 56.723l.395-.979M201.1 56.723l1.152-.023M202.32 58.789l-.53-.545M202.317 58.789l.28-.68M204.107 59.57l.75-.866M204.107 59.57l1.13.41M206.36 62.923l.397-.85M206.36 62.923l.984.24M205.27 65.558l.884.365M205.27 65.558l-.474.767M202.11 66.516l-.464-.3M202.11 66.516l-.038-.514M203.968 67.166l.379-.578M203.968 67.166l.699.227M204.28 67.985l.13-.384M204.28 67.985l.444.011M204.492 68.704l.484-.186M204.492 68.704l.399.31M204.3 72.435l.34-.264M204.305 72.435l.332.273M203.672 73.632l1.17.262M203.67 73.632l-.296 1.058M202.731 73.853l.345.012M202.731 73.853l.189.262M201.36 74.044l-.1.434M201.36 74.044l-.44.196M221.5 81.693l-.277 1.268M221.5 81.693l-1.403-.248M222.47 79.02l-.946-.726M222.47 79.02l.153-1.113M224.68 78.792l-.479-.043M224.68 78.792l-.127-.419M225.51 78.595l-.062-.265M225.508 78.595l.203-.2M228.43 79.584l-.225-.225M228.426 79.584l.103-.289M228.918 79.762l.098-.224M228.92 79.762l.266-.008M229.945 79.926l.039-.297M229.945 79.926l.317-.084M230.408 80.594l.345-.24M230.408 80.594l.42.101M230.39 79.03l-.914-.15M230.39 79.03l-.089-.835M231.28 78.648l-.368-.751M231.284 78.648l.538-.662M233.66 80.153l-.02-.446M233.659 80.153l.422-.231M233.823 80.691l.446-.037M233.823 80.691l.221.352M237.107 83.107l.124-.392M237.107 83.107l.433-.112M237.61 84.388l.952-.579M237.61 84.388l.417.968M237.17 87.419l1.006-.111M237.173 87.419l.679.68M235.3 88.556l1.143 1.3M235.3 88.556l-1.087 1.338M231.672 88.402l-.455.878M231.67 88.402l-1.06-.15M232.18 87.146l-1.042-.177M232.178 87.146l.136-.952M235.18 86.114l-.864-.566M235.18 86.114l.067-.963M237.26 87.21l1.17-.625M237.257 87.21l1.003.827M239.08 89.364l-.091-.184M239.078 89.364l.212-.06M239.35 89.61l.152-.356M239.35 89.61l.39.146M240.065 90.358l.027-.291M240.065 90.358l.308.09M240.026 91.488l.36.01M240.026 91.488l.03.325M239.48 94.18l-.098-.287M239.477 94.18l.26-.187M239.708 94.657l.198-.094M239.708 94.657l.152.148M240.346 94.855l.034-.372M240.346 94.855l.412.023M240.337 95.879l.767-.105M240.337 95.879l.45.571M238.5 96.838l.014-.243M238.5 96.838l.257-.07M238.588 97.516l.2-.04M238.588 97.516l.011.184M237.37 98.479l.227.056M237.37 98.479l-.042.21M236.524 98.35l-.145.448M236.524 98.35l-.492.145M228.46 74.6l-1.963 2.016M228.46 74.6l-2.312-1.684M229.81 72.015l-1.596-.35M229.81 72.015l-.442-1.431M239.2 67.587l-.845-.526M239.2 67.587l.17-.914M242.03 67.352l.16-2.514M242.03 67.352l2.327-1.381M255.02 71.078l-2.2-.69M255.02 71.078l.895-1.945M262.22 73.633l2.485-3.145M262.22 73.633l3.922 1.533M266.7 79.407l1.509-3.163M266.7 79.407l3.77.48M267.22 84.334l4.2-1.624M267.22 84.334l2.531 3.44M262.65 85.415l-.488-1.464M262.65 85.415l1.172-1.102M265.78 86.546l1.209-2.702M265.78 86.546l2.96-1.151M269.1 93.205l.584-1.083M269.1 93.205l1.308-.229M269.18 97.553l2.01-.112M269.18 97.553l.176 1.815M262.62 107.8l.332-.858M262.62 107.8l1 .096M261.944 109.21l.449.32M261.944 109.21l-.21.48M257.24 112.32l1.347.546M257.24 112.32l-.161 1.327M255.44 111.99l-.12.935M255.44 111.99l-.992.282M248.51 100.14l-2.295-.52M248.51 100.14l-1.04-1.922M252.9 99.729l.307-1.416M252.9 99.729l1.59-.119M255.6 100.04l-1.557-1.403M255.6 100.04l1.196-1.668M258.98 104.08l1.695-1.195M258.98 104.08l1.239 1.587M260.63 108.25l-.396-1.62M260.63 108.25l1.053-1.36M263.07 111.64l1.8-.56M263.07 111.64l1.065 1.427M261.132 114.33l.698-.398M261.132 114.33l.471.613M260.168 115.517l.765.741M260.17 115.52l-.421.94M247.02 128.16l1.272-1.014M247.02 128.158l1.308.975M246.08 130.1l1.236.232M246.08 130.1l.107 1.137M241.3 130.9l.617.556M241.3 130.9l-.36.718M240.26 130.36l-.25.302M240.26 130.36l-.367-.18M238.692 130.028l.69.25M238.692 130.028l.258.63M237.358 130.1l-.104.333M237.358 130.1l-.383.014M235.4 129.87l.364 1.36M235.4 129.87l-1.265.806M234.08 128.26l-.7.225M234.08 128.26l-.682-.267M229.77 137.96l.356-.22M229.768 137.961l.295.285M229.608 138.387l.475.01M229.61 138.39l-.058.426M228.726 138.789l.22.019M228.726 138.789l.057.192M228.183 138.8l.003.136M228.183 138.8l-.147.027M227.74 138.707l.099-.024M227.74 138.707l.048.082M227.5 138.876l.197.106M227.5 138.876l-.08.193M226.6 138.82l.097.116M226.6 138.82l-.107.108M226.26 138.462l-.267.13M226.26 138.46l-.27-.124M224.6 137.1l.107.158M224.6 137.1l-.117.153M224.39 137l-.036.172M224.39 137l-.194-.008M224.11 136.6l-.058.052M224.11 136.6l-.071-.034M224.14 136.42l-.064-.008M224.14 136.42l-.027-.054M223.29 136.57l-.017.251M223.29 136.57l-.27.062M222.96 136.08l-.216.189M222.96 136.08l-.214-.19M223.167 134.77l-.167.186M223.17 134.77l-.24-.105M223.42 134.4l-.215-.106M223.419 134.4l.067-.213M221.88 130.2l.126.282M221.88 130.2l-.248.206M221.48 129.89l-.272.335M221.48 129.89l-.448-.092M221.639 128.71l-.117.043M221.64 128.71l-.06-.1M221.84 128.56l-.156-.14M221.84 128.56l.123-.164M222.14 127.27l-.074.262M222.14 127.27l-.298-.03M222.57 126.54l-.224-.15M222.57 126.535l.17-.198M223.29 126.52l-.2-.003M223.29 126.52l.022-.18M223.67 126.57l.019-.102M223.67 126.57l.112-.021M224.01 124.18l-.24.126M224.01 124.18l-.225-.147M224.35 123.74l-.306-.143M224.35 123.74l.145-.283M225.58 122.58l-.976-.288M225.58 122.58l-.153-.919M227.02 122.71l.187-.363M227.02 122.71l.442.006M228.34 122.88l-.608-.414M228.34 122.88l.361-.606M229.17 122.98l.019-.436M229.17 122.98l.482-.015M230.23 123.81l-.161-.492M230.23 123.81l.436-.328M230.66 124.533l.389-.232M230.66 124.533l.322.305M229.027 122.917l.35.3M229.03 122.92l-.058.434M228.35 122.7l-.097.22M228.35 122.7l-.253.06M227.99 121.56l-.083.135M227.99 121.56l-.165-.04M228.15 121.21l-.225-.084M228.15 121.21l.08-.208M228.02 119.99l-.206.26M228.02 119.99l-.353.019M228.05 119.55l-.207.03M228.05 119.55l-.083-.174M229.58 118.45l-.163-.031M229.58 118.45l.039-.147M230.211 118.57l.14-.154M230.211 118.57l.22.003M230.13 116.45l-.162.158M230.13 116.45l-.22-.082M230.3 115.99l-.17-.025M230.3 115.99l.034-.154M230.87 114.96l-.561.037M230.87 114.96l-.248-.457M232.49 114.87l.02-.319M232.492 114.872l.35.044M234.39 115.03l-.286-.151M234.39 115.03l.097-.286M234.98 115.146l.205-.386M234.98 115.146l.473-.022M236.21 115.24l-.072-.834M236.21 115.24l.902-.186M236.81 116.4l.377-.2M236.81 116.399l.214.345M228.176 115.46l-.275.898M228.18 115.46l-1.03-.019M228.3 113.81l-1.02-.014M228.3 113.81l-.38-.855M228.32 111.88l-1.115.304M228.32 111.88l-.727-.822M229.98 110.26l-1.364-.972M229.98 110.26l.399-1.529M237 108.74l-.522-.154M237 108.74l-.1-.49M237.63 108.61l-.136-.486M237.63 108.61l.337-.398M239.79 108.9l-.08-.454M239.79 108.9l.483-.143M240.5 110.076l.576-.165M240.5 110.076l.262.492M244.7 109.7l-1.115.154M244.7 109.7l-.687-.81M246.58 108.96l-.468-.795M246.58 108.96l.86-.453M250.46 111.18l.362-.85M250.46 111.18l.953-.292M250.82 112.21l.557-.41M250.816 112.212l.295.593M250.48 111.94l-.464-.339M250.48 111.94l.376-.42M251.98 113.1l.504-.727M251.98 113.1l.843.394M253.44 116.72l.62-.402M253.439 116.717l.359.61M251.7 118.31l.748.74M251.7 118.31l-.724.758M252.544 123.12l.183.544M252.544 123.12l-.578.224M251.9 122.22l-.42.091M251.9 122.22l-.292-.288M252.12 120.67l-.515.246M252.12 120.67l-.27-.466M252.48 120.28l-.484-.238M252.48 120.28l.038-.497M253.055 119.32l-.2.11M253.06 119.32l-.226-.056M253.4 118.75l-.439-.13M253.4 118.75l-.023-.417M254.4 118.14l-.419-.237M254.4 118.142l.036-.446M255.73 118.356l.109-.275M255.73 118.356l.316.063M255.15 119.72l-.133.247M255.15 119.72l-.293.073M255.108 119.39l-.135.023M255.11 119.39l-.092-.092M255.42 118.85l-.264-.03M255.42 118.85l-.073-.231M255.74 118.73l-.254-.225M255.74 118.73l.242-.235M256.69 118l-.131.01M256.69 118l-.034-.115M256.96 117.93l-.048-.067M256.96 117.93l.074-.044M257.62 117.69l-.383-.31M257.62 117.69l.2-.428M258.31 118.25l.351-.32M258.308 118.249l.316.348M255.306 119.139l.048.378M255.31 119.14l-.393.135M255.17 118.62l-.447.063M255.17 118.62l-.32-.29M255.73 117.05l-.314.231M255.73 117.05l-.303-.242M256.36 116.7l-.092-.218M256.36 116.7l.213-.13M257.26 115.51l-.629.297M257.26 115.51l-.633-.291M258.13 114.48l-.355-.182M258.13 114.482l.1-.358M261.54 114.1l-.77-.605M261.543 114.1l.463-.822M263.05 115.017l.309-.98M263.05 115.017l1.03.414M263.86 117.62l-.525-.07M263.86 117.62l-.18-.451M264.53 117.47l-.112-.31M264.532 117.47l.246-.238M266.2 118.28l.11-.36M266.2 118.28l.399-.093M266.37 118.95l.323-.008M266.37 118.948l.108.275M266.477 120.48l.067-.162M266.477 120.48l.162-.092M266.61 120.76l.216-.074M266.608 120.762l.18.132M266.47 121.79l.344-.136M266.47 121.79l.156.309M265.963 122.075l.043.218M265.96 122.08l-.117.194M272.96 126.22l-.05.012M272.96 126.22l-.035-.035M273.04 126.13l-.075-.038M273.04 126.13l-.002-.078M273.22 125.98l-.118-.054M273.22 125.98l-.01-.12M273.37 125.97l-.01-.057M273.37 125.97l.061-.018M274.23 126.05l-.163-.032M274.23 126.05l.012-.15M274.56 126.08l.011-.129M274.56 126.08l.142.009M275 126.62l.06-.082M275 126.62l.106.02M274.99 126.77l.16-.045M274.987 126.771l.087.128M274.92 126.22l-.18-.041M274.92 126.22l-.063-.158M275.3 126.17l-.05-.262M275.3 126.17l.245-.146M276.21 126.32l-.11-.196M276.211 126.32l.18-.148M276.576 126.78l.266-.15M276.576 126.78l.253.167M277.14 127.35l-.144-.292M277.14 127.35l.342-.083M277.642 128.08l.497-.33M277.642 128.08l.4.424M276.95 129.23l.12-.087M276.949 129.232l.083.117M276.452 129.535l.203.184M276.45 129.54l-.17.21M278.01 129.36l-.206-.178M278.01 129.36l.148-.22M278.62 129.54l.188-.418M278.618 129.539l.499.02M279.823 130.38l.311-.537M279.823 130.38l.661-.105M279.91 131.1l.442-.088M279.91 131.1l.328.283M279.57 130.81l-.329-.373M279.57 130.809l.243-.423M280.77 131.7l.431-.358M280.77 131.7l.46.327M280.31 133.637l.187-.291M280.31 133.637l.331.154M279.829 134.33l.304.206M279.829 134.33l-.015.344M278.14 137.44l-.114-.526M278.137 137.44l.536-.229M278.37 138.23l.568-.138M278.372 138.234l.41.381M277.43 140.06l.802-.03M277.428 140.055l.065.724M276.74 140.306l.142.395M276.74 140.306l-.311.307M275.59 141.49l.642-.186M275.588 141.489l.202.58M274.944 141.972l.576.36M274.94 141.97l-.33.558M271.208 142.48l.383.476M271.208 142.48l-.57.286M270.131 141.36l-.934.462M270.13 141.36l-.649-.765M261.47 134.4l.203-.008M261.472 134.4l.106.156M261.146 134.63l.101.162M261.146 134.63l-.132.142M260.13 134.783l.17.247M260.13 134.783l-.145.26M259.63 134.63l-.001.168M259.633 134.63l-.184.016M259.184 133.594l.11.126M259.18 133.59l-.108.127M259 133.55l-.032.147M259 133.55l-.143.077M258.425 132.58l-.184.128M258.42 132.58l-.2-.107M258.56 132.33l-.15-.11M258.56 132.33l.028-.172M257.98 129.74l-.06.198M257.98 129.74l-.226.022M257.84 129.26l-.251-.008M257.84 129.26l-.18-.16M257.92 129.14l-.082.18M257.92 129.14l-.213-.028M258.04 128.74l-.144-.083M258.04 128.74l.02-.153M258.42 127.3l-.415.107M258.42 127.3l-.388-.173M258.96 126.82l-.15-.158M258.96 126.82l.102-.187M259.59 126.15l-.406-.371M259.59 126.15l-.017-.522M260.5 126.18l-.074-.638M260.5 126.183l.646-.261M262.14 128.454l.027.035M262.14 128.454l-.034.031M262.04 128.35l-.083.036M262.04 128.35l-.062-.061M262.01 127.96l-.041.027M262.01 127.96l-.02-.042M262.07 127.9l-.068-.055M262.067 127.9l.006-.082M262.61 127.37l-.034.016M262.61 127.37l-.02-.028M262.73 127.3l-.026-.034M262.73 127.3l.037-.024M262.81 127.21l-.081-.03M262.81 127.21l.008-.08M263.04 127.284l.02-.065M263.04 127.28l.075-.006M263.63 127.3l-.075.044M263.63 127.3l-.07-.05M263.7 127.18l-.067-.018M263.7 127.18l.02-.06M263.93 126.89l-.107-.04M263.93 126.89l-.004-.104M264.14 126.87l-.005-.195M264.14 126.87l.168-.122M264.48 127.25l-.093-.047M264.48 127.25l-.017-.095M264.62 127.23l.003-.073M264.62 127.23l.07-.037M264.866 127.41l.054-.111M264.866 127.41l.133-.01M264.87 127.51l.114-.008M264.873 127.508l.05.093M267.77 125.355l.017.271M267.77 125.355l-.221.183M267.53 124.607l-.196.026M267.53 124.61l-.07-.168M268.19 123.92l-.15-.005M268.194 123.92l.033-.132M268.58 123.86l-.177-.23M268.58 123.86l.196-.216M269.16 122.32l-.992.16M269.16 122.32l-.586-.742M270.88 121.65l-.022-.4M270.88 121.65l.38-.205M272.18 122.19l-.337-.249M272.18 122.19l.21-.344M273.375 123.31l.722-.135M273.375 123.31l.56.433M273.19 123.54l-.395-.006M273.19 123.54l-.104-.344M273.99 123.37l-.014-.372M273.988 123.37l.361-.18M274.79 123.62l-.293-.474M274.79 123.62l.36-.434M275.44 123.9l.073-.563M275.44 123.9l.615-.11M275.8 124.54l-.3-.352M275.8 124.54l.423-.226M276.41 125.16l.398-.406M276.409 125.161l.553.21M276.476 125.94l.115-.28M276.476 125.94l.324.054M276.346 126.326l.154.011M276.346 126.326l.034.136M276.32 128.89l-.192-.064M276.315 128.89l.05-.18M276.76 128.91l.047-.093M276.76 128.91l.113-.009M277.56 129.12l.062-.15M277.56 129.12l.173-.036M277.64 129.724l.355-.051M277.64 129.724l.076.318M277.84 129.51l-.02-.348M277.842 129.51l.368-.106M278.11 129.988l.151-.083M278.11 129.988l.148.088M278.04 131.1l.406-.035M278.04 131.1l.212.314M277.404 131.45l.404.337M277.4 131.45l-.354.38M277.1 131.84l.017-.15M277.1 131.84l.165-.016M277.12 132.01l.084-.03M277.118 132.006l.067.054M276.989 132.19l.085-.04M276.989 132.19l.034.082M276.866 132.253l.02.03M276.87 132.25l-.018.031M276.946 132.65l.115-.032M276.946 132.65l.069.089M276.665 132.88l.204.148M276.665 132.88l-.189.163M276.096 132.9l.149.109M276.1 132.9l-.135.123M275.854 132.79l-.087.158M275.854 132.79l-.194.022M281.15 130.88l-.035.22M281.15 130.88l-.24.046M281.04 130.44l-.327.077M281.04 130.44l-.107-.29M281.5 129.78l-.156-.02M281.5 129.78l-.015-.142M281.69 129.7l-.041-.084M281.69 129.7l.076-.06M282.52 129.02l-.194.002M282.52 129.02l-.091-.155M283.14 128.85l-.078-.176M283.14 128.85l.183-.093M283.77 129.37l-.034-.125M283.769 129.37l.137-.035M283.907 129.59l.179-.033M283.907 129.59l.093.142M285.63 130.37l-.294-.11M285.63 130.374l.115-.268M285.97 130.46l.116-.253M285.97 130.46l.301-.028M286.02 130.74l.017-.105M286.02 130.74l.114-.027M286.08 130.87l.079-.023M286.08 130.87l.05.06M286.18 131.08l-.084-.09M286.178 131.08l.085-.09M286.38 131.26l.097-.057M286.383 131.257l.11.03M286.31 131.79l.083-.015M286.314 131.792l.061.052M286.17 131.9l.066.038M286.17 131.9l-.02.069M286.68 128.24l-.638.092M286.68 128.24l-.199-.556M287.47 127.46l-.977-.733M287.47 127.46l.34-1.106M290.17 127.92l-.244-.364M290.17 127.92l.305-.324M290.9 128.29l.238-.196M290.9 128.29l.319.037M293.33 129.54l-.207-.935M293.33 129.54l.83-.586M294.27 130.708l.813-.612M294.27 130.708l1.005.299M293.959 132.08l.74-.35M293.959 132.08l.655.47M293.564 132.764l.33.156M293.56 132.76l-.104.323M291.87 134.47l-.015-.188M291.87 134.47l.131-.146M292.06 134.69l.114-.146M292.06 134.69l.165.1M292.21 134.76l-.006-.176M292.21 134.76l.189-.045M292.29 135.26l.331-.003M292.293 135.255l.22.224M291.86 136.53l.063-.063M291.858 136.527l.057.069M291.673 136.73l.106.073M291.673 136.73l-.064.107M290.994 137.363l.217.112M290.99 137.36l-.097.208M290.33 137.12l-.063.27M290.33 137.12l-.298.06M285.68 133.92l-.188.338M285.68 133.92l-.412-.06M285.96 133.23l-.225-.117M285.96 133.23l.101-.215M286.98 132.79l-.415-.294M286.98 132.79l.12-.464M287.74 132.86l.186-.444M287.741 132.862l.524.032M289.98 132.65l-.402-.105M289.975 132.65l.125-.361M290.694 132.75l.156-.362M290.694 132.75l.417-.092M292.07 133.77l.189-.236M292.07 133.77l.32-.024M292.04 134.58l.732-.108M292.035 134.581l.203.645M290.32 134.85l-.216-.105M290.32 134.85l.01-.222M291.03 134.71l-.31-.374M291.03 134.712l.452-.228M293.02 135.82l.165-.527M293.02 135.82l.586-.137M293.2 136.49l.212-.038M293.198 136.49l.144.145M292.78 138.7l.134-.21M292.78 138.7l.203.157M292.7 139.08l.306-.072M292.7 139.08l.065.28M291.668 139.648l.23.122M291.67 139.65l-.04.239M291.31 139.639l.14.294M291.31 139.639l-.28.192M291.97 139.42l-.185-.082M291.97 139.42l.081-.171M292.25 139.45l.032-.103M292.25 139.45l.115-.024M293.1 140.02l.142-.216M293.101 140.02l.278.012M293.075 140.42l.336.07M293.075 140.42l.148.281M293.353 142.07l.238-.507M293.353 142.07l.605.058M293.253 142.954l.415.096M293.253 142.954l.095.378M291.933 143.764l.153.185M291.93 143.76l-.127.2M291.58 143.72l.002.354M291.58 143.72l-.361.14M291.27 144.56l.21-.178M291.272 144.565l.273.085M291.17 145.09l.231-.03M291.174 145.088l.07.202M290.122 145.67l.217.2M290.122 145.67l-.02.28M289.79 145.63l-.047.222M289.79 145.63l-.232.084M287.916 146.723l.489.487M287.92 146.72l.004.658M286.9 146.4l-.12.548M286.9 146.4l-.594-.15M286.736 145.855l.061.305M286.74 145.86l-.327.094M286.551 145.59l-.153.098M286.55 145.59l-.142-.111M281.3 152.08l.077.003M281.3 152.08l.04.059M281.12 152.14l.007.11M281.12 152.14l-.09.073M280.36 152.01l-.08.21M280.36 152.01l-.243-.032M280.3 151.58l-.157.057M280.3 151.58l-.061-.143M280.43 150.34l-.086.11M280.43 150.34l-.144.033M280.48 150.08l-.09-.03M280.48 150.08l.015-.086M280.8 149.79l-.054-.045M280.8 149.79l.002-.067M281.02 149.8l-.05-.119M281.02 149.8l.113-.077M281.64 149.01l-.071.057M281.64 149.01l-.07-.059M281.86 148.73l-.08-.077M281.86 148.73l.063-.089M282.21 148.37l-.327-.166M282.21 148.37l-.068-.333M282.7 148.38l-.039-.153M282.7 148.38l.168-.042M282.72 148.38l-.17-.027M282.72 148.38l-.02-.154M283.4 148.31l.092-.37M283.4 148.31l.42-.016M283.64 148.51l-.167-.178M283.64 148.51l.228-.108M283.9 148.73l.102-.213M283.9 148.73l.255.023M282.83 149.432l-.023.077M282.83 149.432l-.085.022M282.82 149.31l-.061-.013M282.82 149.31l-.036-.047M282.86 149.1l-.082.066M282.86 149.1l-.095-.05M282.96 149l-.07-.062M282.96 149l.048-.076M283.091 148.44l-.323.073M283.09 148.44l-.257-.192M283.48 148.11l-.28-.289M283.479 148.11l.101-.373M284.25 148.37l-.111-.094M284.25 148.37l.06-.127M284.43 148.471l.059-.128M284.43 148.471l.152.021M285.01 148.57l-.107-.003M285.01 148.57l-.028-.093M285.18 148.47l-.065-.134M285.18 148.47l.1-.115M285.37 148.52l-.085-.065M285.37 148.52l.045-.092M285.51 148.6l.044-.038M285.51 148.6l.057.02M286.07 148.63l-.064-.028M286.07 148.63l.011-.065M286.2 148.68l.01-.043M286.2 148.68l.046-.011M286.51 149.08l.063-.047M286.508 149.082l.077.024M286.47 149.25l.14-.036M286.467 149.249l.035.127M288.931 150.85l-.122.046M288.93 150.85l-.1-.08M289.05 150.7l-.077-.055M289.05 150.7l.039-.082M289.58 150.61l-.084-.133M289.58 150.61l.063-.142M289.78 150.693l.06-.113M289.78 150.693l.138.002M289.89 150.89l-.125-.071M289.886 150.89l.07-.117M290.03 150.92l-.007-.104M290.03 150.916l.105-.044M290.24 151.1l.038-.133M290.24 151.1l.148.033M290.26 151.28l.12-.009M290.257 151.28l.072.089M289.66 151.24l-.094.011M289.66 151.24l-.014-.084M289.77 151.18l-.032-.093M289.77 151.18l.066-.077M289.97 151.16l-.018-.04M289.97 151.16l.028-.035M290.07 151.2l.014-.1M290.07 151.2l.103-.037M290.16 151.37l-.05-.03M290.157 151.37l.034-.044M290.24 151.4l.021-.058M290.24 151.4l.066.005M290.34 151.6l.038-.048M290.34 151.6l.051.037M290.32 151.67l.068-.008M290.321 151.667l.03.055M290.42 152.79l-.032.007M290.42 152.79l-.021-.024M290.48 152.77l-.012-.034M290.481 152.77l.03-.023M290.53 152.79l-.004-.005M290.53 152.79l.005-.004M290.54 152.81l.007-.01M290.54 152.81l.01.005M290.67 152.88l-.015-.04M290.67 152.88l.037-.027M290.72 152.93l.027-.018M290.719 152.934l.021.023M290.71 152.98l.008-.009M290.71 152.98l.011.006M290.7 153l.014-.004M290.7 153l.008.01M290.72 153.34l.008-.024M290.72 153.34l.027-.002M290.73 153.38l.008-.004M290.73 153.38l.006.007M290.73 153.42l.014-.01M290.73 153.42l.018.002M290.72 153.45l.007.006M290.72 153.45l-.005.008M290.76 153.562l.012-.028M290.76 153.562l.032.011M290.75 153.61l.04-.004M290.751 153.606l.018.032M290.572 153.744l.027.017M290.57 153.74l.003.03M290.5 153.73l-.01.024M290.5 153.73l-.027.001M285.336 149.987l.242.352M285.34 149.99l-.427.15M284.82 149.58l-.261.443M284.82 149.58l-.55-.075M284.29 148.93l-.06.326M284.29 148.93l-.335-.133M284.22 148.166l-.337.061M284.22 148.17l-.263-.2M284.19 147.83l-.053.408M284.19 147.83l-.395.205M283.84 146.88l-.25.123M283.84 146.88l-.104-.24M284.9 144.74l-.724.001M284.9 144.74l-.028-.655M286 144.46l-.15-.72M286 144.46l.583-.507M288.38 143.588l-.255.591M288.38 143.588l-.7.036M288.6 142.73l-.349.005M288.6 142.73l.005-.316M289.88 142.44l-.33-.102M289.88 142.441l.116-.298M290.37 142.538l.041-.14M290.37 142.538l.157.029M290.63 142.29l-.424-.107M290.63 142.29l-.017-.398M291.31 142.14l-.153-.36M291.31 142.14l.32-.255M292.84 143.13l.029-.143M292.84 143.13l.156-.032M292.864 143.57l.362.017M292.864 143.57l.189.28M294.28 145.65l-.21.04M294.28 145.65l-.182-.102M294.66 145.34l-.211-.278M294.664 145.34l.125-.318M295.67 145.33l-.047-.065M295.67 145.33l.054-.06M295.93 145.44l.07-.093M295.93 145.44l.125-.006M296.74 145.88l-.243-.205M296.74 145.88l.052-.298M297.16 146.04l.076-.096M297.159 146.039l.127.028M297.374 146.63l.11-.192M297.374 146.63l.24.002M297.28 146.928l.098.022M297.28 146.93l-.009.09M296.89 147.65l-.033-.045M296.89 147.65l.026-.05M296.98 147.7l.041-.04M296.98 147.7l.06-.001M297.13 147.91l.02-.083M297.128 147.913l.09.018M297.12 148.01l.037-.002M297.12 148.01l.021.029M297.32 148.68l.039-.105M297.324 148.677l.112.043M297.26 148.972l.252.05M297.26 148.972l.087.22M296.64 149.4l.224.12M296.64 149.4l-.082.223M296.365 149.377l.042.13M296.36 149.38l-.148.022M306.79 151.4l-.301.011M306.79 151.4l-.188-.214M307.22 151.17l-.126-.318M307.22 151.17l.277-.226M308.5 150.92l-.088-.378M308.5 150.915l.215-.333M309.05 151.38l.13-.205M309.046 151.378l.254.053M308.98 149.36l-1.1-.533M308.98 149.36l.401-1.068M310.71 149.44l-.518-1.306M310.71 149.44l1.516-.212M312.5 150.93l.063-.58M312.5 150.93l.564-.28M313.17 152.126l.636-.485M313.17 152.126l.69.42M311.47 156.02l-.07-.11M311.47 156.02l.124-.059M311.73 156.21l.073-.172M311.729 156.209l.183.08M311.77 156.58l.024-.087M311.77 156.58l.1.004M311.77 156.85l.131.002M311.769 156.849l.074.098M311.456 157.93l.14-.193M311.456 157.93l.243.067M311.31 158.2l.196.13M311.31 158.2l.005.22M310.85 158.451l.113.058M310.85 158.451l-.022.116M310.3 158.38l-.124.324M310.3 158.38l-.373.062M313.94 170.42l-.057-.634M313.94 170.42l.59-.348M314.5 172.32l.45-.105M314.5 172.32l.05.418M313.81 174.03l.939-.163M313.809 174.031l.375.796M311.612 174.95l.477.99M311.61 174.95l-1.145.306M313.87 174.22l1.099-1.195M313.87 174.22l1.518.728M313.065 176.526l.667.325M313.06 176.53l-.15.672M310.79 177.99l1.074.32M310.79 177.99l.026 1.023M308.78 178.2l.135 1.152M308.78 178.2l-.859.86M308.21 174.917l.745-.974M308.21 174.917l1.276.264M307.81 176.89l1.18.348M307.81 176.89l.073 1.12M304.575 177.987l.42.197M304.58 177.99l-.1.42M303.85 177.86l-.059.63M303.85 177.86l-.594.331M299.292 178.162l.68.13M299.292 178.162l.138.616M297.77 178.24l-.159 1.139M297.77 178.24l-1.231.275M294.63 175.62l-.336 1.133M294.63 175.62l-1.294-.078M294.29 174.1l-.736-.065M294.29 174.1l-.511-.483M303.77 161.54l-.078.055M303.77 161.54l-.092-.033M303.88 161.26l-.2-.064M303.88 161.26l-.047-.186M304.1 160.52l-.331.078M304.1 160.52l-.033-.309M304.95 160.357l.018-.229M304.95 160.357l.25-.038M306.62 159.12l-.65-.124M306.62 159.12l.152-.585M308.21 159.34l.302-.617M308.209 159.338l.723.164M309.2 159.66l.05-.675M309.2 159.66l.606-.397M309.78 160.9l.614-.41M309.78 160.9l.363.607M314.34 157.85l-1.288-.37M314.34 157.85l-.108-1.218M316.67 158.03l.276-1.202M316.67 158.03l1.318-.291M317.86 158.963l.053-.517M317.86 158.963l.557-.122M318.44 159.9l.571-.169M318.44 159.9l.523.269M321.88 163.38l-.226-.424M321.88 163.38l.447-.242M322.64 164.463l.549-.383M322.64 164.463l.502.432M322.21 169.42l1.136.067M322.211 169.416l.584.884M320.417 170.31l.219.477M320.417 170.31l-.294.442M313.9 167.84l-.255.178M313.9 167.84l-.297-.112M314.3 167.05l-.428-.176M314.3 167.05l.189-.39M315.59 166.68l-.254-.127M315.59 166.68l.086-.25M316.37 167.07l.225-.28M316.374 167.068l.362.111M316.76 166.8l-.564-.178M316.76 166.8l-.027-.54M317.97 166.968l.306-.54M317.97 166.968l.645.166M318.99 167.91l-.047-.54M318.99 167.91l.598-.024M319.078 169.16l.744-.05M319.078 169.16l.145.661M318.98 172.13l-.065-.147M318.976 172.13l.09-.136M319.3 172.4l.16-.09M319.3 172.4l.176.062M319.5 173.19l.195-.065M319.5 173.19l.153.127M319.343 173.461l.298.11M319.343 173.461l.054.287M319.2 174.29l.252-.195M319.2 174.29l.316.092M318.94 174.76l.162.177M318.94 174.76l-.058.225M318.62 174.8l.11-.046M318.62 174.8l.075.086M318.4 174.9l.089.156M318.4 174.9l-.162.096M321.76 171.92l-1.48-.372M321.76 171.92l-.494-1.316M325.25 171.48l-.087-1.467M325.25 171.48l1.146-1.04M330.41 175.11l1.09-2.409M330.41 175.11l2.687-.932M330.66 178.79l2.272.583M330.66 178.79l.99 1.939M330.77 178.51l-.646-.833M330.77 178.51l.675-.814M332.07 181.54l1.35-.534M332.07 181.54l.883 1.067M332.52 183.9l2.325-1.318M332.52 183.9l2.347 1.286M329.65 187.07l1.762 1.902M329.65 187.07l-1.286 2.193M325.64 184.29l-.05-.346M325.64 184.29l.355-.137M325.868 184.8l.162-.101M325.868 184.8l.106.15M326.022 185.19l.16-.188M326.022 185.19l.26.02M325.49 186.094l.412.355M325.49 186.094l-.368.393M324.5 188.44l.577-.022M324.5 188.44l.218.483M323.99 188.928l.364.273M323.99 188.928l-.162.403M322.74 189.121l.18.108M322.74 189.121l-.1.174M322.2 189.09l.112.532M322.2 189.09l-.424.383M319.93 187.566l.023-.32M319.93 187.566l.316-.145M320.44 188.3l.4-.258M320.44 188.3l.357.306M320.48 189.36l.552-.191M320.475 189.363l.372.416M320.155 189.866l.432.186M320.155 189.866l.082.426M319.92 191.4l.588-.138M319.92 191.402l.493.322M319.416 192.112l.47.32M319.416 192.112l.04.531M318.123 192.38l.29.068M318.123 192.38l.016.27M317.06 192.45l.004.68M317.06 192.45l-.703.24M316.12 192.611l.319-.3M316.12 192.611l.432.146M315.87 193.228l.28.104M315.87 193.23l-.003.275M315.12 193.4l.19.028M315.12 193.4l.05.169M314.68 193.43l-.11.227M314.68 193.43l-.255.09M313.358 193.852l.801.268M313.358 193.852l.349.706M311.87 193.83l-.163.296M311.87 193.83l-.347.103M311.312 193.063l.177.276M311.31 193.06l-.315.143M310.91 192.53l-.25.179M310.91 192.53l-.27-.152M320.45 186.43l-.746-.214M320.454 186.43l.275-.662M321.51 186.33l-.678-.94M321.51 186.33l.763-.886M323.82 186.53l-.451-.904M323.82 186.53l.708-.758M325.4 188.35l1.107-.356M325.4 188.35l.837.745M323.66 190.49l-.415-.306M323.66 190.49l.293-.406M324.23 190.878l.252-.328M324.23 190.878l.436.062M325.37 193.22l.775-.531M325.369 193.215l.712.6M324.415 193.92l.412.302M324.415 193.92l-.398.317M327.95 197.52l.143-.912M327.95 197.52l.819-.547M329.05 199.21l.587-.579M329.047 199.206l.535.62M327.94 202.16l.753-.265M327.937 202.163l.642.443M326.91 203.14l1.313.465M326.91 203.14l-.78 1.063M325.78 205.89l1.188-1.022M325.78 205.89l1.437.714M323.96 207.88l1.437 1.42M323.96 207.88l-.504 1.87M318.99 208.02l.946 1.747M318.99 208.02l-1.377 1.495M316.82 205.97l-1.894 1.276M316.82 205.97l-2.284-.541M319.12 203.46l-.452-.197M319.12 203.46l.288-.371M319.75 203.66l.055-.177M319.746 203.663l.201.027M319.844 204.54l.1-.13M319.844 204.54l.172.036M319.706 204.95l.228.027M319.706 204.95l.049.203M319.353 205.83l.036-.178M319.353 205.83l.177-.082M319.374 206.436l.226.097M319.374 206.436l.088.212M318.6 206.9l.114.035M318.6 206.9l.006.109M318.06 206.84l-.098.214M318.06 206.84l-.25-.046M316.12 209.29l.085-.466M316.12 209.29l.52-.025M316.14 209.75l.518-.048M316.142 209.747l.25.413M315.8 210.45l.475-.082M315.8 210.45l.152.416M315.05 210.8l.155.24M315.05 210.8l-.212.202M310.534 212.54l.338.244M310.534 212.54l-.23.33M309.72 212.15l-.04.592M309.72 212.15l-.656-.01M308.55 210.48l-.249.539M308.55 210.48l-.628-.137M308.8 208.93l-.542-.233M308.8 208.93l-.08-.538M302.17 208.52l-.13-.121M302.168 208.52l.068-.156M302.44 208.629l.058-.175M302.44 208.629l.201.01M302.68 208.88l.079-.117M302.68 208.88l.152-.002M302.61 209.227l.15.039M302.61 209.227l.002.141M302.58 210.36l.175-.128M302.583 210.361l.188.113M302.446 210.724l.22.037M302.45 210.72l.004.202M302.142 210.994l.288.054M302.142 210.994l.09.253M301.728 211.123l.06.1M301.73 211.12l-.103.068M300.04 212.77l.498-.706M300.041 212.773l.766.471M299.433 213.814l.648.484M299.433 213.814l.124.752M297.39 214.012l.153.097M297.39 214.012l-.116.132M296.89 213.82l-.148.19M296.89 213.82l-.246-.065M294.272 213.514l.178.482M294.27 213.51l-.47.28M293.61 212.98l-.21.476M293.61 212.98l-.564-.043M292.773 212.3l-.037.45M292.773 212.3l-.483.117M293.03 210.48l-.982-.345M293.033 210.48l.147-.943M296.8 213.1l.425-.948M296.8 213.1l1.034.414M296.239 214.635l.526.35M296.24 214.64l.008.591M293.806 215.631l.378.29M293.806 215.631l.015.448M292.42 215.357l-.263.721M292.42 215.357l-.815.18M292.577 214.955l.45.093M292.58 214.96l-.06.415M291.29 214.971l.065.723M291.29 214.971l-.778.18M290.13 214.5l.057.714M290.13 214.5l-.72.299M289.53 213.43l-.442.023M289.53 213.43l-.303-.291M286.485 209.99l.267.1M286.485 209.99l-.1.244M285.4 209.55l-.229.322M285.4 209.55l-.398-.129M285.48 208.35l-.203.186M285.48 208.35l-.29.005M285.62 207.92l-.272-.081M285.62 207.92l-.053-.254M284.06 207.41l-.482.738M284.06 207.41l-.948.007M283.95 206.18l-.703-.008M283.95 206.18l-.453-.486M285.84 204.54l-.69-.316M285.84 204.54l.107-.693M286.91 204.44l-.035-.403M286.91 204.436l.434-.1" stroke-width=".4"/></g></svg>
