<svg xmlns="http://www.w3.org/2000/svg" viewBox="0 0 77.7 101.28"><defs><style>.cls-2{stroke:#ccc;stroke-miterlimit:10;fill:#ccc;stroke-width:4px}</style></defs><rect x="3" y="3" width="71.7" height="95.28" rx="4.86" stroke="#ccc" stroke-miterlimit="10" fill="none" stroke-width="6"/><path class="cls-2" d="M8.67 46h27.01M8.67 54.89h27.01M8.67 63.78h27.01m6.2-17.95h27.01M41.88 60.42h27.01M8.67 73.44h27.01M8.67 86.26h27.01m8.26-14.67h22.71v15.09H43.94z"/><path d="M43.94 83.88C45.08 79 46.16 77.7 47 77.67c1.89-.07 2.48 5.79 5.36 6.21 2.35.34 3.48-3.31 8-5.22a13.88 13.88 0 016.21-1" stroke-width="2" fill="#fff" stroke="#000" stroke-miterlimit="10"/><path class="cls-2" d="M12.97 16.46h51.75m-40.85 8.85h29.96"/><path d="M19.52 31.81h13.51m-13.51 5.33h13.51m10.91-5.33h13.51m-13.51 5.33h13.51" stroke-width="3" stroke="#ccc" stroke-miterlimit="10" fill="#ccc"/></svg>