<svg xmlns="http://www.w3.org/2000/svg" viewBox="0 0 77.7 101.28"><defs><style>.cls-1{fill:none;stroke-width:6px;}.cls-1,.cls-2,.cls-3,.cls-4{stroke:#000;stroke-miterlimit:10;}.cls-2,.cls-3,.cls-4{fill:#fff;}.cls-2{stroke-width:4px;}.cls-3{stroke-width:2px;}.cls-4{stroke-width:3px;}</style></defs><title>article_light</title><g id="Layer_2" data-name="Layer 2"><g id="Layer_1-2" data-name="Layer 1"><rect class="cls-1" x="3" y="3" width="71.7" height="95.28" rx="4.86"/><line class="cls-2" x1="8.67" y1="46" x2="35.68" y2="46"/><line class="cls-2" x1="8.67" y1="54.89" x2="35.68" y2="54.89"/><line class="cls-2" x1="8.67" y1="63.78" x2="35.68" y2="63.78"/><line class="cls-2" x1="41.88" y1="45.83" x2="68.89" y2="45.83"/><line class="cls-2" x1="41.88" y1="60.42" x2="68.89" y2="60.42"/><line class="cls-2" x1="8.67" y1="73.44" x2="35.68" y2="73.44"/><line class="cls-2" x1="8.67" y1="86.26" x2="35.68" y2="86.26"/><rect class="cls-2" x="43.94" y="71.59" width="22.71" height="15.09"/><path class="cls-3" d="M43.94,83.88C45.08,79,46.16,77.7,47,77.67c1.89-.07,2.48,5.79,5.36,6.21,2.35.34,3.48-3.31,8-5.22a13.88,13.88,0,0,1,6.21-1"/><line class="cls-2" x1="12.97" y1="16.46" x2="64.72" y2="16.46"/><line class="cls-2" x1="23.87" y1="25.31" x2="53.83" y2="25.31"/><line class="cls-4" x1="19.52" y1="31.81" x2="33.03" y2="31.81"/><line class="cls-4" x1="19.52" y1="37.14" x2="33.03" y2="37.14"/><line class="cls-4" x1="43.94" y1="31.81" x2="57.45" y2="31.81"/><line class="cls-4" x1="43.94" y1="37.14" x2="57.45" y2="37.14"/></g></g></svg>