<svg height="288" viewBox="0 0 360 216" width="480" xmlns="http://www.w3.org/2000/svg" xmlns:xlink="http://www.w3.org/1999/xlink"><defs><style>*{stroke-linecap:butt;stroke-linejoin:round}</style></defs><g id="figure_1"><path d="M0 216h360V0H0z" fill="#fff" id="patch_1"/><g id="axes_1"><path d="M10.8 188.12h338.4V15.96H10.8z" fill="#fff" id="patch_2"/><path clip-path="url(#p8d91d8deec)" d="M26.182 188.12h42.432-42.432z" fill="#1f77b4" id="patch_3"/><path clip-path="url(#p8d91d8deec)" d="M79.223 188.12h42.432v-13.117H79.223z" fill="#1f77b4" id="patch_4"/><path clip-path="url(#p8d91d8deec)" d="M132.263 188.12h42.433v-19.675h-42.433z" fill="#1f77b4" id="patch_5"/><path clip-path="url(#p8d91d8deec)" d="M185.304 188.12h42.433v-39.35h-42.433z" fill="#1f77b4" id="patch_6"/><path clip-path="url(#p8d91d8deec)" d="M238.345 188.12h42.432V96.301h-42.432z" fill="#1f77b4" id="patch_7"/><path clip-path="url(#p8d91d8deec)" d="M291.386 188.12h42.432V24.158h-42.432z" fill="#1f77b4" id="patch_8"/><g id="matplotlib.axis_1"><g id="xtick_1"><g id="line2d_1"><defs><path d="M0 0v3.5" id="m65bdd5db25" stroke="#000" stroke-width=".8"/></defs><use x="47.398" xlink:href="#m65bdd5db25" y="188.12" stroke="#000" stroke-width=".8"/></g><g id="text_1"><defs><path d="M19.188 8.297h34.421V0H7.33v8.297q5.609 5.812 15.296 15.594 9.703 9.797 12.188 12.64 4.734 5.313 6.609 9 1.89 3.688 1.89 7.25 0 5.813-4.078 9.469-4.078 3.672-10.625 3.672-4.64 0-9.797-1.61-5.14-1.609-11-4.89v9.969Q13.767 71.78 18.938 73q5.188 1.219 9.485 1.219 11.328 0 18.062-5.672 6.735-5.656 6.735-15.125 0-4.5-1.688-8.531-1.672-4.016-6.125-9.485-1.218-1.422-7.765-8.187-6.532-6.766-18.453-18.922z" id="DejaVuSans-50"/><path d="M31.781 66.406q-7.61 0-11.453-7.5Q16.5 51.422 16.5 36.375q0-14.984 3.828-22.484 3.844-7.5 11.453-7.5 7.672 0 11.5 7.5 3.844 7.5 3.844 22.484 0 15.047-3.844 22.531-3.828 7.5-11.5 7.5zm0 7.813q12.266 0 18.735-9.703 6.468-9.688 6.468-28.141 0-18.406-6.468-28.11-6.47-9.687-18.735-9.687-12.25 0-18.718 9.688-6.47 9.703-6.47 28.109 0 18.453 6.47 28.14Q19.53 74.22 31.78 74.22z" id="DejaVuSans-48"/><path d="M12.406 8.297h16.11v55.625l-17.532-3.516v8.985l17.438 3.515h9.86V8.296H54.39V0H12.406z" id="DejaVuSans-49"/><path d="M37.797 64.313L12.89 25.39h24.906zm-2.594 8.593H47.61V25.391h10.407v-8.203H47.609V0h-9.812v17.188H4.89v9.515z" id="DejaVuSans-52"/></defs><g transform="matrix(.1 0 0 -.1 34.673 202.718)"><use xlink:href="#DejaVuSans-50"/><use x="63.623" xlink:href="#DejaVuSans-48"/><use x="127.246" xlink:href="#DejaVuSans-49"/><use x="190.869" xlink:href="#DejaVuSans-52"/></g></g></g><g id="xtick_2"><use x="100.439" xlink:href="#m65bdd5db25" y="188.12" stroke="#000" stroke-width=".8" id="line2d_2"/><g id="text_2"><defs><path d="M10.797 72.906h38.719v-8.312H19.828v-17.86q2.14.735 4.281 1.094 2.157.36 4.313.36 12.203 0 19.328-6.688 7.14-6.688 7.14-18.11 0-11.765-7.328-18.296-7.328-6.516-20.656-6.516-4.593 0-9.36.781-4.75.782-9.827 2.344v9.922q4.39-2.39 9.078-3.563 4.687-1.171 9.906-1.171 8.453 0 13.375 4.437 4.938 4.438 4.938 12.063 0 7.609-4.938 12.047-4.922 4.453-13.375 4.453-3.953 0-7.89-.875-3.922-.875-8.016-2.735z" id="DejaVuSans-53"/></defs><g transform="matrix(.1 0 0 -.1 87.714 202.718)"><use xlink:href="#DejaVuSans-50"/><use x="63.623" xlink:href="#DejaVuSans-48"/><use x="127.246" xlink:href="#DejaVuSans-49"/><use x="190.869" xlink:href="#DejaVuSans-53"/></g></g></g><g id="xtick_3"><use x="153.48" xlink:href="#m65bdd5db25" y="188.12" stroke="#000" stroke-width=".8" id="line2d_3"/><g id="text_3"><defs><path d="M33.016 40.375q-6.641 0-10.532-4.547-3.875-4.531-3.875-12.437 0-7.86 3.875-12.438 3.891-4.562 10.532-4.562 6.64 0 10.515 4.562 3.875 4.578 3.875 12.438 0 7.906-3.875 12.437-3.875 4.547-10.515 4.547zm19.578 30.922v-8.984q-3.719 1.75-7.5 2.671-3.782.938-7.5.938-9.766 0-14.922-6.594-5.14-6.594-5.875-19.922 2.875 4.25 7.219 6.516 4.359 2.266 9.578 2.266 10.984 0 17.36-6.672 6.374-6.657 6.374-18.125 0-11.235-6.64-18.032-6.641-6.78-17.672-6.78-12.657 0-19.344 9.687-6.688 9.703-6.688 28.109 0 17.281 8.204 27.563 8.203 10.28 22.015 10.28 3.719 0 7.5-.734t7.89-2.187z" id="DejaVuSans-54"/></defs><g transform="matrix(.1 0 0 -.1 140.755 202.718)"><use xlink:href="#DejaVuSans-50"/><use x="63.623" xlink:href="#DejaVuSans-48"/><use x="127.246" xlink:href="#DejaVuSans-49"/><use x="190.869" xlink:href="#DejaVuSans-54"/></g></g></g><g id="xtick_4"><use x="206.52" xlink:href="#m65bdd5db25" y="188.12" stroke="#000" stroke-width=".8" id="line2d_4"/><g id="text_4"><defs><path d="M8.203 72.906h46.875v-4.203L28.61 0H18.312L43.22 64.594H8.203z" id="DejaVuSans-55"/></defs><g transform="matrix(.1 0 0 -.1 193.795 202.718)"><use xlink:href="#DejaVuSans-50"/><use x="63.623" xlink:href="#DejaVuSans-48"/><use x="127.246" xlink:href="#DejaVuSans-49"/><use x="190.869" xlink:href="#DejaVuSans-55"/></g></g></g><g id="xtick_5"><use x="259.561" xlink:href="#m65bdd5db25" y="188.12" stroke="#000" stroke-width=".8" id="line2d_5"/><g id="text_5"><defs><path d="M31.781 34.625q-7.031 0-11.062-3.766-4.016-3.765-4.016-10.343 0-6.594 4.016-10.36Q24.75 6.391 31.78 6.391q7.032 0 11.078 3.78 4.063 3.798 4.063 10.345 0 6.578-4.031 10.343-4.016 3.766-11.11 3.766zm-9.86 4.188q-6.343 1.562-9.89 5.906Q8.5 49.079 8.5 55.329q0 8.733 6.219 13.812 6.234 5.078 17.062 5.078 10.89 0 17.094-5.078 6.203-5.079 6.203-13.813 0-6.25-3.547-10.61-3.531-4.343-9.828-5.906 7.125-1.656 11.094-6.5 3.984-4.828 3.984-11.796 0-10.61-6.468-16.282-6.47-5.656-18.532-5.656-12.047 0-18.531 5.656-6.469 5.672-6.469 16.282 0 6.968 4 11.797 4.016 4.843 11.14 6.5zM18.314 54.39q0-5.657 3.53-8.828 3.548-3.172 9.938-3.172 6.36 0 9.938 3.172 3.593 3.171 3.593 8.828 0 5.672-3.593 8.843-3.578 3.172-9.938 3.172-6.39 0-9.937-3.172-3.532-3.172-3.532-8.843z" id="DejaVuSans-56"/></defs><g transform="matrix(.1 0 0 -.1 246.836 202.718)"><use xlink:href="#DejaVuSans-50"/><use x="63.623" xlink:href="#DejaVuSans-48"/><use x="127.246" xlink:href="#DejaVuSans-49"/><use x="190.869" xlink:href="#DejaVuSans-56"/></g></g></g><g id="xtick_6"><use x="312.602" xlink:href="#m65bdd5db25" y="188.12" stroke="#000" stroke-width=".8" id="line2d_6"/><g id="text_6"><defs><path d="M10.984 1.516V10.5q3.72-1.766 7.516-2.688 3.813-.921 7.484-.921 9.766 0 14.907 6.562 5.156 6.563 5.89 19.953-2.828-4.203-7.187-6.453-4.344-2.25-9.61-2.25-10.937 0-17.312 6.61-6.375 6.625-6.375 18.109 0 11.219 6.64 18 6.641 6.797 17.672 6.797 12.657 0 19.313-9.703 6.672-9.688 6.672-28.141 0-17.234-8.188-27.516Q40.234-1.42 26.422-1.42q-3.719 0-7.531.734-3.797.734-7.907 2.203zM30.61 32.422q6.641 0 10.516 4.531 3.89 4.547 3.89 12.469 0 7.86-3.89 12.422-3.875 4.562-10.516 4.562-6.64 0-10.515-4.562-3.875-4.563-3.875-12.422 0-7.922 3.875-12.469 3.875-4.531 10.515-4.531z" id="DejaVuSans-57"/></defs><g transform="matrix(.1 0 0 -.1 299.877 202.718)"><use xlink:href="#DejaVuSans-50"/><use x="63.623" xlink:href="#DejaVuSans-48"/><use x="127.246" xlink:href="#DejaVuSans-49"/><use x="190.869" xlink:href="#DejaVuSans-57"/></g></g></g></g><path d="M10.8 188.12h338.4" fill="none" stroke="#000" stroke-linecap="square" stroke-width=".8" id="patch_9"/><use xlink:href="#DejaVuSans-48" transform="matrix(.1 0 0 -.1 44.217 183.04)" id="text_7"/><use xlink:href="#DejaVuSans-50" transform="matrix(.1 0 0 -.1 97.258 169.923)" id="text_8"/><g id="text_9"><defs><path d="M40.578 39.313Q47.656 37.797 51.625 33q3.984-4.781 3.984-11.813 0-10.78-7.422-16.703-7.421-5.906-21.093-5.906-4.578 0-9.438.906-4.86.907-10.031 2.72v9.515q4.094-2.39 8.969-3.61 4.89-1.218 10.218-1.218 9.266 0 14.125 3.656 4.86 3.656 4.86 10.64 0 6.454-4.516 10.079-4.515 3.64-12.562 3.64h-8.5v8.11h8.89q7.266 0 11.125 2.906 3.86 2.906 3.86 8.375 0 5.61-3.985 8.61-3.968 3.015-11.39 3.015-4.063 0-8.703-.89-4.641-.876-10.203-2.72v8.782q5.624 1.562 10.53 2.344 4.907.78 9.25.78 11.235 0 17.766-5.109 6.547-5.093 6.547-13.78 0-6.063-3.468-10.235-3.47-4.172-9.86-5.782z" id="DejaVuSans-51"/></defs><use xlink:href="#DejaVuSans-51" transform="matrix(.1 0 0 -.1 150.298 163.365)"/></g><use xlink:href="#DejaVuSans-54" transform="matrix(.1 0 0 -.1 203.34 143.69)" id="text_10"/><g transform="matrix(.1 0 0 -.1 253.199 91.222)" id="text_11"><use xlink:href="#DejaVuSans-49"/><use x="63.623" xlink:href="#DejaVuSans-52"/></g><g transform="matrix(.1 0 0 -.1 306.24 19.078)" id="text_12"><use xlink:href="#DejaVuSans-50"/><use x="63.623" xlink:href="#DejaVuSans-53"/></g></g></g><defs><clipPath id="p8d91d8deec"><path d="M10.8 15.96h338.4v172.16H10.8z"/></clipPath></defs></svg>