<svg xmlns="http://www.w3.org/2000/svg" viewBox="0 0 535.26 195.87"><defs><linearGradient id="linear-gradient" x1="162.14" y1="122.36" x2="259.8" y2="122.36" gradientTransform="rotate(32.64 257.502 151.503)" gradientUnits="userSpaceOnUse"><stop offset="0" stop-color="#8382c5"/><stop offset=".78" stop-color="#835eb9"/><stop offset="1" stop-color="#8353b5"/></linearGradient><style>.cls-1{stroke:#000;stroke-miterlimit:10}.cls-3{font-size:49.13px;font-family:MyriadPro-Regular,Myriad Pro}.cls-4{fill:#5a2999}.cls-10,.cls-4,.cls-5,.cls-6,.cls-9{fill-opacity:.6}.cls-5{fill:#d3228f}.cls-6{fill:#fb583e}.cls-9{fill:#24d39b}.cls-10{fill:#2e72d9}.cls-11,.cls-12{isolation:isolate}.cls-12{font-size:1.81px;font-family:Helvetica}.cls-13{letter-spacing:-.05em}.cls-14{letter-spacing:-.02em}</style></defs><g id="Layer_2" data-name="Layer 2"><g id="Layer_1-2" data-name="Layer 1"><circle class="cls-1" cx="62.83" cy="99.61" r="62.33"/><circle cx="62.83" cy="99.61" r="57.38" fill="#fff" stroke-miterlimit="10" stroke="#000"/><path class="cls-1" transform="rotate(2.8 64.01 72.745)" d="M62.31 45.8h3.18v53.82h-3.18z"/><path class="cls-1" transform="rotate(90 79.675 99.535)" d="M77.23 81.58h4.88v35.9h-4.88z"/><text class="cls-3" transform="translate(140.97 115.33)">+</text><text class="cls-3" transform="translate(321.1 119.37)">=</text><path class="cls-4" d="M437.45 49.07a48.87 48.87 0 11-48.92 51.46l24.3-1.23a24.53 24.53 0 1024.62-25.9z"/><path class="cls-5" d="M388.52 100.29a48.85 48.85 0 0121.34-42.77l13.63 20.16a24.52 24.52 0 00-10.67 21.38z"/><path class="cls-6" d="M410.06 57.38A48.67 48.67 0 01420.81 52L429 74.87a24.48 24.48 0 00-5.28 2.67z"/><path d="M421 51.86a49.89 49.89 0 015.68-1.63L431.94 74a25.1 25.1 0 00-2.73.78z" fill="#c7bf28" fill-opacity=".6"/><path d="M427 50.18a48.06 48.06 0 015.44-.86l2.4 24.21a22.88 22.88 0 00-2.61.42z" fill="#5ffa4a" fill-opacity=".6"/><path class="cls-9" d="M432.64 49.29c1.07-.1 2.15-.17 3.23-.2l.66 24.32c-.5 0-1 0-1.5.1z"/><path class="cls-10" d="M436.11 49.08h1.09V73.4h-.42z"/><path class="cls-4" d="M437.45 24.53A73.41 73.41 0 11364 101.78l24.3-1.24a49.07 49.07 0 1049.12-51.67z"/><path class="cls-5" d="M364 101.53a73.74 73.74 0 012-21.09l23.62 5.84a49.34 49.34 0 00-1.35 14zm2.1-21.33c.27-1.09.57-2.18.89-3.26l23.31 7c-.21.7-.4 1.4-.58 2.1z"/><path class="cls-6" d="M396.33 37.05a73.09 73.09 0 0116.24-8.21l8.17 22.92A49 49 0 00410 57.21z"/><path class="cls-9" d="M430.22 24.88c1.66-.16 3.31-.27 5-.31l.67 24.32c-1.08 0-2.16.1-3.24.2z"/><path class="cls-10" d="M435.44 24.56h1.76v24.31h-1.09z"/><path class="cls-4" d="M437.45 0a97.94 97.94 0 11-58.15 176.83l14.44-19.59a73.6 73.6 0 1043.71-132.91z"/><path class="cls-6" d="M382.59 16.73A97.68 97.68 0 01394 10.12L404.71 32a73.46 73.46 0 00-8.5 4.94z"/><path class="cls-9" d="M427.81.46c2.19-.21 4.29-.34 6.44-.41l.75 24.32c-1.6.05-3.2.15-4.79.31zm6.6-.46h.2l.67 24.32h-.14z"/><g class="cls-11"><text class="cls-12" transform="rotate(73.99 175.232 309.648)">BBLABLABLABL<tspan class="cls-13" x="13.7" y="0">A</tspan></text></g><g class="cls-11"><text class="cls-12" transform="rotate(80.98 179.972 282.437)">C<tspan class="cls-13" x="1.31" y="0">A</tspan></text></g><g class="cls-11"><text class="cls-12" transform="rotate(86.6 185.841 259.47)"><tspan class="cls-14">W</tspan><tspan x="1.68" y="0">ebsite</tspan></text></g><g class="cls-11"><text class="cls-12" transform="rotate(15.3 -113.331 1415.668)">Figure out SVG exp...</text></g><g class="cls-11"><text class="cls-12" transform="rotate(86.6 198.474 246.004)"><tspan class="cls-14">W</tspan><tspan x="1.68" y="0">rite blog</tspan></text></g><g class="cls-11"><text class="cls-12" transform="rotate(43.55 79.697 634.896)">Blablablablabla</text><text class="cls-12" transform="rotate(43.55 75.238 638.158)">28:22</text></g><g class="cls-11"><text class="cls-12" transform="rotate(26.52 30.701 886.877)">Blablablabla</text><text class="cls-12" transform="rotate(26.52 24.485 892.62)">06:15</text></g><g class="cls-11"><text class="cls-12" transform="rotate(63.16 159.786 369.795)">Generative art</text><text class="cls-12" transform="rotate(63.16 156.282 371.534)">01:32</text></g><g class="cls-11"><text class="cls-12" transform="rotate(43.55 68.566 662.768)">Blabla</text><text class="cls-12" transform="rotate(43.55 62.975 668.862)">28:22</text></g><g class="cls-11"><text class="cls-12" transform="rotate(5.49 -775.962 3907.092)">Add useful info</text><text class="cls-12" transform="rotate(5.49 -800.491 3944.852)">01:47</text></g><g class="cls-11"><text class="cls-12" transform="rotate(63.16 173.37 347.716)">Blablablablablabl</text><text class="cls-12" transform="rotate(63.16 168.552 351.585)">01:32</text></g><g class="cls-11"><text class="cls-12" transform="rotate(18.2 -127.723 1655.626)">Blablablablablabla</text><text class="cls-12" transform="rotate(18.2 -137.603 1673.697)">22:59</text></g><g class="cls-11"><text class="cls-12" transform="rotate(59.87 179.892 347.197)">Pair w/ genetic al...</text><text class="cls-12" transform="rotate(59.87 175.31 350.784)">00:50</text></g><g class="cls-11"><text class="cls-12" transform="rotate(86.31 213.128 231.709)">Org-clock viz expo...</text><text class="cls-12" transform="rotate(86.31 208.996 233.79)">00:25</text></g><circle cx="233.47" cy="101.5" r="50.75" fill="url(#linear-gradient)"/><path d="M225.8 69.59a59.3 59.3 0 0115.2-4.32 19.52 19.52 0 017.77.37c2 .52 3.87 1.06 5.31 2.84a8.59 8.59 0 011.6 5.8 5.66 5.66 0 01-1.11 3.82 5.51 5.51 0 01-2.57 1.48 25.7 25.7 0 01-5.67 1.36c-4.82.41-6 .19-10.24.49-2 .14-.21.08-8.26 1.48a6.13 6.13 0 00-3.33 1.6 2.89 2.89 0 00-1 1.85 3.06 3.06 0 001.11 2.22c2 2 4.53 2.66 6.17 3.21 2.62.88 1.88 1.08 6.9 3.45 8 3.79 11.77 5.77 11.77 5.77l-9.3 2.71c-3.06.9-10.3 2.69-16.16 5.46-2.1 1-4.27 2.08-5.3 4.44a6.12 6.12 0 00-.25 4.56c1 2.26 3.81 3.3 9.25 4.07 2.27.33 5.1.68 15.54.62 3.6 0 7.2.38 10.8.28 3.41-.1 6.2.44 7.31 2.13a2.13 2.13 0 01.39 2c-1.38 5.78-14.12 7.3-16 7.53A53.64 53.64 0 00239 136c-2.13.42-5.81.77-7.29 1.1a44.13 44.13 0 01-13.81.61s12.18-2.65 24.67-6.54c1.12-.35 3.4-1.07 3.33-1.6s-2.91-.63-10.12-.62c-12.08 0-12.24.19-14.43-.12a41.45 41.45 0 01-12.83-4.19c-5.9-2.76-7.24-4.67-7.89-6a8.78 8.78 0 01-.62-5.92c.19-.69.73-2.25 3.21-4.56 1.1-1 3.48-3 10.36-5.8a41.65 41.65 0 018-2.71 32.16 32.16 0 0111-.25A83.06 83.06 0 01220 94c-4.89-2.51-8.07-5-10-8.63-1.5-2.85-1.14-4.33-1-4.81.4-1.26 1.48-3.41 6.29-4.2 6.23-1 9.39-.77 18-1.11 3.9-.15 10.47-.65 10.85-2.71.21-1.15-1.49-2.7-2.1-2.71-8.51-.15-16.24-.24-16.24-.24z" fill="#fff"/><circle cx="233.5" cy="101.5" r="50.75" fill="none" stroke="#662d91" stroke-width="3" stroke-miterlimit="10"/></g></g></svg>