<svg xmlns="http://www.w3.org/2000/svg" viewBox="0 0 251.53 236.88"><defs><style>.cls-2,.cls-5,.cls-6,.cls-7{stroke:#000;stroke-miterlimit:10;stroke-width:2px}.cls-2{fill:#fff}.cls-5{fill:#7585d4}.cls-6{fill:#db8774}.cls-8{font-size:9.85px;font-family:Helvetica-Light,Helvetica;font-weight:300}</style></defs><g id="Layer_2" data-name="Layer 2"><g id="Layer_1-2" data-name="Layer 1"><rect x="48.2" y="147.81" width="104.14" height="28.17" rx="14.09" stroke="#000" stroke-miterlimit="10" stroke-width="2" fill="#d5d848"/><circle class="cls-2" cx="68.51" cy="161.89" r="11.31"/><circle class="cls-2" cx="100.99" cy="161.89" r="11.31"/><circle class="cls-2" cx="133.47" cy="161.89" r="11.31"/><rect x="17.43" y="83.38" width="165.7" height="28.17" rx="14.09" fill="#39b54a" stroke="#000" stroke-miterlimit="10" stroke-width="2"/><circle class="cls-2" cx="36.42" cy="97.47" r="11.31"/><circle class="cls-2" cx="68.9" cy="97.47" r="11.31"/><circle class="cls-2" cx="101.38" cy="97.47" r="11.31"/><circle class="cls-2" cx="133.86" cy="97.47" r="11.31"/><rect x="1" y="207.71" width="198.55" height="28.17" rx="14.09" fill="#009245" stroke="#000" stroke-miterlimit="10" stroke-width="2"/><circle class="cls-2" cx="19.99" cy="221.79" r="11.31"/><circle class="cls-2" cx="52.47" cy="221.79" r="11.31"/><circle class="cls-2" cx="84.95" cy="221.79" r="11.31"/><circle class="cls-2" cx="117.43" cy="221.79" r="11.31"/><rect class="cls-5" x="1" y="190.73" width="198.55" height="11.35" rx="5.68"/><rect class="cls-6" x="47.73" y="129.52" width="104.61" height="11.35" rx="5.68"/><rect class="cls-5" x="17.43" y="66.66" width="165.7" height="11.35" rx="5.68"/><path class="cls-7" d="M95.66 182.92h9.22v3.23h-9.22z"/><path class="cls-7" d="M100.28 178.18l-6.44 4.74h12.87l-6.43-4.74zM96.62 120h9.22v3.23h-9.22zm4.61-4.74L94.79 120h12.88l-6.44-4.74z"/><text class="cls-8" transform="translate(206.66 198.86)">tanh(x)</text><text class="cls-8" transform="translate(206.66 74.58)">tanh(x)</text><text class="cls-8" transform="translate(206.66 136.72)">ReLU(x)</text><circle class="cls-2" cx="147.62" cy="221.79" r="11.31"/><circle class="cls-2" cx="180.1" cy="221.79" r="11.31"/><circle class="cls-2" cx="163.46" cy="97.47" r="11.31"/><rect x="28.95" y="18.8" width="144.08" height="30" rx="15" fill="#d6db8d" stroke="#000" stroke-miterlimit="10" stroke-width="2"/><circle class="cls-2" cx="49.18" cy="33.8" r="12.04"/><circle class="cls-2" cx="83.76" cy="33.8" r="12.04"/><circle class="cls-2" cx="118.35" cy="33.8" r="12.04"/><circle class="cls-2" cx="152.93" cy="33.8" r="12.04"/><rect class="cls-6" x="28.95" y="1" width="144.08" height="12.09" rx="6.04"/><path class="cls-7" d="M96.08 57.86h9.82v3.44h-9.82zm4.91-5.05l-6.85 5.05h13.7l-6.85-5.05z"/><text transform="translate(205.25 9.54)" font-size="10.49" font-family="Helvetica-Light,Helvetica" font-weight="300">ReLU(x)</text></g></g></svg>