<svg xmlns="http://www.w3.org/2000/svg" viewBox="0 0 542.94 100.21"><defs><style>.cls-1{fill:#88a9d9;stroke:#204579;stroke-width:3px;}.cls-14,.cls-2,.cls-3,.cls-5,.cls-6,.cls-7{isolation:isolate;}.cls-3,.cls-6,.cls-7{font-size:12.78px;}.cls-11,.cls-14,.cls-3,.cls-5,.cls-6,.cls-7{fill:#010101;}.cls-14,.cls-3,.cls-5{font-family:RobotoMono-Medium, Roboto Mono;font-weight:500;}.cls-4{fill:#aec9ea;stroke:#243b7b;stroke-width:2.5px;}.cls-5{font-size:8.31px;}.cls-6,.cls-7{font-family:Helvetica;}.cls-6{letter-spacing:0.1em;}.cls-7{letter-spacing:0.1em;}.cls-8{fill:none;}.cls-10,.cls-12,.cls-13,.cls-8{stroke:#231f20;}.cls-10,.cls-8{stroke-width:0.75px;}.cls-13,.cls-9{fill:#231f20;}.cls-10,.cls-12{fill:#fff;}.cls-10{stroke-miterlimit:10;}.cls-11{stroke:#010101;fill-rule:evenodd;}.cls-14{font-size:15px;}</style></defs><title>gol_as_rnn</title><g id="Layer_2" data-name="Layer 2"><g id="Layer_1-2" data-name="Layer 1"><path id="rect4136" class="cls-1" d="M55.57,58.71h51.72a3.51,3.51,0,0,1,3.33,3.67v21a3.51,3.51,0,0,1-3.33,3.67H55.57a3.5,3.5,0,0,1-3.32-3.67v-21A3.5,3.5,0,0,1,55.57,58.71Z"/><g id="text5283" class="cls-2"><text class="cls-3" transform="translate(77.88 76.99)">h</text></g><path id="rect5317" class="cls-4" d="M183.88,51.41c0,3.17-.1,7.43-.17,12.1H137.54a3.5,3.5,0,0,0-3.32,3.68v11a3.5,3.5,0,0,0,3.32,3.67h46c0,4.68.11,8.57.3,12.35l21.71-21.7Z"/><path id="rect4136-5" class="cls-1" d="M260.26,58.77H312a3.51,3.51,0,0,1,3.32,3.67v21A3.51,3.51,0,0,1,312,87.11H260.26a3.51,3.51,0,0,1-3.32-3.67v-21A3.51,3.51,0,0,1,260.26,58.77Z"/><g id="text5283-4" class="cls-2"><text class="cls-3" transform="translate(276.15 77.05)">h</text><text class="cls-5" transform="translate(283.85 79.39)">t-1</text></g><path id="rect5811" class="cls-1" d="M350,58.77h51.73A3.51,3.51,0,0,1,405,62.45v21a3.51,3.51,0,0,1-3.32,3.68H350a3.52,3.52,0,0,1-3.32-3.68v-21A3.52,3.52,0,0,1,350,58.77Z"/><g id="text5825" class="cls-2"><text class="cls-3" transform="translate(368.77 77.06)">h</text><text class="cls-5" transform="translate(376.47 79.39)">t</text></g><path id="rect5843" class="cls-1" d="M437.28,58.77H489a3.51,3.51,0,0,1,3.32,3.68v21A3.51,3.51,0,0,1,489,87.12H437.28A3.52,3.52,0,0,1,434,83.44v-21A3.52,3.52,0,0,1,437.28,58.77Z"/><g id="text5857" class="cls-2"><text class="cls-3" transform="translate(452 75.89)">h</text><text class="cls-5" transform="translate(459.69 78.22)">t+1</text></g><g id="text8905" class="cls-2"><text class="cls-6" transform="translate(210.9 78.75)">...</text></g><g id="text8909" class="cls-2"><text class="cls-7" transform="translate(528.49 75.95)">...</text></g><path class="cls-8" d="M59.85,95.94a27.86,27.86,0,0,1-35.52-6C11.81,75,18.58,58.36,27.73,50.67A27.83,27.83,0,0,1,67,54.07"/><polygon class="cls-9" points="63.57 93.3 56.8 94.79 59.54 96.08 59.78 99.1 63.57 93.3"/><line class="cls-10" x1="409.33" y1="72.39" x2="425.74" y2="72.34"/><path id="path4449" class="cls-11" d="M425.74,72.34l-1.58,1.54,5.47-1.5-5.43-1.61Z"/><line class="cls-10" x1="499.57" y1="72.46" x2="515.97" y2="72.41"/><path id="path4449-2" data-name="path4449" class="cls-11" d="M516,72.41,514.4,74l5.47-1.5-5.44-1.62Z"/><line class="cls-10" x1="320.83" y1="73.95" x2="337.23" y2="73.9"/><path id="path4449-3" data-name="path4449" class="cls-11" d="M337.23,73.9l-1.57,1.54,5.47-1.5-5.44-1.61Z"/><line class="cls-10" x1="231" y1="73.01" x2="247.4" y2="72.96"/><path id="path4449-4" data-name="path4449" class="cls-11" d="M247.4,73l-1.57,1.54L251.3,73l-5.44-1.61Z"/><rect class="cls-12" x="260.45" y="0.52" width="6.42" height="6.42"/><rect class="cls-12" x="266.87" y="0.52" width="6.42" height="6.42"/><rect class="cls-12" x="273.29" y="0.52" width="6.42" height="6.42"/><rect class="cls-12" x="260.45" y="6.94" width="6.42" height="6.42"/><rect class="cls-12" x="266.87" y="6.94" width="6.42" height="6.42"/><rect class="cls-13" x="273.29" y="6.94" width="6.42" height="6.42"/><rect class="cls-12" x="260.45" y="13.36" width="6.42" height="6.42"/><rect class="cls-12" x="266.87" y="13.36" width="6.42" height="6.42"/><rect class="cls-12" x="273.29" y="13.36" width="6.42" height="6.42"/><rect class="cls-12" x="260.45" y="19.78" width="6.42" height="6.42"/><rect class="cls-13" x="266.87" y="19.78" width="6.42" height="6.42"/><rect class="cls-13" x="273.29" y="19.78" width="6.42" height="6.42"/><rect class="cls-12" x="279.71" y="0.52" width="6.42" height="6.42"/><rect class="cls-12" x="286.13" y="0.52" width="6.42" height="6.42"/><rect class="cls-12" x="292.54" y="0.52" width="6.42" height="6.42"/><rect class="cls-12" x="279.71" y="6.94" width="6.42" height="6.42"/><rect class="cls-12" x="286.13" y="6.94" width="6.42" height="6.42"/><rect class="cls-12" x="292.54" y="6.94" width="6.42" height="6.42"/><rect class="cls-13" x="279.71" y="13.36" width="6.42" height="6.42"/><rect class="cls-12" x="286.13" y="13.36" width="6.42" height="6.42"/><rect class="cls-12" x="292.54" y="13.36" width="6.42" height="6.42"/><rect class="cls-13" x="279.71" y="19.78" width="6.42" height="6.42"/><rect class="cls-12" x="286.13" y="19.78" width="6.42" height="6.42"/><rect class="cls-12" x="292.54" y="19.78" width="6.42" height="6.42"/><rect class="cls-12" x="260.45" y="26.2" width="6.42" height="6.42"/><rect class="cls-12" x="266.87" y="26.2" width="6.42" height="6.42"/><rect class="cls-12" x="273.29" y="26.2" width="6.42" height="6.42"/><rect class="cls-12" x="260.45" y="32.61" width="6.42" height="6.42"/><rect class="cls-12" x="266.87" y="32.61" width="6.42" height="6.42"/><rect class="cls-12" x="273.29" y="32.61" width="6.42" height="6.42"/><rect class="cls-12" x="260.45" y="39.03" width="6.42" height="6.42"/><rect class="cls-12" x="266.87" y="39.03" width="6.42" height="6.42"/><rect class="cls-12" x="273.29" y="39.03" width="6.42" height="6.42"/><rect class="cls-12" x="260.45" y="45.45" width="6.42" height="6.42"/><rect class="cls-12" x="266.87" y="45.45" width="6.42" height="6.42"/><rect class="cls-12" x="273.29" y="45.45" width="6.42" height="6.42"/><rect class="cls-12" x="279.71" y="26.2" width="6.42" height="6.42"/><rect class="cls-12" x="286.13" y="26.2" width="6.42" height="6.42"/><rect class="cls-12" x="292.54" y="26.2" width="6.42" height="6.42"/><rect class="cls-12" x="279.71" y="32.61" width="6.42" height="6.42"/><rect class="cls-12" x="286.13" y="32.61" width="6.42" height="6.42"/><rect class="cls-12" x="292.54" y="32.61" width="6.42" height="6.42"/><rect class="cls-12" x="279.71" y="39.03" width="6.42" height="6.42"/><rect class="cls-12" x="286.13" y="39.03" width="6.42" height="6.42"/><rect class="cls-12" x="292.54" y="39.03" width="6.42" height="6.42"/><rect class="cls-12" x="279.71" y="45.45" width="6.42" height="6.42"/><rect class="cls-12" x="286.13" y="45.45" width="6.42" height="6.42"/><rect class="cls-12" x="292.54" y="45.45" width="6.42" height="6.42"/><rect class="cls-12" x="298.96" y="0.52" width="6.42" height="6.42"/><rect class="cls-12" x="305.38" y="0.52" width="6.42" height="6.42"/><rect class="cls-12" x="298.96" y="6.94" width="6.42" height="6.42"/><rect class="cls-12" x="305.38" y="6.94" width="6.42" height="6.42"/><rect class="cls-12" x="298.96" y="13.36" width="6.42" height="6.42"/><rect class="cls-12" x="305.38" y="13.36" width="6.42" height="6.42"/><rect class="cls-12" x="298.96" y="19.78" width="6.42" height="6.42"/><rect class="cls-12" x="305.38" y="19.78" width="6.42" height="6.42"/><rect class="cls-12" x="298.96" y="26.2" width="6.42" height="6.42"/><rect class="cls-12" x="305.38" y="26.2" width="6.42" height="6.42"/><rect class="cls-12" x="298.96" y="32.61" width="6.42" height="6.42"/><rect class="cls-12" x="305.38" y="32.61" width="6.42" height="6.42"/><rect class="cls-12" x="298.96" y="39.03" width="6.42" height="6.42"/><rect class="cls-12" x="305.38" y="39.03" width="6.42" height="6.42"/><rect class="cls-12" x="298.96" y="45.45" width="6.42" height="6.42"/><rect class="cls-12" x="305.38" y="45.45" width="6.42" height="6.42"/><rect class="cls-12" x="437.44" y="0.5" width="6.42" height="6.42"/><rect class="cls-12" x="443.87" y="0.5" width="6.42" height="6.42"/><rect class="cls-12" x="450.29" y="0.5" width="6.42" height="6.42"/><rect class="cls-12" x="437.44" y="6.92" width="6.42" height="6.42"/><rect class="cls-12" x="443.87" y="6.92" width="6.42" height="6.42"/><rect class="cls-12" x="450.29" y="6.92" width="6.42" height="6.42"/><rect class="cls-12" x="437.44" y="13.35" width="6.42" height="6.42"/><rect class="cls-12" x="443.87" y="13.35" width="6.42" height="6.42"/><rect class="cls-12" x="450.29" y="13.35" width="6.42" height="6.42"/><rect class="cls-12" x="437.44" y="19.77" width="6.42" height="6.42"/><rect class="cls-13" x="443.87" y="19.77" width="6.42" height="6.42"/><rect class="cls-12" x="450.29" y="19.77" width="6.42" height="6.42"/><rect class="cls-12" x="456.72" y="0.5" width="6.42" height="6.42"/><rect class="cls-12" x="463.14" y="0.5" width="6.42" height="6.42"/><rect class="cls-12" x="469.56" y="0.5" width="6.42" height="6.42"/><rect class="cls-12" x="456.72" y="6.92" width="6.42" height="6.42"/><rect class="cls-12" x="463.14" y="6.92" width="6.42" height="6.42"/><rect class="cls-12" x="469.56" y="6.92" width="6.42" height="6.42"/><rect class="cls-13" x="456.72" y="13.35" width="6.42" height="6.42"/><rect class="cls-12" x="463.14" y="13.35" width="6.42" height="6.42"/><rect class="cls-12" x="469.56" y="13.35" width="6.42" height="6.42"/><rect class="cls-13" x="456.72" y="19.77" width="6.42" height="6.42"/><rect class="cls-12" x="463.14" y="19.77" width="6.42" height="6.42"/><rect class="cls-12" x="469.56" y="19.77" width="6.42" height="6.42"/><rect class="cls-12" x="437.44" y="26.2" width="6.42" height="6.42"/><rect class="cls-12" x="443.87" y="26.2" width="6.42" height="6.42"/><rect class="cls-13" x="450.29" y="26.2" width="6.42" height="6.42"/><rect class="cls-12" x="437.44" y="32.62" width="6.42" height="6.42"/><rect class="cls-12" x="443.87" y="32.62" width="6.42" height="6.42"/><rect class="cls-12" x="450.29" y="32.62" width="6.42" height="6.42"/><rect class="cls-12" x="437.44" y="39.04" width="6.42" height="6.42"/><rect class="cls-12" x="443.87" y="39.04" width="6.42" height="6.42"/><rect class="cls-12" x="450.29" y="39.04" width="6.42" height="6.42"/><rect class="cls-12" x="437.44" y="45.47" width="6.42" height="6.42"/><rect class="cls-12" x="443.87" y="45.47" width="6.42" height="6.42"/><rect class="cls-12" x="450.29" y="45.47" width="6.42" height="6.42"/><rect class="cls-13" x="456.72" y="26.2" width="6.42" height="6.42"/><rect class="cls-12" x="463.14" y="26.2" width="6.42" height="6.42"/><rect class="cls-12" x="469.56" y="26.2" width="6.42" height="6.42"/><rect class="cls-12" x="456.72" y="32.62" width="6.42" height="6.42"/><rect class="cls-12" x="463.14" y="32.62" width="6.42" height="6.42"/><rect class="cls-12" x="469.56" y="32.62" width="6.42" height="6.42"/><rect class="cls-12" x="456.72" y="39.04" width="6.42" height="6.42"/><rect class="cls-12" x="463.14" y="39.04" width="6.42" height="6.42"/><rect class="cls-12" x="469.56" y="39.04" width="6.42" height="6.42"/><rect class="cls-12" x="456.72" y="45.47" width="6.42" height="6.42"/><rect class="cls-12" x="463.14" y="45.47" width="6.42" height="6.42"/><rect class="cls-12" x="469.56" y="45.47" width="6.42" height="6.42"/><rect class="cls-12" x="475.99" y="0.5" width="6.42" height="6.42"/><rect class="cls-12" x="482.41" y="0.5" width="6.42" height="6.42"/><rect class="cls-12" x="475.99" y="6.92" width="6.42" height="6.42"/><rect class="cls-12" x="482.41" y="6.92" width="6.42" height="6.42"/><rect class="cls-12" x="475.99" y="13.35" width="6.42" height="6.42"/><rect class="cls-12" x="482.41" y="13.35" width="6.42" height="6.42"/><rect class="cls-12" x="475.99" y="19.77" width="6.42" height="6.42"/><rect class="cls-12" x="482.41" y="19.77" width="6.42" height="6.42"/><rect class="cls-12" x="475.99" y="26.2" width="6.42" height="6.42"/><rect class="cls-12" x="482.41" y="26.2" width="6.42" height="6.42"/><rect class="cls-12" x="475.99" y="32.62" width="6.42" height="6.42"/><rect class="cls-12" x="482.41" y="32.62" width="6.42" height="6.42"/><rect class="cls-12" x="475.99" y="39.04" width="6.42" height="6.42"/><rect class="cls-12" x="482.41" y="39.04" width="6.42" height="6.42"/><rect class="cls-12" x="475.99" y="45.47" width="6.42" height="6.42"/><rect class="cls-12" x="482.41" y="45.47" width="6.42" height="6.42"/><rect class="cls-12" x="350.13" y="0.5" width="6.42" height="6.42"/><rect class="cls-12" x="356.56" y="0.5" width="6.42" height="6.42"/><rect class="cls-12" x="362.98" y="0.5" width="6.42" height="6.42"/><rect class="cls-12" x="350.13" y="6.92" width="6.42" height="6.42"/><rect class="cls-12" x="356.56" y="6.92" width="6.42" height="6.42"/><rect class="cls-12" x="362.98" y="6.92" width="6.42" height="6.42"/><rect class="cls-12" x="350.13" y="13.35" width="6.42" height="6.42"/><rect class="cls-13" x="356.56" y="13.35" width="6.42" height="6.42"/><rect class="cls-12" x="362.98" y="13.35" width="6.42" height="6.42"/><rect class="cls-12" x="350.13" y="19.77" width="6.42" height="6.42"/><rect class="cls-12" x="356.56" y="19.77" width="6.42" height="6.42"/><rect class="cls-13" x="362.98" y="19.77" width="6.42" height="6.42"/><rect class="cls-12" x="369.4" y="0.5" width="6.42" height="6.42"/><rect class="cls-12" x="375.83" y="0.5" width="6.42" height="6.42"/><rect class="cls-12" x="382.25" y="0.5" width="6.42" height="6.42"/><rect class="cls-12" x="369.4" y="6.92" width="6.42" height="6.42"/><rect class="cls-12" x="375.83" y="6.92" width="6.42" height="6.42"/><rect class="cls-12" x="382.25" y="6.92" width="6.42" height="6.42"/><rect class="cls-13" x="369.4" y="13.35" width="6.42" height="6.42"/><rect class="cls-12" x="375.83" y="13.35" width="6.42" height="6.42"/><rect class="cls-12" x="382.25" y="13.35" width="6.42" height="6.42"/><rect class="cls-13" x="369.4" y="19.77" width="6.42" height="6.42"/><rect class="cls-12" x="375.83" y="19.77" width="6.42" height="6.42"/><rect class="cls-12" x="382.25" y="19.77" width="6.42" height="6.42"/><rect class="cls-12" x="350.13" y="26.2" width="6.42" height="6.42"/><rect class="cls-12" x="356.56" y="26.2" width="6.42" height="6.42"/><rect class="cls-13" x="362.98" y="26.2" width="6.42" height="6.42"/><rect class="cls-12" x="350.13" y="32.62" width="6.42" height="6.42"/><rect class="cls-12" x="356.56" y="32.62" width="6.42" height="6.42"/><rect class="cls-12" x="362.98" y="32.62" width="6.42" height="6.42"/><rect class="cls-12" x="350.13" y="39.04" width="6.42" height="6.42"/><rect class="cls-12" x="356.56" y="39.04" width="6.42" height="6.42"/><rect class="cls-12" x="362.98" y="39.04" width="6.42" height="6.42"/><rect class="cls-12" x="350.13" y="45.47" width="6.42" height="6.42"/><rect class="cls-12" x="356.56" y="45.47" width="6.42" height="6.42"/><rect class="cls-12" x="362.98" y="45.47" width="6.42" height="6.42"/><rect class="cls-12" x="369.4" y="26.2" width="6.42" height="6.42"/><rect class="cls-12" x="375.83" y="26.2" width="6.42" height="6.42"/><rect class="cls-12" x="382.25" y="26.2" width="6.42" height="6.42"/><rect class="cls-12" x="369.4" y="32.62" width="6.42" height="6.42"/><rect class="cls-12" x="375.83" y="32.62" width="6.42" height="6.42"/><rect class="cls-12" x="382.25" y="32.62" width="6.42" height="6.42"/><rect class="cls-12" x="369.4" y="39.04" width="6.42" height="6.42"/><rect class="cls-12" x="375.83" y="39.04" width="6.42" height="6.42"/><rect class="cls-12" x="382.25" y="39.04" width="6.42" height="6.42"/><rect class="cls-12" x="369.4" y="45.47" width="6.42" height="6.42"/><rect class="cls-12" x="375.83" y="45.47" width="6.42" height="6.42"/><rect class="cls-12" x="382.25" y="45.47" width="6.42" height="6.42"/><rect class="cls-12" x="388.68" y="0.5" width="6.42" height="6.42"/><rect class="cls-12" x="395.1" y="0.5" width="6.42" height="6.42"/><rect class="cls-12" x="388.68" y="6.92" width="6.42" height="6.42"/><rect class="cls-12" x="395.1" y="6.92" width="6.42" height="6.42"/><rect class="cls-12" x="388.68" y="13.35" width="6.42" height="6.42"/><rect class="cls-12" x="395.1" y="13.35" width="6.42" height="6.42"/><rect class="cls-12" x="388.68" y="19.77" width="6.42" height="6.42"/><rect class="cls-12" x="395.1" y="19.77" width="6.42" height="6.42"/><rect class="cls-12" x="388.68" y="26.2" width="6.42" height="6.42"/><rect class="cls-12" x="395.1" y="26.2" width="6.42" height="6.42"/><rect class="cls-12" x="388.68" y="32.62" width="6.42" height="6.42"/><rect class="cls-12" x="395.1" y="32.62" width="6.42" height="6.42"/><rect class="cls-12" x="388.68" y="39.04" width="6.42" height="6.42"/><rect class="cls-12" x="395.1" y="39.04" width="6.42" height="6.42"/><rect class="cls-12" x="388.68" y="45.47" width="6.42" height="6.42"/><rect class="cls-12" x="395.1" y="45.47" width="6.42" height="6.42"/><g id="text5295-8-8" class="cls-2"><text class="cls-14" transform="translate(0 77.05)">Φ</text></g><g id="text5295-8-8-2" data-name="text5295-8-8" class="cls-2"><text class="cls-14" transform="translate(235.39 89.53)">Φ</text></g><g id="text5295-8-8-3" data-name="text5295-8-8" class="cls-2"><text class="cls-14" transform="translate(326.39 89.53)">Φ</text></g><g id="text5295-8-8-4" data-name="text5295-8-8" class="cls-2"><text class="cls-14" transform="translate(414.23 89.53)">Φ</text></g><g id="text5295-8-8-5" data-name="text5295-8-8" class="cls-2"><text class="cls-14" transform="translate(503.82 89.53)">Φ</text></g></g></g></svg>