<svg xmlns="http://www.w3.org/2000/svg" viewBox="0 0 542.94 100.21"><defs><style>.cls-1{fill:#88a9d9;stroke:#204579;stroke-width:3px}.cls-14,.cls-2,.cls-3,.cls-5{isolation:isolate}.cls-3{font-size:12.78px}.cls-11,.cls-14,.cls-3,.cls-5{fill:#010101}.cls-14,.cls-3,.cls-5{font-family:RobotoMono-Medium,Roboto Mono;font-weight:500}.cls-5{font-size:8.31px}.cls-10,.cls-12,.cls-13{stroke:#231f20}.cls-10{stroke-width:.75px}.cls-13{fill:#231f20}.cls-10,.cls-12{fill:#fff}.cls-10{stroke-miterlimit:10}.cls-11{stroke:#010101;fill-rule:evenodd}.cls-14{font-size:15px}</style></defs><g id="Layer_2" data-name="Layer 2"><g id="Layer_1-2" data-name="Layer 1"><path id="rect4136" class="cls-1" d="M55.57 58.71h51.72a3.51 3.51 0 013.33 3.67v21a3.51 3.51 0 01-3.33 3.67H55.57a3.5 3.5 0 01-3.32-3.67v-21a3.5 3.5 0 013.32-3.67z"/><g id="text5283" class="cls-2"><text class="cls-3" transform="translate(77.88 76.99)">h</text></g><path id="rect5317" d="M183.88 51.41c0 3.17-.1 7.43-.17 12.1h-46.17a3.5 3.5 0 00-3.32 3.68v11a3.5 3.5 0 003.32 3.67h46c0 4.68.11 8.57.3 12.35l21.71-21.7z" fill="#aec9ea" stroke="#243b7b" stroke-width="2.5"/><path id="rect4136-5" class="cls-1" d="M260.26 58.77H312a3.51 3.51 0 013.32 3.67v21a3.51 3.51 0 01-3.32 3.67h-51.74a3.51 3.51 0 01-3.32-3.67v-21a3.51 3.51 0 013.32-3.67z"/><g id="text5283-4" class="cls-2"><text class="cls-3" transform="translate(276.15 77.05)">h</text><text class="cls-5" transform="translate(283.85 79.39)">t-1</text></g><path id="rect5811" class="cls-1" d="M350 58.77h51.73a3.51 3.51 0 013.27 3.68v21a3.51 3.51 0 01-3.32 3.68H350a3.52 3.52 0 01-3.32-3.68v-21a3.52 3.52 0 013.32-3.68z"/><g id="text5825" class="cls-2"><text class="cls-3" transform="translate(368.77 77.06)">h</text><text class="cls-5" transform="translate(376.47 79.39)">t</text></g><path id="rect5843" class="cls-1" d="M437.28 58.77H489a3.51 3.51 0 013.32 3.68v21a3.51 3.51 0 01-3.32 3.67h-51.72a3.52 3.52 0 01-3.28-3.68v-21a3.52 3.52 0 013.28-3.67z"/><g id="text5857" class="cls-2"><text class="cls-3" transform="translate(452 75.89)">h</text><text class="cls-5" transform="translate(459.69 78.22)">t+1</text></g><text transform="translate(210.9 78.75)" style="isolation:isolate" letter-spacing=".1em" font-family="Helvetica" fill="#010101" font-size="12.78" id="text8905">...</text><text transform="translate(528.49 75.95)" style="isolation:isolate" letter-spacing=".1em" font-family="Helvetica" fill="#010101" font-size="12.78" id="text8909">...</text><path d="M59.85 95.94a27.86 27.86 0 01-35.52-6C11.81 75 18.58 58.36 27.73 50.67A27.83 27.83 0 0167 54.07" stroke-width=".75" stroke="#231f20" fill="none"/><path fill="#231f20" d="M63.57 93.3l-6.77 1.49 2.74 1.29.24 3.02 3.79-5.8z"/><path class="cls-10" d="M409.33 72.39l16.41-.05"/><path id="path4449" class="cls-11" d="M425.74 72.34l-1.58 1.54 5.47-1.5-5.43-1.61z"/><path class="cls-10" d="M499.57 72.46l16.4-.05"/><path id="path4449-2" data-name="path4449" class="cls-11" d="M516 72.41L514.4 74l5.47-1.5-5.44-1.62z"/><path class="cls-10" d="M320.83 73.95l16.4-.05"/><path id="path4449-3" data-name="path4449" class="cls-11" d="M337.23 73.9l-1.57 1.54 5.47-1.5-5.44-1.61z"/><path class="cls-10" d="M231 73.01l16.4-.05"/><path id="path4449-4" data-name="path4449" class="cls-11" d="M247.4 73l-1.57 1.54L251.3 73l-5.44-1.61z"/><path class="cls-12" d="M260.45.52h6.42v6.42h-6.42zM266.87.52h6.42v6.42h-6.42zM273.29.52h6.42v6.42h-6.42zM260.45 6.94h6.42v6.42h-6.42zM266.87 6.94h6.42v6.42h-6.42z"/><path class="cls-13" d="M273.29 6.94h6.42v6.42h-6.42z"/><path class="cls-12" d="M260.45 13.36h6.42v6.42h-6.42zM266.87 13.36h6.42v6.42h-6.42zM273.29 13.36h6.42v6.42h-6.42zM260.45 19.78h6.42v6.42h-6.42z"/><path class="cls-13" d="M266.87 19.78h6.42v6.42h-6.42zM273.29 19.78h6.42v6.42h-6.42z"/><path class="cls-12" d="M279.71.52h6.42v6.42h-6.42zM286.13.52h6.42v6.42h-6.42z"/><path class="cls-12" d="M292.54.52h6.42v6.42h-6.42zM279.71 6.94h6.42v6.42h-6.42zM286.13 6.94h6.42v6.42h-6.42z"/><path class="cls-12" d="M292.54 6.94h6.42v6.42h-6.42z"/><path class="cls-13" d="M279.71 13.36h6.42v6.42h-6.42z"/><path class="cls-12" d="M286.13 13.36h6.42v6.42h-6.42z"/><path class="cls-12" d="M292.54 13.36h6.42v6.42h-6.42z"/><path class="cls-13" d="M279.71 19.78h6.42v6.42h-6.42z"/><path class="cls-12" d="M286.13 19.78h6.42v6.42h-6.42z"/><path class="cls-12" d="M292.54 19.78h6.42v6.42h-6.42zM260.45 26.2h6.42v6.42h-6.42zM266.87 26.2h6.42v6.42h-6.42zM273.29 26.2h6.42v6.42h-6.42z"/><path class="cls-12" d="M260.45 32.61h6.42v6.42h-6.42zM266.87 32.61h6.42v6.42h-6.42zM273.29 32.61h6.42v6.42h-6.42zM260.45 39.03h6.42v6.42h-6.42zM266.87 39.03h6.42v6.42h-6.42zM273.29 39.03h6.42v6.42h-6.42zM260.45 45.45h6.42v6.42h-6.42zM266.87 45.45h6.42v6.42h-6.42zM273.29 45.45h6.42v6.42h-6.42z"/><path class="cls-12" d="M279.71 26.2h6.42v6.42h-6.42zM286.13 26.2h6.42v6.42h-6.42z"/><path class="cls-12" d="M292.54 26.2h6.42v6.42h-6.42zM279.71 32.61h6.42v6.42h-6.42z"/><path class="cls-12" d="M286.13 32.61h6.42v6.42h-6.42z"/><path class="cls-12" d="M292.54 32.61h6.42v6.42h-6.42zM279.71 39.03h6.42v6.42h-6.42zM286.13 39.03h6.42v6.42h-6.42z"/><path class="cls-12" d="M292.54 39.03h6.42v6.42h-6.42zM279.71 45.45h6.42v6.42h-6.42zM286.13 45.45h6.42v6.42h-6.42z"/><path class="cls-12" d="M292.54 45.45h6.42v6.42h-6.42zM298.96.52h6.42v6.42h-6.42zM305.38.52h6.42v6.42h-6.42zM298.96 6.94h6.42v6.42h-6.42zM305.38 6.94h6.42v6.42h-6.42zM298.96 13.36h6.42v6.42h-6.42zM305.38 13.36h6.42v6.42h-6.42zM298.96 19.78h6.42v6.42h-6.42zM305.38 19.78h6.42v6.42h-6.42z"/><path class="cls-12" d="M298.96 26.2h6.42v6.42h-6.42zM305.38 26.2h6.42v6.42h-6.42z"/><path class="cls-12" d="M298.96 32.61h6.42v6.42h-6.42zM305.38 32.61h6.42v6.42h-6.42zM298.96 39.03h6.42v6.42h-6.42zM305.38 39.03h6.42v6.42h-6.42zM298.96 45.45h6.42v6.42h-6.42zM305.38 45.45h6.42v6.42h-6.42zM437.44.5h6.42v6.42h-6.42zM443.87.5h6.42v6.42h-6.42zM450.29.5h6.42v6.42h-6.42zM437.44 6.92h6.42v6.42h-6.42zM443.87 6.92h6.42v6.42h-6.42zM450.29 6.92h6.42v6.42h-6.42zM437.44 13.35h6.42v6.42h-6.42zM443.87 13.35h6.42v6.42h-6.42zM450.29 13.35h6.42v6.42h-6.42zM437.44 19.77h6.42v6.42h-6.42z"/><path class="cls-13" d="M443.87 19.77h6.42v6.42h-6.42z"/><path class="cls-12" d="M450.29 19.77h6.42v6.42h-6.42zM456.72.5h6.42v6.42h-6.42z"/><path class="cls-12" d="M463.14.5h6.42v6.42h-6.42zM469.56.5h6.42v6.42h-6.42zM456.72 6.92h6.42v6.42h-6.42z"/><path class="cls-12" d="M463.14 6.92h6.42v6.42h-6.42zM469.56 6.92h6.42v6.42h-6.42z"/><path class="cls-13" d="M456.72 13.35h6.42v6.42h-6.42z"/><path class="cls-12" d="M463.14 13.35h6.42v6.42h-6.42zM469.56 13.35h6.42v6.42h-6.42z"/><path class="cls-13" d="M456.72 19.77h6.42v6.42h-6.42z"/><path class="cls-12" d="M463.14 19.77h6.42v6.42h-6.42zM469.56 19.77h6.42v6.42h-6.42zM437.44 26.2h6.42v6.42h-6.42zM443.87 26.2h6.42v6.42h-6.42z"/><path class="cls-13" d="M450.29 26.2h6.42v6.42h-6.42z"/><path class="cls-12" d="M437.44 32.62h6.42v6.42h-6.42zM443.87 32.62h6.42v6.42h-6.42zM450.29 32.62h6.42v6.42h-6.42zM437.44 39.04h6.42v6.42h-6.42zM443.87 39.04h6.42v6.42h-6.42zM450.29 39.04h6.42v6.42h-6.42zM437.44 45.47h6.42v6.42h-6.42zM443.87 45.47h6.42v6.42h-6.42zM450.29 45.47h6.42v6.42h-6.42z"/><path class="cls-13" d="M456.72 26.2h6.42v6.42h-6.42z"/><path class="cls-12" d="M463.14 26.2h6.42v6.42h-6.42zM469.56 26.2h6.42v6.42h-6.42zM456.72 32.62h6.42v6.42h-6.42z"/><path class="cls-12" d="M463.14 32.62h6.42v6.42h-6.42zM469.56 32.62h6.42v6.42h-6.42zM456.72 39.04h6.42v6.42h-6.42z"/><path class="cls-12" d="M463.14 39.04h6.42v6.42h-6.42zM469.56 39.04h6.42v6.42h-6.42zM456.72 45.47h6.42v6.42h-6.42z"/><path class="cls-12" d="M463.14 45.47h6.42v6.42h-6.42zM469.56 45.47h6.42v6.42h-6.42zM475.99.5h6.42v6.42h-6.42zM482.41.5h6.42v6.42h-6.42zM475.99 6.92h6.42v6.42h-6.42zM482.41 6.92h6.42v6.42h-6.42zM475.99 13.35h6.42v6.42h-6.42zM482.41 13.35h6.42v6.42h-6.42zM475.99 19.77h6.42v6.42h-6.42zM482.41 19.77h6.42v6.42h-6.42zM475.99 26.2h6.42v6.42h-6.42zM482.41 26.2h6.42v6.42h-6.42zM475.99 32.62h6.42v6.42h-6.42zM482.41 32.62h6.42v6.42h-6.42zM475.99 39.04h6.42v6.42h-6.42zM482.41 39.04h6.42v6.42h-6.42zM475.99 45.47h6.42v6.42h-6.42zM482.41 45.47h6.42v6.42h-6.42zM350.13.5h6.42v6.42h-6.42zM356.56.5h6.42v6.42h-6.42zM362.98.5h6.42v6.42h-6.42zM350.13 6.92h6.42v6.42h-6.42zM356.56 6.92h6.42v6.42h-6.42zM362.98 6.92h6.42v6.42h-6.42zM350.13 13.35h6.42v6.42h-6.42z"/><path class="cls-13" d="M356.56 13.35h6.42v6.42h-6.42z"/><path class="cls-12" d="M362.98 13.35h6.42v6.42h-6.42zM350.13 19.77h6.42v6.42h-6.42zM356.56 19.77h6.42v6.42h-6.42z"/><path class="cls-13" d="M362.98 19.77h6.42v6.42h-6.42z"/><path class="cls-12" d="M369.4.5h6.42v6.42h-6.42zM375.83.5h6.42v6.42h-6.42zM382.25.5h6.42v6.42h-6.42zM369.4 6.92h6.42v6.42h-6.42zM375.83 6.92h6.42v6.42h-6.42zM382.25 6.92h6.42v6.42h-6.42z"/><path class="cls-13" d="M369.4 13.35h6.42v6.42h-6.42z"/><path class="cls-12" d="M375.83 13.35h6.42v6.42h-6.42zM382.25 13.35h6.42v6.42h-6.42z"/><path class="cls-13" d="M369.4 19.77h6.42v6.42h-6.42z"/><path class="cls-12" d="M375.83 19.77h6.42v6.42h-6.42zM382.25 19.77h6.42v6.42h-6.42zM350.13 26.2h6.42v6.42h-6.42zM356.56 26.2h6.42v6.42h-6.42z"/><path class="cls-13" d="M362.98 26.2h6.42v6.42h-6.42z"/><path class="cls-12" d="M350.13 32.62h6.42v6.42h-6.42zM356.56 32.62h6.42v6.42h-6.42zM362.98 32.62h6.42v6.42h-6.42zM350.13 39.04h6.42v6.42h-6.42zM356.56 39.04h6.42v6.42h-6.42zM362.98 39.04h6.42v6.42h-6.42zM350.13 45.47h6.42v6.42h-6.42zM356.56 45.47h6.42v6.42h-6.42zM362.98 45.47h6.42v6.42h-6.42zM369.4 26.2h6.42v6.42h-6.42zM375.83 26.2h6.42v6.42h-6.42zM382.25 26.2h6.42v6.42h-6.42z"/><path class="cls-12" d="M369.4 32.62h6.42v6.42h-6.42zM375.83 32.62h6.42v6.42h-6.42zM382.25 32.62h6.42v6.42h-6.42zM369.4 39.04h6.42v6.42h-6.42zM375.83 39.04h6.42v6.42h-6.42zM382.25 39.04h6.42v6.42h-6.42zM369.4 45.47h6.42v6.42h-6.42zM375.83 45.47h6.42v6.42h-6.42zM382.25 45.47h6.42v6.42h-6.42zM388.68.5h6.42v6.42h-6.42zM395.1.5h6.42v6.42h-6.42zM388.68 6.92h6.42v6.42h-6.42zM395.1 6.92h6.42v6.42h-6.42zM388.68 13.35h6.42v6.42h-6.42zM395.1 13.35h6.42v6.42h-6.42zM388.68 19.77h6.42v6.42h-6.42zM395.1 19.77h6.42v6.42h-6.42zM388.68 26.2h6.42v6.42h-6.42zM395.1 26.2h6.42v6.42h-6.42zM388.68 32.62h6.42v6.42h-6.42zM395.1 32.62h6.42v6.42h-6.42zM388.68 39.04h6.42v6.42h-6.42zM395.1 39.04h6.42v6.42h-6.42zM388.68 45.47h6.42v6.42h-6.42zM395.1 45.47h6.42v6.42h-6.42z"/><g id="text5295-8-8" class="cls-2"><text class="cls-14" transform="translate(0 77.05)">Φ</text></g><g id="text5295-8-8-2" data-name="text5295-8-8" class="cls-2"><text class="cls-14" transform="translate(235.39 89.53)">Φ</text></g><g id="text5295-8-8-3" data-name="text5295-8-8" class="cls-2"><text class="cls-14" transform="translate(326.39 89.53)">Φ</text></g><g id="text5295-8-8-4" data-name="text5295-8-8" class="cls-2"><text class="cls-14" transform="translate(414.23 89.53)">Φ</text></g><g id="text5295-8-8-5" data-name="text5295-8-8" class="cls-2"><text class="cls-14" transform="translate(503.82 89.53)">Φ</text></g></g></g></svg>