<svg xmlns="http://www.w3.org/2000/svg" viewBox="0 0 253.11 224.19"><style>.O{stroke-width:.5}.P{stroke-linejoin:round}.Q{stroke:#000}.R{stroke:#ff0}.S{stroke-linecap:round}.T{fill:#00f}.U{fill:none}.V{stroke-miterlimit:10}.W{fill:#4d4d4d}.X{fill:#b3b3b3}.Y{fill:#662d91}.Z{fill:#93278f}</style><path d="M74.7 156.95l-38.2 34.2" class="T"/><path d="M71.16 160.1L36.5 191.16" class="Q U V"/><path d="M68.25 158.3l6.44-1.35-2.05 6.25-4.4-4.9z"/><g class="P Q"><path d="M.5 220.43v-17.05l5.94 5.1v-5.1l5.96 5.13v-5.13l5.97 5.14v-12.86h5.13v24.77H.5z" fill="#666"/><path d="M2.56 212.62h2.07v5.2H2.56zm3.98 0H8.6v5.2H6.54zm3.96 0h2.07v5.2H10.5zm4 0h2.07v5.2H14.5z" fill="#333"/><path d="M19.33 194.5s-2.08-3.73-1.12-5a7.22 7.22 0 011.37-1.24s-1.32-1.53-1.12-2.36 1.37-1.24 1.37-1.24-1.42-.5-1.74-1.37a1.53 1.53 0 01.49-1.61 2.52 2.52 0 011.74-.37 4.64 4.64 0 01-1.74-1.49c-.55-1.1-.23-2.26.37-2.46a11.31 11.31 0 012.23-.41s-.72-.42-.16-1.72c.4-.9.35-1.25 1.3-.73 1.2.64 1.18 1.38 1.18 1.38a5.22 5.22 0 01.34-3c.78-1.68 2.06-1.73 4-.8 1.58.77 1.66 1.35 1.66 1.35s.85-.58 3.66-.3a3.55 3.55 0 013.31 2.87c.24 1.77-1.8 3.8-3.23 3.6-1.24-.2-2.24-1.9-2.24-1.9s.7 2.14.24 2.5-3.35-1.74-3.35-1.74a3.37 3.37 0 01.74 2.48 2.13 2.13 0 01-2.11 1.37c-1.6-.16-2.73-2.73-2.73-2.73s1.48 2.57.62 4.47a9.11 9.11 0 01-1.61 2.23 5.56 5.56 0 01.87 2.49 4.14 4.14 0 01-.38 1.86 3 3 0 01-1.42 1.12s.94 1.54.68 2.1c-.35.8-3.22.62-3.22.62z" class="O X"/><path d="M74.9 49.2V32.17l5.93 5.1v-5.1l5.97 5.13v-5.13l5.97 5.14V24.45h5.13V49.2h-23z" fill="#666"/><path d="M76.95 41.4h2.07v5.2h-2.07zm3.98 0H83v5.2h-2.07zm3.97 0h2.07v5.2H84.9zm3.98 0h2.07v5.2h-2.07z" fill="#333"/><path d="M93.72 23.28s-2.08-3.74-1.12-5a7.22 7.22 0 011.4-1.21s-1.33-1.54-1.12-2.36 1.36-1.24 1.36-1.24-1.44-.47-1.77-1.37a1.57 1.57 0 01.5-1.62 2.58 2.58 0 011.74-.37A4.54 4.54 0 0193 8.62c-.55-1.08-.23-2.26.37-2.45a10.85 10.85 0 012.22-.42s-.7-.42-.15-1.72c.4-.9.35-1.25 1.3-.73 1.2.65 1.18 1.4 1.18 1.4a5.22 5.22 0 01.34-3c.78-1.68 2.06-1.74 4-.8 1.58.77 1.66 1.36 1.66 1.36s.85-.6 3.66-.3a3.58 3.58 0 013.35 2.86c.24 1.77-1.8 3.8-3.23 3.6-1.24-.16-2.24-1.86-2.24-1.86s.7 2.14.25 2.48-3.35-1.74-3.35-1.74a3.4 3.4 0 01.64 2.46 2.14 2.14 0 01-2.11 1.37c-1.6-.17-2.73-2.74-2.73-2.74s1.48 2.58.62 4.47a9 9 0 01-1.62 2.24 5.37 5.37 0 01.87 2.48 4.25 4.25 0 01-.37 1.87 3 3 0 01-1.42 1.12s.93 1.54.68 2.1c-.34.8-3.2.62-3.2.62z" class="O X"/><path d="M216.87 60.73V43.7l5.93 5.1v-5.1l5.96 5.13V43.7l5.98 5.14V35.97h5.13v24.76h-23z" fill="#666"/><path d="M218.93 52.93H221v5.2h-2.07zm3.97 0h2.07v5.2h-2.07zm3.98 0h2.07v5.2h-2.07zm3.98 0h2.07v5.2h-2.07z" fill="#333"/><path d="M235.7 34.8s-2.08-3.73-1.12-5a7.31 7.31 0 011.36-1.24s-1.32-1.53-1.1-2.36 1.36-1.2 1.36-1.2-1.4-.5-1.74-1.37A1.55 1.55 0 01235 22a2.52 2.52 0 011.74-.37 4.53 4.53 0 01-1.74-1.5c-.56-1.08-.23-2.25.37-2.45a11.27 11.27 0 012.22-.41s-.7-.42-.15-1.72c.4-.9.35-1.25 1.3-.73 1.2.64 1.18 1.38 1.18 1.38a5.22 5.22 0 01.34-3c.77-1.68 2.06-1.73 4-.8 1.58.78 1.66 1.36 1.66 1.36s.85-.58 3.65-.3a3.56 3.56 0 013.36 2.85c.24 1.77-1.8 3.8-3.23 3.6-1.24-.17-2.24-1.87-2.24-1.87s.7 2.14.25 2.5-3.35-1.74-3.35-1.74a3.37 3.37 0 01.74 2.48 2.13 2.13 0 01-2.11 1.37c-1.6-.17-2.73-2.73-2.73-2.73s1.47 2.57.62 4.47a9 9 0 01-1.62 2.23 5.43 5.43 0 01.87 2.49 4.19 4.19 0 01-.37 1.86 3 3 0 01-1.42 1.12s.93 1.54.68 2.1c-.46.8-3.32.6-3.32.6z" class="O X"/><path d="M200.93 223.7v-17.04l5.94 5.1v-5.1l5.96 5.13v-5.13l5.98 5.14v-12.86h5.13v24.76h-23z" fill="#666"/><path d="M203 215.9h2.07v5.2H203zm3.97 0h2.07v5.2h-2.07zm3.97 0H213v5.2h-2.07zm3.98 0H217v5.2h-2.07z" fill="#333"/><g class="O"><path d="M219.76 197.76s-2.08-3.74-1.12-5a7.22 7.22 0 011.37-1.24s-1.32-1.53-1.12-2.36 1.37-1.24 1.37-1.24-1.4-.5-1.74-1.37A1.53 1.53 0 01219 185a2.52 2.52 0 011.73-.38 4.46 4.46 0 01-1.73-1.52c-.56-1.08-.24-2.26.36-2.45a10.9 10.9 0 012.23-.42s-.7-.4-.16-1.72c.4-.9.35-1.24 1.3-.73 1.18.65 1.18 1.4 1.18 1.4a5.12 5.12 0 01.34-3c.77-1.68 2.06-1.74 3.95-.8 1.58.78 1.67 1.36 1.67 1.36s.84-.58 3.65-.3a3.57 3.57 0 013.35 2.86c.24 1.77-1.8 3.8-3.23 3.6-1.24-.16-2.23-1.86-2.23-1.86s.7 2.14.25 2.5-3.36-1.74-3.36-1.74a3.4 3.4 0 01.75 2.48 2.13 2.13 0 01-2.11 1.37c-1.6-.17-2.74-2.74-2.74-2.74s1.48 2.58.62 4.48a9.11 9.11 0 01-1.61 2.23 5.38 5.38 0 01.87 2.49 4.19 4.19 0 01-.37 1.86 3 3 0 01-1.42 1.12s.93 1.54.67 2.1c-.34.77-3.2.6-3.2.6z" class="X"/><path d="M78.98 130.07h6.36v20.23h-6.36z" class="Y"/></g></g><g class="W O P"><g class="R S"><path d="M80.25 132.34h4.08m-4.08 1.52h4.08M80.25 130.82h4.08m-4.08 6.05h4.08m-4.08 1.53h4.08m-4.08-3.05h4.08m-4.08 6.07h4.08m-4.08 1.52h4.08m-4.08-3.04h4.08m-4.08 6h4.08m-4.08 1.52h4.08m-4.08-3.04h4.08m-4.08 4.52h4.08"/></g><path d="M95.73 150.3h-8.3v-37.8a1.33 1.33 0 012.2-1l5.66 5a1.33 1.33 0 01.44 1z" class="Q"/><g class="R S"><path d="M88.66 119.4h5.85m-5.85 1.53h5.85M88.66 117.9h5.85m-5.85 6.04h5.85m-5.85 1.52h5.85m-5.85-3.04h5.85m-5.85 6.08h5.85m-5.85 1.52h5.85m-5.85-3.04h5.85m-5.85 6h5.85m-5.85 1.53h5.85m-5.85-3.05h5.85m-5.85 6.05h5.85m-5.85 1.52h5.85m-5.85-3.04h5.85m-5.85 6.08h5.85m-5.85 1.52h5.85m-5.85-3.04h5.85"/></g></g><g class="Q O P"><path d="M83.58 123.8h6.23v26.48h-6.23z" class="Z"/><path d="M93.94 129.8h5.67v20.5h-5.67z" fill="#ccc"/></g><g class="R S W O P"><path d="M94.98 133.05h3.6m-3.6 1.52h3.6M94.98 131.54h3.6m-3.6 6.04h3.6m-3.6 1.52h3.6m-3.6-3.04h3.6m-3.6 6.08h3.6m-3.6 1.52h3.6m-3.6-3.04h3.6m-3.6 5.98h3.6m-3.6 1.53h3.6m-3.6-3.03h3.6M84.5 126.93h4.15m-4.15 1.52h4.15m-4.15-3.05h4.15m-4.15 6.06h4.15m-4.15 1.52h4.15m-4.15-3.04h4.15m-4.15 6.08h4.15m-4.15 1.5h4.15m-4.15-3.03h4.15m-4.15 6h4.15M84.5 142h4.15m-4.15-3.03h4.15m-4.15 6.05h4.15m-4.15 1.52h4.15m-4.15-3.04h4.15m-4.15 4.56h4.15"/></g><path d="M147.1 86.28h6.36v20.23h-6.36z" class="O P Q Y"/><g class="W O P"><g class="R S"><path d="M148.36 88.55h4.08m-4.08 1.52h4.08M148.36 87.03h4.08m-4.08 6.05h4.08m-4.08 1.52h4.08m-4.08-3.04h4.08m-4.08 6.07h4.08m-4.08 1.52h4.08m-4.08-3.05h4.08m-4.08 6h4.08m-4.08 1.52h4.08m-4.08-3.02h4.08m-4.08 4.52h4.08"/></g><path d="M163.84 106.5h-8.3V68.7a1.33 1.33 0 012.2-1l5.65 5a1.33 1.33 0 01.45 1z" class="Q"/><g class="R S"><path d="M156.76 75.62h5.85m-5.85 1.52h5.85M156.76 74.1h5.85m-5.85 6.05h5.85m-5.85 1.52h5.85m-5.85-3.04h5.85m-5.85 6.07h5.85m-5.85 1.53h5.85m-5.85-3.03h5.85m-5.85 5.98h5.85m-5.85 1.52h5.85m-5.85-3.04h5.85m-5.85 6.04h5.85m-5.85 1.53h5.85m-5.85-3.03h5.85m-5.85 6.07h5.85m-5.85 1.5h5.85m-5.85-3.03h5.85"/></g></g><g class="Q O P"><path d="M151.68 80.02h6.23v26.48h-6.23z" class="Z"/><path d="M162.04 86h5.67v20.5h-5.67z" fill="#ccc"/></g><g class="R S W O P"><path d="M163.08 89.26h3.6m-3.6 1.52h3.6M163.08 87.74h3.6m-3.6 6.06h3.6m-3.6 1.5h3.6m-3.6-3.03h3.6m-3.6 6.08h3.6m-3.6 1.52h3.6m-3.6-3.04h3.6m-3.6 6h3.6m-3.6 1.52h3.6m-3.6-3.04h3.6M152.6 83.14h4.15m-4.15 1.52h4.15m-4.15-3.04h4.15m-4.15 6.05h4.15m-4.15 1.53h4.15m-4.15-3.05h4.15m-4.15 6.07h4.15m-4.15 1.52h4.15m-4.15-3.04h4.15m-4.15 6h4.15m-4.15 1.52h4.15m-4.15-3.04h4.15m-4.15 6.05h4.15m-4.15 1.52h4.15m-4.15-3.05h4.15m-4.15 4.56h4.15"/></g><path d="M123.85 180.32h6.36v20.23h-6.36z" class="O P Q Y"/><g class="W O P"><g class="R S"><path d="M125.12 182.6h4.08m-4.08 1.5h4.08M125.12 181.07h4.08m-4.08 6.05h4.08m-4.08 1.52h4.08m-4.08-3.04h4.08m-4.08 6.08h4.08m-4.08 1.52h4.08m-4.08-3.04h4.08m-4.08 6h4.08m-4.08 1.52h4.08m-4.08-3.04h4.08m-4.08 4.53h4.08"/></g><path d="M140.6 200.55h-8.3v-37.8a1.32 1.32 0 012.2-1l5.65 5a1.33 1.33 0 01.45 1z" class="Q"/><g class="R S"><path d="M133.52 169.67h5.85m-5.85 1.53h5.85M133.52 168.15h5.85m-5.85 6.05h5.85m-5.85 1.52h5.85m-5.85-3.04h5.85m-5.85 6.07h5.85m-5.85 1.52h5.85m-5.85-3.04h5.85m-5.85 6h5.85m-5.85 1.52h5.85m-5.85-3.05h5.85m-5.85 6.06h5.85m-5.85 1.5h5.85m-5.85-3.03h5.85m-5.85 6.06h5.85m-5.85 1.53h5.85m-5.85-3.03h5.85"/></g></g><g class="Q O P"><path d="M128.44 174.07h6.23v26.48h-6.23z" class="Z"/><path d="M138.8 180.05h5.67v20.5h-5.67z" fill="#ccc"/></g><g class="R S W O P"><path d="M139.84 183.3h3.6m-3.6 1.53h3.6M139.84 181.8h3.6m-3.6 6.04h3.6m-3.6 1.52h3.6m-3.6-3.04h3.6m-3.6 6.08h3.6m-3.6 1.52h3.6m-3.6-3.04h3.6m-3.6 6h3.6m-3.6 1.53h3.6m-3.6-3.05h3.6m-14.07-18.15h4.15m-4.15 1.5h4.15m-4.15-3.03h4.15m-4.15 6.03h4.15m-4.15 1.53h4.15m-4.15-3.03h4.15m-4.15 6.07h4.15m-4.15 1.53h4.15m-4.15-3.05h4.15m-4.15 6h4.15m-4.15 1.52h4.15m-4.15-3.03h4.15m-4.15 6.04h4.15m-4.15 1.53h4.15m-4.15-3.05h4.15m-4.15 4.55h4.15"/></g><path d="M115.27 192.16L31 212.6" class="T"/><path d="M108.82 193.72L31 212.6" stroke-width="1.4" class="Q U V"/><path d="M106.43 189.56l8.84 2.6-6.67 6.36-2.17-8.96z"/><path d="M153.07 200.6l36.97 16.8" class="T"/><path d="M156.3 202.08l33.73 15.33" stroke-width=".75" class="Q U V"/><path d="M155.94 204.63l-2.87-4.02 4.92-.48-2.05 4.5z"/><path d="M165.03 119.75l35.15 79.43" class="T"/><path d="M167.9 126.25l32.28 72.93" stroke-width="1.5" class="Q U V"/><path d="M163.97 129.57l1.06-9.82 7.97 5.82-9.03 4z"/><path d="M125.4 163.9L100.42 58.1" class="T"/><path d="M124.32 159.3l-23.9-101.18" class="Q U V"/><path d="M127.3 157.6l-1.9 6.3-4.5-4.8 6.4-1.52z"/><path d="M87.6 107.2l-3.3-51.18" class="T"/><path d="M87.16 100.6l-2.88-44.56" stroke-width="1.4" class="Q U V"/><path d="M91.67 98.95l-4.08 8.26-5.12-7.67 9.2-.6z"/><path d="M144.24 79.42l-40.8-31.07" class="T"/><path d="M141.42 77.27l-37.97-28.92" stroke-width=".75" class="Q U V"/><path d="M142.34 74.87l1.9 4.55-4.9-.62 3-3.93z"/><path d="M177 86.22l34.9-22.58" class="T"/><path d="M183.36 82.1l28.55-18.47" stroke-width="1.6" class="Q U V"/><path d="M187.52 85.7l-10.52.53 4.8-9.37 5.72 8.84z"/></svg>