<svg xmlns="http://www.w3.org/2000/svg" xmlns:xlink="http://www.w3.org/1999/xlink" viewBox="0 0 128.86 113.24"><defs><style>.cls-1,.cls-6,.cls-7,.cls-9{fill:none;}.cls-2{fill:red;}.cls-2,.cls-3,.cls-4,.cls-6,.cls-7,.cls-9{stroke:#000;stroke-miterlimit:10;}.cls-3,.cls-5{fill:blue;}.cls-7{stroke-dasharray:1.97 1.97;}.cls-8{clip-path:url(#clip-path);}.cls-9{stroke-width:0px;opacity:0;}.cls-10{clip-path:url(#clip-path-2);}.cls-11{clip-path:url(#clip-path-3);}.cls-12{clip-path:url(#clip-path-4);}</style><clipPath id="clip-path" transform="translate(-0.4)"><rect class="cls-1" y="11.61" width="14.17" height="9.45"/></clipPath><clipPath id="clip-path-2" transform="translate(-0.4)"><rect class="cls-1" x="110.7" y="101.1" width="14.17" height="9.17"/></clipPath><clipPath id="clip-path-3" transform="translate(-0.4)"><rect class="cls-1" x="115.49" y="7.41" width="14.17" height="11.34"/></clipPath><clipPath id="clip-path-4" transform="translate(-0.4)"><rect class="cls-1" x="13.96" y="102.01" width="14.17" height="11.34"/></clipPath></defs><title>monge1</title><g id="Layer_2" data-name="Layer 2"><g id="Layer_1-2" data-name="Layer 1"><circle class="cls-2" cx="20.64" cy="6.79" r="6.29"/><circle class="cls-2" cx="105.68" cy="91.83" r="6.29"/><circle class="cls-3" cx="20.64" cy="91.83" r="6.29"/><circle class="cls-3" cx="105.68" cy="6.79" r="6.29"/><line class="cls-3" x1="20.64" y1="17.47" x2="20.64" y2="80.58"/><polygon class="cls-4" points="20.64 82.86 22.35 79.91 18.94 79.91 20.64 82.86"/><line class="cls-3" x1="105.68" y1="81.72" x2="105.68" y2="18.61"/><polygon class="cls-4" points="105.68 16.33 103.98 19.28 107.39 19.28 105.68 16.33"/><line class="cls-5" x1="30.47" y1="6.79" x2="93.58" y2="6.79"/><line class="cls-6" x1="30.47" y1="6.79" x2="31.47" y2="6.79"/><line class="cls-7" x1="33.44" y1="6.79" x2="91.59" y2="6.79"/><line class="cls-6" x1="92.58" y1="6.79" x2="93.58" y2="6.79"/><polygon class="cls-4" points="95.86 6.79 92.91 5.08 92.91 8.49 95.86 6.79"/><line class="cls-5" x1="95.86" y1="93.25" x2="32.75" y2="93.25"/><line class="cls-6" x1="95.86" y1="93.25" x2="94.86" y2="93.25"/><line class="cls-7" x1="92.89" y1="93.25" x2="34.73" y2="93.25"/><line class="cls-6" x1="33.75" y1="93.25" x2="32.75" y2="93.25"/><polygon class="cls-4" points="30.47 93.25 33.42 94.95 33.42 91.54 30.47 93.25"/><g class="cls-8"><path d="M5.11,13.74c.09-.4.45-1.82,1.52-1.82a1.62,1.62,0,0,1,.78.19.91.91,0,0,0-.74.84.53.53,0,0,0,.58.53.86.86,0,0,0,.84-.89c0-.8-.92-1-1.43-1A2,2,0,0,0,5,12.74a1.71,1.71,0,0,0-1.67-1.17c-1.6,0-2.48,2-2.48,2.38,0,.15.16.15.18.15s.18,0,.21-.17c.53-1.64,1.54-2,2.07-2,.29,0,.82.13.82,1a21.79,21.79,0,0,1-.82,3.67c-.25,1-.79,1.6-1.48,1.6A1.45,1.45,0,0,1,1.1,18a.87.87,0,0,0,.72-.83.52.52,0,0,0-.56-.54.88.88,0,0,0-.86.89c0,.71.78,1,1.45,1a2,2,0,0,0,1.63-1.18,1.69,1.69,0,0,0,1.65,1.18c1.59,0,2.48-2,2.48-2.38,0-.15-.14-.15-.19-.15s-.17.06-.19.18c-.52,1.64-1.57,2-2.06,2s-.85-.49-.85-1a5.63,5.63,0,0,1,.27-1.35l.52-2.11" transform="translate(-0.4)"/><path d="M12.36,13.86c0-.28,0-.3-.32-.3a2.91,2.91,0,0,1-2.1.69v.39a3.54,3.54,0,0,0,1.55-.3v5.49c0,.36,0,.49-1.07.49H10v.39l1.92,0,1.92,0v-.39h-.4c-1.09,0-1.09-.13-1.09-.49v-6" transform="translate(-0.4)"/></g><polygon class="cls-9" points="6.25 16.69 6.25 16.69 6.25 16.69 6.25 16.69 6.25 16.69 6.25 16.69 6.25 16.69 6.25 16.69 6.25 16.69 6.25 16.69 6.25 16.69 6.25 16.69 6.25 16.69 6.25 16.69 6.25 16.69 6.25 16.69 6.25 16.69 6.25 16.69 6.25 16.69 6.25 16.69 6.25 16.69 6.25 16.69 6.25 16.69 6.25 16.69 6.25 16.69 6.25 16.69 6.25 16.69 6.25 16.69 6.25 16.69 6.25 16.69 6.25 16.69 6.25 16.69 6.25 16.69 6.25 16.69 6.25 16.69 6.25 16.69 6.25 16.69 6.25 16.69 6.25 16.69 6.25 16.69 6.25 16.69 6.25 16.69 6.25 16.69 6.25 16.69 6.25 16.69 6.25 16.69 6.25 16.69 6.25 16.69 6.25 16.69 6.25 16.69 6.25 16.69 6.25 16.69 6.25 16.69 6.25 16.69 6.25 16.69 6.25 16.69 6.25 16.69 6.25 16.69 6.25 16.69 6.25 16.69 6.25 16.69 6.25 16.69 6.25 16.69 6.25 16.69 6.25 16.69 6.25 16.69 6.25 16.69 6.25 16.69 6.25 16.69 6.25 16.69 6.25 16.69 6.25 16.69 6.25 16.69 6.25 16.69 6.25 16.69 6.25 16.69 6.25 16.69 6.25 16.69 6.25 16.69 6.25 16.69 6.25 16.69 6.25 16.69 6.25 16.69 6.25 16.69 6.25 16.69 6.25 16.69 6.25 16.69 6.25 16.69 6.25 16.69 6.25 16.69"/><g class="cls-10"><path d="M115.66,103.17c.09-.39.44-1.77,1.48-1.77a1.55,1.55,0,0,1,.76.19.88.88,0,0,0-.73.81.52.52,0,0,0,.57.52.83.83,0,0,0,.81-.86c0-.78-.89-1-1.39-1a1.94,1.94,0,0,0-1.57,1.13,1.65,1.65,0,0,0-1.62-1.13c-1.56,0-2.41,1.93-2.41,2.31,0,.14.15.14.18.14s.16,0,.2-.17c.51-1.58,1.49-1.95,2-1.95.28,0,.8.13.8,1a20.62,20.62,0,0,1-.8,3.56c-.24.93-.76,1.56-1.43,1.56a1.43,1.43,0,0,1-.74-.19.84.84,0,0,0,.7-.81.51.51,0,0,0-.55-.52.85.85,0,0,0-.83.86c0,.69.76,1,1.41,1a2,2,0,0,0,1.58-1.14,1.66,1.66,0,0,0,1.61,1.14c1.54,0,2.39-1.93,2.39-2.31,0-.14-.13-.14-.17-.14s-.17,0-.19.16c-.5,1.6-1.52,2-2,2s-.82-.48-.82-1a6,6,0,0,1,.25-1.31l.51-2" transform="translate(-0.4)"/><path d="M124.48,108h-.36a2.31,2.31,0,0,1-.26.94,4.91,4.91,0,0,1-1,.07H120.9c1.09-1,1.46-1.27,2.09-1.76a3,3,0,0,0,1.49-2.25,2.19,2.19,0,0,0-2.44-2,2,2,0,0,0-2.18,1.86.55.55,0,0,0,.56.59.54.54,0,0,0,.55-.55c0-.19-.07-.56-.61-.56a1.64,1.64,0,0,1,1.52-1,1.57,1.57,0,0,1,1.59,1.66,3.21,3.21,0,0,1-1,2L120,109.53c-.11.1-.11.12-.11.41h4.31l.31-1.9" transform="translate(-0.4)"/></g><polygon class="cls-9" points="5.83 28.96 5.83 28.96 5.83 28.96 5.83 28.96 5.83 28.96 5.83 28.96 5.83 28.96 5.83 28.96 5.83 28.96 5.83 28.96 5.83 28.96 5.83 28.96 5.83 28.96 5.83 28.96 5.83 28.96 5.83 28.96 5.83 28.96 5.83 28.96 5.83 28.96 5.83 28.96 5.83 28.96 5.83 28.96 5.83 28.96 5.83 28.96 5.83 28.96 5.83 28.96 5.83 28.96 5.83 28.96 5.83 28.96 5.83 28.96 5.83 28.96 5.83 28.96 5.83 28.96 5.83 28.96 5.83 28.96 5.83 28.96 5.83 28.96 5.83 28.96 5.83 28.96 5.83 28.96 5.83 28.96 5.83 28.96 5.83 28.96 5.83 28.96 5.83 28.96 5.83 28.96 5.83 28.96 5.83 28.96 5.83 28.96 5.83 28.96 5.83 28.96 5.83 28.96 5.83 28.96 5.83 28.96 5.83 28.96 5.83 28.96 5.83 28.96 5.83 28.96 5.83 28.96 5.83 28.96 5.83 28.96 5.83 28.96 5.83 28.96 5.83 28.96 5.83 28.96 5.83 28.96 5.83 28.96 5.83 28.96 5.83 28.96 5.83 28.96 5.83 28.96 5.83 28.96 5.83 28.96 5.83 28.96 5.83 28.96 5.83 28.96 5.83 28.96 5.83 28.96 5.83 28.96 5.83 28.96 5.83 28.96 5.83 28.96 5.83 28.96 5.83 28.96 5.83 28.96 5.83 28.96 5.83 28.96 5.83 28.96 5.83 28.96 5.83 28.96"/><g class="cls-11"><path d="M123.64,8.69a1.17,1.17,0,0,0,.06-.39.44.44,0,0,0-.49-.46.73.73,0,0,0-.59.36c0,.08-.16.61-.24.91s-.24.91-.34,1.36l-.75,3.06A2.41,2.41,0,0,1,119.36,15c-.87,0-1-.75-1-1.38a10,10,0,0,1,.86-3.32,2.9,2.9,0,0,0,.34-1.22,1.34,1.34,0,0,0-1.38-1.4c-1.61,0-2.24,2.47-2.24,2.62s.16.17.2.17.19,0,.27-.31c.46-1.59,1.14-2.1,1.72-2.1.12,0,.41,0,.41.54a3.3,3.3,0,0,1-.29,1.19,11.45,11.45,0,0,0-1,3.56,1.9,1.9,0,0,0,2.08,2,2.43,2.43,0,0,0,1.71-.76,6.66,6.66,0,0,1-1.11,2.61A2.44,2.44,0,0,1,118,18.26a1.36,1.36,0,0,1-1.29-.71,1,1,0,0,0,.72-.2.91.91,0,0,0,.34-.7.58.58,0,0,0-.62-.6,1,1,0,0,0-1,1.11,1.6,1.6,0,0,0,1.8,1.47,4.44,4.44,0,0,0,4-3.46l1.64-6.48" transform="translate(-0.4)"/><path d="M127.63,10.18c0-.33,0-.34-.36-.34a3.22,3.22,0,0,1-2.32.77V11a3.81,3.81,0,0,0,1.72-.34v6c0,.39,0,.56-1.18.56H125v.41l2.1,0,2.12,0v-.41h-.45c-1.18,0-1.18-.17-1.18-.56V10.18" transform="translate(-0.4)"/></g><polygon class="cls-9" points="115.41 16.64 115.41 16.64 115.41 16.64 115.41 16.64 115.41 16.64 115.41 16.64 115.41 16.64 115.41 16.64 115.41 16.64 115.41 16.64 115.41 16.64 115.41 16.64 115.41 16.64 115.41 16.64 115.41 16.64 115.41 16.64 115.41 16.64 115.41 16.64 115.41 16.64 115.41 16.64 115.41 16.64 115.41 16.64 115.41 16.64 115.41 16.64 115.41 16.64 115.41 16.64 115.41 16.64 115.41 16.64 115.41 16.64 115.41 16.64 115.41 16.64 115.41 16.64 115.41 16.64 115.41 16.64 115.41 16.64 115.41 16.64 115.41 16.64 115.41 16.64 115.41 16.64 115.41 16.64 115.41 16.64 115.41 16.64 115.41 16.64 115.41 16.64 115.41 16.64 115.41 16.64 115.41 16.64 115.41 16.64 115.41 16.64 115.41 16.64 115.41 16.64 115.41 16.64 115.41 16.64 115.41 16.64 115.41 16.64 115.41 16.64 115.41 16.64 115.41 16.64 115.41 16.64 115.41 16.64 115.41 16.64 115.41 16.64 115.41 16.64 115.41 16.64 115.41 16.64 115.41 16.64 115.41 16.64 115.41 16.64 115.41 16.64 115.41 16.64 115.41 16.64 115.41 16.64 115.41 16.64 115.41 16.64 115.41 16.64 115.41 16.64 115.41 16.64 115.41 16.64 115.41 16.64 115.41 16.64 115.41 16.64 115.41 16.64 115.41 16.64 115.41 16.64 115.41 16.64 115.41 16.64 115.41 16.64 115.41 16.64 115.41 16.64 115.41 16.64"/><g class="cls-12"><path d="M22.11,103.3a1.23,1.23,0,0,0,.06-.39.44.44,0,0,0-.49-.46.73.73,0,0,0-.59.36c0,.08-.16.6-.24.91s-.24.9-.34,1.36l-.75,3a2.42,2.42,0,0,1-1.93,1.45c-.87,0-1-.76-1-1.38a10.32,10.32,0,0,1,.86-3.33,2.9,2.9,0,0,0,.34-1.22,1.34,1.34,0,0,0-1.38-1.39c-1.61,0-2.24,2.46-2.24,2.61a.17.17,0,0,0,.2.18c.17,0,.19,0,.27-.31.46-1.59,1.14-2.11,1.72-2.11.13,0,.41,0,.41.55a3.65,3.65,0,0,1-.28,1.19,11.27,11.27,0,0,0-1,3.56,1.89,1.89,0,0,0,2.08,2,2.47,2.47,0,0,0,1.71-.75,6.56,6.56,0,0,1-1.11,2.6,2.41,2.41,0,0,1-1.86,1.07,1.38,1.38,0,0,1-1.29-.7A1,1,0,0,0,16,112a1,1,0,0,0,.34-.71.57.57,0,0,0-.63-.59,1,1,0,0,0-.95,1.11,1.6,1.6,0,0,0,1.8,1.47,4.45,4.45,0,0,0,4-3.46l1.64-6.48" transform="translate(-0.4)"/><path d="M28.11,110.16h-.4a3,3,0,0,1-.3,1.08,7.39,7.39,0,0,1-1.19.06H24.05c1.24-1.09,1.66-1.43,2.36-2a3.4,3.4,0,0,0,1.7-2.55c0-1.43-1.26-2.31-2.77-2.31a2.29,2.29,0,0,0-2.46,2.12.63.63,0,1,0,1.26,0c0-.21-.09-.63-.71-.63a1.88,1.88,0,0,1,1.74-1.11,1.79,1.79,0,0,1,1.8,1.89A3.68,3.68,0,0,1,25.85,109L23,111.86c-.11.1-.11.12-.11.45h4.88l.35-2.15" transform="translate(-0.4)"/></g><polygon class="cls-9" points="20.22 107.8 20.22 107.8 20.22 107.8 20.22 107.8 20.22 107.8 20.22 107.8 20.22 107.8 20.22 107.8 20.22 107.8 20.22 107.8 20.22 107.8 20.22 107.8 20.22 107.8 20.22 107.8 20.22 107.8 20.22 107.8 20.22 107.8 20.22 107.8 20.22 107.8 20.22 107.8 20.22 107.8 20.22 107.8 20.22 107.8 20.22 107.8 20.22 107.8 20.22 107.8 20.22 107.8 20.22 107.8 20.22 107.8 20.22 107.8 20.22 107.8 20.22 107.8 20.22 107.8 20.22 107.8 20.22 107.8 20.22 107.8 20.22 107.8 20.22 107.8 20.22 107.8 20.22 107.8 20.22 107.8 20.22 107.8 20.22 107.8 20.22 107.8 20.22 107.8 20.22 107.8 20.22 107.8 20.22 107.8 20.22 107.8 20.22 107.8 20.22 107.8 20.22 107.8 20.22 107.8 20.22 107.8 20.22 107.8 20.22 107.8 20.22 107.8 20.22 107.8 20.22 107.8 20.22 107.8 20.22 107.8 20.22 107.8 20.22 107.8 20.22 107.8 20.22 107.8 20.22 107.8 20.22 107.8 20.22 107.8 20.22 107.8 20.22 107.8 20.22 107.8 20.22 107.8 20.22 107.8 20.22 107.8 20.22 107.8 20.22 107.8 20.22 107.8 20.22 107.8 20.22 107.8 20.22 107.8 20.22 107.8 20.22 107.8 20.22 107.8 20.22 107.8 20.22 107.8 20.22 107.8 20.22 107.8 20.22 107.8 20.22 107.8 20.22 107.8"/></g></g></svg>