<svg xmlns="http://www.w3.org/2000/svg" xmlns:xlink="http://www.w3.org/1999/xlink" viewBox="0 0 179.82 122.17"><defs><style>.cls-1,.cls-4,.cls-6{fill:none;}.cls-2{fill:red;}.cls-10,.cls-2,.cls-4,.cls-6{stroke:#000;stroke-miterlimit:10;}.cls-10,.cls-3{fill:blue;}.cls-5{clip-path:url(#clip-path);}.cls-6{stroke-width:0px;opacity:0;}.cls-7{clip-path:url(#clip-path-2);}.cls-8{clip-path:url(#clip-path-3);}.cls-9{clip-path:url(#clip-path-4);}</style><clipPath id="clip-path" transform="translate(-0.3)"><rect class="cls-1" y="0.03" width="14.17" height="9.45"/></clipPath><clipPath id="clip-path-2" transform="translate(-0.3)"><rect class="cls-1" x="29.29" y="38.27" width="14.17" height="9.17"/></clipPath><clipPath id="clip-path-3" transform="translate(-0.3)"><rect class="cls-1" x="124.21" y="7.72" width="14.17" height="11.34"/></clipPath><clipPath id="clip-path-4" transform="translate(-0.3)"><rect class="cls-1" x="165.96" y="33.66" width="14.17" height="11.34"/></clipPath></defs><title>monge2</title><g id="Layer_2" data-name="Layer 2"><g id="Layer_1-2" data-name="Layer 1"><circle class="cls-2" cx="14.56" cy="19.67" r="6.29"/><line class="cls-3" x1="110.32" y1="26.98" x2="26.86" y2="19.7"/><line class="cls-4" x1="105.6" y1="26.57" x2="26.86" y2="19.7"/><polygon points="104.93 23.21 110.32 26.98 104.36 29.77 104.93 23.21"/><g class="cls-5"><path d="M5.11,2.16C5.2,1.76,5.56.34,6.63.34a1.55,1.55,0,0,1,.78.2.91.91,0,0,0-.74.83.53.53,0,0,0,.58.54A.86.86,0,0,0,8.09,1c0-.8-.92-1-1.43-1A2,2,0,0,0,5,1.17,1.71,1.71,0,0,0,3.36,0C1.76,0,.88,2,.88,2.38c0,.15.16.15.18.15s.18,0,.21-.17C1.8.72,2.81.34,3.34.34c.29,0,.82.14.82,1A21.79,21.79,0,0,1,3.34,5c-.25,1-.79,1.6-1.48,1.6a1.51,1.51,0,0,1-.76-.19.87.87,0,0,0,.72-.83.52.52,0,0,0-.56-.54A.88.88,0,0,0,.4,6c0,.71.78,1,1.45,1A2.06,2.06,0,0,0,3.48,5.81,1.7,1.7,0,0,0,5.13,7C6.72,7,7.61,5,7.61,4.61c0-.15-.14-.15-.19-.15s-.17.06-.19.17c-.52,1.65-1.57,2-2.06,2s-.85-.49-.85-1a5.46,5.46,0,0,1,.27-1.35l.52-2.12" transform="translate(-0.3)"/><path d="M12.36,2.29c0-.29,0-.3-.32-.3a3,3,0,0,1-2.1.69v.38a3.64,3.64,0,0,0,1.55-.29V8.26c0,.35,0,.49-1.07.49H10v.39c.19,0,1.52-.05,1.92-.05l1.92.05V8.75h-.4c-1.09,0-1.09-.14-1.09-.49v-6" transform="translate(-0.3)"/></g><polygon class="cls-6" points="6.35 5.12 6.35 5.12 6.35 5.12 6.35 5.12 6.35 5.12 6.35 5.12 6.35 5.12 6.35 5.12 6.35 5.12 6.35 5.12 6.35 5.12 6.35 5.12 6.35 5.12 6.35 5.12 6.35 5.12 6.35 5.12 6.35 5.12 6.35 5.12 6.35 5.12 6.35 5.12 6.35 5.12 6.35 5.12 6.35 5.12 6.35 5.12 6.35 5.12 6.35 5.12 6.35 5.12 6.35 5.12 6.35 5.12 6.35 5.12 6.35 5.12 6.35 5.12 6.35 5.12 6.35 5.12 6.35 5.12 6.35 5.12 6.35 5.12 6.35 5.12 6.35 5.12 6.35 5.12 6.35 5.12 6.35 5.12 6.35 5.12 6.35 5.12 6.35 5.12 6.35 5.12 6.35 5.12 6.35 5.12 6.35 5.12 6.35 5.12 6.35 5.12 6.35 5.12 6.35 5.12 6.35 5.12 6.35 5.12 6.35 5.12 6.35 5.12 6.35 5.12 6.35 5.12 6.35 5.12 6.35 5.12 6.35 5.12 6.35 5.12 6.35 5.12 6.35 5.12 6.35 5.12 6.35 5.12 6.35 5.12 6.35 5.12 6.35 5.12 6.35 5.12 6.35 5.12 6.35 5.12 6.35 5.12 6.35 5.12 6.35 5.12 6.35 5.12 6.35 5.12 6.35 5.12 6.35 5.12 6.35 5.12 6.35 5.12 6.35 5.12 6.35 5.12 6.35 5.12 6.35 5.12 6.35 5.12 6.35 5.12 6.35 5.12 6.35 5.12"/><g class="cls-7"><path d="M34.25,40.34c.09-.39.43-1.77,1.48-1.77a1.52,1.52,0,0,1,.75.19.88.88,0,0,0-.72.81.52.52,0,0,0,.57.52.83.83,0,0,0,.81-.86c0-.78-.89-1-1.39-1a2,2,0,0,0-1.58,1.13,1.67,1.67,0,0,0-1.62-1.13c-1.55,0-2.41,1.93-2.41,2.31,0,.14.16.14.18.14s.17,0,.2-.16c.51-1.59,1.5-2,2-2,.28,0,.8.14.8,1a21.75,21.75,0,0,1-.8,3.57c-.24.93-.77,1.55-1.43,1.55a1.46,1.46,0,0,1-.75-.19.84.84,0,0,0,.7-.81.5.5,0,0,0-.54-.52.85.85,0,0,0-.83.87c0,.68.75,1,1.41,1a2,2,0,0,0,1.57-1.14A1.66,1.66,0,0,0,34.27,45c1.54,0,2.4-1.93,2.4-2.31,0-.14-.13-.14-.18-.14s-.16.06-.19.17c-.5,1.6-1.52,1.95-2,1.95s-.83-.48-.83-1a5.68,5.68,0,0,1,.26-1.31l.51-2" transform="translate(-0.3)"/><path d="M43.06,45.21h-.35a2.36,2.36,0,0,1-.27.95,5.66,5.66,0,0,1-1,.06H39.49c1.09-1,1.45-1.26,2.09-1.75a3,3,0,0,0,1.48-2.25,2.19,2.19,0,0,0-2.44-2A2,2,0,0,0,38.45,42a.56.56,0,1,0,1.11,0c0-.19-.07-.55-.61-.55a1.64,1.64,0,0,1,1.52-1,1.56,1.56,0,0,1,1.58,1.67,3.18,3.18,0,0,1-1,2L38.56,46.7c-.11.1-.11.12-.11.41h4.3l.31-1.9" transform="translate(-0.3)"/></g><g class="cls-8"><path d="M132.37,9a1.2,1.2,0,0,0,.06-.39.45.45,0,0,0-.49-.46.72.72,0,0,0-.59.36c0,.08-.17.61-.24.91s-.24.9-.34,1.36L130,13.83a2.36,2.36,0,0,1-1.92,1.45c-.87,0-1.06-.75-1.06-1.38a10,10,0,0,1,.87-3.32,2.93,2.93,0,0,0,.34-1.22A1.34,1.34,0,0,0,126.86,8c-1.61,0-2.24,2.47-2.24,2.62s.16.17.2.17.19,0,.26-.31c.47-1.59,1.15-2.1,1.73-2.1.12,0,.41,0,.41.54a3.3,3.3,0,0,1-.29,1.19,11.16,11.16,0,0,0-1,3.56,1.9,1.9,0,0,0,2.08,2,2.43,2.43,0,0,0,1.71-.76,6.66,6.66,0,0,1-1.11,2.61,2.43,2.43,0,0,1-1.86,1.06,1.39,1.39,0,0,1-1.3-.7,1,1,0,0,0,.73-.2.92.92,0,0,0,.34-.71.58.58,0,0,0-.63-.59,1,1,0,0,0-.94,1.11,1.6,1.6,0,0,0,1.8,1.47,4.46,4.46,0,0,0,4-3.46L132.37,9" transform="translate(-0.3)"/><path d="M136.35,10.49c0-.33,0-.34-.35-.34a3.24,3.24,0,0,1-2.33.77v.42A3.87,3.87,0,0,0,135.4,11v6c0,.39,0,.56-1.19.56h-.45V18l2.1,0L138,18V17.6h-.45c-1.19,0-1.19-.17-1.19-.56V10.49" transform="translate(-0.3)"/></g><g class="cls-9"><path d="M174.12,35a1.23,1.23,0,0,0,.06-.39.45.45,0,0,0-.49-.46.72.72,0,0,0-.59.36c0,.08-.17.6-.24.91s-.24.9-.34,1.36l-.76,3.05a2.38,2.38,0,0,1-1.92,1.45c-.87,0-1.06-.76-1.06-1.39a10.15,10.15,0,0,1,.87-3.32A2.9,2.9,0,0,0,170,35.3a1.34,1.34,0,0,0-1.38-1.39c-1.61,0-2.24,2.46-2.24,2.61a.17.17,0,0,0,.2.18c.16,0,.19,0,.26-.31.47-1.59,1.15-2.11,1.73-2.11.12,0,.41,0,.41.55a3.41,3.41,0,0,1-.29,1.19,11.16,11.16,0,0,0-1,3.56,1.89,1.89,0,0,0,2.08,2,2.47,2.47,0,0,0,1.71-.75,6.56,6.56,0,0,1-1.11,2.6,2.41,2.41,0,0,1-1.86,1.07,1.39,1.39,0,0,1-1.3-.7,1,1,0,0,0,.73-.2.93.93,0,0,0,.34-.71.57.57,0,0,0-.63-.59,1,1,0,0,0-.94,1.11,1.6,1.6,0,0,0,1.8,1.47,4.45,4.45,0,0,0,4-3.46L174.12,35" transform="translate(-0.3)"/><path d="M180.12,41.81h-.41a2.8,2.8,0,0,1-.3,1.08,7.27,7.27,0,0,1-1.18.06h-2.18c1.25-1.09,1.66-1.43,2.37-2a3.4,3.4,0,0,0,1.7-2.55c0-1.43-1.26-2.31-2.77-2.31a2.3,2.3,0,0,0-2.47,2.12.62.62,0,0,0,.63.67.61.61,0,0,0,.63-.63c0-.21-.09-.63-.7-.63a1.87,1.87,0,0,1,1.73-1.11,1.77,1.77,0,0,1,1.8,1.89,3.63,3.63,0,0,1-1.12,2.28L175,43.51c-.12.1-.12.12-.12.45h4.88l.36-2.15" transform="translate(-0.3)"/></g><polygon class="cls-6" points="172.33 39.45 172.33 39.45 172.33 39.45 172.33 39.45 172.33 39.45 172.33 39.45 172.33 39.45 172.33 39.45 172.33 39.45 172.33 39.45 172.33 39.45 172.33 39.45 172.33 39.45 172.33 39.45 172.33 39.45 172.33 39.45 172.33 39.45 172.33 39.45 172.33 39.45 172.33 39.45 172.33 39.45 172.33 39.45 172.33 39.45 172.33 39.45 172.33 39.45 172.33 39.45 172.33 39.45 172.33 39.45 172.33 39.45 172.33 39.45 172.33 39.45 172.33 39.45 172.33 39.45 172.33 39.45 172.33 39.45 172.33 39.45 172.33 39.45 172.33 39.45 172.33 39.45 172.33 39.45 172.33 39.45 172.33 39.45 172.33 39.45 172.33 39.45 172.33 39.45 172.33 39.45 172.33 39.45 172.33 39.45 172.33 39.45 172.33 39.45 172.33 39.45 172.33 39.45 172.33 39.45 172.33 39.45 172.33 39.45 172.33 39.45 172.33 39.45 172.33 39.45 172.33 39.45 172.33 39.45 172.33 39.45 172.33 39.45 172.33 39.45 172.33 39.45 172.33 39.45 172.33 39.45 172.33 39.45 172.33 39.45 172.33 39.45 172.33 39.45 172.33 39.45 172.33 39.45 172.33 39.45 172.33 39.45 172.33 39.45 172.33 39.45 172.33 39.45 172.33 39.45 172.33 39.45 172.33 39.45 172.33 39.45 172.33 39.45 172.33 39.45 172.33 39.45 172.33 39.45 172.33 39.45 172.33 39.45 172.33 39.45 172.33 39.45 172.33 39.45"/><circle class="cls-2" cx="39.03" cy="76.9" r="6.29"/><circle class="cls-2" cx="36.08" cy="115.39" r="6.29"/><circle class="cls-2" cx="51.61" cy="38.93" r="6.29"/><circle class="cls-2" cx="6.79" cy="89.99" r="6.29"/><circle class="cls-10" cx="119.8" cy="25.96" r="6.29"/><circle class="cls-10" cx="153.41" cy="50.13" r="11.2"/><circle class="cls-10" cx="131" cy="81.48" r="11.2"/><line class="cls-3" x1="141.95" y1="46.38" x2="61.22" y2="39.33"/><line class="cls-4" x1="137.23" y1="45.97" x2="61.22" y2="39.33"/><polygon points="136.56 42.61 141.95 46.38 135.99 49.16 136.56 42.61"/><line class="cls-3" x1="141.16" y1="52.55" x2="46.02" y2="76.66"/><line class="cls-4" x1="136.57" y1="53.71" x2="46.02" y2="76.66"/><polygon points="134.82 50.76 141.16 52.55 136.44 57.14 134.82 50.76"/><line class="cls-3" x1="122.29" y1="88.63" x2="42.64" y2="110.93"/><line class="cls-4" x1="117.73" y1="89.9" x2="42.64" y2="110.93"/><polygon points="115.91 87 122.29 88.63 117.69 93.33 115.91 87"/><line class="cls-3" x1="117.7" y1="82.47" x2="15.18" y2="89.94"/><line class="cls-4" x1="112.97" y1="82.82" x2="15.18" y2="89.94"/><polygon points="111.77 79.61 117.7 82.47 112.25 86.17 111.77 79.61"/></g></g></svg>