<svg xmlns="http://www.w3.org/2000/svg" viewBox="0 0 179.82 122.17"><style>.K{fill:none}.L{stroke:#000}.M{stroke-miterlimit:10}.N{fill:#00f}</style><defs><clipPath id="A" transform="translate(-.3)"><path d="M0 .03h14.17v9.45H0z" class="K"/></clipPath><clipPath id="B" transform="translate(-.3)"><path d="M29.3 38.27h14.17v9.17H29.3z" class="K"/></clipPath><clipPath id="C" transform="translate(-.3)"><path d="M124.2 7.72h14.17v11.34H124.2z" class="K"/></clipPath><clipPath id="D" transform="translate(-.3)"><path d="M165.96 33.66h14.17V45h-14.17z" class="K"/></clipPath></defs><circle cx="14.56" cy="19.67" r="6.29" fill="red" class="L"/><path d="M110.32 26.98L26.86 19.7" class="N"/><path d="M105.6 26.57L26.86 19.7" class="K L M"/><path d="M104.93 23.2l5.4 3.77-5.96 2.8.57-6.56z"/><g clip-path="url(#A)"><path d="M4.8 2.16c.1-.4.45-1.82 1.52-1.82a1.55 1.55 0 01.78.2.91.91 0 00-.74.83.53.53 0 00.58.54.86.86 0 00.84-.91c0-.8-.92-1-1.43-1A2 2 0 004.7 1.17 1.71 1.71 0 003.06 0C1.46 0 .58 2 .58 2.38c0 .15.16.15.18.15s.18 0 .2-.17C1.5.72 2.5.34 3.04.34c.3 0 .82.14.82 1A21.79 21.79 0 013.04 5c-.25 1-.8 1.6-1.48 1.6a1.51 1.51 0 01-.76-.19.87.87 0 00.72-.83.52.52 0 00-.56-.54A.88.88 0 00.1 6c0 .7.78 1 1.45 1a2.06 2.06 0 001.63-1.19A1.7 1.7 0 004.83 7C6.42 7 7.3 5 7.3 4.6c0-.15-.14-.15-.2-.15s-.17.06-.2.17c-.52 1.65-1.57 2-2.06 2s-.85-.5-.85-1a5.46 5.46 0 01.27-1.35l.52-2.12m7.28.15c0-.3 0-.3-.32-.3a3 3 0 01-2.1.69v.38a3.64 3.64 0 001.55-.29v5.5c0 .35 0 .5-1.07.5H9.7v.4l1.92-.05 1.92.05v-.4h-.4c-1.1 0-1.1-.14-1.1-.5v-6"/></g><g clip-path="url(#B)"><path d="M33.95 40.34c.1-.4.43-1.77 1.48-1.77a1.52 1.52 0 01.75.19.88.88 0 00-.72.81.52.52 0 00.57.52.83.83 0 00.81-.86c0-.78-.9-1-1.4-1a2 2 0 00-1.58 1.13 1.67 1.67 0 00-1.62-1.13c-1.55 0-2.4 1.93-2.4 2.3 0 .14.16.14.18.14s.17 0 .2-.16c.5-1.6 1.5-2 2-2 .28 0 .8.14.8 1a21.75 21.75 0 01-.8 3.57c-.24.93-.77 1.55-1.43 1.55a1.46 1.46 0 01-.75-.19.84.84 0 00.7-.81.5.5 0 00-.54-.52.85.85 0 00-.83.87c0 .68.75 1 1.4 1a2 2 0 001.57-1.14A1.66 1.66 0 0033.97 45c1.54 0 2.4-1.93 2.4-2.3 0-.14-.13-.14-.18-.14a.24.24 0 00-.19.17c-.5 1.6-1.52 1.95-2 1.95s-.83-.48-.83-1a5.68 5.68 0 01.26-1.31l.5-2m8.83 4.83h-.35a2.36 2.36 0 01-.27.95 5.66 5.66 0 01-1 .06H39.2l2.1-1.75a3 3 0 001.48-2.25 2.19 2.19 0 00-2.44-2A2 2 0 0038.15 42a.56.56 0 101.11 0c0-.2-.07-.55-.6-.55a1.64 1.64 0 011.52-1 1.56 1.56 0 011.58 1.67 3.18 3.18 0 01-1 2l-2.5 2.58c-.1.1-.1.12-.1.4h4.3l.3-1.9"/></g><g clip-path="url(#C)"><path d="M132.07 9a1.2 1.2 0 00.06-.39.45.45 0 00-.49-.46.72.72 0 00-.59.36c0 .08-.17.6-.24.9l-.34 1.36-.77 3.05a2.36 2.36 0 01-1.92 1.45c-.87 0-1.06-.75-1.06-1.38a10 10 0 01.87-3.32 2.93 2.93 0 00.34-1.22A1.34 1.34 0 00126.56 8c-1.6 0-2.24 2.47-2.24 2.62s.16.17.2.17.2 0 .26-.3c.47-1.6 1.15-2.1 1.73-2.1.12 0 .4 0 .4.54a3.3 3.3 0 01-.29 1.19 11.16 11.16 0 00-1 3.56 1.9 1.9 0 002.08 2 2.43 2.43 0 001.71-.76 6.66 6.66 0 01-1.11 2.61 2.43 2.43 0 01-1.86 1.06 1.39 1.39 0 01-1.3-.7 1 1 0 00.73-.2.92.92 0 00.34-.71.58.58 0 00-.63-.59 1 1 0 00-.94 1.11 1.6 1.6 0 001.8 1.47 4.46 4.46 0 004-3.46l1.62-6.5m4 1.5c0-.33 0-.34-.35-.34a3.24 3.24 0 01-2.33.77v.42a3.87 3.87 0 001.73-.34v6c0 .4 0 .56-1.2.56h-.45V18h4.24v-.4h-.45c-1.2 0-1.2-.17-1.2-.56V10.5"/></g><g clip-path="url(#D)"><path d="M173.82 35a1.23 1.23 0 00.06-.39.45.45 0 00-.49-.46.72.72 0 00-.59.36c0 .08-.17.6-.24.9l-.34 1.36-.76 3.05a2.38 2.38 0 01-1.92 1.45c-.87 0-1.06-.76-1.06-1.4a10.15 10.15 0 01.87-3.32 2.9 2.9 0 00.35-1.27 1.34 1.34 0 00-1.38-1.39c-1.6 0-2.24 2.46-2.24 2.6a.17.17 0 00.2.18c.16 0 .2 0 .26-.3.47-1.6 1.15-2.1 1.73-2.1.12 0 .4 0 .4.55a3.41 3.41 0 01-.29 1.19 11.16 11.16 0 00-1 3.56 1.89 1.89 0 002.08 2 2.47 2.47 0 001.71-.75 6.56 6.56 0 01-1.11 2.6 2.41 2.41 0 01-1.86 1.07 1.39 1.39 0 01-1.3-.7 1 1 0 00.73-.2.93.93 0 00.34-.71.57.57 0 00-.63-.59 1 1 0 00-.94 1.11 1.6 1.6 0 001.8 1.47 4.45 4.45 0 004-3.46l1.6-6.42m6.02 6.8h-.4a2.8 2.8 0 01-.3 1.08 7.27 7.27 0 01-1.18.06h-2.18l2.37-2a3.4 3.4 0 001.7-2.55c0-1.43-1.26-2.3-2.77-2.3a2.3 2.3 0 00-2.47 2.12.62.62 0 00.63.67.61.61 0 00.63-.63c0-.2-.1-.63-.7-.63a1.87 1.87 0 011.73-1.11 1.77 1.77 0 011.8 1.89 3.63 3.63 0 01-1.12 2.28l-2.85 2.83c-.12.1-.12.12-.12.45h4.88l.36-2.15"/></g><g class="L"><g fill="red"><circle cx="39.03" cy="76.9" r="6.29"/><circle cx="36.08" cy="115.39" r="6.29"/><circle cx="51.61" cy="38.93" r="6.29"/><circle cx="6.79" cy="89.99" r="6.29"/></g><g class="N"><circle cx="119.8" cy="25.96" r="6.29"/><circle cx="153.41" cy="50.13" r="11.2"/><circle cx="131" cy="81.48" r="11.2"/></g></g><path d="M141.95 46.38l-80.73-7.05" class="N"/><path d="M137.23 45.97l-76-6.64" class="K L M"/><path d="M136.56 42.6l5.4 3.77-5.96 2.78.57-6.55z"/><path d="M141.16 52.55l-95.14 24.1" class="N"/><path d="M136.57 53.7L46.02 76.66" class="K L M"/><path d="M134.82 50.76l6.34 1.8-4.72 4.6-1.62-6.38z"/><path d="M122.3 88.63l-79.65 22.3" class="N"/><path d="M117.73 89.9l-75.1 21.03" class="K L M"/><path d="M115.9 87l6.38 1.63-4.6 4.7L115.9 87z"/><path d="M117.7 82.47L15.18 89.94" class="N"/><path d="M112.97 82.82l-97.8 7.12" class="K L M"/><path d="M111.77 79.6l5.93 2.86-5.45 3.7-.48-6.56z"/></svg>