<?xml-stylesheet type="text/css" href="/css/monge.css" ?><svg xmlns="http://www.w3.org/2000/svg" xmlns:xlink="http://www.w3.org/1999/xlink" id="Layer_1" x="0" y="0" enable-background="new 0 0 397.4 118.1" version="1.1" viewBox="0 0 397.4 118.1" xml:space="preserve"><path id="fill1" fill="#5486BD" stroke="#000" stroke-miterlimit="10" d="M22.3,117.3H5.9c-3,0-5.4-2.4-5.4-5.4V95.6	c0-3,2.4-5.4,5.4-5.4h16.3c3,0,5.4,2.4,5.4,5.4v16.3C27.7,114.9,25.2,117.3,22.3,117.3z"/><path id="fill2" fill="#5486BD" stroke="#000" stroke-miterlimit="10" d="M52,117.3H35.6c-3,0-5.4-2.4-5.4-5.4V95.6	c0-3,2.4-5.4,5.4-5.4H52c3,0,5.4,2.4,5.4,5.4v16.3C57.4,114.9,55,117.3,52,117.3z"/><path id="fill3" fill="#5486BD" stroke="#000" stroke-miterlimit="10" d="M81.7,117.3H65.3c-3,0-5.4-2.4-5.4-5.4V95.6	c0-3,2.4-5.4,5.4-5.4h16.3c3,0,5.4,2.4,5.4,5.4v16.3C87.1,114.9,84.7,117.3,81.7,117.3z"/><path id="fill4" fill="#5486BD" stroke="#000" stroke-miterlimit="10" d="M89.6,52.5V36.1c0-3,2.4-5.4,5.4-5.4h16.3	c3,0,5.4,2.4,5.4,5.4v16.3c0,3-2.4,5.4-5.4,5.4H95C92.1,57.9,89.6,55.5,89.6,52.5z"/><path id="fill5" fill="#5486BD" stroke="#000" stroke-miterlimit="10" d="M89.6,82.2V65.8c0-3,2.4-5.4,5.4-5.4h16.3	c3,0,5.4,2.4,5.4,5.4v16.3c0,3-2.4,5.4-5.4,5.4H95C92.1,87.6,89.6,85.2,89.6,82.2z"/><path id="fill6" fill="#5486BD" stroke="#000" stroke-miterlimit="10" d="M89.6,111.9V95.6c0-3,2.4-5.4,5.4-5.4h16.3	c3,0,5.4,2.4,5.4,5.4v16.3c0,3-2.4,5.4-5.4,5.4H95C92.1,117.3,89.6,114.9,89.6,111.9z"/><path id="fill7" fill="#5486BD" stroke="#000" stroke-miterlimit="10" d="M30.2,82.2V65.8c0-3,2.4-5.4,5.4-5.4H52	c3,0,5.4,2.4,5.4,5.4v16.3c0,3-2.4,5.4-5.4,5.4H35.6C32.6,87.6,30.2,85.2,30.2,82.2z"/><path id="fill8" fill="#5486BD" stroke="#000" stroke-miterlimit="10" d="M59.9,82.2V65.8c0-3,2.4-5.4,5.4-5.4h16.3	c3,0,5.4,2.4,5.4,5.4v16.3c0,3-2.4,5.4-5.4,5.4H65.3C62.3,87.6,59.9,85.2,59.9,82.2z"/><path id="fill9" fill="#5486BD" stroke="#000" stroke-miterlimit="10" d="M30.1,52.5V36.1c0-3,2.4-5.4,5.4-5.4h16.3	c3,0,5.4,2.4,5.4,5.4v16.3c0,3-2.4,5.4-5.4,5.4H35.5C32.5,57.9,30.1,55.5,30.1,52.5z"/><path id="fill10" fill="#5486BD" stroke="#000" stroke-miterlimit="10" d="M59.8,52.5V36.1c0-3,2.4-5.4,5.4-5.4h16.3	c3,0,5.4,2.4,5.4,5.4v16.3c0,3-2.4,5.4-5.4,5.4H65.2C62.2,57.9,59.8,55.5,59.8,52.5z"/><path id="fill11" fill="#5486BD" stroke="#000" stroke-miterlimit="10" d="M89.6,22.3V5.9c0-3,2.4-5.4,5.4-5.4h16.3	c3,0,5.4,2.4,5.4,5.4v16.3c0,3-2.4,5.4-5.4,5.4H95C92.1,27.7,89.6,25.2,89.6,22.3z"/><path id="empty1" fill="#FFF" stroke="#000" stroke-miterlimit="10" d="M213.3,117.6h-16.3	c-3,0-5.4-2.4-5.4-5.4V95.8c0-3,2.4-5.4,5.4-5.4h16.3c3,0,5.4,2.4,5.4,5.4v16.3C218.7,115.1,216.3,117.6,213.3,117.6z" opacity=".34"/><path id="empty2" fill="#FFF" stroke="#000" stroke-miterlimit="10" d="M243,117.6h-16.3c-3,0-5.4-2.4-5.4-5.4	V95.8c0-3,2.4-5.4,5.4-5.4H243c3,0,5.4,2.4,5.4,5.4v16.3C248.4,115.1,246,117.6,243,117.6z" opacity=".34"/><path id="empty3" fill="#FFF" stroke="#000" stroke-miterlimit="10" d="M272.7,117.6h-16.3	c-3,0-5.4-2.4-5.4-5.4V95.8c0-3,2.4-5.4,5.4-5.4h16.3c3,0,5.4,2.4,5.4,5.4v16.3C278.1,115.1,275.7,117.6,272.7,117.6z" opacity=".34"/><path id="empty4" fill="#FFF" stroke="#000" stroke-miterlimit="10" d="M369.8,112.2V95.8c0-3,2.4-5.4,5.4-5.4	h16.3c3,0,5.4,2.4,5.4,5.4v16.3c0,3-2.4,5.4-5.4,5.4h-16.3C372.2,117.6,369.8,115.1,369.8,112.2z" opacity=".34"/><path id="empty5" fill="#FFF" stroke="#000" stroke-miterlimit="10" d="M280.6,82.4V66.1c0-3,2.4-5.4,5.4-5.4	h16.3c3,0,5.4,2.4,5.4,5.4v16.3c0,3-2.4,5.4-5.4,5.4h-16.3C283.1,87.9,280.6,85.4,280.6,82.4z" opacity=".34"/><path id="empty6" fill="#FFF" stroke="#000" stroke-miterlimit="10" d="M280.6,112.2V95.8c0-3,2.4-5.4,5.4-5.4	h16.3c3,0,5.4,2.4,5.4,5.4v16.3c0,3-2.4,5.4-5.4,5.4h-16.3C283.1,117.6,280.6,115.1,280.6,112.2z" opacity=".34"/><path id="empty7" fill="#FFF" stroke="#000" stroke-miterlimit="10" d="M221.2,82.4V66.1c0-3,2.4-5.4,5.4-5.4	H243c3,0,5.4,2.4,5.4,5.4v16.3c0,3-2.4,5.4-5.4,5.4h-16.3C223.7,87.9,221.2,85.4,221.2,82.4z" opacity=".34"/><path id="empty8" fill="#FFF" stroke="#000" stroke-miterlimit="10" d="M250.9,82.4V66.1c0-3,2.4-5.4,5.4-5.4	h16.3c3,0,5.4,2.4,5.4,5.4v16.3c0,3-2.4,5.4-5.4,5.4h-16.3C253.4,87.9,250.9,85.4,250.9,82.4z" opacity=".34"/><path id="empty9" fill="#FFF" stroke="#000" stroke-miterlimit="10" d="M310.4,112.2V95.8c0-3,2.4-5.4,5.4-5.4	h16.3c3,0,5.4,2.4,5.4,5.4v16.3c0,3-2.4,5.4-5.4,5.4h-16.3C312.8,117.6,310.4,115.1,310.4,112.2z" opacity=".34"/><path id="empty10" fill="#FFF" stroke="#000" stroke-miterlimit="10" d="M340.1,112.2V95.8	c0-3,2.4-5.4,5.4-5.4h16.3c3,0,5.4,2.4,5.4,5.4v16.3c0,3-2.4,5.4-5.4,5.4h-16.3C342.5,117.6,340.1,115.1,340.1,112.2z" opacity=".34"/><path id="empty11" fill="#FFF" stroke="#000" stroke-miterlimit="10" d="M340.1,82.4V66.1c0-3,2.4-5.4,5.4-5.4	h16.3c3,0,5.4,2.4,5.4,5.4v16.3c0,3-2.4,5.4-5.4,5.4h-16.3C342.5,87.9,340.1,85.4,340.1,82.4z" opacity=".34"/></svg>