<svg xmlns="http://www.w3.org/2000/svg" viewBox="0 0 128.86 113.24"><style>.M{stroke:#000}.N{fill:none}.O{stroke-miterlimit:10}.Q{stroke-dasharray:1.97 1.97}</style><defs><clipPath id="A" transform="translate(-.4)"><path d="M0 11.6h14.17v9.45H0z" class="N"/></clipPath><clipPath id="B" transform="translate(-.4)"><path d="M110.7 101.1h14.17v9.17H110.7z" class="N"/></clipPath><clipPath id="C" transform="translate(-.4)"><path d="M115.5 7.4h14.17v11.34H115.5z" class="N"/></clipPath><clipPath id="D" transform="translate(-.4)"><path d="M13.96 102h14.17v11.34H13.96z" class="N"/></clipPath></defs><g fill="red" class="M"><circle cx="20.64" cy="6.79" r="6.29"/><circle cx="105.68" cy="91.83" r="6.29"/></g><g fill="#00f" class="M"><circle cx="20.64" cy="91.83" r="6.29"/><circle cx="105.68" cy="6.79" r="6.29"/><path d="M20.64 17.47v63.1" class="O"/></g><path d="M20.64 82.86l1.7-2.95h-3.4l1.7 2.95z" class="M O"/><path fill="#00f" d="M105.68 81.72V18.6" class="M O"/><path d="M105.68 16.33l-1.7 2.95h3.4l-1.7-2.95z" class="M O"/><path fill="#00f" d="M30.47 6.8h63.1"/><g class="M O"><g class="N"><path d="M30.47 6.8h1"/><path d="M33.44 6.8H91.6" class="Q"/><path d="M92.58 6.8h1"/></g><path d="M95.86 6.8l-2.95-1.7v3.4l2.95-1.7z"/></g><path fill="#00f" d="M95.86 93.25h-63.1"/><g class="M O"><g class="N"><path d="M95.86 93.25h-1"/><path d="M92.9 93.25H34.73" class="Q"/><path d="M33.75 93.25h-1"/></g><path d="M30.47 93.25l2.95 1.7v-3.4l-2.95 1.7z"/></g><g clip-path="url(#A)"><path d="M4.7 13.74c.1-.4.45-1.82 1.52-1.82a1.62 1.62 0 01.78.19.91.91 0 00-.74.84.53.53 0 00.58.53.86.86 0 00.84-.89c0-.8-.92-1-1.43-1a2 2 0 00-1.66 1.15 1.71 1.71 0 00-1.67-1.17c-1.6 0-2.48 2-2.48 2.38 0 .15.16.15.18.15s.18 0 .2-.17c.53-1.64 1.54-2 2.07-2 .3 0 .82.13.82 1a21.79 21.79 0 01-.82 3.67c-.25 1-.8 1.6-1.48 1.6A1.45 1.45 0 01.7 18a.87.87 0 00.72-.83.52.52 0 00-.56-.54.88.88 0 00-.86.89c0 .7.78 1 1.45 1a2 2 0 001.63-1.18 1.69 1.69 0 001.65 1.18c1.6 0 2.48-2 2.48-2.38C7.2 16 7.07 16 7 16s-.17.06-.2.18c-.52 1.64-1.57 2-2.06 2s-.85-.5-.85-1a5.63 5.63 0 01.27-1.35l.52-2.1m7.27.14c0-.28 0-.3-.32-.3a2.91 2.91 0 01-2.1.69v.4a3.54 3.54 0 001.55-.3v5.5c0 .36 0 .5-1.07.5H9.6v.4h3.84v-.4h-.4c-1.1 0-1.1-.13-1.1-.5v-6"/></g><g clip-path="url(#B)"><path d="M115.26 103.17c.1-.4.44-1.77 1.48-1.77a1.55 1.55 0 01.76.19.88.88 0 00-.73.81.52.52 0 00.57.52.83.83 0 00.81-.86c0-.78-.9-1-1.4-1a1.94 1.94 0 00-1.57 1.13 1.65 1.65 0 00-1.62-1.13c-1.56 0-2.4 1.93-2.4 2.3 0 .14.15.14.18.14s.16 0 .2-.17c.5-1.58 1.5-1.95 2-1.95.28 0 .8.13.8 1a20.62 20.62 0 01-.8 3.56c-.24.93-.76 1.56-1.43 1.56a1.43 1.43 0 01-.74-.19.84.84 0 00.7-.81.51.51 0 00-.55-.52.85.85 0 00-.83.86c0 .7.76 1 1.4 1a2 2 0 001.58-1.14 1.66 1.66 0 001.61 1.14c1.54 0 2.4-1.93 2.4-2.3 0-.14-.13-.14-.17-.14s-.17 0-.2.16c-.5 1.6-1.52 2-2 2s-.82-.48-.82-1a6 6 0 01.25-1.31l.5-2m8.84 4.75h-.36a2.31 2.31 0 01-.26.94 4.91 4.91 0 01-1 .07h-1.96l2.1-1.76a3 3 0 001.49-2.25 2.19 2.19 0 00-2.44-2 2 2 0 00-2.18 1.86.55.55 0 00.56.59.54.54 0 00.55-.55c0-.2-.07-.56-.6-.56a1.64 1.64 0 011.52-1 1.57 1.57 0 011.59 1.66 3.21 3.21 0 01-1 2l-2.47 2.53c-.1.1-.1.12-.1.4h4.3l.3-1.9"/></g><g clip-path="url(#C)"><path d="M123.24 8.7a1.17 1.17 0 00.06-.39.44.44 0 00-.49-.46.73.73 0 00-.59.36c0 .08-.16.6-.24.9l-.34 1.36-.75 3.06a2.41 2.41 0 01-1.93 1.47c-.87 0-1-.75-1-1.38a10 10 0 01.86-3.32 2.9 2.9 0 00.34-1.22 1.34 1.34 0 00-1.38-1.4c-1.6 0-2.24 2.47-2.24 2.62s.16.17.2.17.2 0 .27-.3c.46-1.6 1.14-2.1 1.72-2.1.12 0 .4 0 .4.54a3.3 3.3 0 01-.29 1.19 11.45 11.45 0 00-1 3.56 1.9 1.9 0 002.08 2 2.43 2.43 0 001.71-.76 6.66 6.66 0 01-1.11 2.61 2.44 2.44 0 01-1.93 1.06 1.36 1.36 0 01-1.29-.71 1 1 0 00.72-.2.91.91 0 00.34-.7.58.58 0 00-.62-.6 1 1 0 00-1 1.11 1.6 1.6 0 001.8 1.47 4.44 4.44 0 004-3.46l1.64-6.48m4.05 1.48c0-.33 0-.34-.36-.34a3.22 3.22 0 01-2.32.77v.4a3.81 3.81 0 001.72-.34v6c0 .4 0 .56-1.18.56h-.5v.4h4.22v-.4h-.45c-1.18 0-1.18-.17-1.18-.56V10.2"/></g><g clip-path="url(#D)"><path d="M21.7 103.3a1.23 1.23 0 00.06-.39.44.44 0 00-.49-.46.73.73 0 00-.59.36c0 .08-.16.6-.24.9l-1.1 4.36a2.42 2.42 0 01-1.93 1.45c-.87 0-1-.76-1-1.38a10.32 10.32 0 01.86-3.33 2.9 2.9 0 00.34-1.22 1.34 1.34 0 00-1.38-1.39c-1.6 0-2.24 2.46-2.24 2.6a.17.17 0 00.2.18c.17 0 .2 0 .27-.3.46-1.6 1.14-2.1 1.72-2.1.13 0 .4 0 .4.55a3.65 3.65 0 01-.28 1.19 11.27 11.27 0 00-1 3.56 1.89 1.89 0 002.08 2 2.47 2.47 0 001.71-.75 6.56 6.56 0 01-1.11 2.6 2.41 2.41 0 01-1.86 1.07 1.38 1.38 0 01-1.29-.7 1 1 0 00.74-.1 1 1 0 00.34-.71.57.57 0 00-.63-.59 1 1 0 00-.95 1.11 1.6 1.6 0 001.8 1.47 4.45 4.45 0 004-3.46l1.64-6.48m5.93 6.82h-.4a3 3 0 01-.3 1.08 7.39 7.39 0 01-1.19.06h-2.17l2.36-2a3.4 3.4 0 001.7-2.55c0-1.43-1.26-2.3-2.77-2.3a2.29 2.29 0 00-2.46 2.12.63.63 0 001.26 0c0-.2-.1-.63-.7-.63a1.88 1.88 0 011.74-1.11 1.79 1.79 0 011.8 1.89 3.68 3.68 0 01-1.12 2.29l-2.85 2.86c-.1.1-.1.12-.1.45h4.88l.35-2.15"/></g></svg>