<?xml-stylesheet type="text/css" href="/css/monge.css" ?><svg xmlns="http://www.w3.org/2000/svg" viewBox="0 0 397.4 118.1"><path fill="#5486BD" stroke="#000" stroke-miterlimit="10" d="M22.3 117.3H5.9c-3 0-5.4-2.4-5.4-5.4V95.6c0-3 2.4-5.4 5.4-5.4h16.3c3 0 5.4 2.4 5.4 5.4v16.3c.1 3-2.4 5.4-5.3 5.4zM52 117.3H35.6c-3 0-5.4-2.4-5.4-5.4V95.6c0-3 2.4-5.4 5.4-5.4H52c3 0 5.4 2.4 5.4 5.4v16.3c0 3-2.4 5.4-5.4 5.4zM81.7 117.3H65.3c-3 0-5.4-2.4-5.4-5.4V95.6c0-3 2.4-5.4 5.4-5.4h16.3c3 0 5.4 2.4 5.4 5.4v16.3c.1 3-2.3 5.4-5.3 5.4zM89.6 52.5V36.1c0-3 2.4-5.4 5.4-5.4h16.3c3 0 5.4 2.4 5.4 5.4v16.3c0 3-2.4 5.4-5.4 5.4H95c-2.9.1-5.4-2.3-5.4-5.3zM89.6 82.2V65.8c0-3 2.4-5.4 5.4-5.4h16.3c3 0 5.4 2.4 5.4 5.4v16.3c0 3-2.4 5.4-5.4 5.4H95c-2.9.1-5.4-2.3-5.4-5.3zM89.6 111.9V95.6c0-3 2.4-5.4 5.4-5.4h16.3c3 0 5.4 2.4 5.4 5.4v16.3c0 3-2.4 5.4-5.4 5.4H95c-2.9 0-5.4-2.4-5.4-5.4zM30.2 82.2V65.8c0-3 2.4-5.4 5.4-5.4H52c3 0 5.4 2.4 5.4 5.4v16.3c0 3-2.4 5.4-5.4 5.4H35.6c-3 .1-5.4-2.3-5.4-5.3zM59.9 82.2V65.8c0-3 2.4-5.4 5.4-5.4h16.3c3 0 5.4 2.4 5.4 5.4v16.3c0 3-2.4 5.4-5.4 5.4H65.3c-3 .1-5.4-2.3-5.4-5.3zM30.1 52.5V36.1c0-3 2.4-5.4 5.4-5.4h16.3c3 0 5.4 2.4 5.4 5.4v16.3c0 3-2.4 5.4-5.4 5.4H35.5c-3 .1-5.4-2.3-5.4-5.3zM59.8 52.5V36.1c0-3 2.4-5.4 5.4-5.4h16.3c3 0 5.4 2.4 5.4 5.4v16.3c0 3-2.4 5.4-5.4 5.4H65.2c-3 .1-5.4-2.3-5.4-5.3zM89.6 22.3V5.9c0-3 2.4-5.4 5.4-5.4h16.3c3 0 5.4 2.4 5.4 5.4v16.3c0 3-2.4 5.4-5.4 5.4H95c-2.9.1-5.4-2.4-5.4-5.3z"/><path fill="#FFF" stroke="#000" stroke-miterlimit="10" d="M213.3 117.6H197c-3 0-5.4-2.4-5.4-5.4V95.8c0-3 2.4-5.4 5.4-5.4h16.3c3 0 5.4 2.4 5.4 5.4v16.3c0 3-2.4 5.5-5.4 5.5zM243 117.6h-16.3c-3 0-5.4-2.4-5.4-5.4V95.8c0-3 2.4-5.4 5.4-5.4H243c3 0 5.4 2.4 5.4 5.4v16.3c0 3-2.4 5.5-5.4 5.5zM272.7 117.6h-16.3c-3 0-5.4-2.4-5.4-5.4V95.8c0-3 2.4-5.4 5.4-5.4h16.3c3 0 5.4 2.4 5.4 5.4v16.3c0 3-2.4 5.5-5.4 5.5zM369.8 112.2V95.8c0-3 2.4-5.4 5.4-5.4h16.3c3 0 5.4 2.4 5.4 5.4v16.3c0 3-2.4 5.4-5.4 5.4h-16.3c-3 .1-5.4-2.4-5.4-5.3zM280.6 82.4V66.1c0-3 2.4-5.4 5.4-5.4h16.3c3 0 5.4 2.4 5.4 5.4v16.3c0 3-2.4 5.4-5.4 5.4H286c-2.9.1-5.4-2.4-5.4-5.4zM280.6 112.2V95.8c0-3 2.4-5.4 5.4-5.4h16.3c3 0 5.4 2.4 5.4 5.4v16.3c0 3-2.4 5.4-5.4 5.4H286c-2.9.1-5.4-2.4-5.4-5.3zM221.2 82.4V66.1c0-3 2.4-5.4 5.4-5.4H243c3 0 5.4 2.4 5.4 5.4v16.3c0 3-2.4 5.4-5.4 5.4h-16.3c-3 .1-5.5-2.4-5.5-5.4zM250.9 82.4V66.1c0-3 2.4-5.4 5.4-5.4h16.3c3 0 5.4 2.4 5.4 5.4v16.3c0 3-2.4 5.4-5.4 5.4h-16.3c-2.9.1-5.4-2.4-5.4-5.4zM310.4 112.2V95.8c0-3 2.4-5.4 5.4-5.4h16.3c3 0 5.4 2.4 5.4 5.4v16.3c0 3-2.4 5.4-5.4 5.4h-16.3c-3 .1-5.4-2.4-5.4-5.3zM340.1 112.2V95.8c0-3 2.4-5.4 5.4-5.4h16.3c3 0 5.4 2.4 5.4 5.4v16.3c0 3-2.4 5.4-5.4 5.4h-16.3c-3 .1-5.4-2.4-5.4-5.3zM340.1 82.4V66.1c0-3 2.4-5.4 5.4-5.4h16.3c3 0 5.4 2.4 5.4 5.4v16.3c0 3-2.4 5.4-5.4 5.4h-16.3c-3 .1-5.4-2.4-5.4-5.4z" opacity=".34"/></svg>