<svg xmlns="http://www.w3.org/2000/svg" viewBox="0 0 538.77 162.26"><defs><style>.cls-1{fill:#0ff}.cls-1,.cls-2,.cls-3,.cls-5,.cls-6{stroke:#000;stroke-miterlimit:10}.cls-2{fill:#ed1c24}.cls-3{fill:#009245}.cls-5{fill:none}.cls-6{fill:#d4145a}</style></defs><g id="Layer_2" data-name="Layer 2"><g id="Layer_1-2" data-name="Layer 1"><path class="cls-1" d="M1.09.5h28.78v28.78H1.09z"/><circle class="cls-2" cx="15.48" cy="142.41" r="14.39"/><path class="cls-3" d="M22.93 60.24H8.03L.58 73.15l7.45 12.91h14.9l7.46-12.91-7.46-12.91z"/><path class="cls-1" d="M58.24 37.78h28.78v28.78H58.24z"/><path class="cls-3" d="M87.08 108.52H72.17l-7.45 12.91 7.45 12.91h14.91l7.45-12.91-7.45-12.91z"/><circle class="cls-2" cx="141.95" cy="14.89" r="14.39"/><circle class="cls-2" cx="244.87" cy="14.89" r="14.39"/><path fill="#ed1c24" d="M29.87 14.89h97.69"/><path class="cls-5" d="M29.87 14.89h94.1"/><path d="M123.24 17.38l4.32-2.49-4.32-2.49v4.98z"/><path class="cls-5" d="M29.87 142.41L56.66 55.6"/><path d="M58.83 57.03l-1.11-4.86-3.65 3.39 4.76 1.47z"/><path class="cls-5" d="M61.65 123.28l-31.78 19.13"/><path d="M59.74 121.52l4.98-.09-2.41 4.36-2.57-4.27z"/><path class="cls-5" d="M30.39 73.15l32.25 45.35"/><path d="M60.19 119.35l4.53 2.08-.47-4.97-4.06 2.89z"/><path class="cls-5" d="M54.88 54.35l-24.49 18.8"/><path d="M52.78 52.82l4.94-.65-1.91 4.6-3.03-3.95z"/><path class="cls-5" d="M227.01 15.79L87.02 52.17"/><path d="M225.68 13.56l4.8 1.33-3.55 3.5-1.25-4.83z"/><path class="cls-5" d="M156.34 14.89h70.55"/><path d="M226.16 17.38l4.32-2.49-4.32-2.49v4.98z"/><path class="cls-3" d="M193.74 37.3h-14.91l-7.45 12.91 7.45 12.91h14.91l7.45-12.91-7.45-12.91zM162.74 76.19h-14.91l-7.45 12.91 7.45 12.91h14.91l7.45-12.91-7.45-12.91zM162.74 117.08h-14.91l-7.45 12.91 7.45 12.91h14.91l7.45-12.91-7.45-12.91z"/><path class="cls-1" d="M230.48 40.44h28.78v28.78h-28.78z"/><circle class="cls-2" cx="244.87" cy="105.78" r="14.39"/><path class="cls-5" d="M87.02 51.66l80.77-1.39"/><path d="M167.11 52.78l4.27-2.57-4.36-2.42.09 4.99z"/><path class="cls-5" d="M137.45 91.17l-42.92 30.26"/><path d="M135.41 89.55l4.97-.45-2.09 4.53-2.88-4.08z"/><path class="cls-5" d="M29.87 16.29l26.04 30.68"/><path d="M53.54 48.03l4.7 1.67-.9-4.9-3.8 3.23z"/><path class="cls-5" d="M94.09 120.67l74.93-67.53"/><path d="M170.15 55.48l1.53-4.74-4.87 1.04 3.34 3.7z"/><path class="cls-5" d="M94.22 121.97l42.63 7.4"/><path d="M135.7 131.71l4.68-1.72-3.83-3.2-.85 4.92z"/><path class="cls-5" d="M87.09 52.73l50.48 34.07"/><path d="M135.57 88.46l4.98.35-2.18-4.48-2.8 4.13z"/><path class="cls-5" d="M87.09 53.13l51.59 73.29"/><path d="M136.22 127.26l4.53 2.09-.45-4.96-4.08 2.87z"/><path class="cls-5" d="M170.19 129.99l58.03-71.56"/><path d="M229.7 60.57l.78-4.92-4.65 1.78 3.87 3.14z"/><path class="cls-5" d="M227.15 107.12l-56.96 22.87"/><path d="M225.55 105.07l4.93.71-3.07 3.92-1.86-4.63z"/><path class="cls-5" d="M170.19 89.1l56.83 15.72"/><path d="M225.66 107.03l4.82-1.25-3.49-3.56-1.33 4.81z"/><path class="cls-5" d="M227.36 56.61L170.19 89.1"/><path d="M225.5 54.8l4.98.03-2.52 4.3-2.46-4.33z"/><path class="cls-5" d="M201.19 50.21l25.75 4.07"/><path d="M225.83 56.62l4.65-1.79-3.87-3.13-.78 4.92z"/><path class="cls-6" d="M200.87 135.33l-12.91 22.36h25.82l-12.91-22.36z"/><path fill="#d4145a" d="M27.74 149.94l160.22 7.75"/><path class="cls-5" d="M27.74 149.94l156.64 7.58"/><path d="M183.53 159.97l4.43-2.28-4.19-2.7-.24 4.98z"/><path class="cls-1" d="M285.73 132.98h28.78v28.78h-28.78z"/><path class="cls-2" d="M336.33 101.42c0 8-6.44 15.39-14.39 15.39s-14.39-7.44-14.39-15.39a14.39 14.39 0 0128.78 0z"/><path class="cls-6" d="M321.53 41.83l-12.91 22.36h25.82l-12.91-22.36z"/><path class="cls-3" d="M328.99 1.64h-14.91l-7.45 12.9 7.45 12.91h14.91l7.45-12.91-7.45-12.9z"/><path class="cls-5" d="M303.89 16.87l-44.63 37.96"/><path d="M301.72 15.44l4.91-.9-1.68 4.7-3.23-3.8z"/><path class="cls-5" d="M259.26 14.89l43.78-.32"/><path d="M302.33 17.07l4.3-2.53-4.34-2.46.04 4.99z"/><path class="cls-5" d="M311.23 52.54l-51.97-37.65"/><path d="M312.1 50.09l2.03 4.56-4.96-.52 2.93-4.04z"/><path class="cls-5" d="M259.26 55.44l51.28-.74"/><path d="M309.85 57.2l4.28-2.55-4.35-2.43.07 4.98z"/><path class="cls-5" d="M304.95 98.95l-45.69-43.51"/><path d="M306.15 96.64l1.4 4.78-4.84-1.17 3.44-3.61z"/><path class="cls-5" d="M259.26 105.78l44.72-4.03"/><path d="M303.48 104.3l4.07-2.88-4.52-2.09.45 4.97z"/><path class="cls-5" d="M283.71 144.34l-24.45-38.56"/><path d="M285.42 142.39l.21 4.98-4.42-2.31 4.21-2.67z"/><path class="cls-5" d="M213.78 157.69l68.29-9.81"/><path d="M281.71 150.45l3.92-3.08-4.63-1.85.71 4.93z"/><path class="cls-5" d="M304.49 104.16l-90.71 53.53"/><path d="M302.6 102.38l4.98-.04-2.45 4.34-2.53-4.3z"/><path class="cls-1" d="M383.29 15.3h28.78v28.78h-28.78z"/><circle class="cls-2" cx="459.31" cy="55.44" r="14.39"/><path class="cls-6" d="M397.68 68.97l-12.91 22.36h25.82l-12.91-22.36z"/><path class="cls-3" d="M405.13 116.22h-14.9l-7.46 12.91 7.46 12.9h14.9l7.45-12.9-7.45-12.91z"/><path class="cls-1" d="M445.02 91.39h28.78v28.78h-28.78z"/><path class="cls-6" d="M525 71.9l-12.91 22.36h25.82L525 71.9z"/><path class="cls-5" d="M382.86 88.29l-46.42-73.75"/><path d="M384.58 86.35l.19 4.98-4.41-2.33 4.22-2.65z"/><path class="cls-5" d="M314.51 146.1l67.43-52.57"/><path d="M382.9 95.95l1.87-4.62-4.94.69 3.07 3.93z"/><path class="cls-5" d="M379.31 130.05l-64.8 17.32"/><path d="M377.96 127.83l4.81 1.3-3.52 3.52-1.29-4.82z"/><path class="cls-5" d="M336.33 101.42l43.36 25.87"/><path d="M377.79 129.06l4.98.07-2.43-4.36-2.55 4.29z"/><path class="cls-5" d="M386.14 84.25l-49.81 17.17"/><path d="M384.64 82.13l4.89.95-3.27 3.76-1.62-4.71z"/><path class="cls-5" d="M329.73 56.02l56.53 25.58"/><path d="M384.57 83.57l4.96-.49-2.9-4.05-2.06 4.54z"/><path class="cls-5" d="M379.56 31.28l-49.83 24.74"/><path d="M377.8 29.38l4.97.31-2.76 4.15-2.21-4.46z"/><path class="cls-5" d="M336.44 14.54l42.92 14.03"/><path d="M377.89 30.72l4.88-1.03-3.33-3.71-1.55 4.74z"/><path class="cls-5" d="M412.58 29.77l31.02 72.1"/><path d="M441.02 102.18l4 2.99.59-4.96-4.59 1.97z"/><path class="cls-5" d="M442.11 53.21l-29.53-23.44"/><path d="M443.09 50.8l1.83 4.64-4.93-.74 3.1-3.9z"/><path class="cls-5" d="M410.59 91.33l31.85-33.3"/><path d="M443.74 60.28l1.18-4.84-4.79 1.39 3.61 3.45z"/><path class="cls-5" d="M441.71 104.39l-31.12-13.06"/><path d="M442 101.81l3.02 3.97-4.94.63 1.92-4.6z"/><path class="cls-5" d="M412.58 129.13l29.53-21.26"/><path d="M442.97 110.32l2.05-4.54-4.96.5 2.91 4.04z"/><path class="cls-5" d="M443.5 59.8l-30.92 69.33"/><path d="M440.93 59.45l4.03-2.92.52 4.95-4.55-2.03z"/><path class="cls-5" d="M508.66 95.29l-34.86 10.49"/><path d="M507.24 93.11l4.85 1.15-3.41 3.63-1.44-4.78z"/><path class="cls-5" d="M473.7 55.44l35.87 36.27"/><path d="M507.28 92.94l4.81 1.32-1.26-4.83-3.55 3.51z"/></g></g></svg>