<svg xmlns="http://www.w3.org/2000/svg" viewBox="0 0 335.62 156.45"><defs><clipPath id="clip-path"><path fill="none" d="M0 0h345.89v156.45H0z"/></clipPath><style>.cls-4{fill:none}.cls-2{fill:#d1d3d4}.cls-3{clip-path:url(#clip-path)}.cls-4{stroke:#231f20;stroke-miterlimit:10}.cls-10,.cls-11,.cls-13{fill:#231f20}.cls-11,.cls-13{font-family:Times-Roman,Times}.cls-7{fill:#e6e7e8}.cls-11{font-size:10px}.cls-13{font-size:11px}</style></defs><g id="Layer_2" data-name="Layer 2"><g id="Layer_1-2" data-name="Layer 1"><path class="cls-2" d="M.5 19.1h19.62v19.62H.5z"/><g class="cls-3"><path class="cls-4" d="M.5 19.1h19.62v19.62H.5z"/></g><path class="cls-2" d="M20.12 19.1h19.62v19.62H20.12z"/><path class="cls-4" d="M20.12 19.1h19.62v19.62H20.12z"/><path class="cls-2" d="M.5 38.72h19.62v19.62H.5z"/><g class="cls-3"><path class="cls-4" d="M.5 38.72h19.62v19.62H.5z"/></g><path class="cls-2" d="M20.12 38.72h19.62v19.62H20.12z"/><path class="cls-4" d="M20.12 38.72h19.62v19.62H20.12z"/><path class="cls-2" d="M39.74 19.1h19.62v19.62H39.74z"/><path class="cls-4" d="M39.74 19.1h19.62v19.62H39.74z"/><path class="cls-2" d="M39.74 38.72h19.62v19.62H39.74z"/><path class="cls-4" d="M39.74 38.72h19.62v19.62H39.74z"/><path class="cls-2" d="M.5 58.34h19.62v19.62H.5z"/><g class="cls-3"><path class="cls-4" d="M.5 58.34h19.62v19.62H.5z"/></g><path class="cls-2" d="M20.12 58.34h19.62v19.62H20.12z"/><path class="cls-4" d="M20.12 58.34h19.62v19.62H20.12z"/><path fill="#fff" d="M39.74 58.34h19.62v19.62H39.74z"/><path class="cls-4" d="M39.74 58.34h19.62v19.62H39.74z"/><path class="cls-2" d="M59.36 19.1h19.62v19.62H59.36z"/><path class="cls-4" d="M59.36 19.1h19.62v19.62H59.36z"/><path class="cls-2" d="M78.98 19.1H98.6v19.62H78.98z"/><path class="cls-4" d="M78.98 19.1H98.6v19.62H78.98z"/><path class="cls-2" d="M59.36 38.72h19.62v19.62H59.36z"/><path class="cls-4" d="M59.36 38.72h19.62v19.62H59.36z"/><path class="cls-2" d="M78.98 38.72H98.6v19.62H78.98z"/><path class="cls-4" d="M78.98 38.72H98.6v19.62H78.98z"/><path class="cls-2" d="M59.36 58.34h19.62v19.62H59.36z"/><path class="cls-4" d="M59.36 58.34h19.62v19.62H59.36z"/><path class="cls-2" d="M78.98 58.34H98.6v19.62H78.98z"/><path class="cls-4" d="M78.98 58.34H98.6v19.62H78.98z"/><path class="cls-2" d="M.5 77.96h19.62v19.62H.5z"/><g class="cls-3"><path class="cls-4" d="M.5 77.96h19.62v19.62H.5z"/></g><path class="cls-2" d="M20.12 77.96h19.62v19.62H20.12z"/><path class="cls-4" d="M20.12 77.96h19.62v19.62H20.12z"/><path class="cls-2" d="M.5 97.57h19.62v19.62H.5z"/><g class="cls-3"><path class="cls-4" d="M.5 97.58h19.62v19.62H.5z"/></g><path class="cls-2" d="M20.12 97.58h19.62v19.62H20.12z"/><path class="cls-4" d="M20.12 97.58h19.62v19.62H20.12z"/><path class="cls-2" d="M39.74 77.96h19.62v19.62H39.74z"/><path class="cls-4" d="M39.74 77.96h19.62v19.62H39.74z"/><path class="cls-2" d="M39.74 97.58h19.62v19.62H39.74z"/><path class="cls-4" d="M39.74 97.58h19.62v19.62H39.74z"/><path class="cls-2" d="M59.36 77.96h19.62v19.62H59.36z"/><path class="cls-4" d="M59.36 77.96h19.62v19.62H59.36z"/><path class="cls-2" d="M78.98 77.96H98.6v19.62H78.98z"/><path class="cls-4" d="M78.98 77.96H98.6v19.62H78.98z"/><path class="cls-2" d="M59.36 97.58h19.62v19.62H59.36z"/><path class="cls-4" d="M59.36 97.58h19.62v19.62H59.36z"/><path class="cls-2" d="M78.98 97.58H98.6v19.62H78.98z"/><path class="cls-4" d="M78.98 97.58H98.6v19.62H78.98z"/><text transform="translate(43.03 76.97)" font-family="Times-Roman,Times" fill="#231f20" font-size="23.88">?</text><g class="cls-3"><path class="cls-4" d="M139.67.5h83.71v135.29h-83.71z"/></g><path class="cls-7" d="M266.32 26.28h13.77v13.77h-13.77z"/><path class="cls-4" d="M266.32 26.28h13.77v13.77h-13.77z"/><path fill="#a7a9ac" d="M266.32 40.05h13.77v13.77h-13.77z"/><path class="cls-4" d="M266.32 40.05h13.77v13.77h-13.77z"/><path class="cls-2" d="M266.32 82.48h13.77v13.77h-13.77z"/><path class="cls-4" d="M266.32 82.48h13.77v13.77h-13.77z"/><path class="cls-7" d="M266.32 96.25h13.77v13.77h-13.77z"/><path class="cls-4" d="M266.32 96.25h13.77v13.77h-13.77z"/><text transform="rotate(-90 173.845 -99.365)" font-size="12" font-family="Times-Roman,Times" fill="#231f20">...</text><g class="cls-3"><path class="cls-4" d="M273.21 108.94v47H49.55V87.77"/></g><path class="cls-10" d="M49.55 85.38l-1.56 2.71h3.12l-1.56-2.71z"/><path class="cls-4" d="M49.55 85.38l-1.56 2.71h3.12l-1.56-2.71z"/><text class="cls-11" transform="translate(285.8 63.17)">Output</text><text class="cls-11" transform="translate(285.8 75.17)">p<tspan x="5" y="0" letter-spacing="-.02em">r</tspan><tspan x="8.16" y="0">obabilities</tspan></text><text class="cls-13" transform="translate(54.33 133.85)">P<tspan x="6.12" y="0" letter-spacing="-.02em">r</tspan><tspan x="9.59" y="0">ediction of</tspan></text><text class="cls-13" transform="translate(54.33 147.05)">central cell</text><path class="cls-10" d="M109.53 65.34h16.33v5.61h-16.33z"/><path class="cls-10" d="M134.54 68.15l-9.84-5.68v11.36l9.84-5.68z"/><path class="cls-4" d="M134.54 68.15l-9.84-5.68v11.36l9.84-5.68z"/><path class="cls-10" d="M229.19 65.34h16.33v5.61h-16.33z"/><path class="cls-10" d="M254.2 68.15l-9.84-5.68v11.36l9.84-5.68z"/><path class="cls-4" d="M254.2 68.15l-9.84-5.68v11.36l9.84-5.68z"/><text class="cls-11" transform="translate(145.88 66.04)">1-Hidden layer</text><text class="cls-11" transform="translate(145.88 78.04)">Neural Network</text></g></g></svg>