<svg xmlns="http://www.w3.org/2000/svg" viewBox="0 0 77.7 101.28"><defs><style>.cls-1,.cls-3,.cls-4{fill:none;stroke:#000;stroke-miterlimit:10;}.cls-1{stroke-width:6px;}.cls-2{fill:#fff;}.cls-3,.cls-4{stroke-width:5px;}.cls-4{stroke-dasharray:5.16 5.16;}</style></defs><title>note_light</title><g id="Layer_2" data-name="Layer 2"><g id="Layer_1-2" data-name="Layer 1"><rect class="cls-1" x="3" y="3" width="71.7" height="95.28" rx="4.86"/><line class="cls-1" x1="3" y1="21.33" x2="74.7" y2="21.33"/><line class="cls-2" x1="7.48" y1="32.9" x2="69.27" y2="32.9"/><line class="cls-3" x1="7.48" y1="32.9" x2="9.98" y2="32.9"/><line class="cls-4" x1="15.14" y1="32.9" x2="64.19" y2="32.9"/><line class="cls-3" x1="66.77" y1="32.9" x2="69.27" y2="32.9"/><line class="cls-2" x1="7.48" y1="44.08" x2="69.27" y2="44.08"/><line class="cls-3" x1="7.48" y1="44.08" x2="9.98" y2="44.08"/><line class="cls-4" x1="15.14" y1="44.08" x2="64.19" y2="44.08"/><line class="cls-3" x1="66.77" y1="44.08" x2="69.27" y2="44.08"/><line class="cls-2" x1="7.48" y1="55.26" x2="69.27" y2="55.26"/><line class="cls-3" x1="7.48" y1="55.26" x2="9.98" y2="55.26"/><line class="cls-4" x1="15.14" y1="55.26" x2="64.19" y2="55.26"/><line class="cls-3" x1="66.77" y1="55.26" x2="69.27" y2="55.26"/><line class="cls-2" x1="7.95" y1="66.44" x2="69.75" y2="66.44"/><line class="cls-3" x1="7.95" y1="66.44" x2="10.45" y2="66.44"/><line class="cls-4" x1="15.61" y1="66.44" x2="64.67" y2="66.44"/><line class="cls-3" x1="67.25" y1="66.44" x2="69.75" y2="66.44"/><line class="cls-2" x1="7.95" y1="77.61" x2="69.75" y2="77.61"/><line class="cls-3" x1="7.95" y1="77.61" x2="10.45" y2="77.61"/><line class="cls-4" x1="15.61" y1="77.61" x2="64.67" y2="77.61"/><line class="cls-3" x1="67.25" y1="77.61" x2="69.75" y2="77.61"/><line class="cls-2" x1="7.95" y1="88.79" x2="69.75" y2="88.79"/><line class="cls-3" x1="7.95" y1="88.79" x2="10.45" y2="88.79"/><line class="cls-4" x1="15.61" y1="88.79" x2="64.67" y2="88.79"/><line class="cls-3" x1="67.25" y1="88.79" x2="69.75" y2="88.79"/></g></g></svg>