<svg xmlns="http://www.w3.org/2000/svg" class="note-graph" viewBox="0 0 1900 1300"><g stroke="#888" stroke-opacity=".6"><path d="M386.587 529.143l40.907 154.209m-40.907-154.209l165.221 103.595m-384.962 83.169l260.648-32.555m-260.648 32.555l91.743 129.663m247.72-41.226l87.635 185.739" transform="matrix(1.2349 0 0 1.21207 -100.538 -128.967)"/><path stroke-dasharray="5, 5" d="M506.309 804.344l144.884-78.925" transform="matrix(1.2349 0 0 1.21207 -100.538 -128.967)"/><path d="M705.53 480.042l71.967-42.291m-71.967 42.291l97.896 99.647m-97.896-99.647l53.762 27.697m-53.762-27.697l-72.956-60.336m72.956 60.336L543.659 248.325M705.53 480.042l-46.618-192.381m46.618 192.381l2.116-178.279m-2.116 178.279l37.009-162.258M705.53 480.042l-98.382-138.221m98.382 138.221l-50.515-2.467m50.515 2.467L551.808 632.738" transform="matrix(1.2349 0 0 1.21207 -100.538 -128.967)"/><path stroke-dasharray="5, 5" d="M705.53 480.042l-136.884-87.176" transform="matrix(1.2349 0 0 1.21207 -100.538 -128.967)"/><path d="M953.816 443.589l-257.518-79.96m257.518 79.96l80.874-66.2m-59.379-44.639l-279.013 30.879m279.013-30.879l59.379 44.639m-59.379-44.639l142.135-19.403M975.311 332.75l117.633 19.928m369.493 125.043l-59.401-3.17m59.401 3.17l-127.41 45.779M516.289 315.403l180.009 48.226m-180.009-48.226l222.749 53.485m-222.749-53.485l27.37-67.078m-27.37 67.078l52.357 77.463m-52.357-77.463l-88.795 367.949m721.947 38.251l-498.248 3.816m793.846 103.834l-162.985 4.888M707.646 301.763l69.851 135.988m-69.851-135.988l-52.631 175.812m-146.314-81.22L453.84 393.3m54.861 3.055l46.318 65.11m-46.318-65.11l21.361 109.962m-21.361-109.962l123.873 23.351m-123.873-23.351l135.774-53.877M453.84 393.3l101.179 68.165M453.84 393.3l76.222 113.017m13.597-257.992l24.987 144.541m190.646 114.873l-104.277-30.164m104.277 30.164l-62.994-144.11m62.994 144.11l-106.551 95m106.551-95L624.637 377.936m134.655 129.803l482.534-17.812m-482.534 17.812l18.205-69.988m-18.205 69.988l436.3 47.187m-436.3-47.187L568.646 392.866m84.095 209.873l2.274-125.164m-2.274 125.164l106.551-95m-200.346 25.377l-28.884-26.799m28.884 26.799l134.65 86.223M405.031 403.063l163.615-10.197m-163.615 10.197l-64.962 393.125m28.152 80.604l60.208-104.172m-60.208 104.172l177.026-39.469m-177.026 39.469l111.486-113.131M368.221 876.792l-115.022-129.6m115.022 129.6l174.423.094m-174.423-.094l-147.76-161.524m147.76 161.524l-64.481 30.283m945.054-116.995l-53.202-235.154m53.202 235.154l-597.601-64.661m597.601 64.661l33.26 44.061m-189.11-481.463l24.502-39.331m-24.502 39.331l59.813 56.959m-59.813-56.959l-167.3 27.756m167.3-27.756l310.092 121.873m-310.092-121.873l27.904 77.431M372.275 671.167L150.038 787.69m222.237-116.523l196.371-278.301M372.275 671.167l179.533-38.429m-179.533 38.429l-85.218 101.042m1059.429-49.124l-144.799-50.525m144.799 50.525L537.157 692.78m196.904-107.926l25.231-77.115m-25.231 77.115l-81.32 17.885m81.32-17.885l-79.046-107.279m79.046 107.279L607.148 341.821m126.913 243.033L461.14 634.76m272.921-49.906l43.436-147.103m-43.436 147.103l-347.474-55.711m347.474 55.711l642.907 112.737M734.061 584.854l467.626 87.706m-467.626-87.706l-306.567 98.498M326.1 659.566l203.962-153.249M326.1 659.566l180.209 144.778M326.1 659.566l101.394 23.786M326.1 659.566l45.84 100.703m1027.867 146.664l-117.753-72.792m117.753 72.792l-197.948-9.316m-646.84-436.152L428.82 553.361m126.199-91.896L970.992 885.59M555.019 461.465l13.627-68.599m-13.627 68.599L427.494 683.352m127.525-221.887l77.555-41.759m-77.555 41.759l99.996 16.11" transform="matrix(1.2349 0 0 1.21207 -100.538 -128.967)"/><path stroke-dasharray="5, 5" d="M555.019 461.465l89.456-118.987m-89.456 118.987l-24.957 44.852" transform="matrix(1.2349 0 0 1.21207 -100.538 -128.967)"/><path d="M1245.48 624.469l89.547-100.969m-89.547 100.969L545.247 837.323m-2.603 39.563l2.603-39.563m-2.603 39.563l-62.937-113.225m1005.076-361.856l32.402 68.451m-32.402-68.451l-242.957 88.122M287.057 772.209l141.372.411m-141.372-.411L150.038 787.69m137.019-15.481l-73.204 89.318m73.204-89.318L428.82 553.361M287.057 772.209l-110.455-6.21m110.455 6.21l84.883-11.94M176.298 625.062l150.335 134.602M176.298 625.062l251.196 58.29m662.832 295.705L970.992 885.59m119.334 93.467l-4.868 64.743m4.868-64.743l20.483-104.132M451.96 449.842l78.102 56.475m-78.102-56.475l101.251 316.396M298.535 484.377l128.959 198.975M298.535 484.377L252.78 613.036m858.029 261.889l84.783-319.999m-505.615-305.57l113.434 41.15" transform="matrix(1.2349 0 0 1.21207 -100.538 -128.967)"/><path stroke-dasharray="5, 5" d="M689.977 249.356l6.321 114.273" transform="matrix(1.2349 0 0 1.21207 -100.538 -128.967)"/><path d="M213.853 861.527l214.576-88.907m602.335-495.152l62.18 75.21m-62.18-75.21l-334.466 86.161m334.466-86.161l74.88-21.906m-302.233 34.944l-107.113 73.123m107.113-73.123l231.279 86.883m-231.279-86.883l-113.434-41.15m113.434 41.15l171.9 42.244m-171.9-42.244l289.533 62.172m-289.533-62.172l-38.327 59.456m38.327-59.456l-3.353-51.189M258.589 845.57l127.423-20.499M258.589 845.57l85.255-.934m318.704 103.095L427.494 683.352m235.054 264.379l142.757-41.739m396.382-233.432L655.015 477.575m546.672 194.985l-664.53 20.22m664.53-20.22l-52.246 49.043m52.246-49.043l175.281 25.031M1335.027 523.5l-139.435 31.426m139.435-31.426l68.009-48.949" transform="matrix(1.2349 0 0 1.21207 -100.538 -128.967)"/><path stroke-dasharray="5, 5" d="M1335.027 523.5l79.358 9.6" transform="matrix(1.2349 0 0 1.21207 -100.538 -128.967)"/><path d="M386.012 825.071l-42.168 19.565m42.168-19.565l265.181-99.652m363.79-411.284l-211.572-23.629m211.572 23.629l137.774 95.502m-137.774-95.502l-39.672 18.615m-175.253-93.433l3.353 51.189m-3.353-51.189l214.925 74.818m-214.925-74.818l34.332 80.243M326.633 759.664l100.861-76.312m-100.861 76.312l101.796 12.956m-101.796-12.956l17.211 84.972m-17.211-84.972L428.82 553.361M326.633 759.664l-47.347-48.641m47.347 48.641l324.56-34.245m-54.338-280.65l-41.836 16.696m41.836-16.696l-66.793 61.548m622.695-96.68l-35.311-96.29m35.311 96.29l42.835 145.289m-42.835-145.289l-86.779 156.286m-121.209 54.565L635.184 768.544m309.585-148.056l-292.028-17.749m292.028 17.749l121.209-54.565m-85-302.623L632.574 419.706M980.978 263.3l124.666-7.738M553.211 766.238l-46.902 38.106m1024.157-282.419l-61.883-10.907m61.883 10.907l-176.031-76.022M509.249 857.492l35.998-20.169m-35.998 20.169l69.404-179.239m-69.404 179.239l125.935-88.948M1414.385 533.1l-218.793 21.826m218.793-21.826l-11.349-58.549m11.349 58.549l54.198-22.082m-54.198 22.082l48.052-55.379m54.748-7.465L1335.027 523.5m182.158-53.244l-57.557-36.113m-613.47 68.42L644.475 342.478m201.683 160.085l-213.584-82.857m213.584 82.857l-42.732 77.126m42.732-77.126l349.434 52.363m-901.913-9.625l133.815 138.051M293.679 545.301l4.856-60.924m-4.856 60.924L461.14 634.76m615.115-245.002l41.191-76.411m133.548 256.758l-55.402-15.179m55.402 15.179l84.033-46.605m-84.033 46.605l163.391-37.005m-163.391 37.005L666.826 809.689m-446.365-94.421l207.968 57.352m-207.968-57.352l171.504-77.498m809.894 259.847L428.429 772.62m773.43 124.997l51.587-24.775M578.653 678.253l-151.159 5.099m151.159-5.099l74.088-75.514m-74.088 75.514l-98.946 85.408m98.946-85.408l56.531 90.291m-56.531-90.291l117.645-314.624m109.007 542.363l-211.361 84.091m211.361-84.091l390.287-351.066m-1056.13 93.453l288.032 34.973m-288.032-34.973l36.836-23.317m362.985-283.321l264.143 237.948M539.283 341.741l15.736 119.724m-15.736-119.724l115.732 135.834M306.243 941.387l33.826-145.199m-33.826 145.199l20.39-181.723m-20.39 181.723l79.769-116.316m-63.891-409.036l124.075-133.074M322.121 416.035l-23.586 68.342m23.586-68.342l64.466 113.108m-64.466-113.108l188.3 54.376m-188.3-54.376l246.525-23.169M265.963 679.638l-12.764 67.554m12.764-67.554l105.977 80.631m-105.977-80.631L200.83 664.6m65.133 15.038l-43.495-100.801m43.495 100.801l213.744 84.023m-49.419 57.263l-2.794-137.572m2.794 137.572l121.52-188.186m-121.52 188.186l139.835-98.006m-97.129-120.246L279.286 711.023m193.708-108.351l64.163 90.108m-64.163-90.108l330.432-22.983m-127.173 67.648l-23.512-44.598m23.512 44.598l-124.445-14.599m124.445 14.599l83.039-139.598m-83.039 139.598l-21.238-169.762m21.238 169.762l-106.13 75.581m-63.826-375.2l62.349 45.148m-62.349-45.148l148.718 129.857M506.297 347.718l109.282-91.65m-109.282 91.65l152.615-60.057M686.08 405.89l117.346 173.799M686.08 405.89l-117.434-13.024M686.08 405.89l-87.812 74.867M160.943 820.631l92.256-73.439m-92.256 73.439L200.83 664.6m72.465-152.896l295.351-118.838M273.295 511.704l154.199 171.648M273.295 511.704l4.632 296.976m170.837 59.064l121.359-144.826M448.764 867.744L371.94 760.269m76.824 107.475l-108.695-71.556m108.695 71.556l30.943-104.083m227.5-322.543l-54.466 161.621m54.466-161.621l-52.192 36.457m52.192-36.457l52.085 66.621m-52.085-66.621l-10.909-77.489m10.909 77.489l-152.188 20.347M419.674 351.946l148.972 40.92m-148.972-40.92L537.157 692.78M419.674 351.946l-14.643 51.117m207.216 111.04l32.228-171.625m-32.228 171.625l20.327-94.397m-20.327 94.397l-43.601-121.237m43.601 121.237l-13.979-33.346m13.979 33.346l-82.185-7.786M244.857 786.155l8.342-38.963m-8.342 38.963l182.637-102.803M244.857 786.155l95.212 10.033m-95.212-10.033l127.083-25.886m-127.083 25.886l42.2-13.946m-42.2 13.946l-68.255-20.156m68.255 20.156l297.787 90.731M427.522 628.952l-.028 54.4m.028-54.4L371.94 760.269m55.582-131.317L564.95 801.526M427.522 628.952L287.057 772.209m176.111 48.528l82.079 16.586m-82.079-16.586l189.573-217.998M463.168 820.737l46.081 36.755m-46.081-36.755l-35.674-137.385m35.674 137.385l-77.156 4.334m-72.355-102.739l58.283 37.937m-58.283-37.937l231.59 114.991m-231.59-114.991L428.82 553.361M313.657 722.332l72.355 102.739m-72.355-102.739l30.187 122.304m-30.187-122.304l12.443-62.766m-12.443 62.766l166.05 41.329m299.739-218.749l-124.431-67.337m124.431 67.337l-20.154-37.173m20.154 37.173l-112.62 264.777m112.62-264.777l-83.148-181.283m22.755 169.441l-22.755-169.441m22.755 169.441l13.864 94.859m-13.864-94.859l-188.991-26.753m188.991 26.753l40.239-25.331m-40.239 25.331l58.444-95.319m-58.444 95.319l-66.312 69.669m768.243 79.085L803.426 579.689m617.558 102.135l-74.498 41.261m74.498-41.261l-219.297-9.264M478.58 703.704l-199.294 7.319m199.294-7.319l58.577-10.924m-58.577 10.924l324.846-124.015M478.58 703.704l-106.64 56.565m106.64-56.565l-51.086-20.352m-107.338-61.554l189.093 235.694M320.156 621.798l-66.957 125.394m66.957-125.394l633.66-178.209M625.45 302.529l152.047 135.222M625.45 302.529l19.025 39.949m-19.025-39.949l177.961-12.023M625.45 302.529l64.527-53.173m-64.527 53.173l113.588 66.359M625.45 302.529l-70.431 158.936m70.431-158.936l70.848 61.1m-70.848-61.1L453.84 393.3m171.61-90.771L428.82 553.361m141.865-50.405l125.613-139.327M570.685 502.956l-15.666-41.491m15.666 41.491l84.33-25.381m-85.211-180.494l62.77 122.625m-62.77-122.625l-14.785 164.384m14.785-164.384l120.173-47.725m-120.173 47.725l74.671 45.397m-74.671-45.397l85.211 180.494m-85.211-180.494l-1.158 95.785M402.409 863.613l11.494 54.115m-11.494-54.115l-34.188 13.179m34.188-13.179l-98.669 43.462m98.669-43.462l25.085-180.261m-25.085 180.261l77.298-99.952m-77.298 99.952l-16.397-38.542m-132.813-77.879l174.295-63.84m-174.295 63.84L200.83 664.6m52.369 82.592l292.048 90.131m-292.048-90.131l-32.738-31.924M694.835 586.51L553.211 766.238M694.835 586.51L506.309 804.344M303.74 907.075L428.429 772.62M303.74 907.075l40.104-62.439m-40.104 62.439l82.272-82.004m379.072-475.109L578.653 678.253m186.431-328.291l-68.786 13.667M413.903 917.728l14.526-145.108m-14.526 145.108L303.74 907.075m110.163 10.653l237.29-192.309m-6.026-202.843l-76.521-129.71m76.521 129.71L405.031 403.063m239.444-60.585l51.823 21.151M371.94 760.269l55.554-76.917m-55.554 76.917l56.489 12.351m140.217-379.754l75.829-50.388m-75.829 50.388l84.095 209.873m-84.095-209.873L428.82 553.361m139.826-160.495l-58.225 77.545m58.225-77.545l-9.7 140.25m9.7-140.25L391.965 637.77m176.681-244.904l-270.111 91.511m270.111-91.511l86.369 84.709m-86.369-84.709l127.652-29.237m-127.652 29.237l82.496 163.6m-82.496-163.6l173.366 69.044" transform="matrix(1.2349 0 0 1.21207 -100.538 -128.967)"/><path stroke-dasharray="5, 5" d="M568.646 392.866l-38.584 113.451m38.584-113.451l121.331-143.51" transform="matrix(1.2349 0 0 1.21207 -100.538 -128.967)"/><path d="M658.912 287.661l-43.333-31.593m43.333 31.593l-90.266 105.205m722.485 118.404l111.905-36.719m-111.905 36.719l-638.39 91.469m-80.344-268.798l60.177 85.765m-60.177-85.765l84.902 49.712m-84.902-49.712l82.618 143.634m-82.618-143.634l24.458 110.828m-24.458-110.828l-17.378 127.524M462.14 934.853l44.169-130.509M462.14 934.853l-106.382-18.587m106.382 18.587l116.513-256.6m-176.589 53.06l26.365 41.307m-26.365-41.307l25.43-47.961m-25.43 47.961l135.093-38.533m583.691-262.671l46.627-136.195m383 134.617l-33.29 41.725m33.29-41.725l-65.692-26.726m-20.533 150.573l-61.214-77.827m61.214 77.827L1335.027 523.5M834.39 319.56l-30.979-29.054m30.979 29.054l180.593-5.425M632.574 419.706l11.901-77.228" transform="matrix(1.2349 0 0 1.21207 -100.538 -128.967)"/><path stroke-dasharray="5, 5" d="M632.574 419.706l-102.512 86.611m102.512-86.611l-63.928-26.84" transform="matrix(1.2349 0 0 1.21207 -100.538 -128.967)"/><path d="M803.426 579.689l541.334-10.226m-541.334 10.226l42.732-77.126m-42.732 77.126l-206.571-134.92m206.571 134.92L510.587 724.014m292.839-144.325l-24.387-185.027m24.387 185.027l-108.591 6.821m108.591-6.821L542.644 876.886m260.782-297.197l-251.618 53.049m251.618-53.049l447.568-9.584m-447.568 9.584l-97.896-99.647M189.499 586.916l445.685 181.628M189.499 586.916l30.962 128.352m546.181-84.324l-33.725-3.015m33.725 3.015l-236.58-124.627m236.58 124.627l-47.589-97.874m749.53-22.052l-65.547-36.467m65.547 36.467L1335.027 523.5" transform="matrix(1.2349 0 0 1.21207 -100.538 -128.967)"/><path stroke-dasharray="5, 5" d="M1468.583 511.018l-114.148-65.115" transform="matrix(1.2349 0 0 1.21207 -100.538 -128.967)"/><path d="M603.246 215.398l93.052 148.231m-93.052-148.231l-34.6 177.468m34.6-177.468l86.731 33.958m654.783 320.107l-149.168-14.537m149.168 14.537l-9.733-45.963m9.733 45.963l58.276-94.912m-58.276 94.912l-53.629-58.193m53.629 58.193l119.49-17.085M925.644 380.434l-356.998 12.432m356.998-12.432l167.3-27.756m-167.3 27.756l-415.223 89.977m415.223-89.977L598.268 480.757m467.71 85.166l129.614-10.997m-129.614 10.997l-413.237 36.816m413.237-36.816l216.076 268.218M510.587 724.014l142.154-121.275M510.587 724.014l-82.158 48.606m82.158-48.606l-170.518 72.174m170.518-72.174l-83.093-40.662m83.093 40.662l-108.523 7.299m108.523-7.299l-1.338 133.478m1.172-387.081l58.225-77.545m-58.225 77.545l844.014-24.508m-844.014 24.508l140.772 255.008M461.14 634.76l-33.646 48.592m33.646-48.592l-167.461-89.459M461.14 634.76v0m-106.264 4.994l72.618 43.598m-72.618-43.598l73.944-86.393m-73.944 86.393l17.064 120.515m-17.064-120.515l296.317 85.665m-296.317-85.665L326.1 659.566m-33.646-76.031l-39.674 29.501m39.674-29.501l135.04 99.817m-135.04-99.817l286.199 94.718m-286.199-94.718l94.133-54.392m-94.133 54.392l99.511 54.235m634.071 376.954L970.992 885.59m488.636-451.447l-168.497 77.127M671.78 435.747l-116.761 25.718m116.761-25.718L551.808 632.738M671.78 435.747l-103.134-42.881m38.502-51.045l47.867 135.754M287.164 871.75l140.33-188.398M287.164 871.75l56.68-27.114m-56.68 27.114l-28.575-26.18m555.129-196.427l-160.977-46.404m160.977 46.404L1335.027 523.5M813.718 649.143L428.429 772.62m385.289-123.477l-54.426-141.404m-355.848 87.953l102.865 208.652M403.444 595.692l247.749 129.727" transform="matrix(1.2349 0 0 1.21207 -100.538 -128.967)"/><path stroke-dasharray="5, 5" d="M732.917 627.929L530.062 506.317" transform="matrix(1.2349 0 0 1.21207 -100.538 -128.967)"/><path d="M651.193 725.419l544.399-170.493M651.193 725.419L1335.027 523.5M779.039 394.662l-146.465 25.044m146.465-25.044l24.387 185.027m-24.387-185.027l55.351-75.102m-55.351 75.102l-82.741-31.033m82.741 31.033l24.372-104.156m-24.372 104.156l-89.062-145.306m89.062 145.306l196.272-61.912m-196.272 61.912l-19.747 113.077m19.747-113.077l-210.393-1.796M277.927 808.68l150.502-36.06m-150.502 36.06l228.382-4.336m236.23-486.56l34.958 119.967m-34.958-119.967l-87.524 159.791m87.524-159.791l-34.893-16.021m34.893 16.021l60.872-27.278m-64.373 78.382l-94.563-26.41M391.965 637.77l114.344 166.574M391.965 637.77l-36.207 278.496m36.207-278.496l861.481 235.072M696.298 363.629l-141.279 97.836m141.279-97.836l-51.823-21.151m51.823 21.151l42.74 5.259m-42.74-5.259l-41.283 113.946m627.039 356.566l-775.745-29.797m11.043-44.762l-88.923 13.038m88.923-13.038l135.389-156.843M517.352 759.582l-89.858-76.23m857.677-27.896l-3.117 178.685m3.117-178.685l-89.579-100.53m89.579 100.53l-706.518 22.797m706.518-22.797l159.868 173.797M222.468 578.837L428.429 772.62m-90.328-79.075l89.393-10.193m-89.393 10.193l33.839 66.724m-33.839-66.724L453.84 393.3M338.101 693.545L200.83 664.6m904.814-409.038l61.831 38.352m-61.831-38.352l-29.389 134.196m-298.758 47.993l-144.923-18.045m144.923 18.045l418.095 117.175M777.497 437.751L652.741 602.739M252.78 613.036L428.429 772.62M252.78 613.036l174.714 70.316M252.78 613.036l45.755-128.659m128.959 198.975l.935 89.268" transform="matrix(1.2349 0 0 1.21207 -100.538 -128.967)"/><path stroke-dasharray="5, 5" d="M427.494 683.352L258.589 845.57m168.905-162.218l223.699 42.067m-223.699-42.067l124.314-50.614" transform="matrix(1.2349 0 0 1.21207 -100.538 -128.967)"/><path d="M693.596 619.339l-61.022-199.633m61.022 199.633L530.062 506.317m124.953-28.742l122.482-39.824m-122.482 39.824l-22.441-57.869m521.179-70.255l-36.307-36.104m36.307 36.104l-119.063 27.938m119.063-27.938l-77.498 40.307m-506.132 333.16l579.318-1.315m-579.318 1.315l-142.629-39.566m142.629 39.566l-32.966-30.138m32.966 30.138L371.94 760.269m198.183-37.351l84.892-245.343m-84.892 245.343l-18.315-90.18m490.988 340.542l-71.804-87.69m71.804 87.69l-16.76 41.444M786.685 476.135l-129.386-92.482m129.386 92.482l-231.666-14.67m231.666 14.67l-91.85 110.375M340.069 796.188l87.425-112.836m-58.248-73.31l58.248 73.31m-58.248-73.31l281.947 115.377M369.246 610.042l2.694 150.227m-195.338 5.73l195.338-5.73m-195.338 5.73l37.251 95.528m443.446-477.874l-60.444 61.116m60.444-61.116l-102.28 77.812m102.28-77.812l-4.558 219.086m-28.104-224.803l28.104 224.803m-28.104-224.803l134.655 129.803M635.184 768.544l17.557-165.805m-17.557 165.805l309.585-148.056M343.844 844.636l250.1 145.447m-250.1-145.447l162.465-40.292m848.126-358.441l48.601 28.648m-48.601-28.648l-19.408 77.597m-789.78 313.823L428.429 772.62m116.818 64.703l121.579-27.634m-121.579 27.634l107.494-234.584M545.247 837.323l-65.54-73.662m-5.733-426.868l56.088 169.524m-56.088-169.524L451.96 449.842m22.014-113.049l181.041 140.782M473.974 336.793l94.672 56.073m870.846 488.001l-157.438-46.726m157.438 46.726l5.547-51.614m-5.547 51.614l-186.046-8.025m123.522-175.251l-227.527 24.012M355.51 573.669l150.799 230.675M355.51 573.669l295.683 151.75M355.51 573.669l47.934 22.023m246.745 461.752l-56.245-67.361m809.092-515.532l-207.444 80.375m207.444-80.375l-48.601-28.648m48.601 28.648l59.401 3.17m-59.401-3.17l65.547 36.467m-65.547-36.467l56.592-40.408m-56.592 40.408l61.214 77.827M446.196 282.961l122.45 109.905m-122.45-109.905l152.072 197.796m-242.51 435.509l150.551-111.922M428.82 553.361l77.489 250.983M428.82 553.361l101.242-47.044" transform="matrix(1.2349 0 0 1.21207 -100.538 -128.967)"/><path stroke-width="8" d="M407.36 970.615l98.949-166.271M407.36 970.615l-63.516-125.979" transform="matrix(1.2349 0 0 1.21207 -100.538 -128.967)"/><path d="M651.142 556.466l81.775 71.463m-81.775-71.463l90.87-94.556m-90.87 94.556l1.599 46.273m-37.162-346.671l161.918 181.683M615.579 256.068l-60.56 205.397m43.249 19.292l-29.622-87.891m29.622 87.891L427.494 683.352m298.266 53.576l-58.934 72.761m58.934-72.761l516.066-247.001M725.76 736.928l33.532-229.189M564.95 801.526L428.429 772.62m136.521 28.906l87.791-198.787m-100.933 29.999L343.844 844.636m207.964-211.898l597.633 88.865m-597.633-88.865L386.012 825.071m165.796-192.333l103.207-155.163M551.808 632.738l80.766-213.032M200.83 664.6l226.664 18.752m41.377 217.695L428.429 772.62m40.442 128.427l-41.377-217.695m-148.208 27.671l149.143 61.597" transform="matrix(1.2349 0 0 1.21207 -100.538 -128.967)"/><path stroke-dasharray="5, 5" d="M279.286 711.023l257.871-18.243" transform="matrix(1.2349 0 0 1.21207 -100.538 -128.967)"/><path d="M479.707 763.661l65.54 73.662m-65.54-73.662l98.946-85.408m-98.946 85.408l57.45-70.881" transform="matrix(1.2349 0 0 1.21207 -100.538 -128.967)"/><path stroke-dasharray="5, 5" d="M479.707 763.661l-107.767-3.392" transform="matrix(1.2349 0 0 1.21207 -100.538 -128.967)"/><path d="M428.429 772.62l224.312-169.881M428.429 772.62l124.782-6.382m-124.782 6.382l-36.464-134.85m36.464 134.85l238.397 37.069" transform="matrix(1.2349 0 0 1.21207 -100.538 -128.967)"/><path stroke-dasharray="5, 5" d="M428.429 772.62l77.88 31.724m-77.88-31.724l-26.02 90.993m26.02-90.993l-162.466-92.982" transform="matrix(1.2349 0 0 1.21207 -100.538 -128.967)"/><path d="M537.157 692.78l-108.728 79.84m108.728-79.84l-109.663-9.428M742.012 461.91l-211.95 44.407m211.95-44.407l-9.095 166.019m9.095-166.019l-173.366-69.044m173.366 69.044l334.243-72.152" transform="matrix(1.2349 0 0 1.21207 -100.538 -128.967)"/></g><g stroke="#000" stroke-width="1.3" transform="matrix(1.2349 0 0 1.21207 -100.538 -128.967)"><circle r="14.341" fill="#c98914" cx="386.587" cy="529.143"/><circle r="13.511" fill="#c98914" cx="166.846" cy="715.907"/><circle r="24.252" fill="#c98914" cx="506.309" cy="804.344"/><circle r="17.787" fill="#c55f1a" cx="705.53" cy="480.042"/><circle r="13.361" fill="#4189ad" cx="953.816" cy="443.589"/><circle r="16.362" fill="#4189ad" cx="975.311" cy="332.75"/><circle r="13.421" fill="#007500" cx="1462.437" cy="477.721"/><circle r="14.374" fill="#c55f1a" cx="516.289" cy="315.403"/><circle r="14.999" fill="#968674" cx="1149.441" cy="721.603"/><circle r="13.744" fill="#5e998a" cx="1445.039" cy="829.253"/><circle r="13.622" fill="#c55f1a" cx="707.646" cy="301.763"/><circle r="14.214" fill="#c55f1a" cx="508.701" cy="396.355"/><circle r="14.265" fill="#c55f1a" cx="453.84" cy="393.3"/><circle r="14.068" fill="#c55f1a" cx="543.659" cy="248.325"/><circle r="21.577" fill="#c55f1a" cx="759.292" cy="507.739"/><circle r="23.485" fill="#c55f1a" cx="652.741" cy="602.739"/><circle r="13.304" fill="#c55f1a" cx="558.946" cy="533.116"/><circle r="15.926" fill="#c55f1a" cx="405.031" cy="403.063"/><circle r="15.781" fill="#c98914" cx="368.221" cy="876.792"/><circle r="13.425" fill="#5e998a" cx="1248.794" cy="790.08"/><circle r="17.689" fill="#4189ad" cx="1092.944" cy="352.678"/><circle r="15.639" fill="#c98914" cx="372.275" cy="671.167"/><circle r="13.321" fill="#968674" cx="1346.486" cy="723.085"/><circle r="18.403" fill="#c55f1a" cx="734.061" cy="584.854"/><circle r="14.835" fill="#c98914" cx="326.1" cy="659.566"/><circle r="13.812" fill="#5e998a" cx="1399.807" cy="906.933"/><circle r="13.981" fill="#4189ad" cx="1167.475" cy="293.914"/><circle r="23.288" fill="#c55f1a" cx="555.019" cy="461.465"/><circle r="13.511" fill="#007500" cx="1245.48" cy="624.469"/><circle r="14.765" fill="#c98914" cx="542.644" cy="876.886"/><circle r="14.706" fill="#c98914" cx="150.038" cy="787.69"/><circle r="13.876" fill="#007500" cx="1484.783" cy="401.805"/><circle r="17.948" fill="#c98914" cx="287.057" cy="772.209"/><circle r="14.077" fill="#c98914" cx="176.298" cy="625.062"/><circle r="15.997" fill="#363ea9" cx="1090.326" cy="979.057"/><circle r="13.433" fill="#c55f1a" cx="451.96" cy="449.842"/><circle r="15.434" fill="#c98914" cx="298.535" cy="484.377"/><circle r="13.214" fill="#363ea9" cx="1110.809" cy="874.925"/><circle r="15.225" fill="#007500" cx="1241.826" cy="489.927"/><circle r="14.983" fill="#c55f1a" cx="689.977" cy="249.356"/><circle r="13.296" fill="#c98914" cx="213.853" cy="861.527"/><circle r="15.257" fill="#4189ad" cx="1030.764" cy="277.468"/><circle r="19.759" fill="#c55f1a" cx="803.411" cy="290.506"/><circle r="14.009" fill="#c98914" cx="258.589" cy="845.57"/><circle r="15.448" cx="662.548" cy="947.731"/><circle r="15.523" fill="#968674" cx="1201.687" cy="672.56"/><circle r="24.002" fill="#007500" cx="1335.027" cy="523.5"/><circle r="16.928" fill="#c98914" cx="386.012" cy="825.071"/><circle r="14.56" fill="#4189ad" cx="1014.983" cy="314.135"/><circle r="14.065" fill="#c55f1a" cx="800.058" cy="239.317"/><circle r="16.681" fill="#c98914" cx="326.633" cy="759.664"/><circle r="14.265" fill="#c55f1a" cx="596.855" cy="444.769"/><circle r="15.955" fill="#4189ad" cx="1152.757" cy="409.637"/><circle r="13.37" fill="#4189ad" cx="944.769" cy="620.488"/><circle r="13.597" fill="#4189ad" cx="980.978" cy="263.3"/><circle r="16.052" fill="#c98914" cx="553.211" cy="766.238"/><circle r="14.43" fill="#007500" cx="1530.466" cy="521.925"/><circle r="15.019" fill="#c98914" cx="509.249" cy="857.492"/><circle r="15.226" fill="#363ea9" cx="970.992" cy="885.59"/><circle r="15.337" fill="#007500" cx="1414.385" cy="533.1"/><circle r="15.32" fill="#007500" cx="1517.185" cy="470.256"/><circle r="13.734" fill="#c55f1a" cx="846.158" cy="502.563"/><circle r="13.332" fill="#c98914" cx="293.679" cy="545.301"/><circle r="14.303" fill="#4189ad" cx="1076.255" cy="389.758"/><circle r="14.512" fill="#007500" cx="1250.994" cy="570.105"/><circle r="14.561" fill="#c98914" cx="220.461" cy="715.268"/><circle r="13.684" fill="#5e998a" cx="1201.859" cy="897.617"/><circle r="17.83" fill="#c98914" cx="578.653" cy="678.253"/><circle r="14.476" cx="805.305" cy="905.992"/><circle r="13.498" fill="#c98914" cx="139.462" cy="648.379"/><circle r="14.135" fill="#c55f1a" cx="539.283" cy="341.741"/><circle r="13.231" fill="#c98914" cx="306.243" cy="941.387"/><circle r="14.585" fill="#c98914" cx="322.121" cy="416.035"/><circle r="14.537" fill="#c98914" cx="265.963" cy="679.638"/><circle r="13.188" fill="#c98914" cx="430.288" cy="820.924"/><circle r="13.265" fill="#c98914" cx="472.994" cy="602.672"/><circle r="14.199" fill="#c55f1a" cx="676.253" cy="647.337"/><circle r="13.816" fill="#c55f1a" cx="506.297" cy="347.718"/><circle r="14.004" fill="#c55f1a" cx="686.08" cy="405.89"/><circle r="13.518" fill="#c98914" cx="160.943" cy="820.631"/><circle r="13.332" fill="#c98914" cx="273.295" cy="511.704"/><circle r="13.793" fill="#c98914" cx="448.764" cy="867.744"/><circle r="14.681" fill="#c55f1a" cx="707.207" cy="441.118"/><circle r="13.413" fill="#c55f1a" cx="419.674" cy="351.946"/><circle r="14.315" fill="#c55f1a" cx="612.247" cy="514.103"/><circle r="15.406" fill="#c98914" cx="244.857" cy="786.155"/><circle r="13.845" fill="#c98914" cx="427.522" cy="628.952"/><circle r="14.219" fill="#c98914" cx="463.168" cy="820.737"/><circle r="16.272" fill="#c98914" cx="313.657" cy="722.332"/><circle r="13.675" fill="#c55f1a" cx="779.446" cy="544.912"/><circle r="15.334" fill="#c55f1a" cx="719.053" cy="533.07"/><circle r="13.309" fill="#968674" cx="1420.984" cy="681.824"/><circle r="14.347" fill="#c98914" cx="478.58" cy="703.704"/><circle r="13.34" fill="#c98914" cx="320.156" cy="621.798"/><circle r="16.686" fill="#c55f1a" cx="625.45" cy="302.529"/><circle r="13.69" fill="#c55f1a" cx="570.685" cy="502.956"/><circle r="15.368" fill="#c55f1a" cx="569.804" cy="297.081"/><circle r="14.76" fill="#c98914" cx="402.409" cy="863.613"/><circle r="17.143" fill="#c98914" cx="253.199" cy="747.192"/><circle r="14.111" fill="#c55f1a" cx="694.835" cy="586.51"/><circle r="21.026" fill="#007500" cx="1195.592" cy="554.926"/><circle r="15.445" fill="#c98914" cx="303.74" cy="907.075"/><circle r="13.18" fill="#c55f1a" cx="765.084" cy="349.962"/><circle r="13.798" fill="#c98914" cx="413.903" cy="917.728"/><circle r="16.114" fill="#4189ad" cx="1117.446" cy="313.347"/><circle r="14.029" fill="#c55f1a" cx="645.167" cy="522.576"/><circle r="17.308" fill="#c55f1a" cx="644.475" cy="342.478"/><circle r="21.089" fill="#c98914" cx="371.94" cy="760.269"/><circle r="14.451" fill="#c98914" cx="666.826" cy="809.689"/><circle r="35" fill="#c55f1a" cx="568.646" cy="392.866"/><circle r="13.834" fill="#c55f1a" cx="658.912" cy="287.661"/><circle r="13.981" fill="#007500" cx="1291.131" cy="511.27"/><circle r="14.214" fill="#c55f1a" cx="572.397" cy="333.941"/><circle r="13.449" fill="#c98914" cx="462.14" cy="934.853"/><circle r="20.2" cx="593.944" cy="990.083"/><circle r="13.754" fill="#c98914" cx="402.064" cy="731.313"/><circle r="15.643" fill="#4189ad" cx="1120.848" cy="430.109"/><circle r="14.004" fill="#007500" cx="1550.475" cy="428.531"/><circle r="13.391" fill="#007500" cx="1464.25" cy="552.378"/><circle r="13.892" fill="#c55f1a" cx="834.39" cy="319.56"/><circle r="22.118" fill="#c55f1a" cx="632.574" cy="419.706"/><circle r="21.532" fill="#c55f1a" cx="803.426" cy="579.689"/><circle r="13.7" fill="#c98914" cx="189.499" cy="586.916"/><circle r="13.254" fill="#c55f1a" cx="766.642" cy="630.944"/><circle r="14.148" fill="#007500" cx="1468.583" cy="511.018"/><circle r="13.202" fill="#c55f1a" cx="603.246" cy="215.398"/><circle r="15.156" fill="#007500" cx="1344.76" cy="569.463"/><circle r="13.959" fill="#4189ad" cx="925.644" cy="380.434"/><circle r="14.608" fill="#4189ad" cx="1065.978" cy="565.923"/><circle r="15.362" fill="#c98914" cx="510.587" cy="724.014"/><circle r="14.599" fill="#c98914" cx="510.421" cy="470.411"/><circle r="14.606" fill="#c98914" cx="461.14" cy="634.76"/><circle r="14.291" fill="#c98914" cx="354.876" cy="639.754"/><circle r="14.45" fill="#c98914" cx="292.454" cy="583.535"/><circle r="13.534" fill="#363ea9" cx="1026.036" cy="1014.724"/><circle r="13.534" fill="#007500" cx="1459.628" cy="434.143"/><circle r="13.185" fill="#c55f1a" cx="671.78" cy="435.747"/><circle r="19.514" fill="#c55f1a" cx="530.062" cy="506.317"/><circle r="13.808" fill="#c55f1a" cx="607.148" cy="341.821"/><circle r="14.058" fill="#c98914" cx="287.164" cy="871.75"/><circle r="14.754" fill="#c55f1a" cx="813.718" cy="649.143"/><circle r="13.464" fill="#c98914" cx="403.444" cy="595.692"/><circle r="14.727" fill="#c55f1a" cx="732.917" cy="627.929"/><circle r="19.696" fill="#c98914" cx="651.193" cy="725.419"/><circle r="16.339" fill="#c55f1a" cx="779.039" cy="394.662"/><circle r="13.395" fill="#c98914" cx="277.927" cy="808.68"/><circle r="14.189" fill="#c55f1a" cx="742.539" cy="317.784"/><circle r="13.667" fill="#c55f1a" cx="739.038" cy="368.888"/><circle r="16.676" fill="#c98914" cx="391.965" cy="637.77"/><circle r="22.224" fill="#c55f1a" cx="696.298" cy="363.629"/><circle r="13.758" fill="#5e998a" cx="1253.446" cy="872.842"/><circle r="18.53" fill="#5e998a" cx="1282.054" cy="834.141"/><circle r="14.179" fill="#c98914" cx="517.352" cy="759.582"/><circle r="14.171" fill="#007500" cx="1285.171" cy="655.456"/><circle r="14.592" fill="#c98914" cx="222.468" cy="578.837"/><circle r="15.202" fill="#c98914" cx="338.101" cy="693.545"/><circle r="14.534" fill="#4189ad" cx="1105.644" cy="255.562"/><circle r="19.605" fill="#c55f1a" cx="777.497" cy="437.751"/><circle r="14.595" fill="#c98914" cx="252.78" cy="613.036"/><circle r="31.492" fill="#c98914" cx="427.494" cy="683.352"/><circle r="13.263" fill="#c55f1a" cx="693.596" cy="619.339"/><circle r="24.371" fill="#c55f1a" cx="655.015" cy="477.575"/><circle r="13.538" fill="#4189ad" cx="1153.753" cy="349.451"/><circle r="18.414" fill="#c98914" cx="570.123" cy="722.918"/><circle r="13.534" fill="#363ea9" cx="1042.796" cy="973.28"/><circle r="13.287" fill="#c55f1a" cx="786.685" cy="476.135"/><circle r="15.762" fill="#c98914" cx="340.069" cy="796.188"/><circle r="13.218" fill="#c98914" cx="369.246" cy="610.042"/><circle r="14.763" fill="#4189ad" cx="1034.69" cy="377.389"/><circle r="13.879" fill="#c98914" cx="176.602" cy="765.999"/><circle r="14.32" fill="#c55f1a" cx="657.299" cy="383.653"/><circle r="14.269" fill="#363ea9" cx="1085.458" cy="1043.8"/><circle r="13.31" fill="#c55f1a" cx="624.637" cy="377.936"/><circle r="17.159" fill="#c98914" cx="635.184" cy="768.544"/><circle r="17.851" fill="#c98914" cx="343.844" cy="844.636"/><circle r="14.136" fill="#007500" cx="1354.435" cy="445.903"/><circle r="18.282" fill="#c98914" cx="545.247" cy="837.323"/><circle r="13.857" fill="#c55f1a" cx="473.974" cy="336.793"/><circle r="15.681" fill="#5e998a" cx="1439.492" cy="880.867"/><circle r="13.202" fill="#968674" cx="1376.968" cy="697.591"/><circle r="13.464" fill="#c98914" cx="355.51" cy="573.669"/><circle r="13.209" cx="650.189" cy="1057.444"/><circle r="21.918" fill="#007500" cx="1403.036" cy="474.551"/><circle r="13.337" fill="#c55f1a" cx="446.196" cy="282.961"/><circle r="13.5" fill="#c98914" cx="355.758" cy="916.266"/><circle r="16.313" fill="#c98914" cx="428.82" cy="553.361"/><circle r="13.548" fill="#c98914" cx="407.36" cy="970.615"/><circle r="14.664" fill="#c55f1a" cx="651.142" cy="556.466"/><circle r="13.783" fill="#c55f1a" cx="615.579" cy="256.068"/><circle r="15.812" fill="#c55f1a" cx="598.268" cy="480.757"/><circle r="13.388" fill="#c98914" cx="725.76" cy="736.928"/><circle r="13.216" fill="#c98914" cx="564.95" cy="801.526"/><circle r="20.009" fill="#c98914" cx="551.808" cy="632.738"/><circle r="15.938" fill="#c98914" cx="200.83" cy="664.6"/><circle r="13.395" fill="#c98914" cx="468.871" cy="901.047"/><circle r="13.887" fill="#c98914" cx="279.286" cy="711.023"/><circle r="16.275" fill="#c98914" cx="479.707" cy="763.661"/><circle r="27.106" fill="#c98914" cx="428.429" cy="772.62"/><circle r="18.817" fill="#c98914" cx="537.157" cy="692.78"/><circle r="16.175" fill="#c55f1a" cx="742.012" cy="461.91"/></g></svg>