<svg xmlns="http://www.w3.org/2000/svg" viewBox="0 0 77.7 101.28"><defs><style>.cls-1,.cls-3,.cls-4{fill:none;stroke:#e6e6e6;stroke-miterlimit:10}.cls-1{stroke-width:6px}.cls-2{fill:#fff}.cls-3,.cls-4{stroke-width:5px}.cls-4{stroke-dasharray:5.16 5.16}</style></defs><g id="Layer_2" data-name="Layer 2"><g id="Layer_1-2" data-name="Layer 1"><rect class="cls-1" x="3" y="3" width="71.7" height="95.28" rx="4.86"/><path class="cls-1" d="M3 21.33h71.7"/><path class="cls-2" d="M7.48 32.9h61.79"/><path class="cls-3" d="M7.48 32.9h2.5"/><path class="cls-4" d="M15.14 32.9h49.05"/><path class="cls-3" d="M66.77 32.9h2.5"/><path class="cls-2" d="M7.48 44.08h61.79"/><path class="cls-3" d="M7.48 44.08h2.5"/><path class="cls-4" d="M15.14 44.08h49.05"/><path class="cls-3" d="M66.77 44.08h2.5"/><path class="cls-2" d="M7.48 55.26h61.79"/><path class="cls-3" d="M7.48 55.26h2.5"/><path class="cls-4" d="M15.14 55.26h49.05"/><path class="cls-3" d="M66.77 55.26h2.5"/><path class="cls-2" d="M7.95 66.44h61.8"/><path class="cls-3" d="M7.95 66.44h2.5"/><path class="cls-4" d="M15.61 66.44h49.06"/><path class="cls-3" d="M67.25 66.44h2.5"/><path class="cls-2" d="M7.95 77.61h61.8"/><path class="cls-3" d="M7.95 77.61h2.5"/><path class="cls-4" d="M15.61 77.61h49.06"/><path class="cls-3" d="M67.25 77.61h2.5"/><path class="cls-2" d="M7.95 88.79h61.8"/><path class="cls-3" d="M7.95 88.79h2.5"/><path class="cls-4" d="M15.61 88.79h49.06"/><path class="cls-3" d="M67.25 88.79h2.5"/></g></g></svg>