<svg xmlns="http://www.w3.org/2000/svg" xmlns:xlink="http://www.w3.org/1999/xlink" viewBox="0 0 537.33 153.77"><defs><style>.cls-1{fill:url(#linear-gradient);}.cls-2{opacity:0.33;}.cls-3{fill:#231f20;}.cls-4{fill:#a43022;}.cls-5{fill:#f05123;}.cls-6{fill:#010101;}.cls-7{fill:#fff;}.cls-8{fill:#f15a29;stroke:#000;stroke-miterlimit:10;}</style><linearGradient id="linear-gradient" x1="26.68" y1="114.3" x2="49.41" y2="49.25" gradientUnits="userSpaceOnUse"><stop offset="0" stop-color="#f15a29"/><stop offset="0.6" stop-color="#f79038"/><stop offset="1" stop-color="#fbb040"/></linearGradient></defs><g id="Layer_2" data-name="Layer 2"><g id="Layer_1-2" data-name="Layer 1"><path class="cls-1" d="M43.45,22.5a43.49,43.49,0,0,0-41.31,57c7.14,27.29,35,65.76,41.27,74.31,6.27-8.54,34.16-47,41.34-74.26a43.5,43.5,0,0,0-41.3-57Zm0,60.08A16.11,16.11,0,1,1,59.56,66.47,16.12,16.12,0,0,1,43.45,82.58Z"/><g id="Layer-1" class="cls-2"><path class="cls-3" d="M57.77,29A102.92,102.92,0,0,0,41.65,24l.06-.16c-4.44-.81-7.49-.74-8,.48a1.15,1.15,0,0,0,0,.64l-.6.29s-.44.13-.06.92,1.85,2,2.86,3.55a5.08,5.08,0,0,0,1.62,1.54c.08,0,.25-.19-.52-1.76-.33-.81-1.41-1.51-1.58-2.25a30,30,0,0,0,3.86,2.8h0a104.29,104.29,0,0,0,15.23,7.23,95.35,95.35,0,0,0,17.93,5.27l2.1-5.4A95.33,95.33,0,0,0,57.77,29"/><path class="cls-3" d="M80,43.93l-1-2,0-.1c.38-1-1-2.59-3.63-4.46l-2.06,5.29a16.13,16.13,0,0,0,3.7.13,9.49,9.49,0,0,1-2,1.27c-1.48.73-2.36.85-2.33.92a5.25,5.25,0,0,0,2.14-.27c1.62-.56,3.33-.56,4-.88s.55-.75.55-.75"/><path class="cls-3" d="M36.5,20.67a4,4,0,0,0-.46.24l.46-.24c-.28-.08-.82,2.1-1,2.21s-1,.84-.9,1l-.48-.18s-.62.12-.64.14l-5.2.91s-.23.47.45,1.58,3.26,3.78,5.06,6a9.2,9.2,0,0,0,1.3,1.73c.13,0,0-1.47-1.33-3.67-1-1.88-2.13-4.62-1.59-4.68A5.21,5.21,0,0,1,34,25.69s0,0,0,0,21.22,14.22,43.7,16.18c2.4.65,1.18,2,1.18,2,.42.35-1.06,2.07-2.62,3-2,1-2.67,2.13-2.56,2.22a6.61,6.61,0,0,0,1.75-.66c2.37-.78,4.83-3,5.72-3.43"/><path class="cls-3" d="M61.86,40.66l.15,0-7-3.16c7.6-2.31,10.82,3.19,11.16,3.79l-.36.93Z"/><path class="cls-3" d="M34.61,26.12,36.42,25"/><path class="cls-3" d="M61.05,32.4a4.48,4.48,0,0,1,4.35,1.69s1,2.56-1.1,2.84c0,0-3.31.24-4.35-1.69,0,0-1.46-1.77,1.1-2.84"/><path class="cls-3" d="M63.37,33.91a1.34,1.34,0,1,1-.84-1.48,1.22,1.22,0,0,1,.84,1.48"/><path class="cls-3" d="M51.49,28.24s4.11.47,4.28,3.06c0,0,.07,3-4.12,1.51,0,0-5-2.65-.16-4.57"/><path class="cls-3" d="M53,29.92a1.38,1.38,0,0,1-2.52-1,1.26,1.26,0,0,1,1.67-.54A1.24,1.24,0,0,1,53,29.92"/><path class="cls-3" d="M74.53,40.41S73,42,67.43,42L66,41.67s-2.55-6.48-10.87-3.52c0,0,2.21.08,7.09,2.92,0,0-3.24,1.26-8-.68,0,0,3.34,5.09,12.23,3.06,0,0,8.1,1.17,10.13-2.26Z"/></g><g id="Layer-1-2" data-name="Layer-1"><path class="cls-4" d="M60.93,20.75A63.31,63.31,0,0,0,44.5,16.58l.11-.27c-4.65-.27-8,.55-8.79,2.59a2.93,2.93,0,0,0-.17,1l-.72.59s-.51.31-.27,1.48,1.61,5.28,2.36,7.51a7.82,7.82,0,0,0,.52,1.76,10.58,10.58,0,0,0-.18-4.17A34.16,34.16,0,0,1,37,23.17a20.94,20.94,0,0,0,3.56,3.57h0a62.43,62.43,0,0,0,14.94,8C62.44,37.44,69,38.9,73.81,39L77.33,30c-3.6-3.14-9.46-6.51-16.4-9.21"/><path class="cls-4" d="M81.26,38.33l-.14-1.75a1.22,1.22,0,0,0,.07-.17c.65-1.67-.49-3.88-2.93-6.25L74.81,39a12.73,12.73,0,0,0,4-.64,32.12,32.12,0,0,1-3.28,3.52A12.14,12.14,0,0,0,72.74,45a7.78,7.78,0,0,0,1.45-1c1.9-1.27,5.5-3.69,6.3-4.36s.77-1.31.77-1.31"/><path class="cls-5" d="M85.39,39.92l-3.33-5.26c0-.17,0-.34,0-.51l2.4-1.63a.89.89,0,0,0,.39-.74.82.82,0,0,0-.4-.71l-2.43-1.45c0-.25,0-.49-.07-.73l2.06-2.08a.88.88,0,0,0,.24-.8.84.84,0,0,0-.53-.62l-2.67-.93-.21-.68,1.64-2.45a.88.88,0,0,0,.09-.83A.78.78,0,0,0,82,20l-2.81-.37c-.11-.21-.22-.42-.34-.63L80,16.3a.87.87,0,0,0-.07-.83.8.8,0,0,0-.72-.36l-2.84.21c-.15-.18-.3-.37-.46-.55l.63-2.87a.87.87,0,0,0-.22-.8.82.82,0,0,0-.79-.2l-2.75.78c-.18-.16-.37-.3-.56-.45l.08-2.93a.83.83,0,0,0-.38-.73.79.79,0,0,0-.8,0L68.52,8.85l-.63-.32-.48-2.88a.82.82,0,0,0-1.31-.51l-2.29,1.8-.68-.19-1-2.7a.8.8,0,0,0-.62-.52.83.83,0,0,0-.77.28L58.8,6l-.71,0L56.58,3.55a.81.81,0,0,0-.71-.38.86.86,0,0,0-.71.43L53.69,6.14l-.71.1L51,4.18A.77.77,0,0,0,50.25,4a.88.88,0,0,0-.61.56l-1,2.79L48,7.53,45.67,5.91a.81.81,0,0,0-.81-.07.89.89,0,0,0-.5.67l-.43,2.91c-.21.12-.42.24-.62.37l-2.6-1.12a.82.82,0,0,0-.81.1.89.89,0,0,0-.36.76l.12,2.92-.55.48-2.77-.56a.81.81,0,0,0-.77.25.87.87,0,0,0-.22.81L36,16.26l-.08.1-6.13,2.93s-.87.26-.38,1.86c.44,1.41,3.16,7.4,4.6,10.55a9.89,9.89,0,0,0,1,2.45c.15,0,.37-2.35-.61-5.53-.64-2.76-1.26-6.87-.66-7.08a4.61,4.61,0,0,1,2-.52s0-.05,0,0,17.88,18.5,41.91,16.47a4.92,4.92,0,0,1,3.39,2.26c.37.47-2.22,3.43-4.13,5.32-2.4,2.06-3.39,4-3.3,4.12a9.8,9.8,0,0,0,2.06-1.45c2.76-1.8,8-5.23,9-6.14,1.21-1,.65-1.68.65-1.68"/><path class="cls-6" d="M62.7,38.43l.17-.06L56,34.93c8.8-5.41,11,2.59,11.28,3.47L66.67,40Z"/><path class="cls-5" d="M38.59,19.33s-5-4.57-5-7.42c0,0,9-2.81,3-11.85L33.49,7.4A9.78,9.78,0,0,1,33.67,0S24.64.71,31,10.65c0,0-1.05,3.59,5.33,10.9Z"/><path class="cls-6" d="M63.71,25.48s3.1-1.54,4.35,1.69c0,0,.48,3.84-1.85,4.76,0,0-3.66,1.14-4.35-1.69,0,0-1.19-2.47,1.85-4.76"/><path class="cls-7" d="M65.89,27.34c-.36.93-1.2,1.47-1.88,1.2a1.6,1.6,0,0,1-.56-2.15c.36-.93,1.19-1.47,1.87-1.21a1.63,1.63,0,0,1,.57,2.16"/><path class="cls-6" d="M54.25,21.05s4.38-.2,4,3.88c0,0-.6,4.72-4.83,3.36,0,0-4.87-3.07.87-7.24"/><path class="cls-7" d="M55.51,23.38c-.37.95-1.24,1.51-1.94,1.24A1.67,1.67,0,0,1,53,22.4c.37-1,1.23-1.52,1.93-1.25a1.67,1.67,0,0,1,.59,2.23"/><path class="cls-5" d="M76.56,35.12s-2,2.8-8.1,4.18L67,39.09S65.69,29.36,56,36c0,0,2.38-.38,7,3a9.32,9.32,0,0,1-8.6.75S56.87,47.09,67,41.81c0,0,8.55,0,11.55-5.91Z"/></g><path class="cls-8" d="M159.8,62.38a19.06,19.06,0,0,1-3.23,10.68q-3.24,4.91-10.68,7.45l11.36,29.3H135.4l-8.62-27.15H125.7l-5.78,27.15H98.75L112,47.58h25.77a64.08,64.08,0,0,1,8.53.54,20.19,20.19,0,0,1,7,2.16,12.33,12.33,0,0,1,4.76,4.5A14.52,14.52,0,0,1,159.8,62.38Zm-28.22,14a6.13,6.13,0,0,0,4.36-1.71,13.19,13.19,0,0,0,2.94-4.17,21.46,21.46,0,0,0,1.62-5.24,29.29,29.29,0,0,0,.49-4.85,9.85,9.85,0,0,0-.89-4.36c-.58-1.21-1.86-1.81-3.82-1.81h-4.41L127,76.39Z"/><path class="cls-8" d="M186.36,66.59q11.65,0,16.95,4.12Q208.9,75,208.9,85a28.77,28.77,0,0,1-2.06,11.12,21.58,21.58,0,0,1-5.78,8.18q-7.45,6.27-21.56,6.28-12.06,0-17.25-4.61-5.58-4.8-5.58-14.41A25.5,25.5,0,0,1,159.26,80a22.94,22.94,0,0,1,7.5-8.63Q173.92,66.59,186.36,66.59Zm-6.66,37.34q2.45,0,4.26-2.74a23.11,23.11,0,0,0,2.89-6.72A65.09,65.09,0,0,0,189,78.84a12.29,12.29,0,0,0-.54-4.16,2.21,2.21,0,0,0-2.31-1.42c-1.76,0-3.28.94-4.55,2.84a24.51,24.51,0,0,0-3.09,6.76,50.4,50.4,0,0,0-1.71,8,53.44,53.44,0,0,0-.54,6.66Q176.27,103.94,179.7,103.93Z"/><path class="cls-8" d="M209.88,67.67h20.78l4,28.81L249,67.67h10.39l-22.25,42.14H216.64Z"/><path class="cls-8" d="M273.68,90.11a40.6,40.6,0,0,0-.54,4.12c-.1,1.31-.15,2.48-.15,3.53,0,.59,0,1.24.1,2a7.56,7.56,0,0,0,.44,2,4.15,4.15,0,0,0,1,1.56,2.42,2.42,0,0,0,1.81.64,4.47,4.47,0,0,0,2-.59,9.88,9.88,0,0,0,2.26-1.66A14.82,14.82,0,0,0,282.74,99a13.12,13.12,0,0,0,1.62-3.53h16.07L297.88,106a20.06,20.06,0,0,1-4.51,2.15,37.79,37.79,0,0,1-5.38,1.43,58,58,0,0,1-5.79.78c-2,.16-3.82.25-5.58.25a44.37,44.37,0,0,1-9.12-.89,20.06,20.06,0,0,1-7.35-3,15,15,0,0,1-4.95-5.73,19.46,19.46,0,0,1-1.81-8.87,30,30,0,0,1,1.52-9.41,20.52,20.52,0,0,1,5.1-8.18,25.5,25.5,0,0,1,9.6-5.73,45,45,0,0,1,15-2.16q9.81,0,14.75,3t5,9.51a23.51,23.51,0,0,1-.78,5.73,15.3,15.3,0,0,1-2.35,5.24Zm13-11.66c0-2-.33-3.4-1-4.12a3.09,3.09,0,0,0-2.35-1.07,4.57,4.57,0,0,0-2.89,1,10.5,10.5,0,0,0-2.4,2.74,24.28,24.28,0,0,0-2,3.92,33.22,33.22,0,0,0-1.47,4.65h11.17c.13-.78.26-1.6.39-2.44s.25-1.51.34-2.36A20.18,20.18,0,0,0,286.71,78.45Z"/><path class="cls-8" d="M310.33,67.67h16L327.77,75h.69a21.08,21.08,0,0,1,5.78-6,16,16,0,0,1,9.31-2.45c.26,0,.67,0,1.23,0a11.13,11.13,0,0,1,1.86.3,16.48,16.48,0,0,1,2.15.68A9.93,9.93,0,0,1,351,68.85L346.69,89H336c-.14-4.06-.49-6.88-1.08-8.48s-1.54-2.4-2.84-2.4a5.66,5.66,0,0,0-2.11.44,5.84,5.84,0,0,0-2.3,1.91l-6.28,29.3h-20Z"/><path class="cls-8" d="M365.21,109.81h-20L359.13,44h20.09Z"/><path class="cls-8" d="M378.44,71.3a43.93,43.93,0,0,1,10.24-3.58,55.93,55.93,0,0,1,11.71-1.13,46.1,46.1,0,0,1,10.39,1,17.57,17.57,0,0,1,6.56,2.84,10,10,0,0,1,3.43,4.42,15.81,15.81,0,0,1,1,5.78,36.23,36.23,0,0,1-.24,4q-.24,2.16-.54,3.63l-4.6,21.56H400.59l-1.77-6.27h-.59a21.27,21.27,0,0,1-7.3,5.24,20.55,20.55,0,0,1-8.28,1.82,15.59,15.59,0,0,1-4.6-.69,11.81,11.81,0,0,1-4-2.11,10.37,10.37,0,0,1-2.84-3.62,12.06,12.06,0,0,1-1.08-5.35,11.37,11.37,0,0,1,2.79-8.08,17.41,17.41,0,0,1,7.35-4.51,41.58,41.58,0,0,1,10.29-1.91q5.73-.39,11.52-.39c.13-.65.29-1.58.49-2.79a20.91,20.91,0,0,0,.29-3.19,6.17,6.17,0,0,0-.93-3.28c-.62-1-1.91-1.52-3.87-1.52a6.1,6.1,0,0,0-5.05,2A10.4,10.4,0,0,0,390.88,80h-14.3ZM401,88.54h-1.77a14.18,14.18,0,0,0-4.85.74,9.19,9.19,0,0,0-3.23,1.91,7.51,7.51,0,0,0-1.81,2.65,7.71,7.71,0,0,0-.59,2.94,4.71,4.71,0,0,0,1.22,3.53,4.05,4.05,0,0,0,2.89,1.17,6.83,6.83,0,0,0,4.07-1.47,6.2,6.2,0,0,0,2.5-3.92Z"/><path class="cls-8" d="M448.21,73.94a27.15,27.15,0,0,1,9.9-6.17,18.49,18.49,0,0,1,6.76-1.18,13.31,13.31,0,0,1,8.43,2.6,8.52,8.52,0,0,1,3.33,7.1,19.27,19.27,0,0,1-.29,3.09q-.3,1.82-.69,3.78c-.26,1.3-.54,2.63-.83,4s-.54,2.54-.74,3.58L470,109.81H450.08l5.38-25.58c.14-.85.3-1.71.5-2.59a11.66,11.66,0,0,0,.29-2.41,3.78,3.78,0,0,0-.74-2.4,2.63,2.63,0,0,0-2.2-.93,5.39,5.39,0,0,0-3.38,1.28,31.1,31.1,0,0,0-2.5,2.15L441,109.81H421l8.92-42.14h16l1.76,6.27Z"/><path class="cls-8" d="M516.62,44h20.09l-14,65.86H506.82l-1.77-6.27h-.68a14.57,14.57,0,0,1-1.82,2.11,16.22,16.22,0,0,1-3.08,2.35,18.29,18.29,0,0,1-4.41,1.86,21.28,21.28,0,0,1-5.88.74,14.87,14.87,0,0,1-5.83-1,10.56,10.56,0,0,1-3.92-2.8,10.68,10.68,0,0,1-2.21-4.26,20.42,20.42,0,0,1-.68-5.44c0-.85.06-2.2.19-4.07a43.51,43.51,0,0,1,.93-6.17,44.54,44.54,0,0,1,2.16-7,24.49,24.49,0,0,1,3.82-6.52,19.72,19.72,0,0,1,5.93-4.85,17.71,17.71,0,0,1,8.53-1.91,20,20,0,0,1,3.33.3A12.32,12.32,0,0,1,504.81,68,8.8,8.8,0,0,1,509.56,74h.69Zm-12,32.25c-1.57,0-2.87.86-3.92,2.59a25.39,25.39,0,0,0-2.55,6,47.79,47.79,0,0,0-1.42,6.86,45.18,45.18,0,0,0-.44,5.1,8.12,8.12,0,0,0,.59,3.28,2.23,2.23,0,0,0,2.25,1.32,4.31,4.31,0,0,0,1.91-.44,9.22,9.22,0,0,0,1.77-1.08,9.08,9.08,0,0,0,1.42-1.32l1-1.17,3.82-17.84a13.66,13.66,0,0,0-1.81-2.21A3.57,3.57,0,0,0,504.66,76.2Z"/></g></g></svg>