<?xml version="1.0" encoding="UTF-8" standalone="no"?>
<!-- Created with Inkscape (http://www.inkscape.org/) -->

<svg
   width="300mm"
   height="300mm"
   viewBox="0 0 300 300"
   version="1.1"
   id="svg830"
   inkscape:version="1.1.1 (c3084ef, 2021-09-22)"
   sodipodi:docname="rust_ans.svg"
   xmlns:inkscape="http://www.inkscape.org/namespaces/inkscape"
   xmlns:sodipodi="http://sodipodi.sourceforge.net/DTD/sodipodi-0.dtd"
   xmlns="http://www.w3.org/2000/svg"
   xmlns:svg="http://www.w3.org/2000/svg">
  <sodipodi:namedview
     id="namedview832"
     pagecolor="#505050"
     bordercolor="#eeeeee"
     borderopacity="1"
     inkscape:pageshadow="0"
     inkscape:pageopacity="0"
     inkscape:pagecheckerboard="false"
     inkscape:document-units="mm"
     showgrid="false"
     width="300mm"
     inkscape:zoom="0.61825196"
     inkscape:cx="232.10602"
     inkscape:cy="560.45111"
     inkscape:window-width="2560"
     inkscape:window-height="1359"
     inkscape:window-x="1512"
     inkscape:window-y="25"
     inkscape:window-maximized="0"
     inkscape:current-layer="layer1" />
  <defs
     id="defs827" />
  <g
     inkscape:label="Layer 1"
     inkscape:groupmode="layer"
     id="layer1">
    <path
       d="m 272.99818,126.44955 -10.47784,-6.48586 a 142.15128,142.15128 0 0 0 -0.29715,-3.05103 l 9.00274,-8.39961 c 0.91619,-0.85251 1.32653,-2.11714 1.07892,-3.34109 a 3.5904826,3.5904826 0 0 0 -2.2728,-2.6743 l -11.51077,-4.305037 a 133.90908,133.90908 0 0 0 -0.90204,-2.971434 l 7.18097,-9.971991 A 3.6046323,3.6046323 0 0 0 262.4549,79.58048 l -12.13867,-1.973881 a 102.28277,102.28277 0 0 0 -1.45918,-2.723814 l 5.10096,-11.195938 a 3.5904826,3.5904826 0 0 0 -0.28299,-3.502048 3.5869452,3.5869452 0 0 0 -3.12178,-1.600683 l -12.31907,0.429797 a 97.34276,97.34276 0 0 0 -1.94558,-2.361229 l 2.82994,-11.998933 a 3.6046323,3.6046323 0 0 0 -4.33688,-4.338647 l -11.99717,2.828168 a 103.53148,103.53148 0 0 0 -2.36653,-1.945581 l 0.43157,-12.31907 a 3.6010949,3.6010949 0 0 0 -5.09743,-3.408306 l -11.1924,5.102731 a 129.89411,129.89411 0 0 0 -2.72558,-1.460955 l -1.98096,-12.140429 a 3.6081697,3.6081697 0 0 0 -5.66518,-2.347079 l -9.97907,7.180964 a 109.48496,109.48496 0 0 0 -2.96612,-0.898504 L 176.93773,9.3927364 a 3.5975575,3.5975575 0 0 0 -6.01361,-1.1991858 l -8.39784,9.0115804 a 108.284,108.284 0 0 0 -3.0528,-0.297143 L 152.98762,6.4266086 a 3.6046323,3.6046323 0 0 0 -6.13035,0 l -6.48586,10.4813794 c -1.02055,0.08313 -2.04286,0.185715 -3.05633,0.297143 L 128.9137,8.1935506 a 3.6010949,3.6010949 0 0 0 -6.01361,1.1991858 l -4.30328,11.5143066 c -0.99578,0.284762 -1.98449,0.58898 -2.9679,0.898504 l -9.97729,-7.180964 a 3.6134759,3.6134759 0 0 0 -5.668721,2.347079 l -1.979187,12.140429 c -0.916192,0.474014 -1.821772,0.962178 -2.725583,1.460955 L 84.085727,25.470315 a 3.5940201,3.5940201 0 0 0 -3.498509,0.282994 3.5904826,3.5904826 0 0 0 -1.600683,3.125312 l 0.429796,12.317301 c -0.795919,0.636736 -1.586533,1.287621 -2.366534,1.945582 L 65.05617,40.316873 a 3.6170133,3.6170133 0 0 0 -3.378238,0.96041 3.6010949,3.6010949 0 0 0 -0.962178,3.378237 l 2.824631,11.998933 a 115.96198,115.96198 0 0 0 -1.940276,2.361229 l -12.31907,-0.428028 a 3.6028636,3.6028636 0 0 0 -3.406537,5.099193 l 5.102731,11.195938 a 109.73788,109.73788 0 0 0 -1.462724,2.725583 l -12.136893,1.973881 a 3.6081697,3.6081697 0 0 0 -2.347079,5.668718 l 7.180966,9.971991 a 112.51122,112.51122 0 0 0 -0.902043,2.971433 l -11.512538,4.305039 a 3.6010949,3.6010949 0 0 0 -1.19388,6.01539 l 9.006276,8.39961 a 118.04375,118.04375 0 0 0 -0.298913,3.05103 l -10.477842,6.48586 a 3.6010949,3.6010949 0 0 0 0,6.13212 l 10.477842,6.48586 c 0.08667,1.02055 0.185715,2.03932 0.298913,3.05279 l -9.006276,8.40138 a 3.6046323,3.6046323 0 0 0 1.19388,6.01362 l 11.514307,4.30327 c 0.282994,0.99578 0.587212,1.98626 0.900274,2.97143 l -7.180966,9.97553 a 3.6028636,3.6028636 0 0 0 2.348848,5.66518 l 12.135124,1.97388 c 0.475783,0.91973 0.962179,1.82708 1.462724,2.73089 l -5.102731,11.19063 a 3.6010949,3.6010949 0 0 0 0.282994,3.50205 3.5904826,3.5904826 0 0 0 3.123543,1.59891 l 12.313764,-0.43156 c 0.642042,0.80122 1.287621,1.58476 1.945582,2.36476 l -2.824631,12.00248 a 3.5904826,3.5904826 0 0 0 0.960409,3.37116 3.5904826,3.5904826 0 0 0 3.378238,0.95864 l 11.997164,-2.8264 c 0.780002,0.66327 1.568847,1.30885 2.366535,1.94204 l -0.429797,12.32084 a 3.6010949,3.6010949 0 0 0 5.099193,3.40477 l 11.192401,-5.10096 c 0.902043,0.50231 1.807623,0.98871 2.725583,1.46272 l 1.979188,12.13336 a 3.6134759,3.6134759 0 0 0 5.668712,2.35061 l 9.972,-7.1845 a 112.5519,112.5519 0 0 0 2.97143,0.90204 l 4.30328,11.509 c 0.43687,1.16735 1.44857,2.03402 2.67606,2.2728 a 3.5834078,3.5834078 0 0 0 3.33755,-1.07892 l 8.40138,-9.00627 c 1.01347,0.1185 2.03401,0.21578 3.05456,0.30599 l 6.48586,10.47784 a 3.6081697,3.6081697 0 0 0 6.13212,0 l 6.48586,-10.47784 a 116.98783,116.98783 0 0 0 3.05103,-0.30599 l 8.39961,9.00804 c 0.85075,0.91443 2.11538,1.32654 3.33755,1.07892 a 3.5957888,3.5957888 0 0 0 2.67606,-2.27457 l 4.30328,-11.50723 a 112.5519,112.5519 0 0 0 2.97143,-0.90381 l 9.97553,7.1845 a 3.6081697,3.6081697 0 0 0 5.66518,-2.35238 l 1.98096,-12.13336 c 0.91442,-0.47224 1.82177,-0.96571 2.72381,-1.46095 l 11.19417,5.10096 a 3.6010949,3.6010949 0 0 0 5.09743,-3.40477 l -0.4298,-12.32084 c 0.79592,-0.63673 1.58653,-1.27877 2.363,-1.94204 l 11.99716,2.8264 a 3.5869452,3.5869452 0 0 0 3.37824,-0.95864 3.5904826,3.5904826 0 0 0 0.96041,-3.37116 l -2.8264,-12.00248 c 0.65796,-0.77823 1.30707,-1.56354 1.94027,-2.36476 l 12.31907,0.43156 a 3.5887139,3.5887139 0 0 0 3.12355,-1.60068 3.5922513,3.5922513 0 0 0 0.28299,-3.50205 l -5.10096,-11.18886 c 0.49877,-0.90381 0.98694,-1.81116 1.45918,-2.73089 l 12.1369,-1.97388 a 3.6028636,3.6028636 0 0 0 2.34708,-5.66695 l -7.18097,-9.97553 c 0.31129,-0.9834 0.61374,-1.97388 0.90204,-2.97143 l 11.51077,-4.30327 a 3.5904826,3.5904826 0 0 0 2.2728,-2.67429 3.5834078,3.5834078 0 0 0 -1.07892,-3.33933 l -9.00274,-8.40137 c 0.1079,-1.01171 0.20871,-2.03402 0.29715,-3.05103 l 10.47784,-6.48586 a 3.6010949,3.6010949 0 0 0 0.002,-6.13212 z m -70.12761,86.92151 a 7.4250473,7.4250473 0 0 1 -5.6864,-8.82056 7.4020541,7.4020541 0 0 1 8.79579,-5.69524 7.4215099,7.4215099 0 0 1 5.69172,8.81171 7.4215099,7.4215099 0 0 1 -8.80111,5.70409 z m -3.56041,-24.07922 a 6.7564747,6.7564747 0 0 0 -8.02465,5.19824 l -3.71959,17.35989 a 90.862204,90.862204 0 0 1 -37.65232,8.10423 90.950639,90.950639 0 0 1 -38.44116,-8.46858 l -3.71783,-17.3599 a 6.7529373,6.7529373 0 0 0 -8.022868,-5.19647 l -15.324109,3.2898 a 90.931184,90.931184 0 0 1 -7.923824,-9.33879 h 74.568841 c 0.84545,0 1.4079,-0.15388 1.4079,-0.9215 v -26.37855 c 0,-0.76762 -0.56245,-0.91973 -1.40613,-0.91973 h -21.81174 v -16.72139 h 23.58753 c 2.15429,0 11.5143,0.61551 14.50519,12.57907 0.93742,3.67892 2.9962,15.64779 4.40409,19.47881 1.40082,4.29797 7.11022,12.88152 13.19282,12.88152 h 37.15884 c 0.42095,0 0.87197,-0.0478 1.34776,-0.13265 a 91.562613,91.562613 0 0 1 -8.4509,9.91539 z M 96.173096,213.01025 a 7.4091289,7.4091289 0 0 1 -8.802873,-5.69879 7.4285848,7.4285848 0 0 1 5.689942,-8.82056 7.4250473,7.4250473 0 0 1 3.112931,14.51758 z M 67.884338,98.296977 a 7.4250473,7.4250473 0 0 1 -3.770891,9.793353 7.4073602,7.4073602 0 0 1 -9.779201,-3.77796 7.4250473,7.4250473 0 0 1 3.770891,-9.793359 7.4073602,7.4073602 0 0 1 9.779201,3.777966 z M 59.189356,118.906 75.155507,111.81347 a 6.767087,6.767087 0 0 0 3.434836,-8.93023 L 75.30231,95.449352 H 88.233354 V 153.73722 H 62.144872 a 91.348599,91.348599 0 0 1 -3.477285,-25.02726 c 0,-3.31279 0.178639,-6.58668 0.521769,-9.80396 z m 70.058634,-5.65988 V 96.064864 h 30.79502 c 1.59184,0 11.23131,1.839459 11.23131,9.046956 0,5.98532 -7.39321,8.13077 -13.47404,8.13077 h -28.55052 z m 111.9134,15.46384 c 0,2.2781 -0.0831,4.53498 -0.24939,6.77416 h -9.36179 c -0.93741,0 -1.31415,0.61551 -1.31415,1.53348 v 4.29796 c 0,10.12056 -5.70586,12.32261 -10.706,12.88329 -4.76314,0.53592 -10.04274,-1.9951 -10.69363,-4.90817 -2.80871,-15.79989 -7.49049,-19.17459 -14.88193,-25.00426 9.1743,-5.82614 18.71827,-14.4203 18.71827,-25.924001 0,-12.421655 -8.51458,-20.244662 -14.31949,-24.080996 -8.14314,-5.368036 -17.15826,-6.443413 -19.59024,-6.443413 H 81.94205 C 95.071189,53.184243 112.86442,42.80368 132.99058,39.025714 l 11.41172,11.974171 a 6.7476312,6.7476312 0 0 0 9.55281,0.21932 L 166.7252,39.006258 c 26.75705,4.980689 49.4107,21.636637 62.46555,44.488379 l -8.74096,19.744113 a 6.7741618,6.7741618 0 0 0 3.43837,8.92846 l 16.83105,7.47634 c 0.29007,2.98735 0.44218,6.00654 0.44218,9.06641 z M 144.40761,28.843247 a 7.4038228,7.4038228 0 0 1 10.47784,0.240544 7.4285848,7.4285848 0 0 1 -0.24585,10.493761 7.3985167,7.3985167 0 0 1 -10.47784,-0.242314 7.4303535,7.4303535 0 0 1 0.24762,-10.491991 z m 86.75172,69.812778 a 7.4038228,7.4038228 0 0 1 9.77566,-3.774429 7.4250473,7.4250473 0 0 1 3.77089,9.793354 7.4038228,7.4038228 0 0 1 -9.78097,3.77797 7.4321222,7.4321222 0 0 1 -3.76735,-9.796895 z"
       stroke-width="2.38422"
       stroke="#000000"
       id="path2" />
    <path
       stroke="#ffffff"
       stroke-width="1.24871"
       d="M 23.698408,181.07264 H 278.80309 v 17.24493 H 23.698408 Z m -0.118504,30.41121 h 81.339466 v 17.72248 H 23.579904 Z m 91.109826,0.13973 h 164.4671 v 17.44479 h -164.4671 z m -91.28316,32.52305 h 25.943449 v 17.72248 H 23.40657 Z m 29.058148,0.13973 h 52.456422 v 17.44479 H 52.464718 Z M 23.40657,276.67145 h 8.205049 v 17.72248 H 23.40657 Z m 9.190221,0.13973 h 16.590507 v 17.44479 H 32.596791 Z m 19.852009,-0.0407 h 16.671867 v 17.80207 H 52.4488 Z m 18.674047,0.14149 H 104.8327 v 17.52085 H 71.122847 Z m 43.582803,-0.0831 h 16.67187 v 17.80208 h -16.67187 z m 18.67405,0.13973 h 33.70985 v 17.52085 H 133.3797 Z m 39.96048,-0.21224 h 33.62673 v 17.66942 h -33.62673 z m 37.66469,0.13973 h 67.99101 v 17.38996 h -67.99101 z m -96.28331,-32.66633 h 52.32378 v 17.55799 h -52.32378 z m 58.608,0.13796 h 105.7972 v 17.28207 h -105.7972 z"
       id="path4" />
  </g>
</svg>
