<svg width="300mm" height="300mm" viewBox="0 0 300 300" xmlns="http://www.w3.org/2000/svg"><path d="M272.998 126.45l-10.478-6.486a142.151 142.151 0 00-.297-3.051l9.003-8.4a3.593 3.593 0 001.079-3.341 3.59 3.59 0 00-2.273-2.674l-11.51-4.305a133.91 133.91 0 00-.903-2.972l7.181-9.972a3.605 3.605 0 00-2.345-5.669l-12.139-1.973a102.283 102.283 0 00-1.459-2.724l5.101-11.196a3.59 3.59 0 00-.283-3.502 3.587 3.587 0 00-3.122-1.6l-12.319.429a97.343 97.343 0 00-1.945-2.361l2.83-12a3.605 3.605 0 00-4.337-4.338l-11.998 2.828a103.531 103.531 0 00-2.366-1.945l.432-12.32a3.601 3.601 0 00-5.098-3.408l-11.192 5.103a129.894 129.894 0 00-2.726-1.46l-1.98-12.141a3.608 3.608 0 00-5.666-2.347l-9.98 7.18a109.485 109.485 0 00-2.965-.898l-4.305-11.514a3.598 3.598 0 00-6.014-1.2l-8.398 9.012a108.284 108.284 0 00-3.053-.297l-6.485-10.481a3.605 3.605 0 00-6.13 0l-6.487 10.481c-1.02.083-2.042.186-3.056.297l-8.401-9.011a3.601 3.601 0 00-6.014 1.199l-4.303 11.514c-.996.285-1.985.589-2.968.899l-9.977-7.181a3.613 3.613 0 00-5.67 2.347l-1.978 12.14c-.916.474-1.822.962-2.726 1.461L84.086 25.47a3.594 3.594 0 00-3.499.283 3.59 3.59 0 00-1.6 3.126l.43 12.317c-.797.637-1.587 1.288-2.367 1.946l-11.994-2.825a3.617 3.617 0 00-3.378.96 3.601 3.601 0 00-.962 3.379l2.824 11.998a115.962 115.962 0 00-1.94 2.362l-12.319-.428a3.603 3.603 0 00-3.406 5.099l5.102 11.196a109.738 109.738 0 00-1.462 2.725l-12.137 1.974a3.608 3.608 0 00-2.347 5.669l7.18 9.972a112.511 112.511 0 00-.902 2.971L29.797 102.5a3.601 3.601 0 00-1.194 6.016l9.006 8.4a118.044 118.044 0 00-.299 3.05l-10.477 6.486a3.601 3.601 0 000 6.132l10.477 6.486c.087 1.02.186 2.04.3 3.053l-9.007 8.401a3.605 3.605 0 001.194 6.014l11.514 4.303c.283.996.587 1.987.9 2.972l-7.18 9.975a3.603 3.603 0 002.348 5.665l12.136 1.974c.475.92.962 1.827 1.462 2.731l-5.102 11.19a3.601 3.601 0 00.282 3.503 3.59 3.59 0 003.124 1.599l12.314-.432c.642.802 1.287 1.585 1.945 2.365l-2.824 12.003a3.59 3.59 0 00.96 3.37 3.59 3.59 0 003.378.96l11.998-2.827a90.63 90.63 0 002.366 1.942l-.43 12.32a3.601 3.601 0 005.1 3.406l11.192-5.101c.902.502 1.808.988 2.725 1.462l1.98 12.134a3.613 3.613 0 005.668 2.35l9.972-7.184a112.552 112.552 0 002.972.902l4.303 11.509a3.598 3.598 0 002.676 2.273 3.583 3.583 0 003.338-1.08l8.401-9.006c1.014.119 2.034.216 3.055.306l6.485 10.478a3.608 3.608 0 006.133 0l6.485-10.478a116.988 116.988 0 003.052-.306l8.4 9.009a3.59 3.59 0 003.337 1.078 3.596 3.596 0 002.676-2.274l4.303-11.507a112.552 112.552 0 002.971-.904l9.976 7.184a3.608 3.608 0 005.665-2.352l1.981-12.133c.915-.473 1.822-.966 2.724-1.461l11.194 5.1a3.601 3.601 0 005.098-3.404l-.43-12.321a94.926 94.926 0 002.363-1.942l11.997 2.826a3.587 3.587 0 003.378-.958 3.59 3.59 0 00.96-3.371l-2.826-12.003a92.49 92.49 0 001.94-2.365l12.32.432a3.589 3.589 0 003.123-1.6 3.592 3.592 0 00.283-3.503l-5.101-11.189c.499-.904.987-1.81 1.46-2.73l12.136-1.975a3.603 3.603 0 002.347-5.666l-7.18-9.976c.31-.983.613-1.974.901-2.971l11.511-4.304a3.59 3.59 0 002.273-2.674 3.583 3.583 0 00-1.08-3.34l-9.002-8.4c.108-1.012.209-2.035.297-3.052l10.478-6.486a3.601 3.601 0 00.002-6.132zm-70.127 86.921a7.425 7.425 0 01-5.687-8.82 7.402 7.402 0 018.796-5.696 7.422 7.422 0 015.692 8.812 7.422 7.422 0 01-8.801 5.704zm-3.56-24.08a6.756 6.756 0 00-8.025 5.2l-3.72 17.359a90.862 90.862 0 01-37.652 8.104 90.95 90.95 0 01-38.442-8.468l-3.717-17.36a6.753 6.753 0 00-8.023-5.197l-15.324 3.29a90.931 90.931 0 01-7.924-9.339h74.569c.845 0 1.408-.154 1.408-.921V155.58c0-.767-.563-.92-1.407-.92h-21.811v-16.72h23.587c2.155 0 11.515.615 14.505 12.578.938 3.68 2.997 15.648 4.404 19.479 1.401 4.298 7.11 12.881 13.193 12.881h37.16c.42 0 .871-.047 1.347-.132a91.563 91.563 0 01-8.451 9.915zm-103.138 23.72a7.41 7.41 0 01-8.803-5.7 7.429 7.429 0 015.69-8.82 7.425 7.425 0 013.113 14.517zM67.884 98.296a7.425 7.425 0 01-3.77 9.793 7.407 7.407 0 01-9.78-3.778 7.425 7.425 0 013.771-9.793 7.407 7.407 0 019.78 3.778zm-8.695 20.609l15.967-7.093a6.767 6.767 0 003.434-8.93l-3.288-7.434h12.931v58.288H62.145a91.349 91.349 0 01-3.477-25.027c0-3.313.178-6.587.521-9.804zm70.059-5.66V96.065h30.795c1.592 0 11.231 1.84 11.231 9.047 0 5.985-7.393 8.13-13.474 8.13h-28.55zm111.913 15.464c0 2.278-.083 4.535-.249 6.774h-9.362c-.937 0-1.314.616-1.314 1.534v4.298c0 10.12-5.706 12.322-10.706 12.883-4.763.536-10.043-1.995-10.694-4.908-2.808-15.8-7.49-19.175-14.882-25.005 9.175-5.826 18.719-14.42 18.719-25.924 0-12.421-8.515-20.244-14.32-24.08-8.143-5.369-17.158-6.444-19.59-6.444H81.942c13.13-14.654 30.922-25.034 51.049-28.812L144.402 51a6.748 6.748 0 009.553.22l12.77-12.214c26.757 4.98 49.41 21.637 62.466 44.489l-8.741 19.744a6.774 6.774 0 003.438 8.928l16.831 7.477c.29 2.987.442 6.006.442 9.066zm-96.753-99.867a7.404 7.404 0 0110.477.24 7.429 7.429 0 01-.245 10.495 7.399 7.399 0 01-10.478-.243 7.43 7.43 0 01.247-10.492zm86.751 69.813a7.404 7.404 0 019.776-3.774 7.425 7.425 0 013.77 9.793 7.404 7.404 0 01-9.78 3.778 7.432 7.432 0 01-3.767-9.797z" stroke-width="2.384" stroke="#000"/><path stroke="#fff" stroke-width="1.249" d="M23.698 181.073h255.105v17.245H23.698zm-.118 30.41h81.34v17.723H23.58zm91.11.14h164.467v17.445H114.69zm-91.283 32.524H49.35v17.722H23.407zm29.058.14h52.456v17.444H52.465zM23.407 276.67h8.205v17.723h-8.205zm9.19.14h16.59v17.445h-16.59zm19.852-.04H69.12v17.802H52.449zm18.674.141h33.71v17.52h-33.71zm43.583-.083h16.672v17.802h-16.672zm18.674.14h33.71v17.52h-33.71zm39.96-.213h33.627v17.67H173.34zm37.665.14h67.99v17.39h-67.99zm-96.283-32.666h52.323v17.558h-52.323zm58.608.138h105.797v17.282H173.33z"/></svg>