<svg xmlns="http://www.w3.org/2000/svg" viewBox="0 0 637.04 203.66"><defs><style>.cls-1,.cls-2,.cls-20,.cls-22,.cls-23{fill:#fff;}.cls-1,.cls-11,.cls-9{stroke:#2e3192;}.cls-1,.cls-10,.cls-11,.cls-13,.cls-15,.cls-16,.cls-17,.cls-2,.cls-20,.cls-21,.cls-22,.cls-23,.cls-31,.cls-9{stroke-miterlimit:10;}.cls-10,.cls-13,.cls-2{stroke:#f7941d;}.cls-3{font-size:13px;}.cls-19,.cls-26,.cls-27,.cls-3,.cls-36,.cls-8{fill:#231f20;}.cls-26,.cls-27,.cls-3,.cls-8{font-family:CMUSerif-Roman, CMU Serif;}.cls-4{letter-spacing:-0.03em;}.cls-5{fill:#00aeef;}.cls-18,.cls-32,.cls-34,.cls-35,.cls-36,.cls-38,.cls-41,.cls-5{font-family:CMUSerif-Bold, CMU Serif;}.cls-18,.cls-24,.cls-25,.cls-32,.cls-34,.cls-35,.cls-36,.cls-38,.cls-41,.cls-5{font-weight:700;}.cls-6,.cls-7{text-decoration:underline;}.cls-33,.cls-6{letter-spacing:-0.03em;}.cls-8{font-weight:400;}.cls-10,.cls-11,.cls-13,.cls-15,.cls-16,.cls-17,.cls-21,.cls-31,.cls-9{fill:none;}.cls-11,.cls-13,.cls-31{stroke-width:4px;}.cls-12,.cls-25,.cls-32{fill:#2e3192;}.cls-14,.cls-24,.cls-34{fill:#f7941d;}.cls-15,.cls-16,.cls-17{stroke:#009444;stroke-width:2px;}.cls-16{stroke-dasharray:4.08 4.08;}.cls-17{stroke-dasharray:4.01 4.01;}.cls-18,.cls-27{font-size:12px;}.cls-18,.cls-35{fill:#009444;}.cls-20,.cls-21,.cls-31{stroke:#231f20;}.cls-20{stroke-width:0.5px;}.cls-22,.cls-23{stroke:#bcbec0;}.cls-22{stroke-width:0.25px;}.cls-23{stroke-width:0.1px;}.cls-24,.cls-25{font-size:20px;font-family:OpenSans-Bold, Open Sans;}.cls-26,.cls-32,.cls-34,.cls-36{font-size:14px;}.cls-28{letter-spacing:0.03em;}.cls-29{fill:#3f4347;}.cls-30{fill:#94989b;}.cls-35{font-size:17px;}.cls-37{letter-spacing:-0.13em;}.cls-38,.cls-41{font-size:16px;}.cls-38{fill:#39b54a;}.cls-39{letter-spacing:-0.1em;}.cls-40{letter-spacing:0.03em;}.cls-41{fill:#ed1c24;}</style></defs><g id="Layer_2" data-name="Layer 2"><g id="Layer_1-2" data-name="Layer 1"><rect class="cls-1" x="383.65" y="37.6" width="11.95" height="11.95" transform="translate(779.25 87.14) rotate(-180)"/><rect class="cls-1" x="371.7" y="37.6" width="11.95" height="11.95" transform="translate(755.35 87.14) rotate(-180)"/><rect class="cls-1" x="359.76" y="37.6" width="11.95" height="11.95" transform="translate(731.46 87.14) rotate(-180)"/><rect class="cls-1" x="347.81" y="37.6" width="11.95" height="11.95" transform="translate(707.56 87.14) rotate(-180)"/><rect class="cls-1" x="335.86" y="37.6" width="11.95" height="11.95" transform="translate(683.67 87.14) rotate(-180)"/><rect class="cls-1" x="323.91" y="37.6" width="11.95" height="11.95" transform="translate(659.77 87.14) rotate(-180)"/><rect class="cls-2" x="383.65" y="163.83" width="11.95" height="11.95" transform="translate(779.25 339.61) rotate(-180)"/><rect class="cls-2" x="371.7" y="163.83" width="11.95" height="11.95" transform="translate(755.35 339.61) rotate(-180)"/><rect class="cls-2" x="359.76" y="163.83" width="11.95" height="11.95" transform="translate(731.46 339.61) rotate(-180)"/><rect class="cls-2" x="347.81" y="163.83" width="11.95" height="11.95" transform="translate(707.56 339.61) rotate(-180)"/><rect class="cls-2" x="335.86" y="163.83" width="11.95" height="11.95" transform="translate(683.67 339.61) rotate(-180)"/><rect class="cls-2" x="323.91" y="163.83" width="11.95" height="11.95" transform="translate(659.77 339.61) rotate(-180)"/><text class="cls-3" transform="translate(5.76 39.49)">Do <tspan class="cls-4" x="20.74" y="0">y</tspan><tspan x="27.23" y="0">ourself a big </tspan><tspan x="0" y="15.6">f</tspan><tspan class="cls-4" x="3.96" y="15.6">av</tspan><tspan x="16.59" y="15.6">or and DO NOT </tspan><tspan class="cls-5"><tspan class="cls-6" x="0" y="31.2">w</tspan><tspan class="cls-7" x="10.37" y="31.2">at</tspan><tspan class="cls-6" x="23.44" y="31.2">c</tspan><tspan class="cls-7" x="29.66" y="31.2">h</tspan><tspan x="37.95" y="31.2"> </tspan><tspan class="cls-8" x="42.92" y="31.2">this </tspan><tspan class="cls-7" x="68.21" y="31.2">m</tspan><tspan class="cls-6" x="80.66" y="31.2">o</tspan><tspan class="cls-7" x="87.71" y="31.2">vie</tspan><tspan class="cls-8" x="106.58" y="31.2">.</tspan></tspan></text><rect class="cls-9" x="1.78" y="25.06" width="120.74" height="50.24"/><text class="cls-3" transform="translate(5.76 151.45)">Do <tspan class="cls-4" x="20.74" y="0">y</tspan><tspan x="27.23" y="0">ourself a big </tspan><tspan x="0" y="15.6">f</tspan><tspan class="cls-4" x="3.96" y="15.6">av</tspan><tspan x="16.59" y="15.6">or and DO NOT </tspan><tspan class="cls-5"><tspan class="cls-7" x="0" y="31.2">see</tspan><tspan x="19.58" y="31.2"> </tspan><tspan class="cls-8" x="24.56" y="31.2">this </tspan><tspan class="cls-7" x="49.85" y="31.2">film</tspan><tspan class="cls-8" x="75.14" y="31.2">.</tspan></tspan></text><rect class="cls-10" x="1.78" y="137.02" width="124.27" height="49.35"/><line class="cls-11" x1="130.38" y1="44.49" x2="154.71" y2="44.49"/><path class="cls-12" d="M160.75,44.49a30,30,0,0,0-8.55,4.76l1.72-4.76-1.72-4.75A30.18,30.18,0,0,0,160.75,44.49Z"/><line class="cls-13" x1="130.38" y1="169.81" x2="154.71" y2="169.81"/><path class="cls-14" d="M160.75,169.81a30.18,30.18,0,0,0-8.55,4.75l1.72-4.75-1.72-4.76A30.45,30.45,0,0,0,160.75,169.81Z"/><polyline class="cls-15" points="277.51 196.4 277.51 198.4 275.51 198.4"/><line class="cls-16" x1="271.43" y1="198.4" x2="175.49" y2="198.4"/><polyline class="cls-15" points="173.45 198.4 171.45 198.4 171.45 196.4"/><line class="cls-17" x1="171.45" y1="192.38" x2="171.45" y2="9.72"/><polyline class="cls-15" points="171.45 7.71 171.45 5.71 173.45 5.71"/><line class="cls-16" x1="177.53" y1="5.72" x2="273.47" y2="5.72"/><polyline class="cls-15" points="275.51 5.71 277.51 5.71 277.51 7.71"/><line class="cls-17" x1="277.51" y1="11.73" x2="277.51" y2="194.39"/><text class="cls-18" transform="translate(176.38 18.38)">SPE</text><path class="cls-19" d="M223.24,112.24a1.59,1.59,0,0,1-1.7-1.61,1.7,1.7,0,0,1,3.4,0A1.59,1.59,0,0,1,223.24,112.24Z"/><path class="cls-19" d="M223.24,106.66a1.59,1.59,0,0,1-1.7-1.62,1.7,1.7,0,0,1,3.4,0A1.59,1.59,0,0,1,223.24,106.66Z"/><path class="cls-19" d="M223.24,101.08a1.59,1.59,0,0,1-1.7-1.62,1.7,1.7,0,0,1,3.4,0A1.59,1.59,0,0,1,223.24,101.08Z"/><rect class="cls-20" x="253.35" y="122.86" width="11.95" height="11.95" transform="translate(388.16 -130.48) rotate(90)"/><rect class="cls-20" x="253.35" y="134.81" width="11.95" height="11.95" transform="translate(400.11 -118.54) rotate(90)"/><rect class="cls-20" x="253.35" y="146.76" width="11.95" height="11.95" transform="translate(412.06 -106.59) rotate(90)"/><rect class="cls-20" x="253.35" y="158.71" width="11.95" height="11.95" transform="translate(424 -94.64) rotate(90)"/><rect class="cls-20" x="253.35" y="170.66" width="11.95" height="11.95" transform="translate(435.95 -82.69) rotate(90)"/><rect class="cls-20" x="253.35" y="182.6" width="11.95" height="11.95" transform="translate(447.9 -70.74) rotate(90)"/><text class="cls-3" transform="translate(181.58 162.37)">Classifier N</text><polygon class="cls-21" points="248.87 188.64 180.21 173.44 180.21 142.28 248.87 127.08 248.87 188.64"/><rect class="cls-20" x="253.74" y="15.57" width="11.95" height="11.95" transform="translate(281.26 -238.18) rotate(90)"/><rect class="cls-20" x="253.74" y="27.51" width="11.95" height="11.95" transform="translate(293.2 -226.23) rotate(90)"/><rect class="cls-20" x="253.74" y="39.46" width="11.95" height="11.95" transform="translate(305.15 -214.28) rotate(90)"/><rect class="cls-20" x="253.74" y="51.41" width="11.95" height="11.95" transform="translate(317.1 -202.33) rotate(90)"/><rect class="cls-20" x="253.74" y="63.36" width="11.95" height="11.95" transform="translate(329.05 -190.39) rotate(90)"/><rect class="cls-20" x="253.74" y="75.3" width="11.95" height="11.95" transform="translate(341 -178.44) rotate(90)"/><text class="cls-3" transform="translate(183.14 54.65)">Classifier 1</text><polygon class="cls-21" points="248.87 80.92 180.21 65.72 180.21 34.57 248.87 19.37 248.87 80.92"/><line class="cls-11" x1="284.35" y1="44.49" x2="308.68" y2="44.49"/><path class="cls-12" d="M314.72,44.49a30,30,0,0,0-8.55,4.76l1.72-4.76-1.72-4.75A30.18,30.18,0,0,0,314.72,44.49Z"/><line class="cls-13" x1="284.35" y1="169.81" x2="308.68" y2="169.81"/><path class="cls-14" d="M314.72,169.81a30.18,30.18,0,0,0-8.55,4.75l1.72-4.75-1.72-4.76A30.45,30.45,0,0,0,314.72,169.81Z"/><line class="cls-22" x1="328.66" y1="106.93" x2="409.93" y2="106.93"/><line class="cls-22" x1="369.29" y1="66.29" x2="369.29" y2="147.57"/><line class="cls-23" x1="348.06" y1="66.33" x2="348.06" y2="147.6"/><line class="cls-23" x1="390.53" y1="66.4" x2="390.53" y2="147.67"/><rect class="cls-21" x="328.66" y="66.29" width="81.27" height="81.27"/><line class="cls-23" x1="409.97" y1="86.74" x2="328.69" y2="86.74"/><line class="cls-23" x1="409.89" y1="129.21" x2="328.62" y2="129.21"/><text class="cls-24" transform="translate(346.75 133.31)">x</text><text class="cls-25" transform="translate(353.66 140.04)">x</text><rect class="cls-21" x="544.31" y="76.02" width="92.22" height="50.07"/><text class="cls-26" transform="translate(559.76 96.92)">Se<tspan class="cls-4" x="13.98" y="0">n</tspan><tspan x="21.36" y="0">time</tspan><tspan class="cls-4" x="48.53" y="0">n</tspan><tspan x="55.9" y="0">t</tspan><tspan x="4.96" y="16.8">Analysis</tspan></text><text class="cls-27" transform="translate(331.89 77.44)">Similari<tspan class="cls-4" x="40.62" y="0">t</tspan><tspan x="44.94" y="0">y in </tspan><tspan x="0" y="14.4">e</tspan><tspan class="cls-4" x="5.33" y="14.4">m</tspan><tspan class="cls-28" x="14.98" y="14.4">b</tspan><tspan x="21.97" y="14.4">edding </tspan><tspan x="0" y="28.8">space</tspan></text><text class="cls-3" transform="translate(0 92.54)"><tspan class="cls-4">A</tspan><tspan x="9.39" y="0">tta</tspan><tspan class="cls-4" x="25.97" y="0">c</tspan><tspan x="31.38" y="0">k algorithm</tspan></text><path class="cls-29" d="M108.15,86.81a.8.8,0,0,1,.54,1.14l-1.53,3.7a.8.8,0,0,1-1.19.41L102.69,90a1.2,1.2,0,0,1-.42-1.43l.77-1.85a1.2,1.2,0,0,1,1.31-.72Z"/><path class="cls-29" d="M106,94.81a.8.8,0,0,1,1.19.42l1.53,3.7a.79.79,0,0,1-.54,1.13l-3.8.85a1.21,1.21,0,0,1-1.31-.72l-.77-1.85a1.22,1.22,0,0,1,.42-1.44Z"/><path class="cls-29" d="M110.09,102a.79.79,0,0,1,1.13-.55l3.71,1.53a.8.8,0,0,1,.41,1.19l-2.09,3.28a1.22,1.22,0,0,1-1.44.42l-1.85-.77a1.2,1.2,0,0,1-.71-1.31Z"/><path class="cls-29" d="M118.09,104.18a.8.8,0,0,1,.41-1.19l3.71-1.53a.79.79,0,0,1,1.13.55l.84,3.79a1.21,1.21,0,0,1-.72,1.32l-1.85.76a1.2,1.2,0,0,1-1.43-.42Z"/><path class="cls-29" d="M125.28,100.06a.78.78,0,0,1-.54-1.13l1.53-3.7a.8.8,0,0,1,1.19-.42l3.28,2.09a1.22,1.22,0,0,1,.42,1.44l-.77,1.85a1.19,1.19,0,0,1-1.31.71Z"/><path class="cls-29" d="M127.46,92.06a.79.79,0,0,1-1.19-.41L124.74,88a.8.8,0,0,1,.54-1.14l3.8-.84a1.21,1.21,0,0,1,1.31.72l.77,1.85a1.2,1.2,0,0,1-.42,1.43Z"/><path class="cls-29" d="M123.34,84.87a.8.8,0,0,1-1.13.55l-3.71-1.54a.79.79,0,0,1-.41-1.18l2.09-3.29a1.21,1.21,0,0,1,1.43-.42l1.86.77a1.2,1.2,0,0,1,.71,1.31Z"/><path class="cls-29" d="M115.34,82.7a.79.79,0,0,1-.41,1.18l-3.71,1.54a.79.79,0,0,1-1.13-.55l-.84-3.8a1.2,1.2,0,0,1,.71-1.31l1.86-.77a1.21,1.21,0,0,1,1.43.42Z"/><path class="cls-29" d="M116.71,101.16a7.72,7.72,0,1,1,7.72-7.72A7.72,7.72,0,0,1,116.71,101.16Zm0-20A12.26,12.26,0,1,0,129,93.44,12.26,12.26,0,0,0,116.71,81.18Z"/><path class="cls-30" d="M116.71,97.07a3.64,3.64,0,1,1,3.64-3.63A3.64,3.64,0,0,1,116.71,97.07Zm0-13.17a9.54,9.54,0,1,0,9.54,9.54A9.54,9.54,0,0,0,116.71,83.9Z"/><path class="cls-29" d="M116.71,97.07a3.64,3.64,0,1,1,3.64-3.63A3.64,3.64,0,0,1,116.71,97.07Zm0-10.9A7.27,7.27,0,1,0,124,93.44,7.26,7.26,0,0,0,116.71,86.17Z"/><line class="cls-31" x1="116.73" y1="110.2" x2="116.73" y2="117.66"/><path class="cls-19" d="M116.73,123.69a30.15,30.15,0,0,0-4.76-8.54l4.76,1.72,4.75-1.72A30.12,30.12,0,0,0,116.73,123.69Z"/><polyline class="cls-9" points="564.53 21.98 564.53 0.5 47.63 0.5 47.63 9.22"/><path class="cls-12" d="M564.53,28a30.59,30.59,0,0,1,4.76-8.55l-4.76,1.72-4.75-1.72A30.31,30.31,0,0,1,564.53,28Z"/><polyline class="cls-10" points="564.53 182.66 564.53 203.16 47.63 203.16 47.63 192.26"/><path class="cls-14" d="M564.53,176.63a30.31,30.31,0,0,1-4.75,8.55l4.75-1.72,4.76,1.72A30.59,30.59,0,0,1,564.53,176.63Z"/><text class="cls-32" transform="translate(1.92 21.38)">Original se<tspan class="cls-33" x="75.95" y="0">n</tspan><tspan x="84.43" y="0">tence</tspan></text><text class="cls-34" transform="translate(1.92 133.05)">Candidate se<tspan class="cls-33" x="91.21" y="0">n</tspan><tspan x="99.68" y="0">tence</tspan></text><text class="cls-35" transform="translate(438.76 111.04)">Success !</text><line class="cls-31" x1="414.61" y1="105.14" x2="429.46" y2="105.14"/><path class="cls-19" d="M435.5,105.14a30.18,30.18,0,0,0-8.55,4.75l1.72-4.75L427,100.38A30,30,0,0,0,435.5,105.14Z"/><line class="cls-31" x1="538.84" y1="105.14" x2="523.99" y2="105.14"/><path class="cls-19" d="M518,105.14a30.15,30.15,0,0,0,8.54-4.76l-1.72,4.76,1.72,4.75A30.12,30.12,0,0,0,518,105.14Z"/><text class="cls-36" transform="translate(284.35 28.01)"><tspan class="cls-37">A</tspan><tspan class="cls-33" x="10.37" y="0">v</tspan><tspan x="18.4" y="0">erage</tspan></text><text class="cls-38" transform="translate(518.79 144.73)"><tspan class="cls-39">F</tspan><tspan class="cls-40" x="10.02" y="0">o</tspan><tspan x="19.73" y="0">oled:</tspan><tspan x="0" y="14">Predicted </tspan><tspan class="cls-33" x="0" y="28">P</tspan><tspan x="12.05" y="28">ositi</tspan><tspan class="cls-33" x="45.84" y="28">v</tspan><tspan x="55.02" y="28">e: 82%</tspan></text><text class="cls-41" transform="translate(518.79 54.08)">Predicted <tspan x="0" y="14">Negati</tspan><tspan class="cls-33" x="53.21" y="14">v</tspan><tspan x="62.39" y="14">e: 93%</tspan></text></g></g></svg>