<svg xmlns="http://www.w3.org/2000/svg" viewBox="0 0 202.79 182.19"><defs><style>.cls-1{fill:#d6db8d}.cls-1,.cls-2,.cls-3,.cls-5{stroke:#000;stroke-miterlimit:10;stroke-width:2px}.cls-2{fill:#fff}.cls-3{fill:#7585d4}.cls-6{font-size:10.49px;font-family:Helvetica-Light,Helvetica;font-weight:300}</style></defs><g id="Layer_2" data-name="Layer 2"><g id="Layer_1-2" data-name="Layer 1"><rect class="cls-1" x="1" y="85.74" width="144.08" height="30" rx="15"/><circle class="cls-2" cx="21.23" cy="100.73" r="12.04"/><circle class="cls-2" cx="55.81" cy="100.73" r="12.04"/><circle class="cls-2" cx="90.4" cy="100.73" r="12.04"/><circle class="cls-2" cx="124.98" cy="100.73" r="12.04"/><rect class="cls-1" x="1" y="18.8" width="144.08" height="30" rx="15"/><circle class="cls-2" cx="21.23" cy="33.8" r="12.04"/><circle class="cls-2" cx="55.81" cy="33.8" r="12.04"/><circle class="cls-2" cx="90.4" cy="33.8" r="12.04"/><circle class="cls-2" cx="124.98" cy="33.8" r="12.04"/><rect class="cls-1" x="1" y="151.19" width="144.08" height="30" rx="15"/><circle class="cls-2" cx="21.23" cy="166.19" r="12.04"/><circle class="cls-2" cx="55.81" cy="166.19" r="12.04"/><circle class="cls-2" cx="90.4" cy="166.19" r="12.04"/><circle class="cls-2" cx="124.98" cy="166.19" r="12.04"/><rect class="cls-3" x="1" y="133.12" width="144.08" height="12.09" rx="6.04"/><rect x="1" y="67.93" width="144.08" height="12.09" rx="6.04" fill="#db8774" stroke="#000" stroke-miterlimit="10" stroke-width="2"/><rect class="cls-3" x="1" y="1" width="144.08" height="12.09" rx="6.04"/><path class="cls-5" d="M68.13 124.79h9.82v3.44h-9.82zM73.04 119.75l-6.85 5.04h13.7l-6.85-5.04zM69.15 57.79h9.82v3.44h-9.82zM74.06 52.75l-6.85 5.04h13.7l-6.85-5.04z"/><text class="cls-6" transform="translate(156.5 141.77)">tanh(x)</text><text class="cls-6" transform="translate(156.5 9.43)">tanh(x)</text><text class="cls-6" transform="translate(154.3 76.47)">ReLU(x)</text></g></g></svg>