<svg xmlns="http://www.w3.org/2000/svg" viewBox="0 0 551.92 202.3"><defs><style>.cls-1,.cls-14,.cls-5{fill:#fff}.cls-1,.cls-2{stroke:#231f20;stroke-miterlimit:10}.cls-2{fill:#20376c;stroke:#fff}.cls-14,.cls-4,.cls-5{font-size:10.86px}.cls-10,.cls-15,.cls-4,.cls-6{fill:#231f20}.cls-4{font-family:MyriadPro-Regular,Myriad Pro}.cls-5,.cls-9{font-family:LMMonoPropLt10-Regular,Latin Modern Mono Prop Light}.cls-10,.cls-6{font-size:7.24px}.cls-10,.cls-14,.cls-15,.cls-6{font-family:HelveticaNeue,Helvetica Neue}.cls-7{letter-spacing:-.02em}.cls-10,.cls-8{letter-spacing:0}.cls-15{font-size:9.05px}</style></defs><g id="Layer_2" data-name="Layer 2"><g id="Layer_1-2" data-name="Layer 1"><path class="cls-1" d="M146.92 61.26h90.42v18.27h-90.42z"/><path class="cls-2" d="M242.23 118.49h23.9v60.1h-23.9zM266.13 118.49h23.9v60.1h-23.9zM290.04 118.49h23.9v60.1h-23.9zM313.94 118.49h23.9v60.1h-23.9zM337.84 118.49h23.9v60.1h-23.9z"/><path fill="#2b3990" opacity=".3" stroke-miterlimit="10" stroke="#231f20" d="M311.93 91.58h-19.88l-7.26 20.7v70.45h34.4v-70.45l-7.26-20.7z"/><text class="cls-4" transform="translate(108.88 153.7)">...</text><text class="cls-4" transform="translate(516.14 153.7)">...</text><text class="cls-5" transform="translate(297.5 155.33)">A</text><text class="cls-5" transform="translate(321.78 155.33)">R</text><path class="cls-2" d="M270.54 62.73h65v28.85h-65z"/><path class="cls-1" d="M10.58 11.97h45.31v41.29H10.58zM55.99 11.97h45.31v41.29H55.99zM101.41 11.97h45.31v41.29h-45.31zM146.82 11.97h45.31v41.29h-45.31zM192.24 11.97h45.31v41.29h-45.31zM237.65 11.97h45.31v41.29h-45.31z"/><text class="cls-5" transform="translate(345.68 155.33)">R</text><text class="cls-5" transform="translate(273.97 155.33)">V</text><text class="cls-5" transform="translate(250.07 155.33)">C</text><path class="cls-2" d="M146.62 118.49h23.9v60.1h-23.9z"/><text class="cls-5" transform="translate(154.45 155.33)">C</text><path class="cls-2" d="M170.52 118.49h23.9v60.1h-23.9z"/><text class="cls-5" transform="translate(178.36 155.33)">C</text><path class="cls-2" d="M194.43 118.49h23.9v60.1h-23.9z"/><text class="cls-5" transform="translate(202.26 155.33)">C</text><path class="cls-2" d="M218.33 118.49h23.9v60.1h-23.9z"/><text class="cls-5" transform="translate(226.16 155.33)">C</text><path class="cls-2" d="M122.72 118.49h23.9v60.1h-23.9z"/><text class="cls-5" transform="translate(130.55 155.33)">C</text><path class="cls-2" d="M481.26 118.49h23.9v60.1h-23.9z"/><text class="cls-5" transform="translate(489.1 155.33)">C</text><path class="cls-2" d="M385.65 118.49h23.9v60.1h-23.9z"/><text class="cls-5" transform="translate(393.48 155.33)">C</text><path class="cls-2" d="M409.55 118.49h23.9v60.1h-23.9z"/><text class="cls-5" transform="translate(417.39 155.33)">C</text><path class="cls-2" d="M433.45 118.49h23.9v60.1h-23.9z"/><text class="cls-5" transform="translate(441.29 155.33)">C</text><path class="cls-2" d="M457.36 118.49h23.9v60.1h-23.9z"/><text class="cls-5" transform="translate(465.19 155.33)">C</text><path class="cls-2" d="M361.75 118.49h23.9v60.1h-23.9z"/><text class="cls-5" transform="translate(369.58 155.33)">C</text><text class="cls-6" transform="translate(111.93 26.97)"><tspan class="cls-7">W</tspan><tspan class="cls-8" x="6.57" y="0">rite </tspan><tspan class="cls-9" x="18.77" y="0">V</tspan><tspan x="-8.72" y="8.69">Move RIGHT</tspan><tspan x="-1.92" y="17.38">State S</tspan></text><text class="cls-10" transform="matrix(.58 0 0 .58 133.75 46.76)">3</text><text transform="translate(136.09 44.35)" letter-spacing="0" font-family="HelveticaNeue,Helvetica Neue" font-size="7.24" fill="#231f20"></text><path stroke-width="3" fill="none" stroke-miterlimit="10" stroke="#231f20" d="M263.87 79.52H113.98V67.91"/><path fill="#231f20" d="M121.46 70.09l-7.48-12.95-7.48 12.95h14.96z"/><text class="cls-14" transform="translate(296.71 79.52)">S</text><text class="cls-14" transform="matrix(.58 0 0 .58 303.75 83.14)">4</text><text class="cls-6" transform="translate(156.44 26.97)"><tspan class="cls-7" x="2.01" y="0">W</tspan><tspan x="8.59" y="0">rite </tspan><tspan class="cls-9" x="20.79" y="0">C</tspan><tspan x="-7.71" y="8.69">Move RIGHT</tspan><tspan x=".1" y="17.38">State S</tspan></text><text class="cls-10" transform="matrix(.58 0 0 .58 180.27 46.76)">4</text><text class="cls-6" transform="translate(66.2 26.97)"><tspan class="cls-7">W</tspan><tspan class="cls-8" x="6.57" y="0">rite </tspan><tspan class="cls-9" x="18.77" y="0">Q</tspan><tspan x="-6.03" y="8.69">Move LEFT</tspan><tspan x="-1.28" y="17.38">State S</tspan></text><text class="cls-10" transform="matrix(.58 0 0 .58 88.65 46.76)">2</text><text class="cls-15" transform="translate(155.24 72.99)">State S</text><text class="cls-15" transform="matrix(.58 0 0 .58 184.91 76)">4</text><text class="cls-15" transform="translate(187.84 72.99)"><tspan>+ Read </tspan><tspan class="cls-9" x="34.27" y="0">A</tspan></text><text class="cls-6" transform="translate(20.9 32.61)"><tspan class="cls-7">W</tspan><tspan class="cls-8" x="6.57" y="0">rite </tspan><tspan class="cls-9" x="18.77" y="0">A</tspan><tspan x="-.91" y="8.69">State S</tspan></text><text class="cls-10" transform="matrix(.58 0 0 .58 43.72 43.71)">3</text><text class="cls-6" transform="translate(202.96 26.97)"><tspan class="cls-7">W</tspan><tspan class="cls-8" x="6.57" y="0">rite </tspan><tspan class="cls-9" x="18.77" y="0">R</tspan><tspan x="-6.24" y="8.69">Move LEFT</tspan><tspan x="-.91" y="17.38">State S</tspan></text><text class="cls-10" transform="matrix(.58 0 0 .58 225.78 46.76)">3</text><text class="cls-6" transform="translate(248.48 32.61)"><tspan letter-spacing="-.02em">W</tspan><tspan x="6.57" y="0">rite </tspan><tspan class="cls-9" x="18.77" y="0">C</tspan><tspan x="-4.77" y="8.69">End State</tspan></text><path fill="none" d="M0 0h551.92v202.3H0z"/></g></g></svg>